  0
SECTION
  2
HEADER
  9
$ACADVER
  1
AC1024
  9
$ACADMAINTVER
 70
     6
  9
$DWGCODEPAGE
  3
ANSI_1252
  9
$INSBASE
 10
0.0
 20
0.0
 30
0.0
  9
$EXTMIN
 10
1.000000000000000E+20
 20
1.000000000000000E+20
 30
1.000000000000000E+20
  9
$EXTMAX
 10
-1.000000000000000E+20
 20
-1.000000000000000E+20
 30
-1.000000000000000E+20
  9
$LIMMIN
 10
0.0
 20
0.0
  9
$LIMMAX
 10
12.0
 20
9.0
  9
$ORTHOMODE
 70
     0
  9
$REGENMODE
 70
     1
  9
$FILLMODE
 70
     1
  9
$QTEXTMODE
 70
     0
  9
$MIRRTEXT
 70
     1
  9
$LTSCALE
 40
1.0
  9
$ATTMODE
 70
     1
  9
$TEXTSIZE
 40
0.2
  9
$TRACEWID
 40
0.05
  9
$TEXTSTYLE
  7
Standard
  9
$CLAYER
  8
0
  9
$CELTYPE
  6
ByLayer
  9
$CECOLOR
 62
   256
  9
$CELTSCALE
 40
1.0
  9
$DISPSILH
 70
     0
  9
$DIMSCALE
 40
1.0
  9
$DIMASZ
 40
0.18
  9
$DIMEXO
 40
0.0625
  9
$DIMDLI
 40
0.38
  9
$DIMRND
 40
0.0
  9
$DIMDLE
 40
0.0
  9
$DIMEXE
 40
0.18
  9
$DIMTP
 40
0.0
  9
$DIMTM
 40
0.0
  9
$DIMTXT
 40
0.18
  9
$DIMCEN
 40
0.09
  9
$DIMTSZ
 40
0.0
  9
$DIMTOL
 70
     0
  9
$DIMLIM
 70
     0
  9
$DIMTIH
 70
     1
  9
$DIMTOH
 70
     1
  9
$DIMSE1
 70
     0
  9
$DIMSE2
 70
     0
  9
$DIMTAD
 70
     0
  9
$DIMZIN
 70
     0
  9
$DIMBLK
  1

  9
$DIMASO
 70
     1
  9
$DIMSHO
 70
     1
  9
$DIMPOST
  1

  9
$DIMAPOST
  1

  9
$DIMALT
 70
     0
  9
$DIMALTD
 70
     2
  9
$DIMALTF
 40
25.4
  9
$DIMLFAC
 40
1.0
  9
$DIMTOFL
 70
     0
  9
$DIMTVP
 40
0.0
  9
$DIMTIX
 70
     0
  9
$DIMSOXD
 70
     0
  9
$DIMSAH
 70
     0
  9
$DIMBLK1
  1

  9
$DIMBLK2
  1

  9
$DIMSTYLE
  2
Standard
  9
$DIMCLRD
 70
     0
  9
$DIMCLRE
 70
     0
  9
$DIMCLRT
 70
     0
  9
$DIMTFAC
 40
1.0
  9
$DIMGAP
 40
0.09
  9
$DIMJUST
 70
     0
  9
$DIMSD1
 70
     0
  9
$DIMSD2
 70
     0
  9
$DIMTOLJ
 70
     1
  9
$DIMTZIN
 70
     0
  9
$DIMALTZ
 70
     0
  9
$DIMALTTZ
 70
     0
  9
$DIMUPT
 70
     0
  9
$DIMDEC
 70
     4
  9
$DIMTDEC
 70
     4
  9
$DIMALTU
 70
     2
  9
$DIMALTTD
 70
     2
  9
$DIMTXSTY
  7
Standard
  9
$DIMAUNIT
 70
     0
  9
$DIMADEC
 70
     0
  9
$DIMALTRND
 40
0.0
  9
$DIMAZIN
 70
     0
  9
$DIMDSEP
 70
    46
  9
$DIMATFIT
 70
     3
  9
$DIMFRAC
 70
     0
  9
$DIMLDRBLK
  1

  9
$DIMLUNIT
 70
     2
  9
$DIMLWD
 70
    -2
  9
$DIMLWE
 70
    -2
  9
$DIMTMOVE
 70
     0
  9
$DIMFXL
 40
1.0
  9
$DIMFXLON
 70
     0
  9
$DIMJOGANG
 40
0.7853981633974483
  9
$DIMTFILL
 70
     0
  9
$DIMTFILLCLR
 70
     0
  9
$DIMARCSYM
 70
     0
  9
$DIMLTYPE
  6

  9
$DIMLTEX1
  6

  9
$DIMLTEX2
  6

  9
$DIMTXTDIRECTION
 70
     0
  9
$LUNITS
 70
     2
  9
$LUPREC
 70
     4
  9
$SKETCHINC
 40
0.1
  9
$FILLETRAD
 40
0.5
  9
$AUNITS
 70
     0
  9
$AUPREC
 70
     0
  9
$MENU
  1
.
  9
$ELEVATION
 40
0.0
  9
$PELEVATION
 40
0.0
  9
$THICKNESS
 40
0.0
  9
$LIMCHECK
 70
     0
  9
$CHAMFERA
 40
0.5
  9
$CHAMFERB
 40
0.5
  9
$CHAMFERC
 40
1.0
  9
$CHAMFERD
 40
0.0
  9
$SKPOLY
 70
     0
  9
$TDCREATE
 40
2460540.308313796
  9
$TDUCREATE
 40
2460540.599980463
  9
$TDUPDATE
 40
2460540.30831382
  9
$TDUUPDATE
 40
2460540.599980486
  9
$TDINDWG
 40
0.0000000116
  9
$TDUSRTIMER
 40
0.0000000116
  9
$USRTIMER
 70
     1
  9
$ANGBASE
 50
0.0
  9
$ANGDIR
 70
     0
  9
$PDMODE
 70
     0
  9
$PDSIZE
 40
0.0
  9
$PLINEWID
 40
0.0
  9
$SPLFRAME
 70
     0
  9
$SPLINETYPE
 70
     6
  9
$SPLINESEGS
 70
     8
  9
$HANDSEED
  5
7A
  9
$SURFTAB1
 70
     6
  9
$SURFTAB2
 70
     6
  9
$SURFTYPE
 70
     6
  9
$SURFU
 70
     6
  9
$SURFV
 70
     6
  9
$UCSBASE
  2

  9
$UCSNAME
  2

  9
$UCSORG
 10
0.0
 20
0.0
 30
0.0
  9
$UCSXDIR
 10
1.0
 20
0.0
 30
0.0
  9
$UCSYDIR
 10
0.0
 20
1.0
 30
0.0
  9
$UCSORTHOREF
  2

  9
$UCSORTHOVIEW
 70
     0
  9
$UCSORGTOP
 10
0.0
 20
0.0
 30
0.0
  9
$UCSORGBOTTOM
 10
0.0
 20
0.0
 30
0.0
  9
$UCSORGLEFT
 10
0.0
 20
0.0
 30
0.0
  9
$UCSORGRIGHT
 10
0.0
 20
0.0
 30
0.0
  9
$UCSORGFRONT
 10
0.0
 20
0.0
 30
0.0
  9
$UCSORGBACK
 10
0.0
 20
0.0
 30
0.0
  9
$PUCSBASE
  2

  9
$PUCSNAME
  2

  9
$PUCSORG
 10
0.0
 20
0.0
 30
0.0
  9
$PUCSXDIR
 10
1.0
 20
0.0
 30
0.0
  9
$PUCSYDIR
 10
0.0
 20
1.0
 30
0.0
  9
$PUCSORTHOREF
  2

  9
$PUCSORTHOVIEW
 70
     0
  9
$PUCSORGTOP
 10
0.0
 20
0.0
 30
0.0
  9
$PUCSORGBOTTOM
 10
0.0
 20
0.0
 30
0.0
  9
$PUCSORGLEFT
 10
0.0
 20
0.0
 30
0.0
  9
$PUCSORGRIGHT
 10
0.0
 20
0.0
 30
0.0
  9
$PUCSORGFRONT
 10
0.0
 20
0.0
 30
0.0
  9
$PUCSORGBACK
 10
0.0
 20
0.0
 30
0.0
  9
$USERI1
 70
     0
  9
$USERI2
 70
     0
  9
$USERI3
 70
     0
  9
$USERI4
 70
     0
  9
$USERI5
 70
     0
  9
$USERR1
 40
0.0
  9
$USERR2
 40
0.0
  9
$USERR3
 40
0.0
  9
$USERR4
 40
0.0
  9
$USERR5
 40
0.0
  9
$WORLDVIEW
 70
     1
  9
$SHADEDGE
 70
     3
  9
$SHADEDIF
 70
    70
  9
$TILEMODE
 70
     1
  9
$MAXACTVP
 70
    64
  9
$PINSBASE
 10
0.0
 20
0.0
 30
0.0
  9
$PLIMCHECK
 70
     0
  9
$PEXTMIN
 10
1.000000000000000E+20
 20
1.000000000000000E+20
 30
1.000000000000000E+20
  9
$PEXTMAX
 10
-1.000000000000000E+20
 20
-1.000000000000000E+20
 30
-1.000000000000000E+20
  9
$PLIMMIN
 10
0.0
 20
0.0
  9
$PLIMMAX
 10
12.0
 20
9.0
  9
$UNITMODE
 70
     0
  9
$VISRETAIN
 70
     1
  9
$PLINEGEN
 70
     0
  9
$PSLTSCALE
 70
     1
  9
$TREEDEPTH
 70
  3020
  9
$CMLSTYLE
  2
Standard
  9
$CMLJUST
 70
     0
  9
$CMLSCALE
 40
1.0
  9
$PROXYGRAPHICS
 70
     1
  9
$MEASUREMENT
 70
     0
  9
$CELWEIGHT
370
    -1
  9
$ENDCAPS
280
     0
  9
$JOINSTYLE
280
     0
  9
$LWDISPLAY
290
     1
  9
$INSUNITS
 70
     1
  9
$HYPERLINKBASE
  1

  9
$STYLESHEET
  1

  9
$XEDIT
290
     1
  9
$CEPSNTYPE
380
     0
  9
$PSTYLEMODE
290
     1
  9
$FINGERPRINTGUID
  2
{CEB26B06-AE17-41FA-82F9-96BA1D1BAC78}
  9
$VERSIONGUID
  2
{FAEB1C32-E019-11D5-929B-00C0DF256EC4}
  9
$EXTNAMES
290
     1
  9
$PSVPSCALE
 40
0.0
  9
$OLESTARTUP
290
     0
  9
$SORTENTS
280
   127
  9
$INDEXCTL
280
     0
  9
$HIDETEXT
280
     1
  9
$XCLIPFRAME
280
     2
  9
$HALOGAP
280
     0
  9
$OBSCOLOR
 70
   257
  9
$OBSLTYPE
280
     0
  9
$INTERSECTIONDISPLAY
280
     0
  9
$INTERSECTIONCOLOR
 70
   257
  9
$DIMASSOC
280
     2
  9
$PROJECTNAME
  1

  9
$CAMERADISPLAY
290
     0
  9
$LENSLENGTH
 40
50.0
  9
$CAMERAHEIGHT
 40
0.0
  9
$STEPSPERSEC
 40
2.0
  9
$STEPSIZE
 40
6.0
  9
$3DDWFPREC
 40
2.0
  9
$PSOLWIDTH
 40
0.25
  9
$PSOLHEIGHT
 40
4.0
  9
$LOFTANG1
 40
1.570796326794897
  9
$LOFTANG2
 40
1.570796326794897
  9
$LOFTMAG1
 40
0.0
  9
$LOFTMAG2
 40
0.0
  9
$LOFTPARAM
 70
     7
  9
$LOFTNORMALS
280
     1
  9
$LATITUDE
 40
37.795
  9
$LONGITUDE
 40
-122.394
  9
$NORTHDIRECTION
 40
0.0
  9
$TIMEZONE
 70
 -8000
  9
$LIGHTGLYPHDISPLAY
280
     1
  9
$TILEMODELIGHTSYNCH
280
     1
  9
$CMATERIAL
347
3C
  9
$SOLIDHIST
280
     1
  9
$SHOWHIST
280
     1
  9
$DWFFRAME
280
     2
  9
$DGNFRAME
280
     2
  9
$REALWORLDSCALE
290
     1
  9
$INTERFERECOLOR
 62
   256
  9
$CSHADOW
280
     0
  9
$SHADOWPLANELOCATION
 40
0.0
  0
ENDSEC
  0
SECTION
  2
CLASSES
  0
CLASS
  1
ACDBDICTIONARYWDFLT
  2
AcDbDictionaryWithDefault
  3
ObjectDBX Classes
 90
        0
 91
        4
280
     0
281
     0
  0
CLASS
  1
VISUALSTYLE
  2
AcDbVisualStyle
  3
ObjectDBX Classes
 90
     4095
 91
        4
280
     0
281
     0
  0
CLASS
  1
MATERIAL
  2
AcDbMaterial
  3
ObjectDBX Classes
 90
     1153
 91
        4
280
     0
281
     0
  0
CLASS
  1
SUN
  2
AcDbSun
  3
SCENEOE
 90
     1024
 91
        4
280
     0
281
     0
  0
ENDSEC
  0
SECTION
  2
TABLES
  0
TABLE
  2
VPORT
  5
8
330
0
100
AcDbSymbolTable
 70
     1
  0
VPORT
  5
29
330
8
100
AcDbSymbolTableRecord
100
AcDbViewportTableRecord
  2
*Active
 70
     0
 10
0.0
 20
0.0
 11
1.0
 21
1.0
 12
0.0
 22
0.0
 13
0.0
 23
0.0
 14
0.5
 24
0.5
 15
0.5
 25
0.5
 16
0.0
 26
0.0
 36
1.0
 17
6.0
 27
-6.0
 37
0.0
 40
12.0
 41
1.0
 42
50.0
 43
0.0
 44
0.0
 50
0.0
 51
0.0
 71
     0
 72
   100
 73
     1
 74
     3
 75
     0
 76
     0
 77
     0
 78
     0
281
     0
 65
     1
110
0.0
120
0.0
130
0.0
111
1.0
121
0.0
131
0.0
112
0.0
122
1.0
132
0.0
 79
     0
146
0.0
 60
     3
 61
     5
292
     1
282
     1
141
0.0
142
0.0
 63
   250
361
3F
  0
ENDTAB
  0
TABLE
  2
LTYPE
  5
5
330
0
100
AcDbSymbolTable
 70
     1
  0
LTYPE
  5
14
330
5
100
AcDbSymbolTableRecord
100
AcDbLinetypeTableRecord
  2
ByBlock
 70
     0
  3

 72
    65
 73
     0
 40
0.0
  0
LTYPE
  5
15
330
5
100
AcDbSymbolTableRecord
100
AcDbLinetypeTableRecord
  2
ByLayer
 70
     0
  3

 72
    65
 73
     0
 40
0.0
  0
LTYPE
  5
16
330
5
100
AcDbSymbolTableRecord
100
AcDbLinetypeTableRecord
  2
Continuous
 70
     0
  3
Solid line
 72
    65
 73
     0
 40
0.0
  0
ENDTAB
  0
TABLE
  2
LAYER
  5
2
330
0
100
AcDbSymbolTable
 70
     2
  0
LAYER
  5
10
330
2
100
AcDbSymbolTableRecord
100
AcDbLayerTableRecord
  2
0
 70
     0
 62
     7
  6
Continuous
370
    -3
390
F
347
3E
  0
LAYER
  5
40
330
2
100
AcDbSymbolTableRecord
100
AcDbLayerTableRecord
  2
Layer 1
 70
     0
 62
     7
  6
Continuous
370
    -3
390
F
347
3E
  0
ENDTAB
  0
TABLE
  2
STYLE
  5
3
330
0
100
AcDbSymbolTable
 70
     1
  0
STYLE
  5
11
330
3
100
AcDbSymbolTableRecord
100
AcDbTextStyleTableRecord
  2
Standard
 70
     0
 40
0.0
 41
1.0
 50
0.0
 71
     0
 42
0.2
  3
txt
  4

  0
ENDTAB
  0
TABLE
  2
VIEW
  5
6
330
0
100
AcDbSymbolTable
 70
     0
  0
ENDTAB
  0
TABLE
  2
UCS
  5
7
330
0
100
AcDbSymbolTable
 70
     0
  0
ENDTAB
  0
TABLE
  2
APPID
  5
9
330
0
100
AcDbSymbolTable
 70
     1
  0
APPID
  5
12
330
9
100
AcDbSymbolTableRecord
100
AcDbRegAppTableRecord
  2
ACAD
 70
     0
  0
ENDTAB
  0
TABLE
  2
DIMSTYLE
  5
A
330
0
100
AcDbSymbolTable
 70
     1
100
AcDbDimStyleTable
  0
DIMSTYLE
105
27
330
A
100
AcDbSymbolTableRecord
100
AcDbDimStyleTableRecord
  2
Standard
 70
     0
178
     0
340
11
  0
ENDTAB
  0
TABLE
  2
BLOCK_RECORD
  5
1
330
0
100
AcDbSymbolTable
 70
     5
  0
BLOCK_RECORD
  5
1F
330
1
100
AcDbSymbolTableRecord
100
AcDbBlockTableRecord
  2
*Model_Space
340
22
 70
     0
280
     1
281
     0
  0
BLOCK_RECORD
  5
1B
330
1
100
AcDbSymbolTableRecord
100
AcDbBlockTableRecord
  2
*Paper_Space
340
1E
 70
     0
280
     1
281
     0
  0
BLOCK_RECORD
  5
23
330
1
100
AcDbSymbolTableRecord
100
AcDbBlockTableRecord
  2
*Paper_Space0
340
26
 70
     0
280
     1
281
     0
  0
BLOCK_RECORD
  5
41
330
1
100
AcDbSymbolTableRecord
100
AcDbBlockTableRecord
  2
block 2
340
0
102
{BLKREFS
331
42
102
}
 70
     0
280
     1
281
     0
  0
BLOCK_RECORD
  5
45
330
1
100
AcDbSymbolTableRecord
100
AcDbBlockTableRecord
  2
block 3
340
0
102
{BLKREFS
331
46
102
}
 70
     0
280
     1
281
     0
  0
BLOCK_RECORD
  5
67
330
1
100
AcDbSymbolTableRecord
100
AcDbBlockTableRecord
  2
block 4
340
0
102
{BLKREFS
331
68
102
}
 70
     0
280
     1
281
     0
  0
BLOCK_RECORD
  5
6B
330
1
100
AcDbSymbolTableRecord
100
AcDbBlockTableRecord
  2
block 5
340
0
102
{BLKREFS
331
6C
102
}
 70
     0
280
     1
281
     0
  0
ENDTAB
  0
ENDSEC
  0
SECTION
  2
BLOCKS
  0
BLOCK
  5
20
330
1F
100
AcDbEntity
  8
0
100
AcDbBlockBegin
  2
*Model_Space
 70
     0
 10
0.0
 20
0.0
 30
0.0
  3
*Model_Space
  1

  0
ENDBLK
  5
21
330
1F
100
AcDbEntity
  8
0
100
AcDbBlockEnd
  0
BLOCK
  5
1C
330
1B
100
AcDbEntity
 67
     1
  8
0
100
AcDbBlockBegin
  2
*Paper_Space
 70
     0
 10
0.0
 20
0.0
 30
0.0
  3
*Paper_Space
  1

  0
ENDBLK
  5
1D
330
1B
100
AcDbEntity
 67
     1
  8
0
100
AcDbBlockEnd
  0
BLOCK
  5
24
330
23
100
AcDbEntity
  8
0
100
AcDbBlockBegin
  2
*Paper_Space0
 70
     0
 10
0.0
 20
0.0
 30
0.0
  3
*Paper_Space0
  1

  0
ENDBLK
  5
25
330
23
100
AcDbEntity
  8
0
100
AcDbBlockEnd
  0
BLOCK
  5
43
330
41
100
AcDbEntity
  8
0
100
AcDbBlockBegin
  2
block 2
 70
     0
 10
0.0
 20
0.0
 30
0.0
  3
block 2
  1

  0
INSERT
  5
46
330
41
100
AcDbEntity
  8
Layer 1
100
AcDbBlockReference
  2
block 3
 10
0.0
 20
0.0
 30
0.0
  0
INSERT
  5
68
330
41
100
AcDbEntity
  8
Layer 1
100
AcDbBlockReference
  2
block 4
 10
0.0
 20
0.0
 30
0.0
  0
ENDBLK
  5
44
330
41
100
AcDbEntity
  8
0
100
AcDbBlockEnd
  0
BLOCK
  5
47
330
45
100
AcDbEntity
  8
0
100
AcDbBlockBegin
  2
block 3
 70
     0
 10
0.0
 20
0.0
 30
0.0
  3
block 3
  1

  0
SPLINE
  5
49
330
45
100
AcDbEntity
  8
Layer 1
370
     0
100
AcDbSpline
210
0.0
220
0.0
230
1.0
 70
    11
 71
     3
 72
    44
 73
    40
 74
     0
 42
0.0000000001
 43
0.0000000001
 12
1.0
 22
0.0
 32
0.0
 13
1.0
 23
0.0
 33
0.0
 40
0.0
 40
0.0
 40
0.0
 40
0.0
 40
1.0
 40
1.0
 40
1.0
 40
2.0
 40
2.0
 40
2.0
 40
3.0
 40
3.0
 40
3.0
 40
4.0
 40
4.0
 40
4.0
 40
5.0
 40
5.0
 40
5.0
 40
6.0
 40
6.0
 40
6.0
 40
7.0
 40
7.0
 40
7.0
 40
8.0
 40
8.0
 40
8.0
 40
9.0
 40
9.0
 40
9.0
 40
10.0
 40
10.0
 40
10.0
 40
11.0
 40
11.0
 40
11.0
 40
12.0
 40
12.0
 40
12.0
 40
13.0
 40
13.0
 40
13.0
 40
13.0
 10
6.848446493255071
 20
-8.043477010159727
 30
0.0
 10
6.707864439332726
 20
-7.976258505964601
 30
0.0
 10
6.591372471882853
 20
-7.839804565451787
 30
0.0
 10
6.527660036611046
 20
-7.673492489592692
 30
0.0
 10
6.400329415231883
 20
-7.892094001973772
 30
0.0
 10
6.185950265425086
 20
-8.110865162851143
 30
0.0
 10
5.950817449572569
 20
-8.15163735145855
 30
0.0
 10
5.792497702871742
 20
-8.178988459026439
 30
0.0
 10
5.640756547860367
 20
-8.122966755586175
 30
0.0
 10
5.51189909001467
 20
-7.989434539176121
 30
0.0
 10
5.436339534752025
 20
-7.911094633557796
 30
0.0
 10
5.376001219573001
 20
-7.818410005086839
 30
0.0
 10
5.333862418078827
 20
-7.71679055581146
 30
0.0
 10
5.269565637986312
 20
-7.851416062530966
 30
0.0
 10
5.153620315691342
 20
-8.028434843489018
 30
0.0
 10
4.985941626945507
 20
-8.037765510784741
 30
0.0
 10
4.776766209139244
 20
-8.049313389677788
 30
0.0
 10
4.622690031074803
 20
-7.837322278079076
 30
0.0
 10
4.518213653997287
 20
-7.610649502864261
 30
0.0
 10
4.518582403853972
 20
-7.74988143750372
 30
0.0
 10
4.522051951225901
 20
-7.889553986987695
 30
0.0
 10
4.528211134132713
 20
-8.029589395755414
 30
0.0
 10
4.556732109456182
 20
-8.67809080075646
 30
0.0
 10
4.619054369550213
 20
-9.32307435568863
 30
0.0
 10
4.920548022199934
 20
-9.915863901378037
 30
0.0
 10
5.072423482270905
 20
-10.21448295450738
 30
0.0
 10
5.284419306327865
 20
-10.44918222420271
 30
0.0
 10
5.616506237807849
 20
-10.55375638478841
 30
0.0
 10
6.308027673992152
 20
-10.77151436714626
 30
0.0
 10
6.905576802493973
 20
-10.41093826943577
 30
0.0
 10
7.187529068977861
 20
-9.61035759054534
 30
0.0
 10
7.380143730448682
 20
-9.063452072528484
 30
0.0
 10
7.420603718698279
 20
-8.496398439348619
 30
0.0
 10
7.448122118533395
 20
-7.940264750002572
 30
0.0
 10
7.403651828329783
 20
-7.974262779904115
 30
0.0
 10
7.356361131875499
 20
-8.004157436801759
 30
0.0
 10
7.306478583394664
 20
-8.029377335135045
 30
0.0
 10
7.151457557454933
 20
-8.10771724075337
 30
0.0
 10
6.993062411422569
 20
-8.112618197312763
 30
0.0
 10
6.848446493255071
 20
-8.043477010159727
 30
0.0
  0
HATCH
  5
4A
330
45
100
AcDbEntity
  8
Layer 1
 62
   253
420
 10338235
100
AcDbHatch
 10
0.0
 20
0.0
 30
0.0
210
0.0
220
0.0
230
1.0
  2
SOLID
 70
     1
 71
     0
 91
        1
 92
        1
 93
        1
 72
     4
 94
        3
 73
     0
 74
     1
 95
       44
 96
       40
 40
0.0
 40
0.0
 40
0.0
 40
0.0
 40
1.0
 40
1.0
 40
1.0
 40
2.0
 40
2.0
 40
2.0
 40
3.0
 40
3.0
 40
3.0
 40
4.0
 40
4.0
 40
4.0
 40
5.0
 40
5.0
 40
5.0
 40
6.0
 40
6.0
 40
6.0
 40
7.0
 40
7.0
 40
7.0
 40
8.0
 40
8.0
 40
8.0
 40
9.0
 40
9.0
 40
9.0
 40
10.0
 40
10.0
 40
10.0
 40
11.0
 40
11.0
 40
11.0
 40
12.0
 40
12.0
 40
12.0
 40
13.0
 40
13.0
 40
13.0
 40
13.0
 10
6.848446493255071
 20
-8.043477010159727
 10
6.707864439332726
 20
-7.976258505964601
 10
6.591372471882853
 20
-7.839804565451787
 10
6.527660036611046
 20
-7.673492489592692
 10
6.400329415231883
 20
-7.892094001973772
 10
6.185950265425086
 20
-8.110865162851143
 10
5.950817449572569
 20
-8.15163735145855
 10
5.792497702871742
 20
-8.178988459026439
 10
5.640756547860367
 20
-8.122966755586175
 10
5.51189909001467
 20
-7.989434539176121
 10
5.436339534752025
 20
-7.911094633557796
 10
5.376001219573001
 20
-7.818410005086839
 10
5.333862418078827
 20
-7.71679055581146
 10
5.269565637986312
 20
-7.851416062530966
 10
5.153620315691342
 20
-8.028434843489018
 10
4.985941626945507
 20
-8.037765510784741
 10
4.776766209139244
 20
-8.049313389677788
 10
4.622690031074803
 20
-7.837322278079076
 10
4.518213653997287
 20
-7.610649502864261
 10
4.518582403853972
 20
-7.74988143750372
 10
4.522051951225901
 20
-7.889553986987695
 10
4.528211134132713
 20
-8.029589395755414
 10
4.556732109456182
 20
-8.67809080075646
 10
4.619054369550213
 20
-9.32307435568863
 10
4.920548022199934
 20
-9.915863901378037
 10
5.072423482270905
 20
-10.21448295450738
 10
5.284419306327865
 20
-10.44918222420271
 10
5.616506237807849
 20
-10.55375638478841
 10
6.308027673992152
 20
-10.77151436714626
 10
6.905576802493973
 20
-10.41093826943577
 10
7.187529068977861
 20
-9.61035759054534
 10
7.380143730448682
 20
-9.063452072528484
 10
7.420603718698279
 20
-8.496398439348619
 10
7.448122118533395
 20
-7.940264750002572
 10
7.403651828329783
 20
-7.974262779904115
 10
7.356361131875499
 20
-8.004157436801759
 10
7.306478583394664
 20
-8.029377335135045
 10
7.151457557454933
 20
-8.10771724075337
 10
6.993062411422569
 20
-8.112618197312763
 10
6.848446493255071
 20
-8.043477010159727
 97
        0
 97
        0
 75
     2
 76
     1
 98
        0
  0
SPLINE
  5
4B
330
45
100
AcDbEntity
  8
Layer 1
370
     0
100
AcDbSpline
210
0.0
220
0.0
230
1.0
 70
    11
 71
     3
 72
    20
 73
    16
 74
     0
 42
0.0000000001
 43
0.0000000001
 12
1.0
 22
0.0
 32
0.0
 13
1.0
 23
0.0
 33
0.0
 40
0.0
 40
0.0
 40
0.0
 40
0.0
 40
1.0
 40
1.0
 40
1.0
 40
2.0
 40
2.0
 40
2.0
 40
3.0
 40
3.0
 40
3.0
 40
4.0
 40
4.0
 40
4.0
 40
5.0
 40
5.0
 40
5.0
 40
5.0
 10
6.876909740965352
 20
-7.004870066063429
 30
0.0
 10
6.854666938118978
 20
-7.223320779781109
 30
0.0
 10
6.903921551540634
 20
-7.634869181938231
 30
0.0
 10
7.04578539410161
 20
-7.780879987741779
 30
0.0
 10
7.089121159986335
 20
-7.825478692432094
 30
0.0
 10
7.134700055988534
 20
-7.839107121633737
 30
0.0
 10
7.189232622627994
 20
-7.823951855965535
 30
0.0
 10
7.304340305472705
 20
-7.791872974678224
 30
0.0
 10
7.393408122252013
 20
-7.702814582815336
 30
0.0
 10
7.4582951377377
 20
-7.591220037581277
 30
0.0
 10
7.454873893062717
 20
-7.448430196978077
 30
0.0
 10
7.449797397434117
 20
-7.307009325490677
 30
0.0
 10
7.44181684942133
 20
-7.16683254297608
 30
0.0
 10
7.257260491524094
 20
-7.178124771010111
 30
0.0
 10
7.038345600670785
 20
-7.150826678597291
 30
0.0
 10
6.876909740965352
 20
-7.004870066063429
 30
0.0
  0
HATCH
  5
4C
330
45
100
AcDbEntity
  8
Layer 1
 62
   253
420
 10338235
100
AcDbHatch
 10
0.0
 20
0.0
 30
0.0
210
0.0
220
0.0
230
1.0
  2
SOLID
 70
     1
 71
     0
 91
        1
 92
        1
 93
        1
 72
     4
 94
        3
 73
     0
 74
     1
 95
       20
 96
       16
 40
0.0
 40
0.0
 40
0.0
 40
0.0
 40
1.0
 40
1.0
 40
1.0
 40
2.0
 40
2.0
 40
2.0
 40
3.0
 40
3.0
 40
3.0
 40
4.0
 40
4.0
 40
4.0
 40
5.0
 40
5.0
 40
5.0
 40
5.0
 10
6.876909740965352
 20
-7.004870066063429
 10
6.854666938118978
 20
-7.223320779781109
 10
6.903921551540634
 20
-7.634869181938231
 10
7.04578539410161
 20
-7.780879987741779
 10
7.089121159986335
 20
-7.825478692432094
 10
7.134700055988534
 20
-7.839107121633737
 10
7.189232622627994
 20
-7.823951855965535
 10
7.304340305472705
 20
-7.791872974678224
 10
7.393408122252013
 20
-7.702814582815336
 10
7.4582951377377
 20
-7.591220037581277
 10
7.454873893062717
 20
-7.448430196978077
 10
7.449797397434117
 20
-7.307009325490677
 10
7.44181684942133
 20
-7.16683254297608
 10
7.257260491524094
 20
-7.178124771010111
 10
7.038345600670785
 20
-7.150826678597291
 10
6.876909740965352
 20
-7.004870066063429
 97
        0
 97
        0
 75
     2
 76
     1
 98
        0
  0
SPLINE
  5
4D
330
45
100
AcDbEntity
  8
Layer 1
370
     0
100
AcDbSpline
210
0.0
220
0.0
230
1.0
 70
    11
 71
     3
 72
    20
 73
    16
 74
     0
 42
0.0000000001
 43
0.0000000001
 12
1.0
 22
0.0
 32
0.0
 13
1.0
 23
0.0
 33
0.0
 40
0.0
 40
0.0
 40
0.0
 40
0.0
 40
1.0
 40
1.0
 40
1.0
 40
2.0
 40
2.0
 40
2.0
 40
3.0
 40
3.0
 40
3.0
 40
4.0
 40
4.0
 40
4.0
 40
5.0
 40
5.0
 40
5.0
 40
5.0
 10
5.080247341047576
 20
-5.293361786364825
 30
0.0
 10
5.068786642631746
 20
-5.270025693209011
 30
0.0
 10
5.056788723977863
 20
-5.266274576457804
 30
0.0
 10
5.045535373724103
 20
-5.265709081470188
 30
0.0
 10
5.044592882078127
 20
-5.265652531971429
 30
0.0
 10
5.043603265849797
 20
-5.265614832305573
 30
0.0
 10
5.042566525039117
 20
-5.265614832305573
 30
0.0
 10
5.031360299367861
 20
-5.265614832305573
 30
0.0
 10
5.014857270645759
 20
-5.269158600894658
 30
0.0
 10
4.993500409946616
 20
-5.291024407082646
 30
0.0
 10
4.832409737806604
 20
-5.456073544136087
 30
0.0
 10
4.786039148821727
 20
-6.208992420486639
 30
0.0
 10
4.790280361228825
 20
-6.624461587891245
 30
0.0
 10
4.945555859912853
 20
-6.2618285021633
 30
0.0
 10
5.175335323215904
 20
-5.486987270126002
 30
0.0
 10
5.080247341047576
 20
-5.293361786364825
 30
0.0
  0
HATCH
  5
4E
330
45
100
AcDbEntity
  8
Layer 1
 62
   253
420
 10338235
100
AcDbHatch
 10
0.0
 20
0.0
 30
0.0
210
0.0
220
0.0
230
1.0
  2
SOLID
 70
     1
 71
     0
 91
        1
 92
        1
 93
        1
 72
     4
 94
        3
 73
     0
 74
     1
 95
       20
 96
       16
 40
0.0
 40
0.0
 40
0.0
 40
0.0
 40
1.0
 40
1.0
 40
1.0
 40
2.0
 40
2.0
 40
2.0
 40
3.0
 40
3.0
 40
3.0
 40
4.0
 40
4.0
 40
4.0
 40
5.0
 40
5.0
 40
5.0
 40
5.0
 10
5.080247341047576
 20
-5.293361786364825
 10
5.068786642631746
 20
-5.270025693209011
 10
5.056788723977863
 20
-5.266274576457804
 10
5.045535373724103
 20
-5.265709081470188
 10
5.044592882078127
 20
-5.265652531971429
 10
5.043603265849797
 20
-5.265614832305573
 10
5.042566525039117
 20
-5.265614832305573
 10
5.031360299367861
 20
-5.265614832305573
 10
5.014857270645759
 20
-5.269158600894658
 10
4.993500409946616
 20
-5.291024407082646
 10
4.832409737806604
 20
-5.456073544136087
 10
4.786039148821727
 20
-6.208992420486639
 10
4.790280361228825
 20
-6.624461587891245
 10
4.945555859912853
 20
-6.2618285021633
 10
5.175335323215904
 20
-5.486987270126002
 10
5.080247341047576
 20
-5.293361786364825
 97
        0
 97
        0
 75
     2
 76
     1
 98
        0
  0
SPLINE
  5
4F
330
45
100
AcDbEntity
  8
Layer 1
370
     0
100
AcDbSpline
210
0.0
220
0.0
230
1.0
 70
    11
 71
     3
 72
    89
 73
    85
 74
     0
 42
0.0000000001
 43
0.0000000001
 12
1.0
 22
0.0
 32
0.0
 13
1.0
 23
0.0
 33
0.0
 40
0.0
 40
0.0
 40
0.0
 40
0.0
 40
1.0
 40
1.0
 40
1.0
 40
2.0
 40
2.0
 40
2.0
 40
3.0
 40
3.0
 40
3.0
 40
4.0
 40
4.0
 40
4.0
 40
5.0
 40
5.0
 40
5.0
 40
6.0
 40
6.0
 40
6.0
 40
7.0
 40
7.0
 40
7.0
 40
8.0
 40
8.0
 40
8.0
 40
9.0
 40
9.0
 40
9.0
 40
10.0
 40
10.0
 40
10.0
 40
11.0
 40
11.0
 40
11.0
 40
12.0
 40
12.0
 40
12.0
 40
13.0
 40
13.0
 40
13.0
 40
14.0
 40
14.0
 40
14.0
 40
15.0
 40
15.0
 40
15.0
 40
16.0
 40
16.0
 40
16.0
 40
17.0
 40
17.0
 40
17.0
 40
18.0
 40
18.0
 40
18.0
 40
19.0
 40
19.0
 40
19.0
 40
20.0
 40
20.0
 40
20.0
 40
21.0
 40
21.0
 40
21.0
 40
22.0
 40
22.0
 40
22.0
 40
23.0
 40
23.0
 40
23.0
 40
24.0
 40
24.0
 40
24.0
 40
25.0
 40
25.0
 40
25.0
 40
26.0
 40
26.0
 40
26.0
 40
27.0
 40
27.0
 40
27.0
 40
28.0
 40
28.0
 40
28.0
 40
28.0
 10
5.253731778333
 20
-5.21079951817228
 30
0.0
 10
5.497601491744237
 20
-5.585930043126622
 30
0.0
 10
4.917752356354943
 20
-6.890903976225015
 30
0.0
 10
4.824323159483533
 20
-7.072578665914484
 30
0.0
 10
4.849016440609653
 20
-7.390707296116741
 30
0.0
 10
4.950456816472297
 20
-7.770437180303739
 30
0.0
 10
5.037260297072028
 20
-7.770437180303739
 30
0.0
 10
5.037401670818958
 20
-7.770437180303739
 30
0.0
 10
5.037533619649391
 20
-7.770437180303739
 30
0.0
 10
5.037684418312716
 20
-7.770437180303739
 30
0.0
 10
5.0731692287859
 20
-7.769947084647811
 30
0.0
 10
5.149341403618286
 20
-7.705857652717491
 30
0.0
 10
5.261582733744515
 20
-7.283659094960184
 30
0.0
 10
5.273297904904666
 20
-7.004248021577015
 30
0.0
 10
5.374653456519101
 20
-6.731245891386859
 30
0.0
 10
5.547289651323126
 20
-6.514397413467425
 30
0.0
 10
5.667872032516748
 20
-6.362920156116868
 30
0.0
 10
5.929865860281173
 20
-6.228784745053367
 30
0.0
 10
6.127402684373414
 20
-6.27038632630931
 30
0.0
 10
6.212924376334513
 20
-6.28840676658145
 30
0.0
 10
6.324496537392027
 20
-6.346483101810058
 30
0.0
 10
6.370358180887983
 20
-6.520900605825065
 30
0.0
 10
6.384891402069798
 20
-6.57611176644971
 30
0.0
 10
6.376182779260489
 20
-6.623745294240254
 30
0.0
 10
6.344458510454943
 20
-6.662462851059344
 30
0.0
 10
6.342856274656747
 20
-6.66442323368311
 30
0.0
 10
6.341103240195075
 20
-6.666270517309335
 30
0.0
 10
6.339199407070206
 20
-6.667948152439243
 30
0.0
 10
6.321235516296737
 20
-6.683913960923038
 30
0.0
 10
6.293827859230078
 20
-6.690285204450245
 30
0.0
 10
6.26719304531313
 20
-6.684799903070345
 30
0.0
 10
6.245817334781172
 20
-6.681143035483728
 30
0.0
 10
6.226439706538687
 20
-6.664630581845207
 30
0.0
 10
6.217938431891449
 20
-6.649060619852738
 30
0.0
 10
6.215883800103129
 20
-6.645309503101544
 30
0.0
 10
6.214338113803554
 20
-6.641313338522322
 30
0.0
 10
6.213357922491746
 20
-6.637166375279801
 30
0.0
 10
6.209606805740501
 20
-6.62153986378856
 30
0.0
 10
6.207929170610492
 20
-6.606422297786189
 30
0.0
 10
6.206289235146465
 20
-6.591794827439722
 30
0.0
 10
6.204932047176195
 20
-6.579504736375434
 30
0.0
 10
6.203631408704672
 20
-6.567893239296305
 30
0.0
 10
6.201256329756612
 20
-6.55809132617757
 30
0.0
 10
6.201011281928686
 20
-6.557054585366889
 30
0.0
 10
6.20080393376659
 20
-6.556017844556309
 30
0.0
 10
6.200615435437284
 20
-6.554981103745629
 30
0.0
 10
6.192340358785082
 20
-6.50702712879542
 30
0.0
 10
6.163236216755624
 20
-6.450326831370047
 30
0.0
 10
6.106441670165623
 20
-6.434983067372614
 30
0.0
 10
6.060806224664652
 20
-6.422655276642494
 30
0.0
 10
6.018940745747866
 20
-6.430628755967922
 30
0.0
 10
5.978479579383702
 20
-6.459374751171985
 30
0.0
 10
5.808425811689808
 20
-6.580239879859315
 30
0.0
 10
5.723761787126452
 20
-7.005699458711913
 30
0.0
 10
5.711245498067304
 20
-7.181229102869262
 30
0.0
 10
5.689775538370642
 20
-7.482204385113668
 30
0.0
 10
5.734911463299113
 20
-7.850907117042096
 30
0.0
 10
5.932749884718001
 20
-7.899445436812837
 30
0.0
 10
6.147647404930214
 20
-7.95201762082863
 30
0.0
 10
6.344910906445066
 20
-7.589478784265237
 30
0.0
 10
6.439687866370225
 20
-7.415193229080664
 30
0.0
 10
6.44651150588758
 20
-7.402658090188449
 30
0.0
 10
6.452920449080643
 20
-7.390876944613005
 30
0.0
 10
6.458914695949387
 20
-7.380000591017758
 30
0.0
 10
6.407680850070922
 20
-6.97403173940519
 30
0.0
 10
6.522551731889532
 20
-6.505179845169196
 30
0.0
 10
6.896890563861334
 20
-6.359432937026567
 30
0.0
 10
7.045032578899382
 20
-6.301779544924102
 30
0.0
 10
7.203029522211333
 20
-6.293096840635017
 30
0.0
 10
7.346731223482164
 20
-6.327676859127981
 30
0.0
 10
7.331302635236599
 20
-6.243578329552393
 30
0.0
 10
7.314024407135624
 20
-6.159799069021902
 30
0.0
 10
7.294126052258813
 20
-6.07638502400424
 30
0.0
 10
7.174345967078832
 20
-5.574254927861375
 30
0.0
 10
7.013621688566192
 20
-5.084516240634747
 30
0.0
 10
6.665485302468824
 20
-4.684025621714745
 30
0.0
 10
6.253197044369522
 20
-4.209733194452042
 30
0.0
 10
5.694376075717855
 20
-4.216120931583027
 30
0.0
 10
5.293635696511475
 20
-4.699007704543002
 30
0.0
 10
5.189126332226603
 20
-4.824937547713236
 30
0.0
 10
5.098747273944658
 20
-4.960549136317379
 30
0.0
 10
5.023281967846742
 20
-5.105550297945102
 30
0.0
 10
5.151135672089518
 20
-5.097226918596069
 30
0.0
 10
5.21914704738189
 20
-5.157601755326431
 30
0.0
 10
5.253731778333
 20
-5.21079951817228
 30
0.0
  0
HATCH
  5
50
330
45
100
AcDbEntity
  8
Layer 1
 62
   253
420
 10338235
100
AcDbHatch
 10
0.0
 20
0.0
 30
0.0
210
0.0
220
0.0
230
1.0
  2
SOLID
 70
     1
 71
     0
 91
        1
 92
        1
 93
        1
 72
     4
 94
        3
 73
     0
 74
     1
 95
       89
 96
       85
 40
0.0
 40
0.0
 40
0.0
 40
0.0
 40
1.0
 40
1.0
 40
1.0
 40
2.0
 40
2.0
 40
2.0
 40
3.0
 40
3.0
 40
3.0
 40
4.0
 40
4.0
 40
4.0
 40
5.0
 40
5.0
 40
5.0
 40
6.0
 40
6.0
 40
6.0
 40
7.0
 40
7.0
 40
7.0
 40
8.0
 40
8.0
 40
8.0
 40
9.0
 40
9.0
 40
9.0
 40
10.0
 40
10.0
 40
10.0
 40
11.0
 40
11.0
 40
11.0
 40
12.0
 40
12.0
 40
12.0
 40
13.0
 40
13.0
 40
13.0
 40
14.0
 40
14.0
 40
14.0
 40
15.0
 40
15.0
 40
15.0
 40
16.0
 40
16.0
 40
16.0
 40
17.0
 40
17.0
 40
17.0
 40
18.0
 40
18.0
 40
18.0
 40
19.0
 40
19.0
 40
19.0
 40
20.0
 40
20.0
 40
20.0
 40
21.0
 40
21.0
 40
21.0
 40
22.0
 40
22.0
 40
22.0
 40
23.0
 40
23.0
 40
23.0
 40
24.0
 40
24.0
 40
24.0
 40
25.0
 40
25.0
 40
25.0
 40
26.0
 40
26.0
 40
26.0
 40
27.0
 40
27.0
 40
27.0
 40
28.0
 40
28.0
 40
28.0
 40
28.0
 10
5.253731778333
 20
-5.21079951817228
 10
5.497601491744237
 20
-5.585930043126622
 10
4.917752356354943
 20
-6.890903976225015
 10
4.824323159483533
 20
-7.072578665914484
 10
4.849016440609653
 20
-7.390707296116741
 10
4.950456816472297
 20
-7.770437180303739
 10
5.037260297072028
 20
-7.770437180303739
 10
5.037401670818958
 20
-7.770437180303739
 10
5.037533619649391
 20
-7.770437180303739
 10
5.037684418312716
 20
-7.770437180303739
 10
5.0731692287859
 20
-7.769947084647811
 10
5.149341403618286
 20
-7.705857652717491
 10
5.261582733744515
 20
-7.283659094960184
 10
5.273297904904666
 20
-7.004248021577015
 10
5.374653456519101
 20
-6.731245891386859
 10
5.547289651323126
 20
-6.514397413467425
 10
5.667872032516748
 20
-6.362920156116868
 10
5.929865860281173
 20
-6.228784745053367
 10
6.127402684373414
 20
-6.27038632630931
 10
6.212924376334513
 20
-6.28840676658145
 10
6.324496537392027
 20
-6.346483101810058
 10
6.370358180887983
 20
-6.520900605825065
 10
6.384891402069798
 20
-6.57611176644971
 10
6.376182779260489
 20
-6.623745294240254
 10
6.344458510454943
 20
-6.662462851059344
 10
6.342856274656747
 20
-6.66442323368311
 10
6.341103240195075
 20
-6.666270517309335
 10
6.339199407070206
 20
-6.667948152439243
 10
6.321235516296737
 20
-6.683913960923038
 10
6.293827859230078
 20
-6.690285204450245
 10
6.26719304531313
 20
-6.684799903070345
 10
6.245817334781172
 20
-6.681143035483728
 10
6.226439706538687
 20
-6.664630581845207
 10
6.217938431891449
 20
-6.649060619852738
 10
6.215883800103129
 20
-6.645309503101544
 10
6.214338113803554
 20
-6.641313338522322
 10
6.213357922491746
 20
-6.637166375279801
 10
6.209606805740501
 20
-6.62153986378856
 10
6.207929170610492
 20
-6.606422297786189
 10
6.206289235146465
 20
-6.591794827439722
 10
6.204932047176195
 20
-6.579504736375434
 10
6.203631408704672
 20
-6.567893239296305
 10
6.201256329756612
 20
-6.55809132617757
 10
6.201011281928686
 20
-6.557054585366889
 10
6.20080393376659
 20
-6.556017844556309
 10
6.200615435437284
 20
-6.554981103745629
 10
6.192340358785082
 20
-6.50702712879542
 10
6.163236216755624
 20
-6.450326831370047
 10
6.106441670165623
 20
-6.434983067372614
 10
6.060806224664652
 20
-6.422655276642494
 10
6.018940745747866
 20
-6.430628755967922
 10
5.978479579383702
 20
-6.459374751171985
 10
5.808425811689808
 20
-6.580239879859315
 10
5.723761787126452
 20
-7.005699458711913
 10
5.711245498067304
 20
-7.181229102869262
 10
5.689775538370642
 20
-7.482204385113668
 10
5.734911463299113
 20
-7.850907117042096
 10
5.932749884718001
 20
-7.899445436812837
 10
6.147647404930214
 20
-7.95201762082863
 10
6.344910906445066
 20
-7.589478784265237
 10
6.439687866370225
 20
-7.415193229080664
 10
6.44651150588758
 20
-7.402658090188449
 10
6.452920449080643
 20
-7.390876944613005
 10
6.458914695949387
 20
-7.380000591017758
 10
6.407680850070922
 20
-6.97403173940519
 10
6.522551731889532
 20
-6.505179845169196
 10
6.896890563861334
 20
-6.359432937026567
 10
7.045032578899382
 20
-6.301779544924102
 10
7.203029522211333
 20
-6.293096840635017
 10
7.346731223482164
 20
-6.327676859127981
 10
7.331302635236599
 20
-6.243578329552393
 10
7.314024407135624
 20
-6.159799069021902
 10
7.294126052258813
 20
-6.07638502400424
 10
7.174345967078832
 20
-5.574254927861375
 10
7.013621688566192
 20
-5.084516240634747
 10
6.665485302468824
 20
-4.684025621714745
 10
6.253197044369522
 20
-4.209733194452042
 10
5.694376075717855
 20
-4.216120931583027
 10
5.293635696511475
 20
-4.699007704543002
 10
5.189126332226603
 20
-4.824937547713236
 10
5.098747273944658
 20
-4.960549136317379
 10
5.023281967846742
 20
-5.105550297945102
 10
5.151135672089518
 20
-5.097226918596069
 10
5.21914704738189
 20
-5.157601755326431
 10
5.253731778333
 20
-5.21079951817228
 97
        0
 97
        0
 75
     2
 76
     1
 98
        0
  0
SPLINE
  5
51
330
45
100
AcDbEntity
  8
Layer 1
370
     0
100
AcDbSpline
210
0.0
220
0.0
230
1.0
 70
    11
 71
     3
 72
    23
 73
    19
 74
     0
 42
0.0000000001
 43
0.0000000001
 12
1.0
 22
0.0
 32
0.0
 13
1.0
 23
0.0
 33
0.0
 40
0.0
 40
0.0
 40
0.0
 40
0.0
 40
1.0
 40
1.0
 40
1.0
 40
2.0
 40
2.0
 40
2.0
 40
3.0
 40
3.0
 40
3.0
 40
4.0
 40
4.0
 40
4.0
 40
5.0
 40
5.0
 40
5.0
 40
6.0
 40
6.0
 40
6.0
 40
6.0
 10
7.163766498352161
 20
-6.508271217768197
 30
0.0
 10
7.113060447795633
 20
-6.520410510169111
 30
0.0
 10
7.07230710902104
 20
-6.557450431858241
 30
0.0
 10
7.051968139299661
 20
-6.609909516876491
 30
0.0
 10
7.027350257505203
 20
-6.673376904320421
 30
0.0
 10
7.036209678977987
 20
-6.74600531056376
 30
0.0
 10
7.075662379280907
 20
-6.804194744789887
 30
0.0
 10
7.147018421802159
 20
-6.909422758955012
 30
0.0
 10
7.265178599465495
 20
-6.9620302864075
 30
0.0
 10
7.427852657570914
 20
-6.961964311992283
 30
0.0
 10
7.417416918820082
 20
-6.831524646295748
 30
0.0
 10
7.403888629355783
 20
-6.70210404969152
 30
0.0
 10
7.386228692138275
 20
-6.573591779411142
 30
0.0
 10
7.381550399230364
 20
-6.569633314497777
 30
0.0
 10
7.376881531238697
 20
-6.565638328033148
 30
0.0
 10
7.372113701624382
 20
-6.561974391759198
 30
0.0
 10
7.303896156284509
 20
-6.509571856239745
 30
0.0
 10
7.23379362765258
 20
-6.491438316970061
 30
0.0
 10
7.163766498352161
 20
-6.508271217768197
 30
0.0
  0
HATCH
  5
52
330
45
100
AcDbEntity
  8
Layer 1
 62
   253
420
 10338235
100
AcDbHatch
 10
0.0
 20
0.0
 30
0.0
210
0.0
220
0.0
230
1.0
  2
SOLID
 70
     1
 71
     0
 91
        1
 92
        1
 93
        1
 72
     4
 94
        3
 73
     0
 74
     1
 95
       23
 96
       19
 40
0.0
 40
0.0
 40
0.0
 40
0.0
 40
1.0
 40
1.0
 40
1.0
 40
2.0
 40
2.0
 40
2.0
 40
3.0
 40
3.0
 40
3.0
 40
4.0
 40
4.0
 40
4.0
 40
5.0
 40
5.0
 40
5.0
 40
6.0
 40
6.0
 40
6.0
 40
6.0
 10
7.163766498352161
 20
-6.508271217768197
 10
7.113060447795633
 20
-6.520410510169111
 10
7.07230710902104
 20
-6.557450431858241
 10
7.051968139299661
 20
-6.609909516876491
 10
7.027350257505203
 20
-6.673376904320421
 10
7.036209678977987
 20
-6.74600531056376
 10
7.075662379280907
 20
-6.804194744789887
 10
7.147018421802159
 20
-6.909422758955012
 10
7.265178599465495
 20
-6.9620302864075
 10
7.427852657570914
 20
-6.961964311992283
 10
7.417416918820082
 20
-6.831524646295748
 10
7.403888629355783
 20
-6.70210404969152
 10
7.386228692138275
 20
-6.573591779411142
 10
7.381550399230364
 20
-6.569633314497777
 10
7.376881531238697
 20
-6.565638328033148
 10
7.372113701624382
 20
-6.561974391759198
 10
7.303896156284509
 20
-6.509571856239745
 10
7.23379362765258
 20
-6.491438316970061
 10
7.163766498352161
 20
-6.508271217768197
 97
        0
 97
        0
 75
     2
 76
     1
 98
        0
  0
SPLINE
  5
53
330
45
100
AcDbEntity
  8
Layer 1
370
     0
100
AcDbSpline
210
0.0
220
0.0
230
1.0
 70
    11
 71
     3
 72
    68
 73
    64
 74
     0
 42
0.0000000001
 43
0.0000000001
 12
1.0
 22
0.0
 32
0.0
 13
1.0
 23
0.0
 33
0.0
 40
0.0
 40
0.0
 40
0.0
 40
0.0
 40
1.0
 40
1.0
 40
1.0
 40
2.0
 40
2.0
 40
2.0
 40
3.0
 40
3.0
 40
3.0
 40
4.0
 40
4.0
 40
4.0
 40
5.0
 40
5.0
 40
5.0
 40
6.0
 40
6.0
 40
6.0
 40
7.0
 40
7.0
 40
7.0
 40
8.0
 40
8.0
 40
8.0
 40
9.0
 40
9.0
 40
9.0
 40
10.0
 40
10.0
 40
10.0
 40
11.0
 40
11.0
 40
11.0
 40
12.0
 40
12.0
 40
12.0
 40
13.0
 40
13.0
 40
13.0
 40
14.0
 40
14.0
 40
14.0
 40
15.0
 40
15.0
 40
15.0
 40
16.0
 40
16.0
 40
16.0
 40
17.0
 40
17.0
 40
17.0
 40
18.0
 40
18.0
 40
18.0
 40
19.0
 40
19.0
 40
19.0
 40
20.0
 40
20.0
 40
20.0
 40
21.0
 40
21.0
 40
21.0
 40
21.0
 10
8.03163165585301
 20
-6.857049676299463
 30
0.0
 10
8.047993310828133
 20
-6.782498587098214
 30
0.0
 10
8.06659809592078
 20
-6.709794781523164
 30
0.0
 10
8.087069014472718
 20
-6.640521645539693
 30
0.0
 10
8.08727636263494
 20
-6.639843051554534
 30
0.0
 10
8.08748371079701
 20
-6.639164457569374
 30
0.0
 10
8.087709908792021
 20
-6.638485863584214
 30
0.0
 10
8.103110222288276
 20
-6.593755210063439
 30
0.0
 10
8.122902546854952
 20
-6.550061297353345
 30
0.0
 10
8.146559087170342
 20
-6.508610514760776
 30
0.0
 10
8.172816904428828
 20
-6.462635772267276
 30
0.0
 10
8.22572838543715
 20
-6.441278911568133
 30
0.0
 10
8.28455871398258
 20
-6.452664210652225
 30
0.0
 10
8.32829032635853
 20
-6.462861970262312
 30
0.0
 10
8.358205011203683
 20
-6.488290394872289
 30
0.0
 10
8.370532801933829
 20
-6.524632872743344
 30
0.0
 10
8.37079669959467
 20
-6.525405715893107
 30
0.0
 10
8.371041747422698
 20
-6.526159709209928
 30
0.0
 10
8.371249095584794
 20
-6.526932552359691
 30
0.0
 10
8.377752287942434
 20
-6.549778549859537
 30
0.0
 10
8.381220657199794
 20
-6.573548189172495
 30
0.0
 10
8.384274330132989
 20
-6.594509203380286
 30
0.0
 10
8.384274330132989
 20
-6.594509203380286
 30
0.0
 10
8.385933115430083
 20
-6.605706004135198
 30
0.0
 10
8.385933115430083
 20
-6.605706004135198
 30
0.0
 10
8.386347811754224
 20
-6.608382680409906
 30
0.0
 10
8.38651746025049
 20
-6.611097056350495
 30
0.0
 10
8.386479760584809
 20
-6.613792582458144
 30
0.0
 10
8.384349729464677
 20
-6.731999884703732
 30
0.0
 10
8.379580721735767
 20
-6.851488975587876
 30
0.0
 10
8.374962512670233
 20
-6.967057301224536
 30
0.0
 10
8.371663791909087
 20
-7.04984576741213
 30
0.0
 10
8.368308521649244
 20
-7.13401027140296
 30
0.0
 10
8.365895743035354
 20
-7.218589471718031
 30
0.0
 10
8.43251105257703
 20
-7.073822754887234
 30
0.0
 10
8.515186419767158
 20
-6.942477119095959
 30
0.0
 10
8.610641973677426
 20
-6.830754159375121
 30
0.0
 10
8.73750134923355
 20
-6.682255175626046
 30
0.0
 10
8.855727501312003
 20
-6.630700882587966
 30
0.0
 10
8.962059408817595
 20
-6.677297669567906
 30
0.0
 10
9.035858860931183
 20
-6.70968875121298
 30
0.0
 10
9.090019143370505
 20
-6.7874266402924
 30
0.0
 10
9.126563078830788
 20
-6.882592378021551
 30
0.0
 10
9.065377699284934
 20
-6.440126715530848
 30
0.0
 10
8.937187054278688
 20
-6.000232877119275
 30
0.0
 10
8.732892565084386
 20
-5.565009084813798
 30
0.0
 10
8.443058712210762
 20
-4.947547464060335
 30
0.0
 10
8.010910977014923
 20
-4.442612277155957
 30
0.0
 10
7.353703305433681
 20
-4.180108325788094
 30
0.0
 10
7.114563721970903
 20
-4.084590331806213
 30
0.0
 10
6.867680391521617
 20
-4.02259205321559
 30
0.0
 10
6.585091943176748
 20
-4.196395759546109
 30
0.0
 10
7.057709091538552
 20
-4.555804345730053
 30
0.0
 10
7.306868539313124
 20
-5.042276121288624
 30
0.0
 10
7.472909648823967
 20
-5.572856505881569
 30
0.0
 10
7.572514522206044
 20
-5.891138290976301
 30
0.0
 10
7.644035500765362
 20
-6.212398349672488
 30
0.0
 10
7.691600697911452
 20
-6.536051159035069
 30
0.0
 10
7.783609088626463
 20
-6.651604169182469
 30
0.0
 10
7.819450867810474
 20
-6.760569162724096
 30
0.0
 10
7.853613833750059
 20
-6.902176176311563
 30
0.0
 10
7.891464298254782
 20
-6.894447744814088
 30
0.0
 10
7.953932644553965
 20
-6.879198229981284
 30
0.0
 10
8.03163165585301
 20
-6.857049676299463
 30
0.0
  0
HATCH
  5
54
330
45
100
AcDbEntity
  8
Layer 1
 62
   253
420
 10338235
100
AcDbHatch
 10
0.0
 20
0.0
 30
0.0
210
0.0
220
0.0
230
1.0
  2
SOLID
 70
     1
 71
     0
 91
        1
 92
        1
 93
        1
 72
     4
 94
        3
 73
     0
 74
     1
 95
       68
 96
       64
 40
0.0
 40
0.0
 40
0.0
 40
0.0
 40
1.0
 40
1.0
 40
1.0
 40
2.0
 40
2.0
 40
2.0
 40
3.0
 40
3.0
 40
3.0
 40
4.0
 40
4.0
 40
4.0
 40
5.0
 40
5.0
 40
5.0
 40
6.0
 40
6.0
 40
6.0
 40
7.0
 40
7.0
 40
7.0
 40
8.0
 40
8.0
 40
8.0
 40
9.0
 40
9.0
 40
9.0
 40
10.0
 40
10.0
 40
10.0
 40
11.0
 40
11.0
 40
11.0
 40
12.0
 40
12.0
 40
12.0
 40
13.0
 40
13.0
 40
13.0
 40
14.0
 40
14.0
 40
14.0
 40
15.0
 40
15.0
 40
15.0
 40
16.0
 40
16.0
 40
16.0
 40
17.0
 40
17.0
 40
17.0
 40
18.0
 40
18.0
 40
18.0
 40
19.0
 40
19.0
 40
19.0
 40
20.0
 40
20.0
 40
20.0
 40
21.0
 40
21.0
 40
21.0
 40
21.0
 10
8.03163165585301
 20
-6.857049676299463
 10
8.047993310828133
 20
-6.782498587098214
 10
8.06659809592078
 20
-6.709794781523164
 10
8.087069014472718
 20
-6.640521645539693
 10
8.08727636263494
 20
-6.639843051554534
 10
8.08748371079701
 20
-6.639164457569374
 10
8.087709908792021
 20
-6.638485863584214
 10
8.103110222288276
 20
-6.593755210063439
 10
8.122902546854952
 20
-6.550061297353345
 10
8.146559087170342
 20
-6.508610514760776
 10
8.172816904428828
 20
-6.462635772267276
 10
8.22572838543715
 20
-6.441278911568133
 10
8.28455871398258
 20
-6.452664210652225
 10
8.32829032635853
 20
-6.462861970262312
 10
8.358205011203683
 20
-6.488290394872289
 10
8.370532801933829
 20
-6.524632872743344
 10
8.37079669959467
 20
-6.525405715893107
 10
8.371041747422698
 20
-6.526159709209928
 10
8.371249095584794
 20
-6.526932552359691
 10
8.377752287942434
 20
-6.549778549859537
 10
8.381220657199794
 20
-6.573548189172495
 10
8.384274330132989
 20
-6.594509203380286
 10
8.384274330132989
 20
-6.594509203380286
 10
8.385933115430083
 20
-6.605706004135198
 10
8.385933115430083
 20
-6.605706004135198
 10
8.386347811754224
 20
-6.608382680409906
 10
8.38651746025049
 20
-6.611097056350495
 10
8.386479760584809
 20
-6.613792582458144
 10
8.384349729464677
 20
-6.731999884703732
 10
8.379580721735767
 20
-6.851488975587876
 10
8.374962512670233
 20
-6.967057301224536
 10
8.371663791909087
 20
-7.04984576741213
 10
8.368308521649244
 20
-7.13401027140296
 10
8.365895743035354
 20
-7.218589471718031
 10
8.43251105257703
 20
-7.073822754887234
 10
8.515186419767158
 20
-6.942477119095959
 10
8.610641973677426
 20
-6.830754159375121
 10
8.73750134923355
 20
-6.682255175626046
 10
8.855727501312003
 20
-6.630700882587966
 10
8.962059408817595
 20
-6.677297669567906
 10
9.035858860931183
 20
-6.70968875121298
 10
9.090019143370505
 20
-6.7874266402924
 10
9.126563078830788
 20
-6.882592378021551
 10
9.065377699284934
 20
-6.440126715530848
 10
8.937187054278688
 20
-6.000232877119275
 10
8.732892565084386
 20
-5.565009084813798
 10
8.443058712210762
 20
-4.947547464060335
 10
8.010910977014923
 20
-4.442612277155957
 10
7.353703305433681
 20
-4.180108325788094
 10
7.114563721970903
 20
-4.084590331806213
 10
6.867680391521617
 20
-4.02259205321559
 10
6.585091943176748
 20
-4.196395759546109
 10
7.057709091538552
 20
-4.555804345730053
 10
7.306868539313124
 20
-5.042276121288624
 10
7.472909648823967
 20
-5.572856505881569
 10
7.572514522206044
 20
-5.891138290976301
 10
7.644035500765362
 20
-6.212398349672488
 10
7.691600697911452
 20
-6.536051159035069
 10
7.783609088626463
 20
-6.651604169182469
 10
7.819450867810474
 20
-6.760569162724096
 10
7.853613833750059
 20
-6.902176176311563
 10
7.891464298254782
 20
-6.894447744814088
 10
7.953932644553965
 20
-6.879198229981284
 10
8.03163165585301
 20
-6.857049676299463
 97
        0
 97
        0
 75
     2
 76
     1
 98
        0
  0
SPLINE
  5
55
330
45
100
AcDbEntity
  8
Layer 1
370
     0
100
AcDbSpline
210
0.0
220
0.0
230
1.0
 70
    11
 71
     3
 72
    56
 73
    52
 74
     0
 42
0.0000000001
 43
0.0000000001
 12
1.0
 22
0.0
 32
0.0
 13
1.0
 23
0.0
 33
0.0
 40
0.0
 40
0.0
 40
0.0
 40
0.0
 40
1.0
 40
1.0
 40
1.0
 40
2.0
 40
2.0
 40
2.0
 40
3.0
 40
3.0
 40
3.0
 40
4.0
 40
4.0
 40
4.0
 40
5.0
 40
5.0
 40
5.0
 40
6.0
 40
6.0
 40
6.0
 40
7.0
 40
7.0
 40
7.0
 40
8.0
 40
8.0
 40
8.0
 40
9.0
 40
9.0
 40
9.0
 40
10.0
 40
10.0
 40
10.0
 40
11.0
 40
11.0
 40
11.0
 40
12.0
 40
12.0
 40
12.0
 40
13.0
 40
13.0
 40
13.0
 40
14.0
 40
14.0
 40
14.0
 40
15.0
 40
15.0
 40
15.0
 40
16.0
 40
16.0
 40
16.0
 40
17.0
 40
17.0
 40
17.0
 40
17.0
 10
8.91976038374355
 20
-8.145002210270478
 30
0.0
 10
8.919176038922993
 20
-8.145002210270478
 30
0.0
 10
8.918591694102435
 20
-8.145002210270478
 30
0.0
 10
8.91800734928188
 20
-8.145002210270478
 30
0.0
 10
8.884982442004937
 20
-8.14460636377915
 30
0.0
 10
8.775672260897839
 20
-8.129884644268106
 30
0.0
 10
8.755201342346052
 20
-7.957107075717178
 30
0.0
 10
8.724400715353694
 20
-7.697035930910614
 30
0.0
 10
8.762986323342298
 20
-7.428802808449391
 30
0.0
 10
8.805153399585757
 20
-7.17634699614281
 30
0.0
 10
8.817500040148818
 20
-7.102493350759586
 30
0.0
 10
8.844304502562157
 20
-6.942081272604658
 30
0.0
 10
8.839045399177166
 20
-6.879367878477549
 30
0.0
 10
8.826170963292421
 20
-6.888981293267129
 30
0.0
 10
8.805436147079666
 20
-6.907265631200137
 30
0.0
 10
8.773956926102148
 20
-6.94200587327297
 30
0.0
 10
8.560991513764368
 20
-7.177006740295028
 30
0.0
 10
8.40361425870967
 20
-7.626179408961788
 30
0.0
 10
8.407271126296184
 20
-7.987907702709586
 30
0.0
 10
8.416149397601885
 20
-8.066021410332825
 30
0.0
 10
8.378355482595907
 20
-8.126303176013153
 30
0.0
 10
8.308121005133392
 20
-8.145586555091034
 30
0.0
 10
8.22261816300521
 20
-8.169035747244328
 30
0.0
 10
8.0995664536991
 20
-8.12177921611222
 30
0.0
 10
8.052856567721745
 20
-8.013901622307205
 30
0.0
 10
7.913594002103688
 20
-7.716357009654303
 30
0.0
 10
7.953555647895503
 20
-7.352385585788952
 30
0.0
 10
7.997890454924926
 20
-7.045434906508691
 30
0.0
 10
7.951237118446316
 20
-7.060024677189277
 30
0.0
 10
7.908353748551867
 20
-7.072993362238726
 30
0.0
 10
7.876120534257425
 20
-7.082437128531991
 30
0.0
 10
7.865220618371065
 20
-7.242957593226239
 30
0.0
 10
7.827118037351056
 20
-7.394573868094565
 30
0.0
 10
7.76628727028689
 20
-7.529929805839704
 30
0.0
 10
7.768684733411469
 20
-7.809344413566578
 30
0.0
 10
7.756691527215757
 20
-8.090066728452307
 30
0.0
 10
7.732523685182286
 20
-8.371764522191672
 30
0.0
 10
7.67769423367425
 20
-9.010864573023456
 30
0.0
 10
7.582880752197853
 20
-9.64007435214474
 30
0.0
 10
7.242431563588398
 20
-10.20254394158125
 30
0.0
 10
7.142615807700647
 20
-10.36745641734605
 30
0.0
 10
7.250094020670631
 20
-10.36751061061568
 30
0.0
 10
7.367734649813959
 20
-10.3756537384374
 30
0.0
 10
7.987559568369938
 20
-10.41854182079017
 30
0.0
 10
8.592268099037987
 20
-10.02243614425333
 30
0.0
 10
8.840402587147587
 20
-9.31719556404649
 30
0.0
 10
9.003337008570218
 20
-8.854108184340577
 30
0.0
 10
9.109701903283268
 20
-8.38973312542329
 30
0.0
 10
9.150495297952729
 20
-7.926397163545718
 30
0.0
 10
9.111343016861888
 20
-8.064586466801757
 30
0.0
 10
9.008810528804512
 20
-8.145002210270478
 30
0.0
 10
8.91976038374355
 20
-8.145002210270478
 30
0.0
  0
HATCH
  5
56
330
45
100
AcDbEntity
  8
Layer 1
 62
   253
420
 10338235
100
AcDbHatch
 10
0.0
 20
0.0
 30
0.0
210
0.0
220
0.0
230
1.0
  2
SOLID
 70
     1
 71
     0
 91
        1
 92
        1
 93
        1
 72
     4
 94
        3
 73
     0
 74
     1
 95
       56
 96
       52
 40
0.0
 40
0.0
 40
0.0
 40
0.0
 40
1.0
 40
1.0
 40
1.0
 40
2.0
 40
2.0
 40
2.0
 40
3.0
 40
3.0
 40
3.0
 40
4.0
 40
4.0
 40
4.0
 40
5.0
 40
5.0
 40
5.0
 40
6.0
 40
6.0
 40
6.0
 40
7.0
 40
7.0
 40
7.0
 40
8.0
 40
8.0
 40
8.0
 40
9.0
 40
9.0
 40
9.0
 40
10.0
 40
10.0
 40
10.0
 40
11.0
 40
11.0
 40
11.0
 40
12.0
 40
12.0
 40
12.0
 40
13.0
 40
13.0
 40
13.0
 40
14.0
 40
14.0
 40
14.0
 40
15.0
 40
15.0
 40
15.0
 40
16.0
 40
16.0
 40
16.0
 40
17.0
 40
17.0
 40
17.0
 40
17.0
 10
8.91976038374355
 20
-8.145002210270478
 10
8.919176038922993
 20
-8.145002210270478
 10
8.918591694102435
 20
-8.145002210270478
 10
8.91800734928188
 20
-8.145002210270478
 10
8.884982442004937
 20
-8.14460636377915
 10
8.775672260897839
 20
-8.129884644268106
 10
8.755201342346052
 20
-7.957107075717178
 10
8.724400715353694
 20
-7.697035930910614
 10
8.762986323342298
 20
-7.428802808449391
 10
8.805153399585757
 20
-7.17634699614281
 10
8.817500040148818
 20
-7.102493350759586
 10
8.844304502562157
 20
-6.942081272604658
 10
8.839045399177166
 20
-6.879367878477549
 10
8.826170963292421
 20
-6.888981293267129
 10
8.805436147079666
 20
-6.907265631200137
 10
8.773956926102148
 20
-6.94200587327297
 10
8.560991513764368
 20
-7.177006740295028
 10
8.40361425870967
 20
-7.626179408961788
 10
8.407271126296184
 20
-7.987907702709586
 10
8.416149397601885
 20
-8.066021410332825
 10
8.378355482595907
 20
-8.126303176013153
 10
8.308121005133392
 20
-8.145586555091034
 10
8.22261816300521
 20
-8.169035747244328
 10
8.0995664536991
 20
-8.12177921611222
 10
8.052856567721745
 20
-8.013901622307205
 10
7.913594002103688
 20
-7.716357009654303
 10
7.953555647895503
 20
-7.352385585788952
 10
7.997890454924926
 20
-7.045434906508691
 10
7.951237118446316
 20
-7.060024677189277
 10
7.908353748551867
 20
-7.072993362238726
 10
7.876120534257425
 20
-7.082437128531991
 10
7.865220618371065
 20
-7.242957593226239
 10
7.827118037351056
 20
-7.394573868094565
 10
7.76628727028689
 20
-7.529929805839704
 10
7.768684733411469
 20
-7.809344413566578
 10
7.756691527215757
 20
-8.090066728452307
 10
7.732523685182286
 20
-8.371764522191672
 10
7.67769423367425
 20
-9.010864573023456
 10
7.582880752197853
 20
-9.64007435214474
 10
7.242431563588398
 20
-10.20254394158125
 10
7.142615807700647
 20
-10.36745641734605
 10
7.250094020670631
 20
-10.36751061061568
 10
7.367734649813959
 20
-10.3756537384374
 10
7.987559568369938
 20
-10.41854182079017
 10
8.592268099037987
 20
-10.02243614425333
 10
8.840402587147587
 20
-9.31719556404649
 10
9.003337008570218
 20
-8.854108184340577
 10
9.109701903283268
 20
-8.38973312542329
 10
9.150495297952729
 20
-7.926397163545718
 10
9.111343016861888
 20
-8.064586466801757
 10
9.008810528804512
 20
-8.145002210270478
 10
8.91976038374355
 20
-8.145002210270478
 97
        0
 97
        0
 75
     2
 76
     1
 98
        0
  0
SPLINE
  5
57
330
45
100
AcDbEntity
  8
Layer 1
370
     0
100
AcDbSpline
210
0.0
220
0.0
230
1.0
 70
    11
 71
     3
 72
    23
 73
    19
 74
     0
 42
0.0000000001
 43
0.0000000001
 12
1.0
 22
0.0
 32
0.0
 13
1.0
 23
0.0
 33
0.0
 40
0.0
 40
0.0
 40
0.0
 40
0.0
 40
1.0
 40
1.0
 40
1.0
 40
2.0
 40
2.0
 40
2.0
 40
3.0
 40
3.0
 40
3.0
 40
4.0
 40
4.0
 40
4.0
 40
5.0
 40
5.0
 40
5.0
 40
6.0
 40
6.0
 40
6.0
 40
6.0
 10
3.803406783583265
 20
-6.991467834856798
 30
0.0
 10
3.853839511562581
 20
-6.877690243347615
 30
0.0
 10
3.808128666729949
 20
-6.656826751016044
 30
0.0
 10
3.757743063332984
 20
-6.633094811368917
 30
0.0
 10
3.757130443763117
 20
-6.632812063875108
 30
0.0
 10
3.756376450446194
 20
-6.632642415378818
 30
0.0
 10
3.755490508298963
 20
-6.632642415378818
 30
0.0
 10
3.745132525109107
 20
-6.632642415378818
 30
0.0
 10
3.716725826897573
 20
-6.653641129252466
 30
0.0
 10
3.680977118763546
 20
-6.725213944852284
 30
0.0
 10
3.680194850697287
 20
-6.726797330817615
 30
0.0
 10
3.679318333466477
 20
-6.728324167284174
 30
0.0
 10
3.678366416903954
 20
-6.729794454251987
 30
0.0
 10
3.574777160088413
 20
-6.890451580234892
 30
0.0
 10
3.531497943702586
 20
-7.090749904850023
 30
0.0
 10
3.554202567455503
 20
-7.299549504112342
 30
0.0
 10
3.693238935078398
 20
-7.21992780985541
 30
0.0
 10
3.778562703793821
 20
-7.047508388129977
 30
0.0
 10
3.803406783583265
 20
-6.991467834856798
 30
0.0
  0
HATCH
  5
58
330
45
100
AcDbEntity
  8
Layer 1
 62
   253
420
 10338235
100
AcDbHatch
 10
0.0
 20
0.0
 30
0.0
210
0.0
220
0.0
230
1.0
  2
SOLID
 70
     1
 71
     0
 91
        1
 92
        1
 93
        1
 72
     4
 94
        3
 73
     0
 74
     1
 95
       23
 96
       19
 40
0.0
 40
0.0
 40
0.0
 40
0.0
 40
1.0
 40
1.0
 40
1.0
 40
2.0
 40
2.0
 40
2.0
 40
3.0
 40
3.0
 40
3.0
 40
4.0
 40
4.0
 40
4.0
 40
5.0
 40
5.0
 40
5.0
 40
6.0
 40
6.0
 40
6.0
 40
6.0
 10
3.803406783583265
 20
-6.991467834856798
 10
3.853839511562581
 20
-6.877690243347615
 10
3.808128666729949
 20
-6.656826751016044
 10
3.757743063332984
 20
-6.633094811368917
 10
3.757130443763117
 20
-6.632812063875108
 10
3.756376450446194
 20
-6.632642415378818
 10
3.755490508298963
 20
-6.632642415378818
 10
3.745132525109107
 20
-6.632642415378818
 10
3.716725826897573
 20
-6.653641129252466
 10
3.680977118763546
 20
-6.725213944852284
 10
3.680194850697287
 20
-6.726797330817615
 10
3.679318333466477
 20
-6.728324167284174
 10
3.678366416903954
 20
-6.729794454251987
 10
3.574777160088413
 20
-6.890451580234892
 10
3.531497943702586
 20
-7.090749904850023
 10
3.554202567455503
 20
-7.299549504112342
 10
3.693238935078398
 20
-7.21992780985541
 10
3.778562703793821
 20
-7.047508388129977
 10
3.803406783583265
 20
-6.991467834856798
 97
        0
 97
        0
 75
     2
 76
     1
 98
        0
  0
SPLINE
  5
59
330
45
100
AcDbEntity
  8
Layer 1
370
     0
100
AcDbSpline
210
0.0
220
0.0
230
1.0
 70
    11
 71
     3
 72
    77
 73
    73
 74
     0
 42
0.0000000001
 43
0.0000000001
 12
1.0
 22
0.0
 32
0.0
 13
1.0
 23
0.0
 33
0.0
 40
0.0
 40
0.0
 40
0.0
 40
0.0
 40
1.0
 40
1.0
 40
1.0
 40
2.0
 40
2.0
 40
2.0
 40
3.0
 40
3.0
 40
3.0
 40
4.0
 40
4.0
 40
4.0
 40
5.0
 40
5.0
 40
5.0
 40
6.0
 40
6.0
 40
6.0
 40
7.0
 40
7.0
 40
7.0
 40
8.0
 40
8.0
 40
8.0
 40
9.0
 40
9.0
 40
9.0
 40
10.0
 40
10.0
 40
10.0
 40
11.0
 40
11.0
 40
11.0
 40
12.0
 40
12.0
 40
12.0
 40
13.0
 40
13.0
 40
13.0
 40
14.0
 40
14.0
 40
14.0
 40
15.0
 40
15.0
 40
15.0
 40
16.0
 40
16.0
 40
16.0
 40
17.0
 40
17.0
 40
17.0
 40
18.0
 40
18.0
 40
18.0
 40
19.0
 40
19.0
 40
19.0
 40
20.0
 40
20.0
 40
20.0
 40
21.0
 40
21.0
 40
21.0
 40
22.0
 40
22.0
 40
22.0
 40
23.0
 40
23.0
 40
23.0
 40
24.0
 40
24.0
 40
24.0
 40
24.0
 10
3.18029728164106
 20
-7.819729493391302
 30
0.0
 10
3.17980718598508
 20
-7.8186362030819
 30
0.0
 10
3.179354789994932
 20
-7.817542912772498
 30
0.0
 10
3.178940093670765
 20
-7.816430772630181
 30
0.0
 10
2.994654702121731
 20
-7.316740551735974
 30
0.0
 10
3.170448243939947
 20
-6.609306322223043
 30
0.0
 10
3.681552038667582
 20
-6.410497134408665
 30
0.0
 10
3.794358863781452
 20
-6.367934211673779
 30
0.0
 10
3.922245555231736
 20
-6.379903855578403
 30
0.0
 10
4.015759576351178
 20
-6.441561659061941
 30
0.0
 10
4.098105071465221
 20
-6.495868027706415
 30
0.0
 10
4.145908247752029
 20
-6.581917514989274
 30
0.0
 10
4.150366233237719
 20
-6.683857411424292
 30
0.0
 10
4.166567664633122
 20
-7.05446397647769
 30
0.0
 10
3.867628164344119
 20
-7.389538606475652
 30
0.0
 10
3.566077962195499
 20
-7.530950053046531
 30
0.0
 10
3.601336574673673
 20
-7.707441038682847
 30
0.0
 10
3.671297729558824
 20
-7.903893997382106
 30
0.0
 10
3.808571637803551
 20
-7.919991754696335
 30
0.0
 10
3.925731596207445
 20
-7.933753310843005
 30
0.0
 10
4.074958654753143
 20
-7.815908867881161
 30
0.0
 10
4.20474211064119
 20
-7.648980638108443
 30
0.0
 10
4.207807564719789
 20
-7.335179222676086
 30
0.0
 10
4.229685152053409
 20
-7.020341066433048
 30
0.0
 10
4.267613372118831
 20
-6.704904427994784
 30
0.0
 10
4.285781076710767
 20
-6.553806523531774
 30
0.0
 10
4.306777434355228
 20
-6.403810156180043
 30
0.0
 10
4.332338985910357
 20
-6.255599810497566
 30
0.0
 10
4.35743636032953
 20
-6.023955391849944
 30
0.0
 10
4.4071103825337
 20
-5.778205407604863
 30
0.0
 10
4.494505276641449
 20
-5.57319109041594
 30
0.0
 10
4.65770595195411
 20
-5.059937236620739
 30
0.0
 10
4.921498760647839
 20
-4.586172604679821
 30
0.0
 10
5.37697787654118
 20
-4.187826154254531
 30
0.0
 10
5.18687848965078
 20
-4.077058645439857
 30
0.0
 10
5.024445945029659
 20
-4.070586084060728
 30
0.0
 10
4.850092059200632
 20
-4.109753680640766
 30
0.0
 10
4.350375919786201
 20
-4.222013860599847
 30
0.0
 10
3.960564909330363
 20
-4.509979223785345
 30
0.0
 10
3.665321154408275
 20
-4.907186437433489
 30
0.0
 10
3.199703184632856
 20
-5.533602906938843
 30
0.0
 10
2.937238111045366
 20
-6.183750137976757
 30
0.0
 10
2.841056838567586
 20
-6.85025431153157
 30
0.0
 10
2.936389868563967
 20
-7.227561992188283
 30
0.0
 10
2.967338937990487
 20
-7.606363522103948
 30
0.0
 10
2.955852321054534
 20
-7.904308693706398
 30
0.0
 10
2.949651904138136
 20
-8.06507774057228
 30
0.0
 10
2.915076598103421
 20
-8.175706231869146
 30
0.0
 10
2.867613896923684
 20
-8.251639249446422
 30
0.0
 10
2.936508858134251
 20
-8.65931401093831
 30
0.0
 10
3.055086088350916
 20
-9.0709625528328
 30
0.0
 10
3.215839819727585
 20
-9.48505332620511
 30
0.0
 10
3.430390974259783
 20
-10.03771864629375
 30
0.0
 10
3.896295225872715
 20
-10.34383757669641
 30
0.0
 10
4.508915973909248
 20
-10.37489503266233
 30
0.0
 10
4.592062586922288
 20
-10.37911032654923
 30
0.0
 10
4.709157749025634
 20
-10.38852817432219
 30
0.0
 10
4.752890539516177
 20
-10.341700476889
 30
0.0
 10
4.823524397813546
 20
-10.26607023475304
 30
0.0
 10
4.708986922414801
 20
-10.19569202731458
 30
0.0
 10
4.678023715613411
 20
-10.12097835830435
 30
0.0
 10
4.597974365772163
 20
-9.927826476595328
 30
0.0
 10
4.499985865563127
 20
-9.739448315073433
 30
0.0
 10
4.444086686036877
 20
-9.539404463202773
 30
0.0
 10
4.300222404957164
 20
-9.024563689098562
 30
0.0
 10
4.226526626924649
 20
-8.50425175098917
 30
0.0
 10
4.208685260065218
 20
-7.980586898848994
 30
0.0
 10
4.064693742613271
 20
-8.119242735469824
 30
0.0
 10
3.893565534442864
 20
-8.216926104008431
 30
0.0
 10
3.720429819066466
 20
-8.226094191495223
 30
0.0
 10
3.562062947783412
 20
-8.234520066810774
 30
0.0
 10
3.340096740226045
 20
-8.170769931873059
 30
0.0
 10
3.18029728164106
 20
-7.819729493391302
 30
0.0
  0
HATCH
  5
5A
330
45
100
AcDbEntity
  8
Layer 1
 62
   253
420
 10338235
100
AcDbHatch
 10
0.0
 20
0.0
 30
0.0
210
0.0
220
0.0
230
1.0
  2
SOLID
 70
     1
 71
     0
 91
        1
 92
        1
 93
        1
 72
     4
 94
        3
 73
     0
 74
     1
 95
       77
 96
       73
 40
0.0
 40
0.0
 40
0.0
 40
0.0
 40
1.0
 40
1.0
 40
1.0
 40
2.0
 40
2.0
 40
2.0
 40
3.0
 40
3.0
 40
3.0
 40
4.0
 40
4.0
 40
4.0
 40
5.0
 40
5.0
 40
5.0
 40
6.0
 40
6.0
 40
6.0
 40
7.0
 40
7.0
 40
7.0
 40
8.0
 40
8.0
 40
8.0
 40
9.0
 40
9.0
 40
9.0
 40
10.0
 40
10.0
 40
10.0
 40
11.0
 40
11.0
 40
11.0
 40
12.0
 40
12.0
 40
12.0
 40
13.0
 40
13.0
 40
13.0
 40
14.0
 40
14.0
 40
14.0
 40
15.0
 40
15.0
 40
15.0
 40
16.0
 40
16.0
 40
16.0
 40
17.0
 40
17.0
 40
17.0
 40
18.0
 40
18.0
 40
18.0
 40
19.0
 40
19.0
 40
19.0
 40
20.0
 40
20.0
 40
20.0
 40
21.0
 40
21.0
 40
21.0
 40
22.0
 40
22.0
 40
22.0
 40
23.0
 40
23.0
 40
23.0
 40
24.0
 40
24.0
 40
24.0
 40
24.0
 10
3.18029728164106
 20
-7.819729493391302
 10
3.17980718598508
 20
-7.8186362030819
 10
3.179354789994932
 20
-7.817542912772498
 10
3.178940093670765
 20
-7.816430772630181
 10
2.994654702121731
 20
-7.316740551735974
 10
3.170448243939947
 20
-6.609306322223043
 10
3.681552038667582
 20
-6.410497134408665
 10
3.794358863781452
 20
-6.367934211673779
 10
3.922245555231736
 20
-6.379903855578403
 10
4.015759576351178
 20
-6.441561659061941
 10
4.098105071465221
 20
-6.495868027706415
 10
4.145908247752029
 20
-6.581917514989274
 10
4.150366233237719
 20
-6.683857411424292
 10
4.166567664633122
 20
-7.05446397647769
 10
3.867628164344119
 20
-7.389538606475652
 10
3.566077962195499
 20
-7.530950053046531
 10
3.601336574673673
 20
-7.707441038682847
 10
3.671297729558824
 20
-7.903893997382106
 10
3.808571637803551
 20
-7.919991754696335
 10
3.925731596207445
 20
-7.933753310843005
 10
4.074958654753143
 20
-7.815908867881161
 10
4.20474211064119
 20
-7.648980638108443
 10
4.207807564719789
 20
-7.335179222676086
 10
4.229685152053409
 20
-7.020341066433048
 10
4.267613372118831
 20
-6.704904427994784
 10
4.285781076710767
 20
-6.553806523531774
 10
4.306777434355228
 20
-6.403810156180043
 10
4.332338985910357
 20
-6.255599810497566
 10
4.35743636032953
 20
-6.023955391849944
 10
4.4071103825337
 20
-5.778205407604863
 10
4.494505276641449
 20
-5.57319109041594
 10
4.65770595195411
 20
-5.059937236620739
 10
4.921498760647839
 20
-4.586172604679821
 10
5.37697787654118
 20
-4.187826154254531
 10
5.18687848965078
 20
-4.077058645439857
 10
5.024445945029659
 20
-4.070586084060728
 10
4.850092059200632
 20
-4.109753680640766
 10
4.350375919786201
 20
-4.222013860599847
 10
3.960564909330363
 20
-4.509979223785345
 10
3.665321154408275
 20
-4.907186437433489
 10
3.199703184632856
 20
-5.533602906938843
 10
2.937238111045366
 20
-6.183750137976757
 10
2.841056838567586
 20
-6.85025431153157
 10
2.936389868563967
 20
-7.227561992188283
 10
2.967338937990487
 20
-7.606363522103948
 10
2.955852321054534
 20
-7.904308693706398
 10
2.949651904138136
 20
-8.06507774057228
 10
2.915076598103421
 20
-8.175706231869146
 10
2.867613896923684
 20
-8.251639249446422
 10
2.936508858134251
 20
-8.65931401093831
 10
3.055086088350916
 20
-9.0709625528328
 10
3.215839819727585
 20
-9.48505332620511
 10
3.430390974259783
 20
-10.03771864629375
 10
3.896295225872715
 20
-10.34383757669641
 10
4.508915973909248
 20
-10.37489503266233
 10
4.592062586922288
 20
-10.37911032654923
 10
4.709157749025634
 20
-10.38852817432219
 10
4.752890539516177
 20
-10.341700476889
 10
4.823524397813546
 20
-10.26607023475304
 10
4.708986922414801
 20
-10.19569202731458
 10
4.678023715613411
 20
-10.12097835830435
 10
4.597974365772163
 20
-9.927826476595328
 10
4.499985865563127
 20
-9.739448315073433
 10
4.444086686036877
 20
-9.539404463202773
 10
4.300222404957164
 20
-9.024563689098562
 10
4.226526626924649
 20
-8.50425175098917
 10
4.208685260065218
 20
-7.980586898848994
 10
4.064693742613271
 20
-8.119242735469824
 10
3.893565534442864
 20
-8.216926104008431
 10
3.720429819066466
 20
-8.226094191495223
 10
3.562062947783412
 20
-8.234520066810774
 10
3.340096740226045
 20
-8.170769931873059
 10
3.18029728164106
 20
-7.819729493391302
 97
        0
 97
        0
 75
     2
 76
     1
 98
        0
  0
SPLINE
  5
5B
330
45
100
AcDbEntity
  8
Layer 1
370
     0
100
AcDbSpline
210
0.0
220
0.0
230
1.0
 70
    11
 71
     3
 72
    17
 73
    13
 74
     0
 42
0.0000000001
 43
0.0000000001
 12
1.0
 22
0.0
 32
0.0
 13
1.0
 23
0.0
 33
0.0
 40
0.0
 40
0.0
 40
0.0
 40
0.0
 40
1.0
 40
1.0
 40
1.0
 40
2.0
 40
2.0
 40
2.0
 40
3.0
 40
3.0
 40
3.0
 40
4.0
 40
4.0
 40
4.0
 40
4.0
 10
9.530381871375917
 20
-7.391480139266453
 30
0.0
 10
9.507714947288832
 20
-7.41053025166194
 30
0.0
 10
9.479594530914785
 20
-7.439094817224081
 30
0.0
 10
9.44910963862397
 20
-7.472969145097117
 30
0.0
 10
9.449607981081726
 20
-7.553194034007497
 30
0.0
 10
9.449318164900633
 20
-7.633235137046919
 30
0.0
 10
9.448035198147283
 20
-7.713033548487474
 30
0.0
 10
9.465464224911607
 20
-7.633940827666871
 30
0.0
 10
9.485840894298967
 20
-7.558967973454046
 30
0.0
 10
9.50321926213716
 20
-7.495135370497287
 30
0.0
 10
9.514171015064095
 20
-7.454928676877444
 30
0.0
 10
9.523803279686616
 20
-7.419509840819526
 30
0.0
 10
9.530381871375917
 20
-7.391480139266453
 30
0.0
  0
HATCH
  5
5C
330
45
100
AcDbEntity
  8
Layer 1
 62
   253
420
 10338235
100
AcDbHatch
 10
0.0
 20
0.0
 30
0.0
210
0.0
220
0.0
230
1.0
  2
SOLID
 70
     1
 71
     0
 91
        1
 92
        1
 93
        1
 72
     4
 94
        3
 73
     0
 74
     1
 95
       17
 96
       13
 40
0.0
 40
0.0
 40
0.0
 40
0.0
 40
1.0
 40
1.0
 40
1.0
 40
2.0
 40
2.0
 40
2.0
 40
3.0
 40
3.0
 40
3.0
 40
4.0
 40
4.0
 40
4.0
 40
4.0
 10
9.530381871375917
 20
-7.391480139266453
 10
9.507714947288832
 20
-7.41053025166194
 10
9.479594530914785
 20
-7.439094817224081
 10
9.44910963862397
 20
-7.472969145097117
 10
9.449607981081726
 20
-7.553194034007497
 10
9.449318164900633
 20
-7.633235137046919
 10
9.448035198147283
 20
-7.713033548487474
 10
9.465464224911607
 20
-7.633940827666871
 10
9.485840894298967
 20
-7.558967973454046
 10
9.50321926213716
 20
-7.495135370497287
 10
9.514171015064095
 20
-7.454928676877444
 10
9.523803279686616
 20
-7.419509840819526
 10
9.530381871375917
 20
-7.391480139266453
 97
        0
 97
        0
 75
     2
 76
     1
 98
        0
  0
SPLINE
  5
5D
330
45
100
AcDbEntity
  8
Layer 1
370
     0
100
AcDbSpline
210
0.0
220
0.0
230
1.0
 70
    11
 71
     3
 72
    26
 73
    22
 74
     0
 42
0.0000000001
 43
0.0000000001
 12
1.0
 22
0.0
 32
0.0
 13
1.0
 23
0.0
 33
0.0
 40
0.0
 40
0.0
 40
0.0
 40
0.0
 40
1.0
 40
1.0
 40
1.0
 40
2.0
 40
2.0
 40
2.0
 40
3.0
 40
3.0
 40
3.0
 40
4.0
 40
4.0
 40
4.0
 40
5.0
 40
5.0
 40
5.0
 40
6.0
 40
6.0
 40
6.0
 40
7.0
 40
7.0
 40
7.0
 40
7.0
 10
9.711340267414394
 20
-8.410407857793592
 30
0.0
 10
9.641294288281188
 20
-8.410407857793592
 30
0.0
 10
9.573585688430057
 20
-8.388259304111797
 30
0.0
 10
9.513567820410646
 20
-8.332576897664087
 30
0.0
 10
9.470263863619113
 20
-8.292400835022818
 30
0.0
 10
9.442780807220768
 20
-8.239856925756435
 30
0.0
 10
9.42674902432173
 20
-8.179873223059177
 30
0.0
 10
9.365501204704236
 20
-8.947947365077955
 30
0.0
 10
9.15920509887673
 20
-9.678879089441073
 30
0.0
 10
8.569965212349087
 20
-10.30612848593859
 30
0.0
 10
9.24799370250591
 20
-10.20568715122077
 30
0.0
 10
9.727008012915196
 20
-9.81745363615745
 30
0.0
 10
9.998776657163564
 20
-9.215418247420429
 30
0.0
 10
10.11180261158509
 20
-8.965038272964218
 30
0.0
 10
10.20433526327813
 20
-8.714063350656437
 30
0.0
 10
10.27575610209995
 20
-8.46279507782381
 30
0.0
 10
10.23455036733536
 20
-8.39240155489612
 30
0.0
 10
10.20264113454436
 20
-8.300014989408231
 30
0.0
 10
10.18778864431743
 20
-8.178837660363115
 30
0.0
 10
10.06841265243078
 20
-8.277365737039467
 30
0.0
 10
9.88296799615715
 20
-8.410370158127737
 30
0.0
 10
9.711340267414394
 20
-8.410407857793592
 30
0.0
  0
HATCH
  5
5E
330
45
100
AcDbEntity
  8
Layer 1
 62
   253
420
 10338235
100
AcDbHatch
 10
0.0
 20
0.0
 30
0.0
210
0.0
220
0.0
230
1.0
  2
SOLID
 70
     1
 71
     0
 91
        1
 92
        1
 93
        1
 72
     4
 94
        3
 73
     0
 74
     1
 95
       26
 96
       22
 40
0.0
 40
0.0
 40
0.0
 40
0.0
 40
1.0
 40
1.0
 40
1.0
 40
2.0
 40
2.0
 40
2.0
 40
3.0
 40
3.0
 40
3.0
 40
4.0
 40
4.0
 40
4.0
 40
5.0
 40
5.0
 40
5.0
 40
6.0
 40
6.0
 40
6.0
 40
7.0
 40
7.0
 40
7.0
 40
7.0
 10
9.711340267414394
 20
-8.410407857793592
 10
9.641294288281188
 20
-8.410407857793592
 10
9.573585688430057
 20
-8.388259304111797
 10
9.513567820410646
 20
-8.332576897664087
 10
9.470263863619113
 20
-8.292400835022818
 10
9.442780807220768
 20
-8.239856925756435
 10
9.42674902432173
 20
-8.179873223059177
 10
9.365501204704236
 20
-8.947947365077955
 10
9.15920509887673
 20
-9.678879089441073
 10
8.569965212349087
 20
-10.30612848593859
 10
9.24799370250591
 20
-10.20568715122077
 10
9.727008012915196
 20
-9.81745363615745
 10
9.998776657163564
 20
-9.215418247420429
 10
10.11180261158509
 20
-8.965038272964218
 10
10.20433526327813
 20
-8.714063350656437
 10
10.27575610209995
 20
-8.46279507782381
 10
10.23455036733536
 20
-8.39240155489612
 10
10.20264113454436
 20
-8.300014989408231
 10
10.18778864431743
 20
-8.178837660363115
 10
10.06841265243078
 20
-8.277365737039467
 10
9.88296799615715
 20
-8.410370158127737
 10
9.711340267414394
 20
-8.410407857793592
 97
        0
 97
        0
 75
     2
 76
     1
 98
        0
  0
SPLINE
  5
5F
330
45
100
AcDbEntity
  8
Layer 1
370
     0
100
AcDbSpline
210
0.0
220
0.0
230
1.0
 70
    11
 71
     3
 72
    35
 73
    31
 74
     0
 42
0.0000000001
 43
0.0000000001
 12
1.0
 22
0.0
 32
0.0
 13
1.0
 23
0.0
 33
0.0
 40
0.0
 40
0.0
 40
0.0
 40
0.0
 40
1.0
 40
1.0
 40
1.0
 40
2.0
 40
2.0
 40
2.0
 40
3.0
 40
3.0
 40
3.0
 40
4.0
 40
4.0
 40
4.0
 40
5.0
 40
5.0
 40
5.0
 40
6.0
 40
6.0
 40
6.0
 40
7.0
 40
7.0
 40
7.0
 40
8.0
 40
8.0
 40
8.0
 40
9.0
 40
9.0
 40
9.0
 40
10.0
 40
10.0
 40
10.0
 40
10.0
 10
9.886304416584101
 20
-7.064096241100186
 30
0.0
 10
9.95184528564937
 20
-7.103134245078864
 30
0.0
 10
10.01295644397813
 20
-7.195328777893943
 30
0.0
 10
9.932241459411745
 20
-7.412893549464343
 30
0.0
 10
9.827719135866598
 20
-7.742445178416548
 30
0.0
 10
9.803157803571063
 20
-8.036257524151097
 30
0.0
 10
9.876351704802017
 20
-8.082062618148331
 30
0.0
 10
9.894240196243699
 20
-8.093278268736134
 30
0.0
 10
9.969620678093557
 20
-8.112580497646881
 30
0.0
 10
10.1954228266502
 20
-7.900991123112337
 30
0.0
 10
10.23238852712229
 20
-7.70878997985124
 30
0.0
 10
10.32150229036938
 20
-7.515856049335323
 30
0.0
 10
10.44975301921798
 20
-7.355380352994264
 30
0.0
 10
10.46889502454883
 20
-6.658359478055445
 30
0.0
 10
10.31401655047077
 20
-5.962349425406942
 30
0.0
 10
9.964623116140475
 20
-5.273581242943679
 30
0.0
 10
9.605966167044118
 20
-4.566547572380298
 30
0.0
 10
9.074690694862284
 20
-4.010478679334925
 30
0.0
 10
8.33052520967423
 20
-3.696790362900047
 30
0.0
 10
7.890092972909946
 20
-3.511133646006101
 30
0.0
 10
7.447761615478687
 20
-3.527606043749655
 30
0.0
 10
6.950475926396469
 20
-3.770309423748914
 30
0.0
 10
7.551936395229379
 20
-3.844680261422897
 30
0.0
 10
7.975876206302701
 20
-4.107931137420274
 30
0.0
 10
8.33602347031423
 20
-4.478236105146935
 30
0.0
 10
9.055195255164108
 20
-5.217692666448443
 30
0.0
 10
9.401089689258418
 20
-6.116389081920159
 30
0.0
 10
9.442361398438278
 20
-7.128127945417165
 30
0.0
 10
9.594805887840494
 20
-7.046610664837115
 30
0.0
 10
9.779956015474783
 20
-7.000777296090493
 30
0.0
 10
9.886304416584101
 20
-7.064096241100186
 30
0.0
  0
HATCH
  5
60
330
45
100
AcDbEntity
  8
Layer 1
 62
   253
420
 10338235
100
AcDbHatch
 10
0.0
 20
0.0
 30
0.0
210
0.0
220
0.0
230
1.0
  2
SOLID
 70
     1
 71
     0
 91
        1
 92
        1
 93
        1
 72
     4
 94
        3
 73
     0
 74
     1
 95
       35
 96
       31
 40
0.0
 40
0.0
 40
0.0
 40
0.0
 40
1.0
 40
1.0
 40
1.0
 40
2.0
 40
2.0
 40
2.0
 40
3.0
 40
3.0
 40
3.0
 40
4.0
 40
4.0
 40
4.0
 40
5.0
 40
5.0
 40
5.0
 40
6.0
 40
6.0
 40
6.0
 40
7.0
 40
7.0
 40
7.0
 40
8.0
 40
8.0
 40
8.0
 40
9.0
 40
9.0
 40
9.0
 40
10.0
 40
10.0
 40
10.0
 40
10.0
 10
9.886304416584101
 20
-7.064096241100186
 10
9.95184528564937
 20
-7.103134245078864
 10
10.01295644397813
 20
-7.195328777893943
 10
9.932241459411745
 20
-7.412893549464343
 10
9.827719135866598
 20
-7.742445178416548
 10
9.803157803571063
 20
-8.036257524151097
 10
9.876351704802017
 20
-8.082062618148331
 10
9.894240196243699
 20
-8.093278268736134
 10
9.969620678093557
 20
-8.112580497646881
 10
10.1954228266502
 20
-7.900991123112337
 10
10.23238852712229
 20
-7.70878997985124
 10
10.32150229036938
 20
-7.515856049335323
 10
10.44975301921798
 20
-7.355380352994264
 10
10.46889502454883
 20
-6.658359478055445
 10
10.31401655047077
 20
-5.962349425406942
 10
9.964623116140475
 20
-5.273581242943679
 10
9.605966167044118
 20
-4.566547572380298
 10
9.074690694862284
 20
-4.010478679334925
 10
8.33052520967423
 20
-3.696790362900047
 10
7.890092972909946
 20
-3.511133646006101
 10
7.447761615478687
 20
-3.527606043749655
 10
6.950475926396469
 20
-3.770309423748914
 10
7.551936395229379
 20
-3.844680261422897
 10
7.975876206302701
 20
-4.107931137420274
 10
8.33602347031423
 20
-4.478236105146935
 10
9.055195255164108
 20
-5.217692666448443
 10
9.401089689258418
 20
-6.116389081920159
 10
9.442361398438278
 20
-7.128127945417165
 10
9.594805887840494
 20
-7.046610664837115
 10
9.779956015474783
 20
-7.000777296090493
 10
9.886304416584101
 20
-7.064096241100186
 97
        0
 97
        0
 75
     2
 76
     1
 98
        0
  0
SPLINE
  5
61
330
45
100
AcDbEntity
  8
Layer 1
370
     0
100
AcDbSpline
210
0.0
220
0.0
230
1.0
 70
    11
 71
     3
 72
    29
 73
    25
 74
     0
 42
0.0000000001
 43
0.0000000001
 12
1.0
 22
0.0
 32
0.0
 13
1.0
 23
0.0
 33
0.0
 40
0.0
 40
0.0
 40
0.0
 40
0.0
 40
1.0
 40
1.0
 40
1.0
 40
2.0
 40
2.0
 40
2.0
 40
3.0
 40
3.0
 40
3.0
 40
4.0
 40
4.0
 40
4.0
 40
5.0
 40
5.0
 40
5.0
 40
6.0
 40
6.0
 40
6.0
 40
7.0
 40
7.0
 40
7.0
 40
8.0
 40
8.0
 40
8.0
 40
8.0
 10
1.609022333955762
 20
-7.822462719164782
 30
0.0
 10
1.600879206134096
 20
-7.862886185863216
 30
0.0
 10
1.592910439266891
 20
-7.901556618099953
 30
0.0
 10
1.586720625381455
 20
-7.926923780752936
 30
0.0
 10
1.592005647286745
 20
-7.967946907761112
 30
0.0
 10
1.597609938236878
 20
-8.009036009184506
 30
0.0
 10
1.60371139353035
 20
-8.05022760657443
 30
0.0
 10
1.689879870383543
 20
-8.631967615828671
 30
0.0
 10
1.866350828072301
 20
-9.182878723341117
 30
0.0
 10
2.24762404232979
 20
-9.644864565935727
 30
0.0
 10
2.549596009489935
 20
-10.01075867275896
 30
0.0
 10
2.919434443851742
 20
-10.26794579312865
 30
0.0
 10
3.481221904959511
 20
-10.3305437320291
 30
0.0
 10
2.977118466932729
 20
-9.86610505492571
 30
0.0
 10
2.750618874557858
 20
-9.33000049117244
 30
0.0
 10
2.629579384916042
 20
-8.741485145097764
 30
0.0
 10
2.607098602928974
 20
-8.632180854563558
 30
0.0
 10
2.588644616499651
 20
-8.522459511475972
 30
0.0
 10
2.573611874745362
 20
-8.41241654311418
 30
0.0
 10
2.572373676345352
 20
-8.412425968030675
 30
0.0
 10
2.571162574580209
 20
-8.41251903908071
 30
0.0
 10
2.569920841836594
 20
-8.41251903908071
 30
0.0
 10
2.247711222807008
 20
-8.412537888913624
 30
0.0
 10
1.812261232506469
 20
-8.079819488030783
 30
0.0
 10
1.609022333955762
 20
-7.822462719164782
 30
0.0
  0
HATCH
  5
62
330
45
100
AcDbEntity
  8
Layer 1
 62
   253
420
 10338235
100
AcDbHatch
 10
0.0
 20
0.0
 30
0.0
210
0.0
220
0.0
230
1.0
  2
SOLID
 70
     1
 71
     0
 91
        1
 92
        1
 93
        1
 72
     4
 94
        3
 73
     0
 74
     1
 95
       29
 96
       25
 40
0.0
 40
0.0
 40
0.0
 40
0.0
 40
1.0
 40
1.0
 40
1.0
 40
2.0
 40
2.0
 40
2.0
 40
3.0
 40
3.0
 40
3.0
 40
4.0
 40
4.0
 40
4.0
 40
5.0
 40
5.0
 40
5.0
 40
6.0
 40
6.0
 40
6.0
 40
7.0
 40
7.0
 40
7.0
 40
8.0
 40
8.0
 40
8.0
 40
8.0
 10
1.609022333955762
 20
-7.822462719164782
 10
1.600879206134096
 20
-7.862886185863216
 10
1.592910439266891
 20
-7.901556618099953
 10
1.586720625381455
 20
-7.926923780752936
 10
1.592005647286745
 20
-7.967946907761112
 10
1.597609938236878
 20
-8.009036009184506
 10
1.60371139353035
 20
-8.05022760657443
 10
1.689879870383543
 20
-8.631967615828671
 10
1.866350828072301
 20
-9.182878723341117
 10
2.24762404232979
 20
-9.644864565935727
 10
2.549596009489935
 20
-10.01075867275896
 10
2.919434443851742
 20
-10.26794579312865
 10
3.481221904959511
 20
-10.3305437320291
 10
2.977118466932729
 20
-9.86610505492571
 10
2.750618874557858
 20
-9.33000049117244
 10
2.629579384916042
 20
-8.741485145097764
 10
2.607098602928974
 20
-8.632180854563558
 10
2.588644616499651
 20
-8.522459511475972
 10
2.573611874745362
 20
-8.41241654311418
 10
2.572373676345352
 20
-8.412425968030675
 10
2.571162574580209
 20
-8.41251903908071
 10
2.569920841836594
 20
-8.41251903908071
 10
2.247711222807008
 20
-8.412537888913624
 10
1.812261232506469
 20
-8.079819488030783
 10
1.609022333955762
 20
-7.822462719164782
 97
        0
 97
        0
 75
     2
 76
     1
 98
        0
  0
SPLINE
  5
63
330
45
100
AcDbEntity
  8
Layer 1
370
     0
100
AcDbSpline
210
0.0
220
0.0
230
1.0
 70
    11
 71
     3
 72
    44
 73
    40
 74
     0
 42
0.0000000001
 43
0.0000000001
 12
1.0
 22
0.0
 32
0.0
 13
1.0
 23
0.0
 33
0.0
 40
0.0
 40
0.0
 40
0.0
 40
0.0
 40
1.0
 40
1.0
 40
1.0
 40
2.0
 40
2.0
 40
2.0
 40
3.0
 40
3.0
 40
3.0
 40
4.0
 40
4.0
 40
4.0
 40
5.0
 40
5.0
 40
5.0
 40
6.0
 40
6.0
 40
6.0
 40
7.0
 40
7.0
 40
7.0
 40
8.0
 40
8.0
 40
8.0
 40
9.0
 40
9.0
 40
9.0
 40
10.0
 40
10.0
 40
10.0
 40
11.0
 40
11.0
 40
11.0
 40
12.0
 40
12.0
 40
12.0
 40
13.0
 40
13.0
 40
13.0
 40
13.0
 10
1.720820693008262
 20
-7.259964854978888
 30
0.0
 10
1.893448641010359
 20
-7.528843584217661
 30
0.0
 10
2.311307024737718
 20
-7.972488539380467
 30
0.0
 10
2.530591843562155
 20
-7.971031211672804
 30
0.0
 10
2.518935578129786
 20
-7.783006484518157
 30
0.0
 10
2.514932344863281
 20
-7.594422152948684
 30
0.0
 10
2.51600914156898
 20
-7.405724722381718
 30
0.0
 10
2.517343945362578
 20
-7.172151730203394
 30
0.0
 10
2.532778424180909
 20
-6.942401719764297
 30
0.0
 10
2.563950157258962
 20
-6.717211012662877
 30
0.0
 10
2.484552304768006
 20
-6.432783527493686
 30
0.0
 10
2.367586735266059
 20
-6.171657970158145
 30
0.0
 10
2.211114272191606
 20
-5.92997719359481
 30
0.0
 10
2.152821163884381
 20
-5.839950391565645
 30
0.0
 10
2.173848152507288
 20
-5.797312069499084
 30
0.0
 10
2.201745905229953
 20
-5.77738779610191
 30
0.0
 10
2.246693331829369
 20
-5.745343080136776
 30
0.0
 10
2.319067265328284
 20
-5.777500895099441
 30
0.0
 10
2.381837208954114
 20
-5.857480736181893
 30
0.0
 10
2.484909273478959
 20
-5.988816947056699
 30
0.0
 10
2.571627929830482
 20
-6.135216530664214
 30
0.0
 10
2.644078440775628
 20
-6.289732145458705
 30
0.0
 10
2.759146067725346
 20
-5.808553638607173
 30
0.0
 10
2.95682073122076
 20
-5.352128496724124
 30
0.0
 10
3.258048129980504
 20
-4.929325566198827
 30
0.0
 10
3.678777578884516
 20
-4.338790931772564
 30
0.0
 10
4.201155929927987
 20
-3.882666209101722
 30
0.0
 10
4.957616218638401
 20
-3.751628061209961
 30
0.0
 10
4.650416957186608
 20
-3.602696709418284
 30
0.0
 10
4.333128322663823
 20
-3.528486095324107
 30
0.0
 10
3.995865933932565
 20
-3.597229079756719
 30
0.0
 10
3.281729410701751
 20
-3.742787489570168
 30
0.0
 10
2.767529530916893
 20
-4.187253590579568
 30
0.0
 10
2.342205435238409
 20
-4.743797263791621
 30
0.0
 10
1.778973605683126
 20
-5.480797456240666
 30
0.0
 10
1.546175812883702
 20
-6.296182322661227
 30
0.0
 10
1.538627632913555
 20
-7.160537876895129
 30
0.0
 10
1.601727448615495
 20
-7.14876026566339
 30
0.0
 10
1.668524187798968
 20
-7.184663306804496
 30
0.0
 10
1.720820693008262
 20
-7.259964854978888
 30
0.0
  0
HATCH
  5
64
330
45
100
AcDbEntity
  8
Layer 1
 62
   253
420
 10338235
100
AcDbHatch
 10
0.0
 20
0.0
 30
0.0
210
0.0
220
0.0
230
1.0
  2
SOLID
 70
     1
 71
     0
 91
        1
 92
        1
 93
        1
 72
     4
 94
        3
 73
     0
 74
     1
 95
       44
 96
       40
 40
0.0
 40
0.0
 40
0.0
 40
0.0
 40
1.0
 40
1.0
 40
1.0
 40
2.0
 40
2.0
 40
2.0
 40
3.0
 40
3.0
 40
3.0
 40
4.0
 40
4.0
 40
4.0
 40
5.0
 40
5.0
 40
5.0
 40
6.0
 40
6.0
 40
6.0
 40
7.0
 40
7.0
 40
7.0
 40
8.0
 40
8.0
 40
8.0
 40
9.0
 40
9.0
 40
9.0
 40
10.0
 40
10.0
 40
10.0
 40
11.0
 40
11.0
 40
11.0
 40
12.0
 40
12.0
 40
12.0
 40
13.0
 40
13.0
 40
13.0
 40
13.0
 10
1.720820693008262
 20
-7.259964854978888
 10
1.893448641010359
 20
-7.528843584217661
 10
2.311307024737718
 20
-7.972488539380467
 10
2.530591843562155
 20
-7.971031211672804
 10
2.518935578129786
 20
-7.783006484518157
 10
2.514932344863281
 20
-7.594422152948684
 10
2.51600914156898
 20
-7.405724722381718
 10
2.517343945362578
 20
-7.172151730203394
 10
2.532778424180909
 20
-6.942401719764297
 10
2.563950157258962
 20
-6.717211012662877
 10
2.484552304768006
 20
-6.432783527493686
 10
2.367586735266059
 20
-6.171657970158145
 10
2.211114272191606
 20
-5.92997719359481
 10
2.152821163884381
 20
-5.839950391565645
 10
2.173848152507288
 20
-5.797312069499084
 10
2.201745905229953
 20
-5.77738779610191
 10
2.246693331829369
 20
-5.745343080136776
 10
2.319067265328284
 20
-5.777500895099441
 10
2.381837208954114
 20
-5.857480736181893
 10
2.484909273478959
 20
-5.988816947056699
 10
2.571627929830482
 20
-6.135216530664214
 10
2.644078440775628
 20
-6.289732145458705
 10
2.759146067725346
 20
-5.808553638607173
 10
2.95682073122076
 20
-5.352128496724124
 10
3.258048129980504
 20
-4.929325566198827
 10
3.678777578884516
 20
-4.338790931772564
 10
4.201155929927987
 20
-3.882666209101722
 10
4.957616218638401
 20
-3.751628061209961
 10
4.650416957186608
 20
-3.602696709418284
 10
4.333128322663823
 20
-3.528486095324107
 10
3.995865933932565
 20
-3.597229079756719
 10
3.281729410701751
 20
-3.742787489570168
 10
2.767529530916893
 20
-4.187253590579568
 10
2.342205435238409
 20
-4.743797263791621
 10
1.778973605683126
 20
-5.480797456240666
 10
1.546175812883702
 20
-6.296182322661227
 10
1.538627632913555
 20
-7.160537876895129
 10
1.601727448615495
 20
-7.14876026566339
 10
1.668524187798968
 20
-7.184663306804496
 10
1.720820693008262
 20
-7.259964854978888
 97
        0
 97
        0
 75
     2
 76
     1
 98
        0
  0
SPLINE
  5
65
330
45
100
AcDbEntity
  8
Layer 1
370
     0
100
AcDbSpline
210
0.0
220
0.0
230
1.0
 70
    11
 71
     3
 72
    35
 73
    31
 74
     0
 42
0.0000000001
 43
0.0000000001
 12
1.0
 22
0.0
 32
0.0
 13
1.0
 23
0.0
 33
0.0
 40
0.0
 40
0.0
 40
0.0
 40
0.0
 40
1.0
 40
1.0
 40
1.0
 40
2.0
 40
2.0
 40
2.0
 40
3.0
 40
3.0
 40
3.0
 40
4.0
 40
4.0
 40
4.0
 40
5.0
 40
5.0
 40
5.0
 40
6.0
 40
6.0
 40
6.0
 40
7.0
 40
7.0
 40
7.0
 40
8.0
 40
8.0
 40
8.0
 40
9.0
 40
9.0
 40
9.0
 40
10.0
 40
10.0
 40
10.0
 40
10.0
 10
5.16956138376938
 20
-3.399681652633477
 30
0.0
 10
5.444000813719791
 20
-3.49511364425262
 30
0.0
 10
5.699326513088559
 20
-3.647307195254156
 30
0.0
 10
5.956475933792439
 20
-3.691527725171504
 30
0.0
 10
6.259031067658547
 20
-3.674010339815418
 30
0.0
 10
6.466882284702024
 20
-3.497826842078628
 30
0.0
 10
6.71575073818091
 20
-3.439154380883918
 30
0.0
 10
6.835701649971598
 20
-3.410874919044671
 30
0.0
 10
6.766563997162292
 20
-3.326431201903713
 30
0.0
 10
6.727212614711182
 20
-3.262243986465149
 30
0.0
 10
6.542241560489805
 20
-2.960539451309601
 30
0.0
 10
6.617227373962855
 20
-2.671394795452013
 30
0.0
 10
6.799074068377573
 20
-2.408130960194512
 30
0.0
 10
6.905590939868691
 20
-2.253926367643253
 30
0.0
 10
7.051668898202024
 20
-2.125145487243774
 30
0.0
 10
7.18931862499077
 20
-1.994823633003004
 30
0.0
 10
7.369598427044113
 20
-1.824141930249968
 30
0.0
 10
7.3052321381927
 20
-1.650225124921892
 30
0.0
 10
7.205580140228423
 20
-1.479049792169248
 30
0.0
 10
7.109990281258559
 20
-1.314863034971937
 30
0.0
 10
6.975515573202578
 20
-1.23937887904108
 30
0.0
 10
6.774963953957568
 20
-1.305471105719195
 30
0.0
 10
6.324726269730768
 20
-1.453849921783406
 30
0.0
 10
6.032206315665765
 20
-1.771483743871474
 30
0.0
 10
5.874181097604378
 20
-2.196455583297241
 30
0.0
 10
5.720229799682985
 20
-2.610472135452394
 30
0.0
 10
5.595475714841187
 20
-3.02791582285546
 30
0.0
 10
5.171498204102009
 20
-3.258544706754492
 30
0.0
 10
5.105150326564929
 20
-3.294636246224766
 30
0.0
 10
5.063594691776744
 20
-3.362833763617232
 30
0.0
 10
5.16956138376938
 20
-3.399681652633477
 30
0.0
  0
HATCH
  5
66
330
45
100
AcDbEntity
  8
Layer 1
 62
   253
420
 10338235
100
AcDbHatch
 10
0.0
 20
0.0
 30
0.0
210
0.0
220
0.0
230
1.0
  2
SOLID
 70
     1
 71
     0
 91
        1
 92
        1
 93
        1
 72
     4
 94
        3
 73
     0
 74
     1
 95
       35
 96
       31
 40
0.0
 40
0.0
 40
0.0
 40
0.0
 40
1.0
 40
1.0
 40
1.0
 40
2.0
 40
2.0
 40
2.0
 40
3.0
 40
3.0
 40
3.0
 40
4.0
 40
4.0
 40
4.0
 40
5.0
 40
5.0
 40
5.0
 40
6.0
 40
6.0
 40
6.0
 40
7.0
 40
7.0
 40
7.0
 40
8.0
 40
8.0
 40
8.0
 40
9.0
 40
9.0
 40
9.0
 40
10.0
 40
10.0
 40
10.0
 40
10.0
 10
5.16956138376938
 20
-3.399681652633477
 10
5.444000813719791
 20
-3.49511364425262
 10
5.699326513088559
 20
-3.647307195254156
 10
5.956475933792439
 20
-3.691527725171504
 10
6.259031067658547
 20
-3.674010339815418
 10
6.466882284702024
 20
-3.497826842078628
 10
6.71575073818091
 20
-3.439154380883918
 10
6.835701649971598
 20
-3.410874919044671
 10
6.766563997162292
 20
-3.326431201903713
 10
6.727212614711182
 20
-3.262243986465149
 10
6.542241560489805
 20
-2.960539451309601
 10
6.617227373962855
 20
-2.671394795452013
 10
6.799074068377573
 20
-2.408130960194512
 10
6.905590939868691
 20
-2.253926367643253
 10
7.051668898202024
 20
-2.125145487243774
 10
7.18931862499077
 20
-1.994823633003004
 10
7.369598427044113
 20
-1.824141930249968
 10
7.3052321381927
 20
-1.650225124921892
 10
7.205580140228423
 20
-1.479049792169248
 10
7.109990281258559
 20
-1.314863034971937
 10
6.975515573202578
 20
-1.23937887904108
 10
6.774963953957568
 20
-1.305471105719195
 10
6.324726269730768
 20
-1.453849921783406
 10
6.032206315665765
 20
-1.771483743871474
 10
5.874181097604378
 20
-2.196455583297241
 10
5.720229799682985
 20
-2.610472135452394
 10
5.595475714841187
 20
-3.02791582285546
 10
5.171498204102009
 20
-3.258544706754492
 10
5.105150326564929
 20
-3.294636246224766
 10
5.063594691776744
 20
-3.362833763617232
 10
5.16956138376938
 20
-3.399681652633477
 97
        0
 97
        0
 75
     2
 76
     1
 98
        0
  0
ENDBLK
  5
48
330
45
100
AcDbEntity
  8
0
100
AcDbBlockEnd
  0
BLOCK
  5
69
330
67
100
AcDbEntity
  8
0
100
AcDbBlockBegin
  2
block 4
 70
     0
 10
0.0
 20
0.0
 30
0.0
  3
block 4
  1

  0
INSERT
  5
6C
330
67
100
AcDbEntity
  8
Layer 1
100
AcDbBlockReference
  2
block 5
 10
0.0
 20
0.0
 30
0.0
  0
ENDBLK
  5
6A
330
67
100
AcDbEntity
  8
0
100
AcDbBlockEnd
  0
BLOCK
  5
6D
330
6B
100
AcDbEntity
  8
0
100
AcDbBlockBegin
  2
block 5
 70
     0
 10
0.0
 20
0.0
 30
0.0
  3
block 5
  1

  0
SPLINE
  5
6F
330
6B
100
AcDbEntity
  8
Layer 1
370
     0
100
AcDbSpline
210
0.0
220
0.0
230
1.0
 70
    11
 71
     3
 72
    47
 73
    43
 74
     0
 42
0.0000000001
 43
0.0000000001
 12
1.0
 22
0.0
 32
0.0
 13
1.0
 23
0.0
 33
0.0
 40
0.0
 40
0.0
 40
0.0
 40
0.0
 40
1.0
 40
1.0
 40
1.0
 40
2.0
 40
2.0
 40
2.0
 40
3.0
 40
3.0
 40
3.0
 40
4.0
 40
4.0
 40
4.0
 40
5.0
 40
5.0
 40
5.0
 40
6.0
 40
6.0
 40
6.0
 40
7.0
 40
7.0
 40
7.0
 40
8.0
 40
8.0
 40
8.0
 40
9.0
 40
9.0
 40
9.0
 40
10.0
 40
10.0
 40
10.0
 40
11.0
 40
11.0
 40
11.0
 40
12.0
 40
12.0
 40
12.0
 40
13.0
 40
13.0
 40
13.0
 40
14.0
 40
14.0
 40
14.0
 40
14.0
 10
2.251620908667999
 20
-5.90374883330978
 30
0.0
 10
2.5779268320141
 20
-6.407747419140908
 30
0.0
 10
2.71832627818008
 20
-6.973115170388963
 30
0.0
 10
2.736598834967582
 20
-7.57105072046569
 30
0.0
 10
2.767159715647444
 20
-8.571108578124697
 30
0.0
 10
1.903669486556055
 20
-7.634114014616393
 30
0.0
 10
1.68117607273411
 20
-7.287482080808963
 30
0.0
 10
1.581768533540627
 20
-7.144278721996064
 30
0.0
 10
1.452359129024671
 20
-7.202896989921101
 30
0.0
 10
1.463713208073007
 20
-7.372672722579409
 30
0.0
 10
1.459255811644526
 20
-7.58920310956834
 30
0.0
 10
1.470023778700503
 20
-7.856146196589028
 30
0.0
 10
1.358293750292306
 20
-8.034543371579426
 30
0.0
 10
1.246303358566744
 20
-8.213356421008635
 30
0.0
 10
1.062377291957849
 20
-8.131750781836773
 30
0.0
 10
0.9797154730852071
 20
-7.914140063798615
 30
0.0
 10
0.7919935213718771
 20
-7.419950459773594
 30
0.0
 10
0.9546033722339567
 20
-6.59102670085776
 30
0.0
 10
0.4034089281703674
 20
-6.295585022690097
 30
0.0
 10
0.3339590750032736
 20
-6.267410413046491
 30
0.0
 10
0.2505462081002052
 20
-6.318473432314047
 30
0.0
 10
0.2780763890807773
 20
-6.348086519832425
 30
0.0
 10
0.4328541343643842
 20
-6.563131304364257
 30
0.0
 10
0.477978572675915
 20
-6.903148124931097
 30
0.0
 10
0.4833569601598052
 20
-7.160647445658545
 30
0.0
 10
0.4864928065832777
 20
-7.310786364871698
 30
0.0
 10
0.4907858560308997
 20
-7.462109289215227
 30
0.0
 10
0.4956679627574279
 20
-7.609325306211152
 30
0.0
 10
0.5160811536958995
 20
-8.22485481909022
 30
0.0
 10
1.34150797407632
 20
-8.717495202472087
 30
0.0
 10
1.53935287512536
 20
-7.917529499380684
 30
0.0
 10
1.551039182478967
 20
-7.870277680706749
 30
0.0
 10
1.570257176198816
 20
-7.768064461694394
 30
0.0
 10
1.584106501880064
 20
-7.702713269072925
 30
0.0
 10
1.813165548131186
 20
-8.087744668768917
 30
0.0
 10
2.870573433393954
 20
-8.863473021068026
 30
0.0
 10
2.907631026801457
 20
-7.902450811158714
 30
0.0
 10
2.932997600397155
 20
-7.244615204518241
 30
0.0
 10
2.757507423077565
 20
-6.41432954517389
 30
0.0
 10
2.343871401924389
 20
-5.887259941962396
 30
0.0
 10
2.264578401629099
 20
-5.786221303163933
 30
0.0
 10
2.175264358907169
 20
-5.785812497412469
 30
0.0
 10
2.251620908667999
 20
-5.90374883330978
 30
0.0
  0
HATCH
  5
70
330
6B
100
AcDbEntity
  8
Layer 1
 62
   250
420
  2301728
100
AcDbHatch
 10
0.0
 20
0.0
 30
0.0
210
0.0
220
0.0
230
1.0
  2
SOLID
 70
     1
 71
     0
 91
        1
 92
        1
 93
        1
 72
     4
 94
        3
 73
     0
 74
     1
 95
       47
 96
       43
 40
0.0
 40
0.0
 40
0.0
 40
0.0
 40
1.0
 40
1.0
 40
1.0
 40
2.0
 40
2.0
 40
2.0
 40
3.0
 40
3.0
 40
3.0
 40
4.0
 40
4.0
 40
4.0
 40
5.0
 40
5.0
 40
5.0
 40
6.0
 40
6.0
 40
6.0
 40
7.0
 40
7.0
 40
7.0
 40
8.0
 40
8.0
 40
8.0
 40
9.0
 40
9.0
 40
9.0
 40
10.0
 40
10.0
 40
10.0
 40
11.0
 40
11.0
 40
11.0
 40
12.0
 40
12.0
 40
12.0
 40
13.0
 40
13.0
 40
13.0
 40
14.0
 40
14.0
 40
14.0
 40
14.0
 10
2.251620908667999
 20
-5.90374883330978
 10
2.5779268320141
 20
-6.407747419140908
 10
2.71832627818008
 20
-6.973115170388963
 10
2.736598834967582
 20
-7.57105072046569
 10
2.767159715647444
 20
-8.571108578124697
 10
1.903669486556055
 20
-7.634114014616393
 10
1.68117607273411
 20
-7.287482080808963
 10
1.581768533540627
 20
-7.144278721996064
 10
1.452359129024671
 20
-7.202896989921101
 10
1.463713208073007
 20
-7.372672722579409
 10
1.459255811644526
 20
-7.58920310956834
 10
1.470023778700503
 20
-7.856146196589028
 10
1.358293750292306
 20
-8.034543371579426
 10
1.246303358566744
 20
-8.213356421008635
 10
1.062377291957849
 20
-8.131750781836773
 10
0.9797154730852071
 20
-7.914140063798615
 10
0.7919935213718771
 20
-7.419950459773594
 10
0.9546033722339567
 20
-6.59102670085776
 10
0.4034089281703674
 20
-6.295585022690097
 10
0.3339590750032736
 20
-6.267410413046491
 10
0.2505462081002052
 20
-6.318473432314047
 10
0.2780763890807773
 20
-6.348086519832425
 10
0.4328541343643842
 20
-6.563131304364257
 10
0.477978572675915
 20
-6.903148124931097
 10
0.4833569601598052
 20
-7.160647445658545
 10
0.4864928065832777
 20
-7.310786364871698
 10
0.4907858560308997
 20
-7.462109289215227
 10
0.4956679627574279
 20
-7.609325306211152
 10
0.5160811536958995
 20
-8.22485481909022
 10
1.34150797407632
 20
-8.717495202472087
 10
1.53935287512536
 20
-7.917529499380684
 10
1.551039182478967
 20
-7.870277680706749
 10
1.570257176198816
 20
-7.768064461694394
 10
1.584106501880064
 20
-7.702713269072925
 10
1.813165548131186
 20
-8.087744668768917
 10
2.870573433393954
 20
-8.863473021068026
 10
2.907631026801457
 20
-7.902450811158714
 10
2.932997600397155
 20
-7.244615204518241
 10
2.757507423077565
 20
-6.41432954517389
 10
2.343871401924389
 20
-5.887259941962396
 10
2.264578401629099
 20
-5.786221303163933
 10
2.175264358907169
 20
-5.785812497412469
 10
2.251620908667999
 20
-5.90374883330978
 97
        0
 97
        0
 75
     2
 76
     1
 98
        0
  0
SPLINE
  5
71
330
6B
100
AcDbEntity
  8
Layer 1
370
     0
100
AcDbSpline
210
0.0
220
0.0
230
1.0
 70
    11
 71
     3
 72
   176
 73
   172
 74
     0
 42
0.0000000001
 43
0.0000000001
 12
1.0
 22
0.0
 32
0.0
 13
1.0
 23
0.0
 33
0.0
 40
0.0
 40
0.0
 40
0.0
 40
0.0
 40
1.0
 40
1.0
 40
1.0
 40
2.0
 40
2.0
 40
2.0
 40
3.0
 40
3.0
 40
3.0
 40
4.0
 40
4.0
 40
4.0
 40
5.0
 40
5.0
 40
5.0
 40
6.0
 40
6.0
 40
6.0
 40
7.0
 40
7.0
 40
7.0
 40
8.0
 40
8.0
 40
8.0
 40
9.0
 40
9.0
 40
9.0
 40
10.0
 40
10.0
 40
10.0
 40
11.0
 40
11.0
 40
11.0
 40
12.0
 40
12.0
 40
12.0
 40
13.0
 40
13.0
 40
13.0
 40
14.0
 40
14.0
 40
14.0
 40
15.0
 40
15.0
 40
15.0
 40
16.0
 40
16.0
 40
16.0
 40
17.0
 40
17.0
 40
17.0
 40
18.0
 40
18.0
 40
18.0
 40
19.0
 40
19.0
 40
19.0
 40
20.0
 40
20.0
 40
20.0
 40
21.0
 40
21.0
 40
21.0
 40
22.0
 40
22.0
 40
22.0
 40
23.0
 40
23.0
 40
23.0
 40
24.0
 40
24.0
 40
24.0
 40
25.0
 40
25.0
 40
25.0
 40
26.0
 40
26.0
 40
26.0
 40
27.0
 40
27.0
 40
27.0
 40
28.0
 40
28.0
 40
28.0
 40
29.0
 40
29.0
 40
29.0
 40
30.0
 40
30.0
 40
30.0
 40
31.0
 40
31.0
 40
31.0
 40
32.0
 40
32.0
 40
32.0
 40
33.0
 40
33.0
 40
33.0
 40
34.0
 40
34.0
 40
34.0
 40
35.0
 40
35.0
 40
35.0
 40
36.0
 40
36.0
 40
36.0
 40
37.0
 40
37.0
 40
37.0
 40
38.0
 40
38.0
 40
38.0
 40
39.0
 40
39.0
 40
39.0
 40
40.0
 40
40.0
 40
40.0
 40
41.0
 40
41.0
 40
41.0
 40
42.0
 40
42.0
 40
42.0
 40
43.0
 40
43.0
 40
43.0
 40
44.0
 40
44.0
 40
44.0
 40
45.0
 40
45.0
 40
45.0
 40
46.0
 40
46.0
 40
46.0
 40
47.0
 40
47.0
 40
47.0
 40
48.0
 40
48.0
 40
48.0
 40
49.0
 40
49.0
 40
49.0
 40
50.0
 40
50.0
 40
50.0
 40
51.0
 40
51.0
 40
51.0
 40
52.0
 40
52.0
 40
52.0
 40
53.0
 40
53.0
 40
53.0
 40
54.0
 40
54.0
 40
54.0
 40
55.0
 40
55.0
 40
55.0
 40
56.0
 40
56.0
 40
56.0
 40
57.0
 40
57.0
 40
57.0
 40
57.0
 10
11.68090522872785
 20
-7.995031765548547
 30
0.0
 10
11.30265034396686
 20
-8.377142619256372
 30
0.0
 10
10.3865001613252
 20
-8.8992052355983
 30
0.0
 10
10.61223986981033
 20
-7.890012277660136
 30
0.0
 10
10.94780577357882
 20
-7.899360616674231
 30
0.0
 10
11.36040387580675
 20
-7.716359369992991
 30
0.0
 10
11.49075164856771
 20
-7.388896538151331
 30
0.0
 10
11.56850131879272
 20
-7.193569856969033
 30
0.0
 10
11.40534541183327
 20
-7.024482143212329
 30
0.0
 10
11.21435890468089
 20
-7.012478333985579
 30
0.0
 10
10.71688353915495
 20
-7.003536444493824
 30
0.0
 10
10.32166616099451
 20
-7.46509580961861
 30
0.0
 10
10.24000515043839
 20
-7.92526499956552
 30
0.0
 10
9.651284812430756
 20
-8.484580776331464
 30
0.0
 10
9.757775765401599
 20
-7.802814128683622
 30
0.0
 10
9.886609660956184
 20
-7.397183395949064
 30
0.0
 10
10.07784003782189
 20
-6.883772852917748
 30
0.0
 10
9.456862923228703
 20
-7.106662702288304
 30
0.0
 10
9.280214070241755
 20
-7.308933190672708
 30
0.0
 10
9.11403983378591
 20
-7.499210472861351
 30
0.0
 10
9.110981448394517
 20
-7.494257679261434
 30
0.0
 10
9.132412530310754
 20
-7.316797105344297
 30
0.0
 10
9.167417848158973
 20
-7.026934977721187
 30
0.0
 10
9.01787976737008
 20
-6.428340861606759
 30
0.0
 10
8.647320326899084
 20
-6.862096723173535
 30
0.0
 10
8.495285821362838
 20
-7.04006035200675
 30
0.0
 10
8.382487243050921
 20
-7.264166015600671
 30
0.0
 10
8.314338028355223
 20
-7.492339708761746
 30
0.0
 10
8.311721435922992
 20
-7.197933593290195
 30
0.0
 10
8.332922785500488
 20
-6.906680112374588
 30
0.0
 10
8.338224301009506
 20
-6.612930206711603
 30
0.0
 10
8.334718232086187
 20
-6.589735487302682
 30
0.0
 10
8.331550282041032
 20
-6.563728608444913
 30
0.0
 10
8.324845632093961
 20
-6.540151001804841
 30
0.0
 10
8.317798150810757
 20
-6.519372595353464
 30
0.0
 10
8.300228928414096
 20
-6.505850196461981
 30
0.0
 10
8.275329477240499
 20
-6.500027954318638
 30
0.0
 10
8.237807706697291
 20
-6.492715397259972
 30
0.0
 10
8.204812252284253
 20
-6.503907485556637
 30
0.0
 10
8.188465912798392
 20
-6.532539203648563
 30
0.0
 10
8.165842578949801
 20
-6.572167443020639
 30
0.0
 10
8.1474581012795
 20
-6.613142267331922
 30
0.0
 10
8.133352535682029
 20
-6.654185422287583
 30
0.0
 10
8.110823450998117
 20
-6.73042710587894
 30
0.0
 10
8.090363135477293
 20
-6.811659282736046
 30
0.0
 10
8.072743254154652
 20
-6.895400843600681
 30
0.0
 10
7.962179559158407
 20
-6.927762472381801
 30
0.0
 10
7.846714907602871
 20
-6.956136183385651
 30
0.0
 10
7.816799044643125
 20
-6.956311722454706
 30
0.0
 10
7.775143270117572
 20
-6.776410095174368
 30
0.0
 10
7.741194721027441
 20
-6.668120161274196
 30
0.0
 10
7.637413431538966
 20
-6.546083986716641
 30
0.0
 10
7.452332812663699
 20
-6.348693248829552
 30
0.0
 10
7.159043549792714
 20
-6.309159258622103
 30
0.0
 10
6.914402171346183
 20
-6.404407464370252
 30
0.0
 10
6.540576997321598
 20
-6.549952914923576
 30
0.0
 10
6.460733817527853
 20
-7.039934293749107
 30
0.0
 10
6.508835056797857
 20
-7.389473814284529
 30
0.0
 10
6.414145277349942
 20
-7.558678161382381
 30
0.0
 10
6.195600314467583
 20
-8.013600029090007
 30
0.0
 10
5.921255133681876
 20
-7.946300234990404
 30
0.0
 10
5.652112506782158
 20
-7.880275160842049
 30
0.0
 10
5.648559313276589
 20
-7.381824316462421
 30
0.0
 10
5.663109028062308
 20
-7.177803149845456
 30
0.0
 10
5.679510738932422
 20
-6.947810447807519
 30
0.0
 10
5.81248099469854
 20
-6.305580146596311
 30
0.0
 10
6.119031115029252
 20
-6.388407490564279
 30
0.0
 10
6.192366390007034
 20
-6.408222199307602
 30
0.0
 10
6.235963697323541
 20
-6.476089844623933
 30
0.0
 10
6.248172498483275
 20
-6.546757868243553
 30
0.0
 10
6.254322256473692
 20
-6.572200430228248
 30
0.0
 10
6.254167923466588
 20
-6.60044454863075
 30
0.0
 10
6.26027291310384
 20
-6.625904782333792
 30
0.0
 10
6.263363107588273
 20
-6.631564444668229
 30
0.0
 10
6.272706734144094
 20
-6.637275944043217
 30
0.0
 10
6.275834628294382
 20
-6.637297150105218
 30
0.0
 10
6.288315573917012
 20
-6.640202380604124
 30
0.0
 10
6.300831862976312
 20
-6.637482114090769
 30
0.0
 10
6.307132419630079
 20
-6.631882535598783
 30
0.0
 10
6.332410045576757
 20
-6.601030071565851
 30
0.0
 10
6.332595009562308
 20
-6.567039110351642
 30
0.0
 10
6.323693175965344
 20
-6.533177741738755
 30
0.0
 10
6.222539081940213
 20
-6.148425555192944
 30
0.0
 10
5.75004681372161
 20
-6.337168932227668
 30
0.0
 10
5.585042445021322
 20
-6.54444640748165
 30
0.0
 10
5.417343139270618
 20
-6.755109783973997
 30
0.0
 10
5.319794075791606
 20
-7.020834700542208
 30
0.0
 10
5.309585713150505
 20
-7.290892722453059
 30
0.0
 10
5.266585120857422
 20
-7.453331157646971
 30
0.0
 10
5.16989372477633
 20
-7.81683251380385
 30
0.0
 10
5.038364303114096
 20
-7.818689222346544
 30
0.0
 10
4.875732068075497
 20
-7.820984189504643
 30
0.0
 10
4.789662552845079
 20
-7.266341993188436
 30
0.0
 10
4.775166442271736
 20
-7.062254852156279
 30
0.0
 10
4.896503405839515
 20
-6.84599896585928
 30
0.0
 10
5.64714439769298
 20
-5.09522648418691
 30
0.0
 10
5.017119952355213
 20
-5.154255914092573
 30
0.0
 10
4.407112262407306
 20
-5.2114097856226
 30
0.0
 10
4.324314371303267
 20
-6.435421330097546
 30
0.0
 10
4.369473269465768
 20
-6.889564464082619
 30
0.0
 10
4.382398364276469
 20
-7.019543486987155
 30
0.0
 10
4.413831049728969
 20
-7.169257106845079
 30
0.0
 10
4.458228296830081
 20
-7.314945109259851
 30
0.0
 10
4.240876763994518
 20
-7.817143536047044
 30
0.0
 10
3.670040204970216
 20
-8.398541892079567
 30
0.0
 10
3.511593810954663
 20
-7.502339545126183
 30
0.0
 10
3.820900130292709
 20
-7.373179311839167
 30
0.0
 10
4.117476921836619
 20
-7.036408196878356
 30
0.0
 10
4.102154952958421
 20
-6.68595917190449
 30
0.0
 10
4.093043414970351
 20
-6.47756013159172
 30
0.0
 10
3.877972122860911
 20
-6.387942135314056
 30
0.0
 10
3.699043029147838
 20
-6.455477552325166
 30
0.0
 10
3.198843862764811
 20
-6.650037280930519
 30
0.0
 10
3.056034583271336
 20
-7.343714666755027
 30
0.0
 10
3.224216915990635
 20
-7.799735715344796
 30
0.0
 10
3.57970355881245
 20
-8.580615962604067
 30
0.0
 10
4.313545226132848
 20
-7.999844363516129
 30
0.0
 10
4.499968306546458
 20
-7.439874733170755
 30
0.0
 10
4.579217127545917
 20
-7.654465943597946
 30
0.0
 10
4.742550929803555
 20
-8.002965188979058
 30
0.0
 10
4.983252693169661
 20
-7.98957709514717
 30
0.0
 10
5.157258446146746
 20
-7.979898884056941
 30
0.0
 10
5.281822265487563
 20
-7.741783082144744
 30
0.0
 10
5.338856558389933
 20
-7.578432786283277
 30
0.0
 10
5.374465659948959
 20
-7.720785546385665
 30
0.0
 10
5.445318058496746
 20
-7.85090947738076
 30
0.0
 10
5.546627663643549
 20
-7.955911293550798
 30
0.0
 10
5.925702516136602
 20
-8.348799539231043
 30
0.0
 10
6.374897568979931
 20
-7.91026760124795
 30
0.0
 10
6.539797085484527
 20
-7.545168721751097
 30
0.0
 10
6.614040686786337
 20
-7.892174117873234
 30
0.0
 10
6.927244798137988
 20
-8.167003503742105
 30
0.0
 10
7.284702426614658
 20
-7.986301936677187
 30
0.0
 10
7.632320442306738
 20
-7.810573191159619
 30
0.0
 10
7.813424924550342
 20
-7.426538476379366
 30
0.0
 10
7.829840772795225
 20
-7.045517378637264
 30
0.0
 10
7.873227197605779
 20
-7.033452307453494
 30
0.0
 10
7.964601762688668
 20
-7.00585615205763
 30
0.0
 10
8.056835173284247
 20
-6.976073416042961
 30
0.0
 10
8.008895335708681
 20
-7.300295254736814
 30
0.0
 10
7.951706120741896
 20
-7.683974178920683
 30
0.0
 10
8.0971431847559
 20
-7.994738415023726
 30
0.0
 10
8.15689008642716
 20
-8.13269327348285
 30
0.0
 10
8.379084848208675
 20
-8.147661218936415
 30
0.0
 10
8.359043941470366
 20
-7.991056807031428
 30
0.0
 10
8.354704945554936
 20
-7.635762196882397
 30
0.0
 10
8.503665750210505
 20
-7.168404151905406
 30
0.0
 10
8.738194193295081
 20
-6.909607727050115
 30
0.0
 10
8.919146698760768
 20
-6.709929090692235
 30
0.0
 10
8.905791592136463
 20
-6.866858662215109
 30
0.0
 10
8.852757587214102
 20
-7.184299273515736
 30
0.0
 10
8.811012275982169
 20
-7.434169124368559
 30
0.0
 10
8.77308759026035
 20
-7.697868862012355
 30
0.0
 10
8.80312597713396
 20
-7.951441526919502
 30
0.0
 10
8.83235028684842
 20
-8.198144605841662
 30
0.0
 10
9.080251508275497
 20
-8.104986375318529
 30
0.0
 10
9.114586478940636
 20
-7.864382395460829
 30
0.0
 10
9.144085289346878
 20
-7.74599130734431
 30
0.0
 10
9.641749153202024
 20
-7.107982190592717
 30
0.0
 10
9.580195023799535
 20
-7.389975691086015
 30
0.0
 10
9.539679664165634
 20
-7.575585283397686
 30
0.0
 10
9.343965383294112
 20
-8.109390167534633
 30
0.0
 10
9.546379601654381
 20
-8.297186340465082
 30
0.0
 10
9.750908535645774
 20
-8.48694525224841
 30
0.0
 10
10.07381088603509
 20
-8.215356859527345
 30
0.0
 10
10.228211045603
 20
-8.080946947771887
 30
0.0
 10
10.27180717480478
 20
-9.083839349056309
 30
0.0
 10
11.37234524496204
 20
-8.512324196046999
 30
0.0
 10
11.70427666532035
 20
-8.050741268631075
 30
0.0
 10
11.7374712210937
 20
-8.02030585715152
 30
0.0
 10
11.69784533795077
 20
-7.973948227426818
 30
0.0
 10
11.68090522872785
 20
-7.995031765548547
 30
0.0
  0
SPLINE
  5
72
330
6B
100
AcDbEntity
  8
Layer 1
370
     0
100
AcDbSpline
210
0.0
220
0.0
230
1.0
 70
    11
 71
     3
 72
    14
 73
    10
 74
     0
 42
0.0000000001
 43
0.0000000001
 12
1.0
 22
0.0
 32
0.0
 13
1.0
 23
0.0
 33
0.0
 40
0.0
 40
0.0
 40
0.0
 40
0.0
 40
1.0
 40
1.0
 40
1.0
 40
2.0
 40
2.0
 40
2.0
 40
3.0
 40
3.0
 40
3.0
 40
3.0
 10
11.05611220108285
 20
-7.213568351583338
 30
0.0
 10
11.34764018269036
 20
-6.977390548118263
 30
0.0
 10
11.27634186778245
 20
-7.443452667082005
 30
0.0
 10
11.12268392038578
 20
-7.580250617045547
 30
0.0
 10
11.0188201628784
 20
-7.67271729432337
 30
0.0
 10
10.84334471199061
 20
-7.786322881107177
 30
0.0
 10
10.66993920838063
 20
-7.771092216107263
 30
0.0
 10
10.7282299604587
 20
-7.545542184065829
 30
0.0
 10
10.85864135140577
 20
-7.340772914704858
 30
0.0
 10
11.05611220108285
 20
-7.213568351583338
 30
0.0
  0
SPLINE
  5
73
330
6B
100
AcDbEntity
  8
Layer 1
370
     0
100
AcDbSpline
210
0.0
220
0.0
230
1.0
 70
    11
 71
     3
 72
    14
 73
    10
 74
     0
 42
0.0000000001
 43
0.0000000001
 12
1.0
 22
0.0
 32
0.0
 13
1.0
 23
0.0
 33
0.0
 40
0.0
 40
0.0
 40
0.0
 40
0.0
 40
1.0
 40
1.0
 40
1.0
 40
2.0
 40
2.0
 40
2.0
 40
3.0
 40
3.0
 40
3.0
 40
3.0
 10
3.637807579733261
 20
-6.703653274444251
 30
0.0
 10
3.805202931927978
 20
-6.368513848145615
 30
0.0
 10
3.930034772330625
 20
-6.824883618644435
 30
0.0
 10
3.847521984949379
 20
-7.011030431194361
 30
0.0
 10
3.791258768024944
 20
-7.137958137394839
 30
0.0
 10
3.678807733507584
 20
-7.313249802411519
 30
0.0
 10
3.515379093027983
 20
-7.370239916018085
 30
0.0
 10
3.476207962104253
 20
-7.14088221772666
 30
0.0
 10
3.510668401969648
 20
-6.900843732856528
 30
0.0
 10
3.637807579733261
 20
-6.703653274444251
 30
0.0
  0
SPLINE
  5
74
330
6B
100
AcDbEntity
  8
Layer 1
370
     0
100
AcDbSpline
210
0.0
220
0.0
230
1.0
 70
    11
 71
     3
 72
    11
 73
     7
 74
     0
 42
0.0000000001
 43
0.0000000001
 12
1.0
 22
0.0
 32
0.0
 13
1.0
 23
0.0
 33
0.0
 40
0.0
 40
0.0
 40
0.0
 40
0.0
 40
1.0
 40
1.0
 40
1.0
 40
2.0
 40
2.0
 40
2.0
 40
2.0
 10
5.048017773798543
 20
-5.217504172228788
 30
0.0
 10
5.348977740553815
 20
-5.232981063171198
 30
0.0
 10
4.900873621790626
 20
-6.59302007068911
 30
0.0
 10
4.748851486457296
 20
-6.812209462234376
 30
0.0
 10
4.725061230139519
 20
-6.498194808067081
 30
0.0
 10
4.7499983809791
 20
-5.202179258064297
 30
0.0
 10
5.048017773798543
 20
-5.217504172228788
 30
0.0
  0
SPLINE
  5
75
330
6B
100
AcDbEntity
  8
Layer 1
370
     0
100
AcDbSpline
210
0.0
220
0.0
230
1.0
 70
    11
 71
     3
 72
    14
 73
    10
 74
     0
 42
0.0000000001
 43
0.0000000001
 12
1.0
 22
0.0
 32
0.0
 13
1.0
 23
0.0
 33
0.0
 40
0.0
 40
0.0
 40
0.0
 40
0.0
 40
1.0
 40
1.0
 40
1.0
 40
2.0
 40
2.0
 40
2.0
 40
3.0
 40
3.0
 40
3.0
 40
3.0
 10
7.15252975440396
 20
-6.461339850363502
 30
0.0
 10
7.412715176322585
 20
-6.399042330675254
 30
0.0
 10
7.628359621164236
 20
-6.746104276296137
 30
0.0
 10
7.634465788916057
 20
-6.987978263646911
 30
0.0
 10
7.423572680084943
 20
-7.030120599484765
 30
0.0
 10
7.170230925631055
 20
-7.029651709890863
 30
0.0
 10
7.035724408481883
 20
-6.831286671264681
 30
0.0
 10
6.940499765024949
 20
-6.690851881661981
 30
0.0
 10
7.001531989678394
 20
-6.49749500801992
 30
0.0
 10
7.15252975440396
 20
-6.461339850363502
 30
0.0
  0
SPLINE
  5
76
330
6B
100
AcDbEntity
  8
Layer 1
370
     0
100
AcDbSpline
210
0.0
220
0.0
230
1.0
 70
    11
 71
     3
 72
    14
 73
    10
 74
     0
 42
0.0000000001
 43
0.0000000001
 12
1.0
 22
0.0
 32
0.0
 13
1.0
 23
0.0
 33
0.0
 40
0.0
 40
0.0
 40
0.0
 40
0.0
 40
1.0
 40
1.0
 40
1.0
 40
2.0
 40
2.0
 40
2.0
 40
3.0
 40
3.0
 40
3.0
 40
3.0
 10
7.202181392431612
 20
-7.870428479370124
 30
0.0
 10
6.855299698337982
 20
-7.967077463327213
 30
0.0
 10
6.778149688422722
 20
-7.124231924684914
 30
0.0
 10
6.847050540206055
 20
-6.901945269967857
 30
0.0
 10
7.032577664498679
 20
-7.14056530491065
 30
0.0
 10
7.368018688124089
 20
-7.148782653949537
 30
0.0
 10
7.641039668147161
 20
-7.09058615103605
 30
0.0
 10
7.638021338650636
 20
-7.388128407459791
 30
0.0
 10
7.49283874738118
 20
-7.789444884684699
 30
0.0
 10
7.202181392431612
 20
-7.870428479370124
 30
0.0
  0
HATCH
  5
77
330
6B
100
AcDbEntity
  8
Layer 1
 62
   250
420
  2301728
100
AcDbHatch
 10
0.0
 20
0.0
 30
0.0
210
0.0
220
0.0
230
1.0
  2
SOLID
 70
     1
 71
     0
 91
        6
 92
        1
 93
        1
 72
     4
 94
        3
 73
     0
 74
     1
 95
      176
 96
      172
 40
0.0
 40
0.0
 40
0.0
 40
0.0
 40
1.0
 40
1.0
 40
1.0
 40
2.0
 40
2.0
 40
2.0
 40
3.0
 40
3.0
 40
3.0
 40
4.0
 40
4.0
 40
4.0
 40
5.0
 40
5.0
 40
5.0
 40
6.0
 40
6.0
 40
6.0
 40
7.0
 40
7.0
 40
7.0
 40
8.0
 40
8.0
 40
8.0
 40
9.0
 40
9.0
 40
9.0
 40
10.0
 40
10.0
 40
10.0
 40
11.0
 40
11.0
 40
11.0
 40
12.0
 40
12.0
 40
12.0
 40
13.0
 40
13.0
 40
13.0
 40
14.0
 40
14.0
 40
14.0
 40
15.0
 40
15.0
 40
15.0
 40
16.0
 40
16.0
 40
16.0
 40
17.0
 40
17.0
 40
17.0
 40
18.0
 40
18.0
 40
18.0
 40
19.0
 40
19.0
 40
19.0
 40
20.0
 40
20.0
 40
20.0
 40
21.0
 40
21.0
 40
21.0
 40
22.0
 40
22.0
 40
22.0
 40
23.0
 40
23.0
 40
23.0
 40
24.0
 40
24.0
 40
24.0
 40
25.0
 40
25.0
 40
25.0
 40
26.0
 40
26.0
 40
26.0
 40
27.0
 40
27.0
 40
27.0
 40
28.0
 40
28.0
 40
28.0
 40
29.0
 40
29.0
 40
29.0
 40
30.0
 40
30.0
 40
30.0
 40
31.0
 40
31.0
 40
31.0
 40
32.0
 40
32.0
 40
32.0
 40
33.0
 40
33.0
 40
33.0
 40
34.0
 40
34.0
 40
34.0
 40
35.0
 40
35.0
 40
35.0
 40
36.0
 40
36.0
 40
36.0
 40
37.0
 40
37.0
 40
37.0
 40
38.0
 40
38.0
 40
38.0
 40
39.0
 40
39.0
 40
39.0
 40
40.0
 40
40.0
 40
40.0
 40
41.0
 40
41.0
 40
41.0
 40
42.0
 40
42.0
 40
42.0
 40
43.0
 40
43.0
 40
43.0
 40
44.0
 40
44.0
 40
44.0
 40
45.0
 40
45.0
 40
45.0
 40
46.0
 40
46.0
 40
46.0
 40
47.0
 40
47.0
 40
47.0
 40
48.0
 40
48.0
 40
48.0
 40
49.0
 40
49.0
 40
49.0
 40
50.0
 40
50.0
 40
50.0
 40
51.0
 40
51.0
 40
51.0
 40
52.0
 40
52.0
 40
52.0
 40
53.0
 40
53.0
 40
53.0
 40
54.0
 40
54.0
 40
54.0
 40
55.0
 40
55.0
 40
55.0
 40
56.0
 40
56.0
 40
56.0
 40
57.0
 40
57.0
 40
57.0
 40
57.0
 10
11.68090522872785
 20
-7.995031765548547
 10
11.30265034396686
 20
-8.377142619256372
 10
10.3865001613252
 20
-8.8992052355983
 10
10.61223986981033
 20
-7.890012277660136
 10
10.94780577357882
 20
-7.899360616674231
 10
11.36040387580675
 20
-7.716359369992991
 10
11.49075164856771
 20
-7.388896538151331
 10
11.56850131879272
 20
-7.193569856969033
 10
11.40534541183327
 20
-7.024482143212329
 10
11.21435890468089
 20
-7.012478333985579
 10
10.71688353915495
 20
-7.003536444493824
 10
10.32166616099451
 20
-7.46509580961861
 10
10.24000515043839
 20
-7.92526499956552
 10
9.651284812430756
 20
-8.484580776331464
 10
9.757775765401599
 20
-7.802814128683622
 10
9.886609660956184
 20
-7.397183395949064
 10
10.07784003782189
 20
-6.883772852917748
 10
9.456862923228703
 20
-7.106662702288304
 10
9.280214070241755
 20
-7.308933190672708
 10
9.11403983378591
 20
-7.499210472861351
 10
9.110981448394517
 20
-7.494257679261434
 10
9.132412530310754
 20
-7.316797105344297
 10
9.167417848158973
 20
-7.026934977721187
 10
9.01787976737008
 20
-6.428340861606759
 10
8.647320326899084
 20
-6.862096723173535
 10
8.495285821362838
 20
-7.04006035200675
 10
8.382487243050921
 20
-7.264166015600671
 10
8.314338028355223
 20
-7.492339708761746
 10
8.311721435922992
 20
-7.197933593290195
 10
8.332922785500488
 20
-6.906680112374588
 10
8.338224301009506
 20
-6.612930206711603
 10
8.334718232086187
 20
-6.589735487302682
 10
8.331550282041032
 20
-6.563728608444913
 10
8.324845632093961
 20
-6.540151001804841
 10
8.317798150810757
 20
-6.519372595353464
 10
8.300228928414096
 20
-6.505850196461981
 10
8.275329477240499
 20
-6.500027954318638
 10
8.237807706697291
 20
-6.492715397259972
 10
8.204812252284253
 20
-6.503907485556637
 10
8.188465912798392
 20
-6.532539203648563
 10
8.165842578949801
 20
-6.572167443020639
 10
8.1474581012795
 20
-6.613142267331922
 10
8.133352535682029
 20
-6.654185422287583
 10
8.110823450998117
 20
-6.73042710587894
 10
8.090363135477293
 20
-6.811659282736046
 10
8.072743254154652
 20
-6.895400843600681
 10
7.962179559158407
 20
-6.927762472381801
 10
7.846714907602871
 20
-6.956136183385651
 10
7.816799044643125
 20
-6.956311722454706
 10
7.775143270117572
 20
-6.776410095174368
 10
7.741194721027441
 20
-6.668120161274196
 10
7.637413431538966
 20
-6.546083986716641
 10
7.452332812663699
 20
-6.348693248829552
 10
7.159043549792714
 20
-6.309159258622103
 10
6.914402171346183
 20
-6.404407464370252
 10
6.540576997321598
 20
-6.549952914923576
 10
6.460733817527853
 20
-7.039934293749107
 10
6.508835056797857
 20
-7.389473814284529
 10
6.414145277349942
 20
-7.558678161382381
 10
6.195600314467583
 20
-8.013600029090007
 10
5.921255133681876
 20
-7.946300234990404
 10
5.652112506782158
 20
-7.880275160842049
 10
5.648559313276589
 20
-7.381824316462421
 10
5.663109028062308
 20
-7.177803149845456
 10
5.679510738932422
 20
-6.947810447807519
 10
5.81248099469854
 20
-6.305580146596311
 10
6.119031115029252
 20
-6.388407490564279
 10
6.192366390007034
 20
-6.408222199307602
 10
6.235963697323541
 20
-6.476089844623933
 10
6.248172498483275
 20
-6.546757868243553
 10
6.254322256473692
 20
-6.572200430228248
 10
6.254167923466588
 20
-6.60044454863075
 10
6.26027291310384
 20
-6.625904782333792
 10
6.263363107588273
 20
-6.631564444668229
 10
6.272706734144094
 20
-6.637275944043217
 10
6.275834628294382
 20
-6.637297150105218
 10
6.288315573917012
 20
-6.640202380604124
 10
6.300831862976312
 20
-6.637482114090769
 10
6.307132419630079
 20
-6.631882535598783
 10
6.332410045576757
 20
-6.601030071565851
 10
6.332595009562308
 20
-6.567039110351642
 10
6.323693175965344
 20
-6.533177741738755
 10
6.222539081940213
 20
-6.148425555192944
 10
5.75004681372161
 20
-6.337168932227668
 10
5.585042445021322
 20
-6.54444640748165
 10
5.417343139270618
 20
-6.755109783973997
 10
5.319794075791606
 20
-7.020834700542208
 10
5.309585713150505
 20
-7.290892722453059
 10
5.266585120857422
 20
-7.453331157646971
 10
5.16989372477633
 20
-7.81683251380385
 10
5.038364303114096
 20
-7.818689222346544
 10
4.875732068075497
 20
-7.820984189504643
 10
4.789662552845079
 20
-7.266341993188436
 10
4.775166442271736
 20
-7.062254852156279
 10
4.896503405839515
 20
-6.84599896585928
 10
5.64714439769298
 20
-5.09522648418691
 10
5.017119952355213
 20
-5.154255914092573
 10
4.407112262407306
 20
-5.2114097856226
 10
4.324314371303267
 20
-6.435421330097546
 10
4.369473269465768
 20
-6.889564464082619
 10
4.382398364276469
 20
-7.019543486987155
 10
4.413831049728969
 20
-7.169257106845079
 10
4.458228296830081
 20
-7.314945109259851
 10
4.240876763994518
 20
-7.817143536047044
 10
3.670040204970216
 20
-8.398541892079567
 10
3.511593810954663
 20
-7.502339545126183
 10
3.820900130292709
 20
-7.373179311839167
 10
4.117476921836619
 20
-7.036408196878356
 10
4.102154952958421
 20
-6.68595917190449
 10
4.093043414970351
 20
-6.47756013159172
 10
3.877972122860911
 20
-6.387942135314056
 10
3.699043029147838
 20
-6.455477552325166
 10
3.198843862764811
 20
-6.650037280930519
 10
3.056034583271336
 20
-7.343714666755027
 10
3.224216915990635
 20
-7.799735715344796
 10
3.57970355881245
 20
-8.580615962604067
 10
4.313545226132848
 20
-7.999844363516129
 10
4.499968306546458
 20
-7.439874733170755
 10
4.579217127545917
 20
-7.654465943597946
 10
4.742550929803555
 20
-8.002965188979058
 10
4.983252693169661
 20
-7.98957709514717
 10
5.157258446146746
 20
-7.979898884056941
 10
5.281822265487563
 20
-7.741783082144744
 10
5.338856558389933
 20
-7.578432786283277
 10
5.374465659948959
 20
-7.720785546385665
 10
5.445318058496746
 20
-7.85090947738076
 10
5.546627663643549
 20
-7.955911293550798
 10
5.925702516136602
 20
-8.348799539231043
 10
6.374897568979931
 20
-7.91026760124795
 10
6.539797085484527
 20
-7.545168721751097
 10
6.614040686786337
 20
-7.892174117873234
 10
6.927244798137988
 20
-8.167003503742105
 10
7.284702426614658
 20
-7.986301936677187
 10
7.632320442306738
 20
-7.810573191159619
 10
7.813424924550342
 20
-7.426538476379366
 10
7.829840772795225
 20
-7.045517378637264
 10
7.873227197605779
 20
-7.033452307453494
 10
7.964601762688668
 20
-7.00585615205763
 10
8.056835173284247
 20
-6.976073416042961
 10
8.008895335708681
 20
-7.300295254736814
 10
7.951706120741896
 20
-7.683974178920683
 10
8.0971431847559
 20
-7.994738415023726
 10
8.15689008642716
 20
-8.13269327348285
 10
8.379084848208675
 20
-8.147661218936415
 10
8.359043941470366
 20
-7.991056807031428
 10
8.354704945554936
 20
-7.635762196882397
 10
8.503665750210505
 20
-7.168404151905406
 10
8.738194193295081
 20
-6.909607727050115
 10
8.919146698760768
 20
-6.709929090692235
 10
8.905791592136463
 20
-6.866858662215109
 10
8.852757587214102
 20
-7.184299273515736
 10
8.811012275982169
 20
-7.434169124368559
 10
8.77308759026035
 20
-7.697868862012355
 10
8.80312597713396
 20
-7.951441526919502
 10
8.83235028684842
 20
-8.198144605841662
 10
9.080251508275497
 20
-8.104986375318529
 10
9.114586478940636
 20
-7.864382395460829
 10
9.144085289346878
 20
-7.74599130734431
 10
9.641749153202024
 20
-7.107982190592717
 10
9.580195023799535
 20
-7.389975691086015
 10
9.539679664165634
 20
-7.575585283397686
 10
9.343965383294112
 20
-8.109390167534633
 10
9.546379601654381
 20
-8.297186340465082
 10
9.750908535645774
 20
-8.48694525224841
 10
10.07381088603509
 20
-8.215356859527345
 10
10.228211045603
 20
-8.080946947771887
 10
10.27180717480478
 20
-9.083839349056309
 10
11.37234524496204
 20
-8.512324196046999
 10
11.70427666532035
 20
-8.050741268631075
 10
11.7374712210937
 20
-8.02030585715152
 10
11.69784533795077
 20
-7.973948227426818
 10
11.68090522872785
 20
-7.995031765548547
 97
        0
 97
        0
 92
        1
 93
        1
 72
     4
 94
        3
 73
     0
 74
     1
 95
       14
 96
       10
 40
0.0
 40
0.0
 40
0.0
 40
0.0
 40
1.0
 40
1.0
 40
1.0
 40
2.0
 40
2.0
 40
2.0
 40
3.0
 40
3.0
 40
3.0
 40
3.0
 10
11.05611220108285
 20
-7.213568351583338
 10
11.34764018269036
 20
-6.977390548118263
 10
11.27634186778245
 20
-7.443452667082005
 10
11.12268392038578
 20
-7.580250617045547
 10
11.0188201628784
 20
-7.67271729432337
 10
10.84334471199061
 20
-7.786322881107177
 10
10.66993920838063
 20
-7.771092216107263
 10
10.7282299604587
 20
-7.545542184065829
 10
10.85864135140577
 20
-7.340772914704858
 10
11.05611220108285
 20
-7.213568351583338
 97
        0
 97
        0
 92
        1
 93
        1
 72
     4
 94
        3
 73
     0
 74
     1
 95
       14
 96
       10
 40
0.0
 40
0.0
 40
0.0
 40
0.0
 40
1.0
 40
1.0
 40
1.0
 40
2.0
 40
2.0
 40
2.0
 40
3.0
 40
3.0
 40
3.0
 40
3.0
 10
3.637807579733261
 20
-6.703653274444251
 10
3.805202931927978
 20
-6.368513848145615
 10
3.930034772330625
 20
-6.824883618644435
 10
3.847521984949379
 20
-7.011030431194361
 10
3.791258768024944
 20
-7.137958137394839
 10
3.678807733507584
 20
-7.313249802411519
 10
3.515379093027983
 20
-7.370239916018085
 10
3.476207962104253
 20
-7.14088221772666
 10
3.510668401969648
 20
-6.900843732856528
 10
3.637807579733261
 20
-6.703653274444251
 97
        0
 97
        0
 92
        1
 93
        1
 72
     4
 94
        3
 73
     0
 74
     1
 95
       11
 96
        7
 40
0.0
 40
0.0
 40
0.0
 40
0.0
 40
1.0
 40
1.0
 40
1.0
 40
2.0
 40
2.0
 40
2.0
 40
2.0
 10
5.048017773798543
 20
-5.217504172228788
 10
5.348977740553815
 20
-5.232981063171198
 10
4.900873621790626
 20
-6.59302007068911
 10
4.748851486457296
 20
-6.812209462234376
 10
4.725061230139519
 20
-6.498194808067081
 10
4.7499983809791
 20
-5.202179258064297
 10
5.048017773798543
 20
-5.217504172228788
 97
        0
 97
        0
 92
        1
 93
        1
 72
     4
 94
        3
 73
     0
 74
     1
 95
       14
 96
       10
 40
0.0
 40
0.0
 40
0.0
 40
0.0
 40
1.0
 40
1.0
 40
1.0
 40
2.0
 40
2.0
 40
2.0
 40
3.0
 40
3.0
 40
3.0
 40
3.0
 10
7.15252975440396
 20
-6.461339850363502
 10
7.412715176322585
 20
-6.399042330675254
 10
7.628359621164236
 20
-6.746104276296137
 10
7.634465788916057
 20
-6.987978263646911
 10
7.423572680084943
 20
-7.030120599484765
 10
7.170230925631055
 20
-7.029651709890863
 10
7.035724408481883
 20
-6.831286671264681
 10
6.940499765024949
 20
-6.690851881661981
 10
7.001531989678394
 20
-6.49749500801992
 10
7.15252975440396
 20
-6.461339850363502
 97
        0
 97
        0
 92
        1
 93
        1
 72
     4
 94
        3
 73
     0
 74
     1
 95
       14
 96
       10
 40
0.0
 40
0.0
 40
0.0
 40
0.0
 40
1.0
 40
1.0
 40
1.0
 40
2.0
 40
2.0
 40
2.0
 40
3.0
 40
3.0
 40
3.0
 40
3.0
 10
7.202181392431612
 20
-7.870428479370124
 10
6.855299698337982
 20
-7.967077463327213
 10
6.778149688422722
 20
-7.124231924684914
 10
6.847050540206055
 20
-6.901945269967857
 10
7.032577664498679
 20
-7.14056530491065
 10
7.368018688124089
 20
-7.148782653949537
 10
7.641039668147161
 20
-7.09058615103605
 10
7.638021338650636
 20
-7.388128407459791
 10
7.49283874738118
 20
-7.789444884684699
 10
7.202181392431612
 20
-7.870428479370124
 97
        0
 97
        0
 75
     2
 76
     1
 98
        0
  0
ENDBLK
  5
6E
330
6B
100
AcDbEntity
  8
0
100
AcDbBlockEnd
  0
ENDSEC
  0
SECTION
  2
ENTITIES
  0
INSERT
  5
42
330
1F
100
AcDbEntity
  8
Layer 1
100
AcDbBlockReference
  2
block 2
 10
0.0
 20
0.0
 30
0.0
  0
ENDSEC
  0
SECTION
  2
OBJECTS
  0
DICTIONARY
  5
C
330
0
100
AcDbDictionary
281
     1
  3
ACAD_GROUP
350
D
  3
ACAD_LAYOUT
350
1A
  3
ACAD_MATERIAL
350
3B
  3
ACAD_MLEADERSTYLE
350
79
  3
ACAD_MLINESTYLE
350
17
  3
ACAD_PLOTSETTINGS
350
19
  3
ACAD_PLOTSTYLENAME
350
E
  3
ACAD_TABLESTYLE
350
78
  3
ACAD_VISUALSTYLE
350
2A
  0
SUN
  5
3F
330
29
100
AcDbSun
 90
        1
290
     0
 63
     7
421
 16777215
 40
1.0
291
     1
 91
  2455826
 92
 54000000
292
     0
 70
     2
 71
   256
280
     1
  0
DICTIONARY
  5
D
102
{ACAD_REACTORS
330
C
102
}
330
C
100
AcDbDictionary
281
     1
  0
DICTIONARY
  5
1A
102
{ACAD_REACTORS
330
C
102
}
330
C
100
AcDbDictionary
281
     1
  3
Layout1
350
1E
  3
Layout2
350
26
  3
Model
350
22
  0
DICTIONARY
  5
3B
102
{ACAD_REACTORS
330
C
102
}
330
C
100
AcDbDictionary
281
     1
  3
ByBlock
350
3D
  3
ByLayer
350
3C
  3
Global
350
3E
  0
DICTIONARY
  5
79
102
{ACAD_REACTORS
330
C
102
}
330
C
100
AcDbDictionary
281
     1
  0
DICTIONARY
  5
17
102
{ACAD_REACTORS
330
C
102
}
330
C
100
AcDbDictionary
281
     1
  3
Standard
350
18
  0
DICTIONARY
  5
19
102
{ACAD_REACTORS
330
C
102
}
330
C
100
AcDbDictionary
281
     1
  0
ACDBDICTIONARYWDFLT
  5
E
102
{ACAD_REACTORS
330
C
102
}
330
C
100
AcDbDictionary
281
     1
  3
Normal
350
F
100
AcDbDictionaryWithDefault
340
F
  0
DICTIONARY
  5
78
102
{ACAD_REACTORS
330
C
102
}
330
C
100
AcDbDictionary
281
     1
  0
DICTIONARY
  5
2A
102
{ACAD_REACTORS
330
C
102
}
330
C
100
AcDbDictionary
281
     1
  3
2dWireframe
350
2F
  3
3D Hidden
350
31
  3
3dWireframe
350
30
  3
Basic
350
32
  3
Brighten
350
36
  3
ColorChange
350
3A
  3
Conceptual
350
34
  3
Dim
350
35
  3
Facepattern
350
39
  3
Flat
350
2B
  3
FlatWithEdges
350
2C
  3
Gouraud
350
2D
  3
GouraudWithEdges
350
2E
  3
Linepattern
350
38
  3
Realistic
350
33
  3
Thicken
350
37
  0
LAYOUT
  5
1E
102
{ACAD_REACTORS
330
1A
102
}
330
1A
100
AcDbPlotSettings
  1

  2
none_device
  4

  6

 40
0.0
 41
0.0
 42
0.0
 43
0.0
 44
0.0
 45
0.0
 46
0.0
 47
0.0
 48
0.0
 49
0.0
140
0.0
141
0.0
142
1.0
143
1.0
 70
   688
 72
     0
 73
     0
 74
     5
  7

 75
    16
 76
     0
 77
     2
 78
   300
147
1.0
148
0.0
149
0.0
100
AcDbLayout
  1
Layout1
 70
     1
 71
     1
 10
0.0
 20
0.0
 11
12.0
 21
9.0
 12
0.0
 22
0.0
 32
0.0
 14
1.000000000000000E+20
 24
1.000000000000000E+20
 34
1.000000000000000E+20
 15
-1.000000000000000E+20
 25
-1.000000000000000E+20
 35
-1.000000000000000E+20
146
0.0
 13
0.0
 23
0.0
 33
0.0
 16
1.0
 26
0.0
 36
0.0
 17
0.0
 27
1.0
 37
0.0
 76
     0
330
1B
  0
LAYOUT
  5
26
102
{ACAD_REACTORS
330
1A
102
}
330
1A
100
AcDbPlotSettings
  1

  2
none_device
  4

  6

 40
0.0
 41
0.0
 42
0.0
 43
0.0
 44
0.0
 45
0.0
 46
0.0
 47
0.0
 48
0.0
 49
0.0
140
0.0
141
0.0
142
1.0
143
1.0
 70
   688
 72
     0
 73
     0
 74
     5
  7

 75
    16
 76
     0
 77
     2
 78
   300
147
1.0
148
0.0
149
0.0
100
AcDbLayout
  1
Layout2
 70
     1
 71
     2
 10
0.0
 20
0.0
 11
0.0
 21
0.0
 12
0.0
 22
0.0
 32
0.0
 14
0.0
 24
0.0
 34
0.0
 15
0.0
 25
0.0
 35
0.0
146
0.0
 13
0.0
 23
0.0
 33
0.0
 16
1.0
 26
0.0
 36
0.0
 17
0.0
 27
1.0
 37
0.0
 76
     0
330
23
  0
LAYOUT
  5
22
102
{ACAD_REACTORS
330
1A
102
}
330
1A
100
AcDbPlotSettings
  1

  2
none_device
  4

  6

 40
0.0
 41
0.0
 42
0.0
 43
0.0
 44
0.0
 45
0.0
 46
0.0
 47
0.0
 48
0.0
 49
0.0
140
0.0
141
0.0
142
1.0
143
1.0
 70
  1712
 72
     0
 73
     0
 74
     0
  7

 75
     0
 76
     0
 77
     2
 78
   300
147
1.0
148
0.0
149
0.0
100
AcDbLayout
  1
Model
 70
     1
 71
     0
 10
0.0
 20
0.0
 11
12.0
 21
9.0
 12
0.0
 22
0.0
 32
0.0
 14
1.000000000000000E+20
 24
1.000000000000000E+20
 34
1.000000000000000E+20
 15
-1.000000000000000E+20
 25
-1.000000000000000E+20
 35
-1.000000000000000E+20
146
0.0
 13
0.0
 23
0.0
 33
0.0
 16
1.0
 26
0.0
 36
0.0
 17
0.0
 27
1.0
 37
0.0
 76
     0
330
1F
331
29
  0
MATERIAL
  5
3D
102
{ACAD_REACTORS
330
3B
102
}
330
3B
100
AcDbMaterial
  1
ByBlock
 72
     1
 94
      127
  0
MATERIAL
  5
3C
102
{ACAD_REACTORS
330
3B
102
}
330
3B
100
AcDbMaterial
  1
ByLayer
 72
     1
 94
      127
  0
MATERIAL
  5
3E
102
{ACAD_REACTORS
330
3B
102
}
330
3B
100
AcDbMaterial
  1
Global
 72
     1
 94
      127
  0
MLINESTYLE
  5
18
102
{ACAD_REACTORS
330
17
102
}
330
17
100
AcDbMlineStyle
  2
Standard
 70
     0
  3

 62
   256
 51
90.0
 52
90.0
 71
     2
 49
0.5
 62
   256
  6
BYLAYER
 49
-0.5
 62
   256
  6
BYLAYER
  0
ACDBPLACEHOLDER
  5
F
102
{ACAD_REACTORS
330
E
102
}
330
E
  0
VISUALSTYLE
  5
2F
102
{ACAD_REACTORS
330
2A
102
}
330
2A
100
AcDbVisualStyle
  2
2dWireframe
 70
     4
177
     2
291
     0
 71
     0
176
     1
 72
     2
176
     1
 73
     0
176
     1
 90
        0
176
     1
 40
-0.6
176
     1
 41
-30.0
176
     1
 62
     5
 63
     7
421
 16777215
176
     1
 74
     1
176
     1
 91
        4
176
     1
 64
     7
176
     1
 65
   257
176
     1
 75
     1
176
     1
175
     1
176
     1
 42
1.0
176
     1
 92
        0
176
     1
 66
   257
176
     1
 43
1.0
176
     1
 76
     1
176
     1
 77
     6
176
     1
 78
     2
176
     1
 67
     7
176
     1
 79
     5
176
     1
170
     0
176
     1
171
     0
176
     1
290
     0
176
     1
 93
        1
176
     1
 44
0.0
176
     1
173
     0
176
     1
  0
VISUALSTYLE
  5
31
102
{ACAD_REACTORS
330
2A
102
}
330
2A
100
AcDbVisualStyle
  2
3D Hidden
 70
     6
177
     2
291
     0
 71
     1
176
     1
 72
     2
176
     1
 73
     2
176
     1
 90
        0
176
     1
 40
-0.6
176
     1
 41
-30.0
176
     1
 62
     5
 63
     7
421
 16777215
176
     1
 74
     2
176
     1
 91
        2
176
     1
 64
     7
176
     1
 65
   257
176
     1
 75
     2
176
     1
175
     1
176
     1
 42
40.0
176
     1
 92
        0
176
     1
 66
   257
176
     1
 43
1.0
176
     1
 76
     1
176
     1
 77
     6
176
     1
 78
     2
176
     1
 67
     7
176
     1
 79
     3
176
     1
170
     0
176
     1
171
     0
176
     1
290
     0
176
     1
 93
        1
176
     1
 44
0.0
176
     1
173
     0
176
     1
  0
VISUALSTYLE
  5
30
102
{ACAD_REACTORS
330
2A
102
}
330
2A
100
AcDbVisualStyle
  2
3dWireframe
 70
     5
177
     2
291
     0
 71
     0
176
     1
 72
     2
176
     1
 73
     0
176
     1
 90
        0
176
     1
 40
-0.6
176
     1
 41
-30.0
176
     1
 62
     5
 63
     7
421
 16777215
176
     1
 74
     1
176
     1
 91
        4
176
     1
 64
     7
176
     1
 65
   257
176
     1
 75
     1
176
     1
175
     1
176
     1
 42
1.0
176
     1
 92
        0
176
     1
 66
   257
176
     1
 43
1.0
176
     1
 76
     1
176
     1
 77
     6
176
     1
 78
     2
176
     1
 67
     7
176
     1
 79
     5
176
     1
170
     0
176
     1
171
     0
176
     1
290
     0
176
     1
 93
        1
176
     1
 44
0.0
176
     1
173
     0
176
     1
  0
VISUALSTYLE
  5
32
102
{ACAD_REACTORS
330
2A
102
}
330
2A
100
AcDbVisualStyle
  2
Basic
 70
     7
177
     2
291
     1
 71
     1
176
     1
 72
     0
176
     1
 73
     1
176
     1
 90
        0
176
     1
 40
-0.6
176
     1
 41
-30.0
176
     1
 62
     5
 63
     7
421
 16777215
176
     1
 74
     0
176
     1
 91
        4
176
     1
 64
     7
176
     1
 65
   257
176
     1
 75
     1
176
     1
175
     1
176
     1
 42
1.0
176
     1
 92
        8
176
     1
 66
     7
176
     1
 43
1.0
176
     1
 76
     1
176
     1
 77
     6
176
     1
 78
     2
176
     1
 67
     7
176
     1
 79
     5
176
     1
170
     0
176
     1
171
     0
176
     1
290
     0
176
     1
 93
        1
176
     1
 44
0.0
176
     1
173
     0
176
     1
  0
VISUALSTYLE
  5
36
102
{ACAD_REACTORS
330
2A
102
}
330
2A
100
AcDbVisualStyle
  2
Brighten
 70
    12
177
     2
291
     1
 71
     2
176
     1
 72
     2
176
     1
 73
     0
176
     1
 90
        0
176
     1
 40
-0.6
176
     1
 41
-30.0
176
     1
 62
     5
 63
     7
421
 16777215
176
     1
 74
     1
176
     1
 91
        4
176
     1
 64
     7
176
     1
 65
   257
176
     1
 75
     1
176
     1
175
     1
176
     1
 42
1.0
176
     1
 92
        8
176
     1
 66
     7
176
     1
 43
1.0
176
     1
 76
     1
176
     1
 77
     6
176
     1
 78
     2
176
     1
 67
     7
176
     1
 79
     5
176
     1
170
     0
176
     1
171
     0
176
     1
290
     0
176
     1
 93
        1
176
     1
 44
50.0
176
     1
173
     0
176
     1
  0
VISUALSTYLE
  5
3A
102
{ACAD_REACTORS
330
2A
102
}
330
2A
100
AcDbVisualStyle
  2
ColorChange
 70
    16
177
     2
291
     1
 71
     2
176
     1
 72
     2
176
     1
 73
     3
176
     1
 90
        0
176
     1
 40
-0.6
176
     1
 41
-30.0
176
     1
 62
     5
 63
     8
421
  8421504
176
     1
 74
     1
176
     1
 91
        4
176
     1
 64
     7
176
     1
 65
   257
176
     1
 75
     1
176
     1
175
     1
176
     1
 42
1.0
176
     1
 92
        8
176
     1
 66
     8
424
  8421504
176
     1
 43
1.0
176
     1
 76
     1
176
     1
 77
     6
176
     1
 78
     2
176
     1
 67
     7
176
     1
 79
     5
176
     1
170
     0
176
     1
171
     0
176
     1
290
     0
176
     1
 93
        1
176
     1
 44
0.0
176
     1
173
     0
176
     1
  0
VISUALSTYLE
  5
34
102
{ACAD_REACTORS
330
2A
102
}
330
2A
100
AcDbVisualStyle
  2
Conceptual
 70
     9
177
     2
291
     0
 71
     3
176
     1
 72
     2
176
     1
 73
     0
176
     1
 90
        0
176
     1
 40
-0.6
176
     1
 41
-30.0
176
     1
 62
     5
 63
     7
421
 16777215
176
     1
 74
     2
176
     1
 91
        2
176
     1
 64
     7
176
     1
 65
   257
176
     1
 75
     1
176
     1
175
     1
176
     1
 42
40.0
176
     1
 92
        8
176
     1
 66
     7
176
     1
 43
1.0
176
     1
 76
     1
176
     1
 77
     6
176
     1
 78
     2
176
     1
 67
     7
176
     1
 79
     3
176
     1
170
     0
176
     1
171
     0
176
     1
290
     0
176
     1
 93
        1
176
     1
 44
0.0
176
     1
173
     0
176
     1
  0
VISUALSTYLE
  5
35
102
{ACAD_REACTORS
330
2A
102
}
330
2A
100
AcDbVisualStyle
  2
Dim
 70
    11
177
     2
291
     1
 71
     2
176
     1
 72
     2
176
     1
 73
     0
176
     1
 90
        0
176
     1
 40
-0.6
176
     1
 41
-30.0
176
     1
 62
     5
 63
     7
421
 16777215
176
     1
 74
     1
176
     1
 91
        4
176
     1
 64
     7
176
     1
 65
   257
176
     1
 75
     1
176
     1
175
     1
176
     1
 42
1.0
176
     1
 92
        8
176
     1
 66
     7
176
     1
 43
1.0
176
     1
 76
     1
176
     1
 77
     6
176
     1
 78
     2
176
     1
 67
     7
176
     1
 79
     5
176
     1
170
     0
176
     1
171
     0
176
     1
290
     0
176
     1
 93
        1
176
     1
 44
-50.0
176
     1
173
     0
176
     1
  0
VISUALSTYLE
  5
39
102
{ACAD_REACTORS
330
2A
102
}
330
2A
100
AcDbVisualStyle
  2
Facepattern
 70
    15
177
     2
291
     1
 71
     2
176
     1
 72
     2
176
     1
 73
     0
176
     1
 90
        0
176
     1
 40
-0.6
176
     1
 41
-30.0
176
     1
 62
     5
 63
     7
421
 16777215
176
     1
 74
     1
176
     1
 91
        4
176
     1
 64
     7
176
     1
 65
   257
176
     1
 75
     1
176
     1
175
     1
176
     1
 42
1.0
176
     1
 92
        8
176
     1
 66
     7
176
     1
 43
1.0
176
     1
 76
     1
176
     1
 77
     6
176
     1
 78
     2
176
     1
 67
     7
176
     1
 79
     5
176
     1
170
     0
176
     1
171
     0
176
     1
290
     0
176
     1
 93
        1
176
     1
 44
0.0
176
     1
173
     0
176
     1
  0
VISUALSTYLE
  5
2B
102
{ACAD_REACTORS
330
2A
102
}
330
2A
100
AcDbVisualStyle
  2
Flat
 70
     0
177
     2
291
     1
 71
     2
176
     1
 72
     1
176
     1
 73
     1
176
     1
 90
        2
176
     1
 40
-0.6
176
     1
 41
30.0
176
     1
 62
     5
 63
     7
421
 16777215
176
     1
 74
     0
176
     1
 91
        4
176
     1
 64
     7
176
     1
 65
   257
176
     1
 75
     1
176
     1
175
     1
176
     1
 42
1.0
176
     1
 92
        8
176
     1
 66
     7
176
     1
 43
1.0
176
     1
 76
     1
176
     1
 77
     6
176
     1
 78
     2
176
     1
 67
     7
176
     1
 79
     5
176
     1
170
     0
176
     1
171
     0
176
     1
290
     0
176
     1
 93
       13
176
     1
 44
0.0
176
     1
173
     0
176
     1
  0
VISUALSTYLE
  5
2C
102
{ACAD_REACTORS
330
2A
102
}
330
2A
100
AcDbVisualStyle
  2
FlatWithEdges
 70
     1
177
     2
291
     1
 71
     2
176
     1
 72
     1
176
     1
 73
     1
176
     1
 90
        2
176
     1
 40
-0.6
176
     1
 41
30.0
176
     1
 62
     5
 63
     7
421
 16777215
176
     1
 74
     1
176
     1
 91
        4
176
     1
 64
     7
176
     1
 65
   257
176
     1
 75
     1
176
     1
175
     1
176
     1
 42
1.0
176
     1
 92
        0
176
     1
 66
   257
176
     1
 43
1.0
176
     1
 76
     1
176
     1
 77
     6
176
     1
 78
     2
176
     1
 67
     7
176
     1
 79
     5
176
     1
170
     0
176
     1
171
     0
176
     1
290
     0
176
     1
 93
       13
176
     1
 44
0.0
176
     1
173
     0
176
     1
  0
VISUALSTYLE
  5
2D
102
{ACAD_REACTORS
330
2A
102
}
330
2A
100
AcDbVisualStyle
  2
Gouraud
 70
     2
177
     2
291
     1
 71
     2
176
     1
 72
     2
176
     1
 73
     1
176
     1
 90
        2
176
     1
 40
-0.6
176
     1
 41
30.0
176
     1
 62
     5
 63
     7
421
 16777215
176
     1
 74
     0
176
     1
 91
        4
176
     1
 64
     7
176
     1
 65
   257
176
     1
 75
     1
176
     1
175
     1
176
     1
 42
1.0
176
     1
 92
        0
176
     1
 66
     7
176
     1
 43
1.0
176
     1
 76
     1
176
     1
 77
     6
176
     1
 78
     2
176
     1
 67
     7
176
     1
 79
     5
176
     1
170
     0
176
     1
171
     0
176
     1
290
     0
176
     1
 93
       13
176
     1
 44
0.0
176
     1
173
     0
176
     1
  0
VISUALSTYLE
  5
2E
102
{ACAD_REACTORS
330
2A
102
}
330
2A
100
AcDbVisualStyle
  2
GouraudWithEdges
 70
     3
177
     2
291
     1
 71
     2
176
     1
 72
     2
176
     1
 73
     1
176
     1
 90
        2
176
     1
 40
-0.6
176
     1
 41
30.0
176
     1
 62
     5
 63
     7
421
 16777215
176
     1
 74
     1
176
     1
 91
        4
176
     1
 64
     7
176
     1
 65
   257
176
     1
 75
     1
176
     1
175
     1
176
     1
 42
1.0
176
     1
 92
        0
176
     1
 66
   257
176
     1
 43
1.0
176
     1
 76
     1
176
     1
 77
     6
176
     1
 78
     2
176
     1
 67
     7
176
     1
 79
     5
176
     1
170
     0
176
     1
171
     0
176
     1
290
     0
176
     1
 93
       13
176
     1
 44
0.0
176
     1
173
     0
176
     1
  0
VISUALSTYLE
  5
38
102
{ACAD_REACTORS
330
2A
102
}
330
2A
100
AcDbVisualStyle
  2
Linepattern
 70
    14
177
     2
291
     1
 71
     2
176
     1
 72
     2
176
     1
 73
     0
176
     1
 90
        0
176
     1
 40
-0.6
176
     1
 41
-30.0
176
     1
 62
     5
 63
     7
421
 16777215
176
     1
 74
     1
176
     1
 91
        4
176
     1
 64
     7
176
     1
 65
   257
176
     1
 75
     7
176
     1
175
     7
176
     1
 42
1.0
176
     1
 92
        8
176
     1
 66
     7
176
     1
 43
1.0
176
     1
 76
     1
176
     1
 77
     6
176
     1
 78
     2
176
     1
 67
     7
176
     1
 79
     5
176
     1
170
     0
176
     1
171
     0
176
     1
290
     0
176
     1
 93
        1
176
     1
 44
0.0
176
     1
173
     0
176
     1
  0
VISUALSTYLE
  5
33
102
{ACAD_REACTORS
330
2A
102
}
330
2A
100
AcDbVisualStyle
  2
Realistic
 70
     8
177
     2
291
     0
 71
     2
176
     1
 72
     2
176
     1
 73
     0
176
     1
 90
        0
176
     1
 40
-0.6
176
     1
 41
-30.0
176
     1
 62
     5
 63
     7
421
 16777215
176
     1
 74
     1
176
     1
 91
        0
176
     1
 64
     7
176
     1
 65
   257
176
     1
 75
     1
176
     1
175
     1
176
     1
 42
1.0
176
     1
 92
        8
176
     1
 66
     8
424
  7895160
176
     1
 43
1.0
176
     1
 76
     1
176
     1
 77
     6
176
     1
 78
     2
176
     1
 67
     7
176
     1
 79
     5
176
     1
170
     0
176
     1
171
     0
176
     1
290
     0
176
     1
 93
       13
176
     1
 44
0.0
176
     1
173
     0
176
     1
  0
VISUALSTYLE
  5
37
102
{ACAD_REACTORS
330
2A
102
}
330
2A
100
AcDbVisualStyle
  2
Thicken
 70
    13
177
     2
291
     1
 71
     2
176
     1
 72
     2
176
     1
 73
     0
176
     1
 90
        0
176
     1
 40
-0.6
176
     1
 41
-30.0
176
     1
 62
     5
 63
     7
421
 16777215
176
     1
 74
     1
176
     1
 91
        4
176
     1
 64
     7
176
     1
 65
   257
176
     1
 75
     1
176
     1
175
     1
176
     1
 42
1.0
176
     1
 92
       12
176
     1
 66
     7
176
     1
 43
1.0
176
     1
 76
     1
176
     1
 77
     6
176
     1
 78
     2
176
     1
 67
     7
176
     1
 79
     5
176
     1
170
     0
176
     1
171
     0
176
     1
290
     0
176
     1
 93
        1
176
     1
 44
0.0
176
     1
173
     0
176
     1
  0
ENDSEC
  0
EOF
