<?xml version="1.0" encoding="utf-8"?>
<!-- Generator: Adobe Illustrator 25.2.0, SVG Export Plug-In . SVG Version: 6.00 Build 0)  -->
<svg version="1.1" id="Layer_1" xmlns="http://www.w3.org/2000/svg" xmlns:xlink="http://www.w3.org/1999/xlink" x="0px" y="0px"
	 viewBox="0 0 1080 1080" style="enable-background:new 0 0 1080 1080;" xml:space="preserve">
<g>
	<path d="M175.08,462.53c8.47,2.68,14.01,4.02,16.61,4.02c11.15,0,21.57-8.11,31.27-24.32c9.99-17.66,16.36-41.91,19.11-72.75
		c1.01-12.16,1.52-26.35,1.52-42.56l47.78-14.33c0.72,1.01,1.09,4.85,1.09,11.51l-0.22,11.94c-0.29,6.23-0.43,12.89-0.43,19.98
		c0,9.85,0.29,20.63,0.87,32.36c2.61,50.09,17.81,77.24,45.61,81.44c17.23-0.15,31.45-12.63,42.67-37.46
		c7.66-16.95,14.33-34.15,20.07-51.61c0.93,14.21,5.13,27.97,12.62,41.29c11.15,20.13,28.09,30.19,50.82,30.19
		c21.42-1.45,40.54-12.67,57.33-33.66c5.99-7.57,11.65-15.9,16.97-24.97c3.81,51.16,19.86,77.45,48.18,78.83
		c14.91-0.29,27.87-9.99,38.87-29.1c10.57-18.24,20.34-38.73,29.32-61.46c0.14,81.36,16.5,122.99,49.08,124.87
		c14.91-0.43,27.87-12.16,38.87-35.18c8.21-17.19,15.94-36.03,23.19-56.52c0.62,1.59,1.29,3.2,2,4.84
		c7.68,17.37,20.48,26.06,38.44,26.06h0.87c32.57-5.21,52.05-32.14,58.42-80.79h1.09c40.1-6.52,60.16-15.64,60.16-27.36
		c0-3.62-2.17-5.72-6.52-6.3c-4.63,0-8.54,1.95-11.73,5.86c-15.06,6.81-27.07,10.28-36.05,10.42l-5.86,0.43l0.22-3.04
		c1.01-6.37,1.52-15.64,1.52-27.8c0-32.43-13.18-48.64-39.52-48.64c-12.45,2.03-22.73,7.31-30.84,15.85
		c-8.11,8.54-12.16,17.81-12.16,27.8c0,2.46,0.22,5.07,0.65,7.82c-12.3,6.81-19.87,17.08-22.69,30.84
		c-2.52,12.26-3.9,22.96-4.18,32.11c-9.18,25.45-16.51,44.43-21.99,56.93c-8.83,20.41-17.81,30.62-26.93,30.62
		c-5.94-5.21-9.48-19.11-10.64-41.7c-1.16-22.59-1.74-38.44-1.74-47.56c0-23.74,1.74-45.1,5.21-64.06
		c27.07-26.35,47.34-56.03,60.81-89.04c16.07-39.38,24.11-70.29,24.11-92.73c0-9.41-1.67-17.59-4.99-24.54
		c-4.34-9.12-13.39-13.68-27.15-13.68c-23.89,2.46-44.23,24.11-61.02,64.93c-22.3,54-35.4,112.71-39.31,176.12
		c-15.78,37.64-27.65,63.92-35.61,78.83c-8.83,16.8-17.81,25.19-26.93,25.19c-5.94-4.2-9.48-15.64-10.64-34.31
		c-1.16-18.68-1.74-31.71-1.74-39.09c0-19.69,1.74-37.35,5.21-52.99c27.07-21.72,47.34-46.26,60.81-73.62
		c16.07-32.58,24.11-58.13,24.11-76.66c0-7.82-1.67-14.55-4.99-20.2c-4.34-7.53-13.39-11.29-27.15-11.29
		c-23.89,2.03-44.23,19.91-61.02,53.64c-24.78,49.68-38.21,104.16-40.31,163.42c-7.72,18.3-17.28,35-28.75,50.05
		c-13.9,18.24-27.65,27.58-41.26,28.01c-8.4-1.59-14.55-8-18.46-19.22c-3.91-11.22-5.86-21.68-5.86-31.38
		c0-3.33,0.22-6.66,0.65-9.99c20.12-3.47,35.47-10.93,46.04-22.37c11.29-12.16,16.94-24.83,16.94-38c0-16.5-9.12-27.43-27.36-32.79
		c-3.91-0.72-7.68-1.09-11.29-1.09c-10.72,0-20.2,3.4-28.45,10.21c-9.56,8.16-17.43,18.23-23.63,30.2c-0.51-0.29-1.1-0.45-1.78-0.45
		c-2.17,0-4.13,1.09-5.86,3.26c-1.3,1.74-1.95,3.55-1.95,5.43v0.65c-22.15,62.4-36.78,96.2-43.87,101.42
		c-7.1,5.21-11.8,7.82-14.12,7.82c-11.29,0-16.94-25.91-16.94-77.75c0-15.64,0.65-32.93,1.95-51.9
		c17.52-9.84,29.35-23.96,35.51-42.35c6.15-18.38,9.23-35.69,9.23-51.9c0-4.63-0.22-9.34-0.65-14.12c-2.03-20.85-6.66-35.18-13.9-43
		c-7.24-7.82-14.04-11.73-20.41-11.73c-6.51,0-13.76,2.68-21.72,8.04c-9.56,10.28-16.29,28.88-20.2,55.81
		c-3.91,26.93-6.95,57.04-9.12,90.34l-49.95,16.07c-0.43-0.43-0.65-4.34-0.65-11.73c0-17.66,0.79-41.48,2.39-71.45
		c1.01-22.15,2.53-42.13,4.56-59.94c1.74-5.07,2.61-9.48,2.61-13.25c0-4.05-0.94-7.31-2.82-9.77c-3.62-4.92-7.35-7.53-11.18-7.82
		c-3.84-0.29-6.26-0.43-7.27-0.43c-5.79,0-11.22,1.16-16.29,3.47c-5.79,2.75-9.05,6.52-9.77,11.29l-1.3,34.31
		c-1.45,32.43-2.17,62.04-2.17,88.82c0,16.8,0.29,32.5,0.87,47.12c-29.53,12.74-46.66,26.75-51.36,42.02
		c-4.71,15.28-7.06,27.25-7.06,35.94c0,11,2.24,21.57,6.73,31.71C158.32,449.32,166.61,459.85,175.08,462.53z M832.12,295.64
		c1.01-6.08,2.61-9.84,4.78-11.29h1.52c3.91,0,6.95,2.86,9.12,8.58c2.17,5.72,3.55,11.87,4.13,18.46c0.58,6.59,0.87,12.05,0.87,16.4
		c0,11-0.8,16.72-2.39,17.16c-5.94-0.58-10.39-3.69-13.35-9.34c-2.97-5.65-4.67-11.08-5.1-16.29c-0.43-5.21-0.65-9.12-0.65-11.73
		C831.03,303.24,831.39,299.26,832.12,295.64z M806.06,374.25c2.46-10.13,5.14-17.88,8.04-23.24v0.22c0,0.87,1.7,2.25,5.1,4.13
		c3.4,1.88,7.82,3.73,13.25,5.54c5.43,1.81,10.53,2.79,15.31,2.93v0.43c0,1.45-0.65,4.92-1.95,10.42
		c-1.45,6.37-3.73,13.46-6.84,21.28c-3.12,7.82-6.73,14.04-10.86,18.68c-4.13,4.63-8.29,6.95-12.49,6.95c-1.3,0-2.68-0.22-4.13-0.65
		c-5.36-2.31-8.11-6.04-8.25-11.18c-0.15-5.14-0.22-8.22-0.22-9.23C803.02,392.14,804.03,383.38,806.06,374.25z M730.27,188.14
		c11.87-38.66,22.51-58.2,31.92-58.63c4.92,0.43,7.38,5.72,7.38,15.85c0,10.14-1.88,22.95-5.65,38.44
		c-6.66,26.64-17.37,51.83-32.14,75.57c-8.4,13.18-17.59,23.53-27.58,31.05C709.71,260.89,718.4,226.8,730.27,188.14z M613,209.32
		c11.87-31.92,22.51-48.1,31.92-48.54c4.92,0.43,7.38,4.85,7.38,13.25c0,8.4-1.88,18.97-5.65,31.71
		c-6.66,22.01-17.37,42.78-32.14,62.33c-8.4,10.86-17.59,19.4-27.58,25.63C592.44,269.36,601.13,241.24,613,209.32z M459.57,312.04
		c6.73-10.35,12.92-15.96,18.57-16.83c8.39,2.17,12.6,6.37,12.6,12.6c0,1.6-0.29,3.26-0.87,4.99c-2.75,8.98-8.58,17.67-17.48,26.06
		c-8.9,8.4-17.63,13.03-26.17,13.9C448.39,335.96,452.84,322.39,459.57,312.04z M355.22,173.16c1.88-5.5,2.82-8.9,2.82-10.21
		c0-0.07-0.01-0.12-0.01-0.18c6.08,13.03,9.13,26.48,9.13,40.35c0,3.19-0.15,6.37-0.43,9.56c-1.74,17.37-5.94,32.43-12.6,45.17
		c-6.66,12.74-13.39,20.13-20.2,22.15C341.03,224.7,348.13,189.09,355.22,173.16z M171.94,364.48
		c6.37-15.06,16.14-23.09,29.32-24.11c0,14.48,0.14,27.44,0.43,38.87c0.43,7.68,0.65,14.62,0.65,20.85
		c0,21.86-2.39,34.75-7.17,38.66c-15.35-3.04-24.07-9.81-26.17-20.3c-2.1-10.49-3.15-18.35-3.15-23.56
		C165.85,384.61,167.88,374.47,171.94,364.48z"/>
	<path d="M206.93,648.98c-2.81,2.04-5.88,3.06-9.21,3.06c-7.1,0-14.84-2.79-23.2-8.39c-1.92-1.36-4.03-2.04-6.33-2.04
		c-4.07,0-7.25,1.89-9.55,5.67c-2.07,3.4-4.51,7.6-7.33,12.58c-0.96,1.74-1.44,3.59-1.44,5.56c0,4.01,1.66,7.18,4.99,9.52
		c12.28,8.69,26.42,13.04,42.4,13.04c9.84,0,18.7-2.1,26.58-6.29c7.88-4.19,14.11-10.09,18.7-17.69c4.59-7.6,6.88-16.57,6.88-26.93
		c0-22.07-13.87-39.98-41.62-53.74c-15.39-7.63-23.09-15.53-23.09-23.69c0-3.78,1.4-6.69,4.22-8.73c2.81-2.04,5.88-3.06,9.21-3.06
		c7.18,0,14.87,2.83,23.09,8.5c2,1.36,4.14,2.04,6.44,2.04c4.07,0,7.25-1.93,9.55-5.78c3.33-5.52,5.77-9.67,7.32-12.47
		c0.96-1.81,1.44-3.7,1.44-5.67c0-3.93-1.7-7.1-5.11-9.52c-12.21-8.69-26.3-13.04-42.29-13.04c-9.84,0-18.7,2.1-26.58,6.29
		c-7.88,4.2-14.11,10.11-18.7,17.74c-4.59,7.63-6.88,16.59-6.88,26.87c0,15.49,6.66,28.76,19.98,39.79
		c7.33,6.05,14.5,10.81,21.53,14.28c9.03,4.53,15.46,9,19.31,13.38c2.59,2.95,3.89,6.31,3.89,10.09
		C211.15,644.07,209.74,646.94,206.93,648.98z"/>
	<path d="M305.49,551.94c0.44-0.45,0.96-0.68,1.55-0.68h47.06c3.03,0,5.66-1.13,7.88-3.4c2.22-2.27,3.33-4.91,3.33-7.94v-14.51
		c0-3.1-1.13-5.76-3.38-7.99c-2.26-2.23-4.87-3.34-7.82-3.34h-76.47c-2.96,0-5.55,1.12-7.77,3.34c-2.22,2.23-3.33,4.89-3.33,7.99
		v149.08c0,3.1,1.11,5.76,3.33,7.99c2.22,2.23,4.81,3.34,7.77,3.34h76.47c2.96,0,5.57-1.11,7.82-3.34c2.26-2.23,3.38-4.89,3.38-7.99
		v-14.51c0-3.1-1.13-5.78-3.38-8.05c-2.26-2.27-4.87-3.4-7.82-3.4h-47.06c-0.59,0-1.11-0.23-1.55-0.68
		c-0.44-0.45-0.67-0.98-0.67-1.59V620.3c0-0.6,0.22-1.13,0.67-1.59c0.44-0.45,0.96-0.68,1.55-0.68h41.73c3.11,0,5.75-1.15,7.94-3.46
		c2.18-2.3,3.27-4.93,3.27-7.88v-14.51c0-3.02-1.09-5.69-3.27-7.99c-2.18-2.3-4.83-3.46-7.94-3.46h-41.73
		c-0.59,0-1.11-0.23-1.55-0.68c-0.44-0.45-0.67-0.98-0.67-1.59v-24.94C304.82,552.92,305.04,552.39,305.49,551.94z"/>
	<path d="M445,548.77c10.21,0,18.91,2.49,26.08,7.48c1.92,1.36,4.03,2.04,6.33,2.04c4.07,0,7.25-1.93,9.55-5.78l7.32-12.47
		c1.04-1.74,1.55-3.63,1.55-5.67c0-4.08-1.81-7.26-5.44-9.52c-13.39-8.62-28.45-12.92-45.17-12.92c-9.77,0-19.26,1.97-28.47,5.9
		c-9.21,3.93-17,9.83-23.36,17.69c-11.4,13.98-17.09,35.48-17.09,64.51c0,28.95,5.66,50.41,16.98,64.39
		c6.44,7.86,14.26,13.76,23.47,17.69s18.7,5.9,28.47,5.9c17.02,0,32.11-4.31,45.28-12.92c3.55-2.34,5.33-5.52,5.33-9.52
		c0-1.96-0.52-3.85-1.55-5.67l-7.32-12.36c-2.3-3.85-5.48-5.78-9.55-5.78c-2.37,0-4.51,0.68-6.44,2.04
		c-7.03,4.91-15.61,7.37-25.75,7.37c-10.14,0-17.94-4.01-23.42-12.02c-4.81-7.03-7.21-20.07-7.21-39.11
		c0-19.12,2.4-32.23,7.21-39.34C427.2,552.73,434.93,548.77,445,548.77z"/>
	<path d="M542.67,682.09c9.17,3.93,18.68,5.9,28.52,5.9c9.77,0,19.26-1.97,28.47-5.9c9.21-3.93,17.04-9.82,23.47-17.69
		c11.32-13.98,16.98-35.48,16.98-64.51c0-28.95-5.7-50.41-17.09-64.39c-6.36-7.86-14.15-13.75-23.36-17.69
		c-9.21-3.93-18.7-5.9-28.47-5.9s-19.26,1.97-28.47,5.9c-9.21,3.93-17,9.83-23.36,17.69c-11.4,13.98-17.09,35.45-17.09,64.39
		c0,29.02,5.66,50.49,16.98,64.39C525.69,672.22,533.49,678.16,542.67,682.09z M547.77,560.78c5.47-8.01,13.28-12.02,23.42-12.02
		c10.14,0,17.94,3.97,23.42,11.9c4.81,7.11,7.21,20.18,7.21,39.23c0,19.12-2.41,32.2-7.21,39.23c-5.48,8.01-13.28,12.02-23.42,12.02
		c-10.14,0-17.94-4.01-23.42-12.02c-4.81-7.03-7.21-20.1-7.21-39.23C540.56,580.85,542.96,567.81,547.77,560.78z"/>
	<path d="M750.99,685.83h15.76c2.96,0,5.51-1.06,7.66-3.17c2.37-2.34,3.55-5.06,3.55-8.16V525.53c0-3.1-1.11-5.78-3.33-8.05
		c-2.22-2.27-4.85-3.4-7.88-3.4H751.1c-3.03,0-5.66,1.13-7.88,3.4c-2.22,2.27-3.33,4.95-3.33,8.05v69.83c0,1.51-0.56,2.27-1.67,2.27
		c-0.82,0-1.63-0.75-2.44-2.27l-41.62-76.07c-1.92-3.48-5.07-5.21-9.43-5.21h-15.76c-2.96,0-5.57,1.12-7.82,3.34
		c-2.26,2.23-3.38,4.89-3.38,7.99v149.08c0,3.1,1.11,5.76,3.33,7.99c2.22,2.23,4.85,3.34,7.88,3.34h15.65c3.03,0,5.66-1.13,7.88-3.4
		c2.22-2.27,3.33-4.91,3.33-7.94v-69.95c0-1.51,0.52-2.27,1.55-2.27c0.89,0,1.74,0.79,2.55,2.38l41.62,75.96
		C743.48,684.09,746.62,685.83,750.99,685.83z"/>
	<path d="M909.92,662.93c11.54-13.6,17.31-34.54,17.31-62.81c0-28.49-5.73-49.54-17.2-63.15c-12.95-15.27-30.19-22.9-51.72-22.9
		h-42.06c-2.96,0-5.57,1.13-7.82,3.4c-2.26,2.27-3.38,4.95-3.38,8.05v148.97c0,3.1,1.13,5.76,3.38,7.99
		c2.26,2.23,4.86,3.34,7.82,3.34h42.06C879.85,685.83,897.05,678.2,909.92,662.93z M844.05,647.85c-0.41-0.45-0.61-0.98-0.61-1.59
		v-92.62c0-0.6,0.2-1.13,0.61-1.59c0.41-0.45,0.94-0.68,1.61-0.68h12.65c10.28,0,18.16,3.78,23.64,11.34
		c4.66,6.58,6.99,19.05,6.99,37.41c0,18.22-2.37,30.57-7.1,37.07c-5.4,7.56-13.25,11.34-23.53,11.34h-12.65
		C845,648.53,844.46,648.3,844.05,647.85z"/>
	<path d="M301.94,960.96l-6.94-1.73c-3.85-0.64-5.78-1.35-5.78-2.12c10.54-49.99,15.81-97.74,15.81-143.24
		c-1.16-4.75-5.66-7.13-13.49-7.13c-11.7,0-19.79,7.01-24.29,21.01c-17.87,43.18-31.07,68.34-39.62,75.48
		c-8.55,7.13-14.82,10.7-18.8,10.7c-4.76,0-8.61-3.34-11.57-10.02c-3.73-8.61-5.59-19.92-5.59-33.93c0-28.53,6.3-56.49,18.89-83.86
		c9.77-21.33,19.5-33.32,29.21-35.95c9.7-2.63,16.61-3.95,20.72-3.95c6.68,0,11.57,1.99,14.65,5.98c4.11,5.4,6.17,10.35,6.17,14.84
		c0,4.24-1.54,9.58-4.63,16c12.98,0,20.08-3.08,21.3-9.25c1.22-6.17,1.83-10.28,1.83-12.34c0-7.97-3.21-15.78-9.64-23.42
		c-6.43-7.65-15.94-11.47-28.53-11.47c-2.96,0-6.04,0.19-9.25,0.58c-19.02,2.96-35.18,11.47-48.48,25.54
		c-13.3,14.07-23.88,29.98-31.71,47.71c-7.84,17.74-13.18,33.48-16,47.23c-1.67,10.28-2.51,20.05-2.51,29.3
		c0,13.49,1.8,25.9,5.4,37.21c6.17,19.02,17.8,30.01,34.89,32.97c17.09-1.03,30.46-7.65,40.1-19.86
		c9.64-12.21,17.22-24.68,22.75-37.4c2.31-4.75,4.43-8.93,6.36-12.53l-9.83,78.27l-7.71-0.19c-25.58,0-48.39,5.91-68.44,17.74
		c-22.1,13.11-33.26,23.26-33.45,30.46c-0.19,7.2-0.29,10.86-0.29,10.99c0,14.39,13.81,21.59,41.45,21.59
		c23.13,0,42.54-4.82,58.22-14.46c16.71-10.15,29.69-24.42,38.94-42.8c0.26-0.26,0.83-0.39,1.74-0.39c1.54,0,5.01,0.71,10.41,2.12
		c5.4,1.42,8.93,2.12,10.6,2.12c0.77,0,1.25-0.19,1.45-0.58c0.19-0.39,0.42-0.9,0.67-1.54c1.67-3.86,2.51-7.39,2.51-10.6
		C309.46,965.52,306.96,962.5,301.94,960.96z M231.58,999.32c-5.66,6.56-11.99,12.18-18.99,16.87c-7.01,4.69-15.78,7.04-26.32,7.04
		l-5.78-0.19c-13.37-0.9-20.12-3.41-20.24-7.52l-0.19-5.98c0-7.97,5.33-15.23,16-21.78c20.56-8.87,42.8-13.3,66.7-13.3
		c2.31,0,4.5,0.07,6.55,0.19C243.53,984.16,237.62,992.38,231.58,999.32z"/>
	<path d="M921.94,907.94c-1.67,0-2.57,0-2.7,0c-3.08,0-5.27,1.8-6.56,5.4c-7.46,20.43-17.35,38.75-29.69,54.94
		c-12.34,16.19-24.55,24.48-36.63,24.87c-7.46-1.41-12.92-7.1-16.39-17.06c-3.47-9.96-5.2-19.25-5.2-27.86
		c0-2.95,0.19-5.91,0.58-8.87c17.86-3.08,31.49-9.7,40.87-19.86c10.02-10.8,15.04-22.04,15.04-33.74c0-14.65-8.1-24.35-24.29-29.11
		c-3.47-0.64-6.81-0.96-10.02-0.96c-9.51,0-17.93,3.02-25.25,9.06c-9.64,8.23-17.35,18.64-23.14,31.23
		c-3.03,6.59-5.47,13.01-7.35,19.27c-24.72,62.84-40.91,94.28-48.55,94.28c-2.7,0-4.82-2.76-6.36-8.29
		c-2.83-9.9-4.24-24.93-4.24-45.11c0-21.21,1.54-46.33,4.63-75.38c24.42-22.62,43.18-48.2,56.29-76.73l3.85-8.48
		c0.13-0.13,0.19-0.32,0.19-0.58h0.19v-0.39h0.19v-0.39h0.19c0-0.64,0.13-0.96,0.39-0.96v-0.39l0.19-0.19
		c3.34-7.45,6.87-16.77,10.6-27.95c5.52-16.32,8.42-30.78,8.68-43.38c0-6.81-1.09-12.85-3.28-18.12
		c-3.34-7.71-10.92-11.57-22.75-11.57c-20.56,2.06-38.94,20.66-55.14,55.81c-16.19,35.15-28.34,75.67-36.44,121.55
		c-0.77,4.11-1.42,8.23-1.93,12.34c-5.53-8.99-13.18-13.49-22.94-13.49c-3.47,0-7.26,0.58-11.37,1.73
		c-18.51,5.66-32.65,21.72-42.41,48.2c-4.8,15.74-7.34,31.26-7.65,46.55c-5.56,14.57-11.04,25.03-16.45,31.34
		c-3.73,4.37-7.13,6.56-10.22,6.56c-1.16,0-2.31-0.26-3.47-0.77c-5.14-3.34-7.71-11.31-7.71-23.91c0-15.42,2.57-34.64,7.71-57.64
		c3.98-18.63,7.65-33.61,10.99-44.92c1.03-2.7,1.54-5.08,1.54-7.13c0-3.34-1.29-5.98-3.86-7.9c-4.24-2.82-9.7-4.3-16.39-4.43
		c-12.98,2.44-22.04,12.21-27.18,29.3c-6.68-15.55-16.45-23.33-29.3-23.33c-3.73,0-7.78,0.71-12.15,2.12
		c-18.24,5.46-31.79,21.19-40.69,47.13c-1.14,1.02-2.04,2.46-2.69,4.34c-5.53,16.58-12.5,34.38-20.92,53.4
		c-8.42,19.02-16.1,33.77-23.04,44.24c-6.94,10.47-12.47,15.71-16.58,15.71c-1.42,0-2.77-0.58-4.05-1.74
		c1.41-24.03,4.82-45.43,10.22-64.2c4.75-15.29,7.13-29.37,7.13-42.22c0-5.14-0.39-10.09-1.16-14.84
		c-2.7-16.58-17.93-31.81-45.69-45.69c-2.96-2.95-4.72-7.04-5.3-12.24c-0.58-5.21-0.87-10.57-0.87-16.1l0.19-8.29
		c0-8.1-0.84-15.49-2.51-22.17c-2.06-8.1-7.84-12.46-17.35-13.11c-18.63,12.72-27.95,24.68-27.95,35.86
		c0,11.44,5.27,24.55,15.81,39.33l5.01,8.29l-3.85,40.87c0,2.19,0.29,3.73,0.87,4.63c0.58,0.9,1.76,1.35,3.57,1.35
		c4.75,0,7.39-1.61,7.9-4.82l6.17-32.97c16.71,6.17,25.22,13.33,25.54,21.5c0.32,8.16,0.48,13.01,0.48,14.56
		c0,13.75-2.19,28.79-6.56,45.11c-4.37,16.32-6.55,31.55-6.55,45.69l0.19,5.4c0.51,15.68,9.25,27.18,26.22,34.51
		c2.44,0.51,4.88,0.77,7.33,0.77c14.78,0,27.89-10.8,39.33-32.39c8.09-15.52,15.69-32.05,22.79-49.58c0.13,2.52,0.3,5.04,0.53,7.56
		c1.93,20.05,11.31,31.55,28.15,34.51c1.16,0.26,2.31,0.39,3.47,0.39c8.61,0,17.28-6.49,26.03-19.47
		c9.64-14.91,17.48-34.89,23.52-59.96c-0.13,1.29-0.39,2.89-0.77,4.82c-2.44,11.57-3.66,23.13-3.66,34.7c0,9,1.41,17.87,4.24,26.6
		c3.47,10.8,10.8,19.09,21.98,24.87c5.52,2.18,10.73,3.28,15.62,3.28c8.61,0,16.13-3.54,22.55-10.6
		c5.38-5.88,10.35-13.21,14.94-21.92c3.86,10.02,11.34,15.98,22.46,17.87c1.16,0.26,2.25,0.39,3.28,0.39
		c8.35,0,17.06-6.39,26.12-19.18c9.06-12.79,16.87-29.91,23.42-51.38c-0.26,6.94-0.39,13.56-0.39,19.86
		c0,55.26,11.24,83.67,33.74,85.21c15.29-0.39,28.18-10.48,38.65-30.27c8.49-16.05,16.53-33.77,24.14-53.12
		c1.75,9.05,5.04,17.88,9.89,26.51c9.9,17.87,24.93,26.8,45.11,26.8c19.02-1.29,35.98-11.24,50.89-29.88
		c14.14-17.86,26.15-40.42,36.05-67.67v-0.58c0-1.16-0.84-2.57-2.51-4.24C925.47,908.97,923.61,907.94,921.94,907.94z
		 M838.75,888.95c5.98-9.19,11.47-14.17,16.48-14.94c7.45,1.93,11.18,5.66,11.18,11.18c0,1.42-0.26,2.89-0.77,4.43
		c-2.44,7.97-7.61,15.68-15.52,23.13c-7.9,7.46-15.65,11.57-23.23,12.34C828.82,910.19,832.78,898.14,838.75,888.95z M758.84,779.74
		c9.12-26.48,17.19-44.15,24.19-53.02c7-8.87,11.53-13.3,13.59-13.3c2.83,0,4.24,3.98,4.24,11.95c0,11.83-2.31,25.32-6.94,40.48
		c-6.81,23.01-17.09,44.66-30.85,64.97c-7.71,11.31-16.07,20.24-25.06,26.8C742.78,832.18,749.72,806.22,758.84,779.74z
		 M527.89,909.87c-2.06,11.18-5.18,22.27-9.35,33.26c-4.18,10.99-7.81,18.86-10.89,23.62c-3.08,4.76-5.34,7.13-6.75,7.13
		c-0.9,0-1.54-0.83-1.93-2.51c-1.8-4.5-2.7-10.22-2.7-17.16c0-4.88,0.45-10.41,1.35-16.58c2.18-14.78,5.85-27.44,10.99-37.98
		c5.14-10.54,10.54-15.81,16.19-15.81c1.03,0,2.05,0.13,3.08,0.39c1.16,3.08,1.73,6.75,1.73,10.99S529.04,904.35,527.89,909.87z
		 M670.74,946.11c-4.63,10.67-8.52,18.28-11.66,22.84c-3.15,4.56-5.37,6.84-6.65,6.84c-0.9,0-1.48-0.77-1.73-2.31
		c-1.29-3.86-1.93-8.93-1.93-15.23c0.26-5.65,0.96-11.44,2.12-17.35c2.83-14.14,6.97-26.28,12.43-36.44
		c5.46-10.15,10.89-15.23,16.29-15.23c1.03,0,1.99,0.13,2.89,0.39c0.77,2.57,1.16,5.85,1.16,9.83
		C682.89,912.19,678.58,927.74,670.74,946.11z"/>
	<path d="M450.26,105.78c5.24,1.22,5.73,1.22,7.6,0.16c2.4-1.38,2.76-2.6,2.48-7.84c-0.98-17.64-10.73-38.89-24.06-52.31
		c-5.36-5.41-12.07-10.57-16.87-13.01c-2.36-1.22-3.74-1.5-5.08-1.06c-1.63,0.49-2.52,1.5-4.02,4.47
		c-2.32,4.59-3.09,8.13-3.09,14.47c0,6.38,0.65,10.24,2.89,17.03C416.28,86.55,432.09,101.55,450.26,105.78z"/>
	<path d="M467.45,124.19c2.89,1.71,5.12,0.98,7.88-2.64c4.27-5.61,15.89-18.41,23.17-25.56c9.43-9.23,14.43-13.25,22.8-18.37
		c10-6.1,11.05-7.03,11.38-9.88c0.16-1.75-0.89-3.98-5.2-10.65c-1.79-2.72-3.33-5.28-3.5-5.65c-0.37-0.93-1.63-2.19-1.91-1.91
		c-0.12,0.16-0.24,0.08-0.24-0.12c0-0.37-0.45-0.45-3.37-0.73c-0.69-0.04-2.68,0.65-5.08,1.79c-8.33,3.98-14.96,8.78-21.42,15.48
		c-8.7,9.02-13.66,16.62-19.87,30.52c-3.66,8.21-7.56,19.95-7.56,22.84C464.52,120.9,465.99,123.33,467.45,124.19z"/>
	<path d="M406.57,236.36c2.36,2.8,9.67,9.27,13.25,11.7c10.65,7.23,25.64,12.84,39.42,14.79c6.01,0.85,24.06,1.22,29.14,0.57
		c10-1.22,29.83-7.88,36.37-12.15c14.83-9.71,24.87-27.84,27.8-50.23c1.02-7.88,1.02-21.38,0-28.04
		c-1.46-9.71-4.67-20.08-8.25-26.62c-2.24-4.1-4.59-7.23-8.29-10.89c-5.57-5.53-11.46-8.94-19.02-10.97
		c-3.58-0.93-4.59-1.06-11.83-1.06c-7.8,0-7.97,0-12.19,1.3c-5.16,1.63-12.19,5-16.01,7.68l-2.8,1.99l-3.54-3.5
		c-5.2-5.12-10.65-8.05-18.21-9.79c-4.67-1.1-16.22-1.42-19.79-0.61c-10.61,2.44-20.65,9.59-27.03,19.22
		c-12.68,19.14-16.91,49.79-10.16,73.76C398.2,223.47,401.57,230.34,406.57,236.36z"/>
	<path d="M913.68,750.46c-4.51-12.59-12.79-20.96-26.05-23.98c-1.65-0.38-3.33-0.65-5.18-1.01c0.3,2.4,0.2,4.35-1.61,5.79
		c-0.18,0.15-0.18,0.66-0.11,0.97c0.66,3.28,1.4,6.54,2,9.83c0.47,2.53-0.03,3.23-2.48,3.98c-0.57,0.17-1.17,0.35-1.75,0.33
		c-3.85-0.12-5.26-1.3-4.78-4.77c0.44-3.21,0.93-6.42,1.39-9.63c0.06-0.41,0.13-0.85,0.05-1.25c-0.32-1.69-0.7-3.37-1.12-5.35
		c-7.77,0.69-15.43,2.94-21.5,8.6c-9.53,8.88-13.74,20.4-14.88,33.08c-0.43,4.8,0.21,9.69,0.21,14.54
		c0.02,13.09-0.04,26.19-0.05,39.28c0,6.65-0.1,13.31,0.11,19.96c0.18,5.69,2.13,7.75,7.7,8.56c2.77,0.4,5.59,0.6,8.4,0.64
		c6.98,0.11,13.96,0.13,20.94,0.08c10.33-0.07,20.7,0.26,30.99-0.5c8.47-0.62,10.61-2.27,10.83-11.58
		c0.5-20.69-0.92-41.4,0.61-62.09C918.04,767.29,916.64,758.74,913.68,750.46z M901.97,845.81c-8.28,0.02-16.56,0.01-24.84,0.01
		c0,0.04,0,0.09,0,0.13c-8.12,0-16.23-0.02-24.35,0.01c-6.68,0.02-10.27-3.49-10.27-10.14c0.01-14.72-0.03-29.44,0.09-44.15
		c0.02-2.1,0.38-4.4,1.31-6.24c1.74-3.45,5.16-4.43,8.79-4.45c13.64-0.07,27.27-0.06,40.91-0.08c3.46,0,6.93-0.07,10.39,0.05
		c4.64,0.15,7.64,2.75,7.95,7.33c0.33,5.01,0.22,10.05,0.23,15.08c0.03,10.71,0.03,21.43,0.03,32.14
		C912.21,842.02,908.48,845.79,901.97,845.81z"/>
	<path d="M923.21,767.92c-0.74-1.03-0.3-2.91-0.34-4.42c-0.22-9.7-0.81-19.38-3.45-28.75c-2.98-10.57-8.11-19.68-18.63-24.66
		c-0.55-0.26-0.94-0.98-1.26-1.56c-1.3-2.36-2.25-4.98-3.87-7.09c-6.61-8.6-20.72-10.48-30.12-4.24c-4.25,2.82-6.57,7.05-8.69,11.47
		c-0.39,0.81-1.11,1.54-1.83,2.11c-2.54,2-5.38,3.67-7.68,5.91c-7.6,7.38-11.13,16.8-13.03,26.99c-1.42,7.64-1.77,15.36-1.87,23.09
		c-0.02,1.36-0.5,1.81-1.78,2.13c-2.14,0.53-4.23,1.3-6.27,2.14c-0.72,0.29-1.24,1.08-1.85,1.64c0.61,0.61,1.12,1.55,1.85,1.78
		c3.43,1.05,6.91,1.9,10.55,2.87c0-0.96,0-1.5,0-2.03c0.05-6.06,0.01-12.12,1.4-18.07c2.34-10.02,6.96-18.75,15-25.34
		c10.07-8.25,21.68-10.89,34.39-8.66c8.92,1.56,16.75,5.33,22.7,12.43c7.62,9.09,10.92,19.73,11.25,31.43
		c0.09,3.24,0.01,6.48,0.01,9.8c1.59-0.28,3.03-0.47,4.45-0.78c2.42-0.53,4.83-1.08,7.21-1.76c0.55-0.16,1.29-0.87,1.31-1.35
		c0.02-0.52-0.59-1.28-1.12-1.57c-1.37-0.74-2.83-1.33-4.29-1.9C925.88,768.97,923.92,768.91,923.21,767.92z M859.45,708.87
		c0.3-0.32,0.38-0.51,0.5-0.53c2.52-0.5,3.73-2.42,5.08-4.35c5.36-7.63,17.51-8.76,24.26-2.31c0.84,0.81,1.57,1.81,2.08,2.86
		c0.83,1.7,2.07,2.67,3.89,3.03c0.56,0.11,1.08,0.38,1.59,0.74C884.41,705.13,872.01,704.27,859.45,708.87z"/>
	<path d="M935.98,775.36c-1.57,0.69-2.98,1.53-4.51,1.92c-2.97,0.77-6.01,1.31-9.03,1.89c-2.82,0.54-3.41,1.21-3.42,4.11
		c-0.04,12.71-0.1,25.43-0.13,38.14c-0.02,7.33,0,14.67,0,22.09c4.02-0.28,7.94-1.52,10.71-4.97c1.32-1.64,2.51-3.6,3.03-5.6
		c0.65-2.53,0.61-5.25,0.76-7.89c0.88-15.44,1.73-30.89,2.57-46.34C936.03,777.54,935.98,776.34,935.98,775.36z"/>
	<path d="M822.04,832.59c0.1,1.42,0.77,2.91,1.56,4.13c0.95,1.48,2.21,2.8,3.5,4.02c2.46,2.34,5.5,3.13,8.77,3.12
		c-0.13-2.31-0.35-4.42-0.35-6.52c0.03-17.95,0.11-35.89,0.17-53.84c0.01-2.7-0.55-3.37-3.2-4c-3.1-0.74-6.23-1.37-9.27-2.3
		c-1.58-0.48-3.01-1.49-4.76-2.4c-0.03,0.59-0.14,1.36-0.09,2.13c0.31,4.91,0.67,9.81,0.99,14.72
		C820.24,805.3,821.07,818.95,822.04,832.59z"/>
	<path d="M880.38,744.07c-0.7-4.15-1.35-7.96-1.99-11.78c-0.14-0.06-0.28-0.13-0.43-0.19c-0.6,3.99-1.21,7.98-1.85,12.22
		C877.72,744.23,879.11,744.15,880.38,744.07z"/>
	<path d="M878.98,729.25c1.92,0.4,1.46-1.16,1.62-2.18c0.28-1.79-0.92-1.76-1.89-1.73c-2.18-0.07-2.14-0.05-2.31,2.25
		C876.24,729.84,877.98,729.04,878.98,729.25z"/>
	<path d="M852.47,805.59c0.12,1,0.27,1.9,0.33,2.81c0.02,0.34-0.11,0.98-0.26,1.01c-1.46,0.26-0.94,1.36-0.94,2.16
		c0.01,3.03,0.11,6.06,0.13,9.08c0.04,3.98,0.65,3.28-3.39,3.4c-1.02,0.03-1.31-0.36-1.3-1.32c0.04-3.68,0.05-7.35,0.02-11.03
		c-0.01-1.99-0.11-3.98-0.17-6c-0.43,0-1.23,0-2.27,0c0,4.34-0.01,8.5,0,12.66c0.01,6.22-0.07,12.44,0.1,18.65
		c0.1,3.76,2.76,6.26,6.52,6.61c0.97,0.09,1.94,0.15,2.91,0.16c14.93,0.05,29.85,0.1,44.78,0.12c1.62,0,3.24-0.11,4.85-0.29
		c3.15-0.34,5.5-2.65,5.9-5.76c0.19-1.5,0.33-3.01,0.34-4.52c0.03-8.76,0.01-17.52,0-26.28c0-0.47-0.06-0.94-0.1-1.45
		C890.72,805.59,871.6,805.59,852.47,805.59z"/>
	<path d="M902.75,782.82c-14.7-0.06-29.41-0.02-44.11,0c-2.48,0-4.99-0.03-7.44,0.25c-3.96,0.46-6.54,3.56-6.56,7.57
		c-0.02,3.95-0.01,7.89,0,11.84c0,0.35,0.09,0.71,0.13,1.06c21.77,0,43.43,0,65.21,0c0-4.84,0.19-9.5-0.06-14.13
		C909.69,784.93,907.34,782.84,902.75,782.82z"/>
	<path d="M850.15,805.89c-1.88-0.25-1.87,1.25-2.13,2.59c1.07,0.06,2.07,0.13,3.3,0.2C851.04,807.56,851.9,806.12,850.15,805.89z"/>
	<path d="M665.42,772.2c3.13-15.19,3.33-30.54,1.65-45.89c-0.64-5.83-2.25-11.56-3.49-17.32c-0.58-2.7-2.23-3.57-5.11-3.57
		c-88.45-0.04-176.9-0.18-265.35-0.33c-2.91-0.01-5.81-0.34-8.08-0.49c7.89,26.24,7.89,51.6-0.15,77.94
		c1.08-0.17,2.72-0.64,4.35-0.64c87.98,0.09,175.95,0.22,263.93,0.35C663.21,782.27,663.33,782.3,665.42,772.2z M661.12,746.94
		c-0.34,1.09-1.06,2.07-1.97,3.78c-1.92,0.34-4.16,1.08-6.4,1.09c-36.08,0.02-72.15-0.04-108.23-0.09
		c-46.37-0.06-92.73-0.13-139.1-0.2c-6.27-0.01-8.85-2.51-8.71-8.44c0.12-5.2,2.75-7.55,8.54-7.55c31.94,0.04,63.87,0.09,95.81,0.13
		c50.62,0.07,101.25,0.14,151.87,0.21C659.7,735.88,663.11,740.45,661.12,746.94z M393.49,717.78c0.94-3.25,3.53-4.94,7.67-4.94
		c18.44,0.02,36.88,0.05,55.32,0.08c63.35,0.09,126.71,0.17,190.06,0.26c1.3,0,2.6,0.04,3.9,0.01c3.32-0.07,5.93,1.31,6.94,4.44
		c1.08,3.33,1.1,6.77-2.31,10.49c-1.37,0.25-3.61,1.03-5.85,1.03c-31.79,0.03-63.59-0.04-95.38-0.09
		c-50.7-0.08-101.41-0.16-152.11-0.24C394.92,728.81,391.58,724.34,393.49,717.78z M559.31,774.43c-52.6-0.08-105.2-0.17-157.8-0.25
		c-6.78-0.01-10.15-4.37-8.37-10.95c0.88-3.28,3.66-5.06,7.97-5.05c17.02,0.02,34.04,0.06,51.06,0.09
		c65.6,0.09,131.2,0.19,196.8,0.26c3.54,0,6.77,0.59,8.05,4.38c1.14,3.37,1.07,6.74-2.07,10.49c-1.35,0.28-3.46,1.1-5.57,1.1
		C619.36,774.53,589.34,774.47,559.31,774.43z"/>
	<path d="M704.96,772.01c3.22-16.13,3.33-32.4,1.26-48.66c-0.65-5.11-2.14-10.13-3.58-15.1c-0.32-1.1-2.04-2.53-3.15-2.56
		c-10.96-0.21-21.93-0.16-33-0.19c7.73,21.36,7.67,57.47-0.22,76.86c8.93-0.02,17.42-0.06,25.92-0.05
		C702.77,782.34,702.89,782.38,704.96,772.01z"/>
	<path d="M318.41,748.24c1.36,1.29,2.83,2.58,4.48,3.44c18.7,9.85,37.46,19.61,56.18,29.44c1.97,1.03,3.3,0.39,4-1.37
		c1.13-2.84,2.3-5.73,2.88-8.71c3.51-18.06,3.48-36.19,0.28-54.29c-0.53-3-1.59-5.92-2.64-8.8c-0.95-2.61-2.6-3.14-5.27-1.76
		c-14.79,7.66-29.7,15.08-44.48,22.74c-5.32,2.76-10.43,5.94-13.52,7.72C314.69,742.07,314.62,744.65,318.41,748.24z M380.91,708.78
		c5.84,23.31,5.77,46.04-0.04,69.41c-15.94-8.12-30.96-15.78-46.51-23.7c3.8-3.79,7.27-7.25,11.04-11.01
		c-3.78-3.79-7.24-7.26-11.1-11.13C349.97,724.43,365.09,716.79,380.91,708.78z"/>
	<path d="M599.04,809.52c5.23-6.3,6.03-7.61,6.2-10.25c0.1-1.65,0.05-1.79-0.68-2.79c-1.33-1.82-4.67-2.93-6.42-2.16
		c-0.92,0.44-7.1,6.71-14.31,14.56c-3.05,3.32-5.91,6.47-6.35,6.98c-0.46,0.51-0.92,0.92-1.07,0.92c-0.15,0-4.02-3.73-8.65-8.31
		c-10.51-10.44-11.65-11.31-14.36-11c-2.83,0.34-4.29,2.93-3.46,6.1c0.8,3.08,3,5.81,12.91,16.06l5.45,5.64l-0.94,1.02
		c-0.51,0.56-2.91,3.03-5.3,5.5c-7.75,7.94-11.65,12.74-12.4,15.23c-0.17,0.58-0.32,1.7-0.32,2.45c0,1.14,0.12,1.55,0.73,2.37
		c0.99,1.38,1.82,1.74,3.95,1.74c2.06,0,3.2-0.48,5.74-2.4c1.6-1.21,11.48-11.07,15.33-15.26l2.08-2.3l4.19,4.12
		c7,6.81,13.32,12.33,15.31,13.35c2.4,1.24,5.55,0.56,6.9-1.48c0.51-0.78,0.56-1.07,0.46-2.52c-0.1-1.28-0.29-1.91-0.99-3.08
		c-1.04-1.79-7.48-8.67-13.54-14.51l-4.5-4.34l5.76-6.32C593.93,815.41,597.66,811.2,599.04,809.52z"/>
	<path d="M404.72,850.79c1.84,2.91,5.01,3.42,7.41,1.16c1.84-1.72,2.13-3.37,2.54-13.71l0.29-7.29h8.5
		c7.53,0.02,8.72-0.05,10.29-0.44c1.5-0.39,1.99-0.63,2.93-1.57c0.9-0.85,1.19-1.36,1.33-2.16c0.27-1.67-0.05-2.88-1.09-3.92
		c-1.79-1.79-5.09-2.37-14.73-2.59l-6.83-0.15l0.17-2.33c0.1-1.28,0.19-5.98,0.19-10.44c0-7.99,0-8.14-0.58-9.52
		c-1.16-2.83-3.61-4.12-6.27-3.25c-2.94,0.93-3.38,3.14-3.66,5.81c-0.29,2.83-0.85,11.07-1.14,16.54l-0.17,3.17l-7.53,0.15
		c-4.14,0.07-8.19,0.27-8.99,0.41c-2.01,0.39-3.42,1.16-4.58,2.52c-0.94,1.11-0.99,1.24-0.99,2.78c0,6.51,8.63,4.99,12.79,4.99h8.89
		v8.16C403.51,847.96,403.63,849.07,404.72,850.79z"/>
	<path d="M524.81,814.74c-1.24-0.39-7.44-0.65-9.98-0.44c-0.53,0.05-6.15,0.31-12.47,0.58c-28.99,1.24-29.69,1.33-32.07,3.71
		c-1.5,1.5-2.03,3.2-1.57,4.89c1.18,4.3,6.41,3.94,9.88,3.85c6.79-0.18,13.59-0.65,20.37-1.07c4.34-0.27,10.61-0.58,13.98-0.7
		c6.9-0.29,10.12-0.78,12.59-1.99c2.59-1.24,3.58-3.05,2.98-5.35C528.16,816.87,526.41,815.25,524.81,814.74z"/>
	<path d="M652.6,795.89c-2.4,0.75-4.89,3.32-5.59,5.76c-1.6,5.45,4.12,10.22,10.1,8.45c2.08-0.63,3.27-2.13,4.21-5.38
		c1.02-3.44-0.75-7.1-4.09-8.48C656.11,795.77,653.57,795.58,652.6,795.89z"/>
	<path d="M676.46,828.93c4.07-0.31,7.02-1.4,8.28-3.05c1.62-2.11,1.55-5.55-0.12-7.75c-2.2-2.88-5.55-3.61-14.34-3.08
		c-1.99,0.1-5.59,0.39-7.99,0.58c-2.45,0.22-9.42,0.48-15.89,0.61c-12.45,0.24-14.1,0.39-16.11,1.57c-2.3,1.36-3.61,4.24-3.03,6.71
		c0.8,3.51,3.83,5.35,9.83,6.01c4.84,0.53,19.23,0.15,30.52-0.85C671.35,829.37,675.32,829.03,676.46,828.93z"/>
	<path d="M657.01,833.51c-1.91-0.39-3.63-0.36-5.01,0.07c-1.55,0.48-2.91,1.53-3.71,2.79c-1.82,2.93-0.68,7.99,2.23,10
		c1.33,0.92,3.71,1.31,5.4,0.9c4.24-1.07,6.9-5.04,5.91-8.86C661.13,835.69,659.5,834.04,657.01,833.51z"/>
</g>
</svg>
