<?xml version="1.0" encoding="utf-8"?>
<!-- Generator: Adobe Illustrator 18.0.0, SVG Export Plug-In . SVG Version: 6.00 Build 0)  -->
<!DOCTYPE svg PUBLIC "-//W3C//DTD SVG 1.1//EN" "http://www.w3.org/Graphics/SVG/1.1/DTD/svg11.dtd">
<svg version="1.1" id="Layer_1" xmlns="http://www.w3.org/2000/svg" xmlns:xlink="http://www.w3.org/1999/xlink" x="0px" y="0px"
	 viewBox="0 0 1080 1296" enable-background="new 0 0 1080 1296" xml:space="preserve">
<g>
	<g>
		<path d="M640.9,858.1c26.6,1.4,30.9-1.3,40.9-26c-1.4,26.6,1.3,30.9,26,40.9c-26.6-1.4-30.9,1.3-40.9,26
			C668.3,872.4,665.6,868.1,640.9,858.1z"/>
		<path d="M706.1,836.4c8.3,0.4,9.6-0.4,12.8-8.1c-0.4,8.3,0.4,9.6,8.1,12.8c-8.3-0.4-9.6,0.4-12.8,8.1
			C714.7,840.9,713.8,839.6,706.1,836.4z"/>
		<path d="M699.1,907.3c8.3,0.4,9.6-0.4,12.8-8.1c-0.4,8.3,0.4,9.6,8.1,12.8c-8.3-0.4-9.6,0.4-12.8,8.1
			C707.6,911.8,706.8,910.4,699.1,907.3z"/>
	</g>
	<g>
		<path d="M715.6,286.2c26.6,1.4,30.9-1.3,40.9-26c-1.4,26.6,1.3,30.9,26,40.9c-26.6-1.4-30.9,1.3-40.9,26
			C743,300.5,740.2,296.2,715.6,286.2z"/>
		<path d="M780.8,264.5c8.3,0.4,9.6-0.4,12.8-8.1c-0.4,8.3,0.4,9.6,8.1,12.8c-8.3-0.4-9.6,0.4-12.8,8.1
			C789.3,269,788.5,267.6,780.8,264.5z"/>
		<path d="M773.8,335.4c8.3,0.4,9.6-0.4,12.8-8.1c-0.4,8.3,0.4,9.6,8.1,12.8c-8.3-0.4-9.6,0.4-12.8,8.1
			C782.3,339.9,781.5,338.5,773.8,335.4z"/>
	</g>
	<g>
		<path d="M830.9,697.1c23.1,1.2,26.8-1.2,35.6-22.6c-1.2,23.1,1.2,26.8,22.6,35.6c-23.1-1.2-26.8,1.2-35.6,22.6
			C854.7,709.5,852.3,705.8,830.9,697.1z"/>
		<path d="M887.6,678.2c7.2,0.4,8.4-0.4,11.1-7.1c-0.4,7.2,0.4,8.4,7.1,11.1c-7.2-0.4-8.4,0.4-11.1,7.1
			C895,682.1,894.3,681,887.6,678.2z"/>
		<path d="M881.5,739.8c7.2,0.4,8.4-0.4,11.1-7.1c-0.4,7.2,0.4,8.4,7.1,11.1c-7.2-0.4-8.4,0.4-11.1,7.1
			C888.9,743.7,888.1,742.5,881.5,739.8z"/>
	</g>
	<g>
		<path d="M533.5,292.7c23.1,1.2,26.8-1.2,35.6-22.6c-1.2,23.1,1.2,26.8,22.6,35.6c-23.1-1.2-26.8,1.2-35.6,22.6
			C557.3,305.2,554.9,301.4,533.5,292.7z"/>
		<path d="M590.1,273.9c7.2,0.4,8.4-0.4,11.1-7.1c-0.4,7.2,0.4,8.4,7.1,11.1c-7.2-0.4-8.4,0.4-11.1,7.1
			C597.6,277.8,596.8,276.6,590.1,273.9z"/>
		<path d="M584,335.5c7.2,0.4,8.4-0.4,11.1-7.1c-0.4,7.2,0.4,8.4,7.1,11.1c-7.2-0.4-8.4,0.4-11.1,7.1
			C591.5,339.4,590.7,338.2,584,335.5z"/>
	</g>
	<g>
		<path d="M495.2,868.8c26.6,1.4,30.9-1.3,40.9-26c-1.4,26.6,1.3,30.9,26,40.9c-26.6-1.4-30.9,1.3-40.9,26
			C522.6,883.2,519.9,878.9,495.2,868.8z"/>
		<path d="M560.4,847.2c8.3,0.4,9.6-0.4,12.8-8.1c-0.4,8.3,0.4,9.6,8.1,12.8c-8.3-0.4-9.6,0.4-12.8,8.1
			C569,851.7,568.2,850.3,560.4,847.2z"/>
		<path d="M553.4,918c8.3,0.4,9.6-0.4,12.8-8.1c-0.4,8.3,0.4,9.6,8.1,12.8c-8.3-0.4-9.6,0.4-12.8,8.1
			C562,922.5,561.1,921.2,553.4,918z"/>
	</g>
	<g>
		<path d="M472.6,509.5c26.6,1.4,30.9-1.3,40.9-26c-1.4,26.6,1.3,30.9,26,40.9c-26.6-1.4-30.9,1.3-40.9,26
			C500,523.8,497.3,519.5,472.6,509.5z"/>
		<path d="M537.8,487.8c8.3,0.4,9.6-0.4,12.8-8.1c-0.4,8.3,0.4,9.6,8.1,12.8c-8.3-0.4-9.6,0.4-12.8,8.1
			C546.4,492.3,545.5,490.9,537.8,487.8z"/>
		<path d="M530.8,558.7c8.3,0.4,9.6-0.4,12.8-8.1c-0.4,8.3,0.4,9.6,8.1,12.8c-8.3-0.4-9.6,0.4-12.8,8.1
			C539.4,563.2,538.5,561.8,530.8,558.7z"/>
	</g>
	<path d="M859.7,756.4c13.1,6.9,22.7,22.7,26.1,33c2.1,7.6,2.1,18.6,0,24.8c-2.7,11-11.7,24.8-22,33.7
		c-17.9,15.8-54.3,33.7-80.5,39.2c-12.4,2.7-36.5,2.1-42.6-0.7c-2.1-1.4-2.1-4.8,0-6.2c0.7-0.7,2.1-0.7,6.9,0
		c8.9,1.4,26.8,0.7,37.1-2.1c25.5-6.9,52.3-20.6,68.8-36.5c15.8-14.4,24.8-31.6,23.4-42.6c-3.4-18.6-21.3-31-53.7-37.2
		c-12.4-2.1-43.3-2.7-62.6-1.4c-176.1-6.2-367.3,121.1-575.8,141c-9.6,0.7-15.1,0-19.3-0.7c-31-8.9-41.3-36.5-26.8-63.3
		c16.5-11.7,13.1-2.1,7.6,9.6c-15.1,27.5,13.1,48.2,36.5,44c145.8-22.7,357.7-131.4,526.9-146.5c28.9-2.7,53-4.1,73.6-3.4
		C817.7,742,841.1,746.8,859.7,756.4z M815,545.9c35.1,0.7,68.1,6.2,97.7,18.6c13.1,6.9,22.7,17.2,26.1,27.5
		c2.1,7.6,2.1,17.9,0,24.8c-3.4,11-11.7,24.1-22,33.7c-22,13.8-23.4,0-10.3-6.2c15.8-14.4,24.8-32.3,22.7-43.3
		c-2.8-17.9-31-25.5-63.3-31c-235.3-19.3-553.1,156.8-686.5,144.5c-43.3-0.7-54.3-35.1-37.1-64c25.5-42.7,92.9-69.5,123.8-33
		c3.4,3.4,3.4,5.5,1.4,6.2c-1.4,0.7-2.7,0-4.8-2.1c-37.2-20.6-98.4,8.9-113.5,37.8c-14.4,29.6,10.3,48.8,36.5,44.7
		C356.1,678,607.9,550.1,797.1,545.9H815z M504.7,588.6c0,2.1-4.8,4.1-5.5,2.1c-0.7-2.7-37.8,8.9-114.2,35.8
		c-68.1,24.1-83.2,28.9-123.1,39.2c-31.6,7.6-48.8,9.6-56.4,6.9c-2.1-0.7-2.8-1.4-2.8-4.1c0-1.4,0.7-2.8,1.4-2.8
		c0.7-0.7,4.1-0.7,8.3-0.7c17.2,0.7,59.9-11,150-41.3c28.9-9.6,59.9-19.3,68.8-22c57.8-17.2,57.1-17.2,64-17.2
		C501.9,584.5,504.7,585.8,504.7,588.6z M803.9,790.8c11.7,4.1,24.8,13.8,26.8,20.6c1.4,3.4,1.4,6.9,0,9.6c-2.1,3.4-3.4,4.1-6.2,2.7
		c-1.4-0.7-1.4-1.4-0.7-4.8c0.7-4.1,0.7-4.1-4.1-8.3c-8.3-7.6-19.3-11.7-38.5-14.4c-30.3-4.1-73.6-2.7-119,3.4
		c-55,8.3-156.2,31.6-163,37.8c-2.1,2.1-3.4,2.1-4.8,0.7c-2.1-2.1-2.1-4.8,0.7-6.2c13.1-9.6,114.2-35.1,170.6-42.6
		c28.9-4.1,57.1-6.2,81.2-6.2C770.9,783.9,791.6,786,803.9,790.8z"/>
	<g>
		<g>
			<path fill="#FFFFFF" d="M776.9,633.9c0,0-18.2-38.1-41.7-25.3c-23.5,12.8,24.3,53.6,24.2,34.8c0-8.1-40.1-1.3-38.3,18
				C723,680.7,793.3,672.1,776.9,633.9z"/>
			<path fill="#241726" d="M766.1,613.3c8.3,8.4,13.4,18.8,13.6,19.3c5.8,13.6,2.4,25.4-9.5,33.5c-14.9,10.1-40,11.3-48.8,2.4
				c-1.9-1.9-3-4.2-3.2-6.8c-1-10.7,8-17.9,18.2-21.7c-7.6-7.9-11.5-16.6-10.5-23.4c0.7-4.5,3.4-8.2,8-10.7
				C744.4,600.2,755.6,602.7,766.1,613.3z M774.1,635.2c0,0-4.8-9.9-12.3-17.5c-8.5-8.6-17-10.7-25-6.3c-2.8,1.5-4.4,3.6-4.8,6.1
				c-0.7,5,3,12.3,9.6,19c0.5,0.5,1,1,1.5,1.4c6.7-1.5,14.5-1.8,17.9,1.6l0,0c1,1,1.6,2.4,1.6,3.8c0,4.8-2.5,6.7-4,7.4
				c-5.4,2.5-13.1-2.7-17.1-6c-8.7,2.6-18,8.2-17.2,16.3c0.8,8.8,27.5,10,42.4-0.2C773.2,656.6,779.8,648.5,774.1,635.2L774.1,635.2
				z M749.9,643.2c3.2,1.8,5.4,2.3,6.1,2c0.1,0,0.4-0.5,0.3-1.7C756,643.3,753.7,642.9,749.9,643.2z"/>
		</g>
		<g>
			<path fill="#FFFFFF" d="M801.4,628.7c0,0,27.4-32.1,46.8-13.7c19.4,18.4-37.3,45.6-32.3,27.4c2.1-7.9,39.1,9,32.3,27.3
				C841.5,687.8,775.8,661.3,801.4,628.7z"/>
			<path fill="#241726" d="M850.8,613.2c3.7,3.7,5.2,8.1,4.4,12.7c-1.3,7.7-8.7,14.6-16,19.1c2,1.5,3.9,3,5.5,4.7
				c6.7,6.7,9,14.2,6.4,21c-1,2.7-3.4,6.1-9.5,7.4c-11.6,2.5-29.6-4.1-40.1-14.7c-11.1-11.2-12-24.5-2.5-36.6
				c0.8-0.9,16.9-19.6,34.1-20.5c6.5-0.3,12.3,1.8,17.2,6.5C850.4,612.8,850.8,613.2,850.8,613.2z M833.1,641.3
				c8.6-4.5,15.1-11.2,16-16.5c0.4-2.7-0.4-5-2.7-7.3l2.2-2.2l-2.5,1.9c-3.7-3.5-7.8-5.1-12.6-4.8c-14.6,0.8-29.5,18.1-29.7,18.3
				c-9.5,12.1-4.1,22.1,2.1,28.4c9.9,9.9,26.1,14.8,34.4,13c2.7-0.6,4.4-1.8,5-3.5c2.1-5.7-1.6-11-5-14.5c-2.1-2.1-4.6-4-7.4-5.7
				c-4.5,2-14.1,5.4-18.5,0.9c-1.3-1.3-2.6-3.7-1.5-7.7c0.5-1.6,1.6-2.9,3.3-3.6C820.4,636.2,827.4,638.4,833.1,641.3z M818.8,644.9
				c0.5,0.5,2.8,0.7,6.4-0.3c-3.6-1.2-6-1.3-6.6-1C818.6,644.4,818.7,644.9,818.8,644.9z"/>
		</g>
		<path fill="#FFA115" d="M780.1,665.9c0,0-21.3,11.5-17.8,31.7c3.5,20.2,16.1,38.9,29.7,33.1c13.6-5.8,27.8-25.1,20-44.5
			C804.3,666.8,786,661.8,780.1,665.9z"/>
		<g>
			<path fill="#FFFFFF" d="M765,680.9c0,0,37.5,1.8,43.2-2"/>
			<path fill="#241726" d="M810.4,676.8c0.1,0.1,0.3,0.3,0.4,0.5c0.9,1.4,0.5,3.3-0.9,4.3c-6.1,4-36,2.9-45,2.5
				c-1.7-0.1-3-1.5-2.9-3.2c0.1-1.7,1.5-3,3.2-2.9c17.5,0.8,38.4,0.5,41.4-1.5C807.8,675.6,809.4,675.8,810.4,676.8z"/>
		</g>
		<g>
			<path fill="#FFFFFF" d="M763.2,699.3c0,0,43.8,0.7,51-4.1"/>
			<path fill="#241726" d="M816.5,693c0.1,0.1,0.3,0.3,0.4,0.5c1,1.4,0.6,3.3-0.9,4.3c-7.6,5.1-45.3,4.7-52.8,4.6
				c-1.7,0-3.1-1.4-3-3.2c0-1.7,1.4-3.1,3.1-3c17.8,0.3,44.8-0.6,49.3-3.5C813.8,691.8,815.4,692,816.5,693z"/>
		</g>
		<g>
			<path fill="#FFFFFF" d="M783.9,626.5c0,0,2-24.9-22.2-35.1"/>
			<path fill="#241726" d="M775.8,597c12.4,12.5,11.2,29.5,11.2,29.7c-0.1,1.7-1.6,3-3.3,2.8c-1.7-0.1-3-1.6-2.8-3.3
				c0.1-0.9,1.5-22.8-20.3-32c-1.6-0.6-2.3-2.5-1.6-4.1c0.7-1.6,2.5-2.3,4.1-1.6C768.3,590.8,772.5,593.8,775.8,597z"/>
		</g>
		<g>
			<path fill="#FFFFFF" d="M770.9,714.2c0,0,31.9,3.1,40.3-3.2"/>
			<path fill="#241726" d="M813.4,708.9c0.1,0.1,0.2,0.2,0.3,0.3c1,1.4,0.7,3.3-0.6,4.3c-9.1,6.8-39.1,4.1-42.5,3.8
				c-1.7-0.2-3-1.7-2.8-3.4c0.2-1.7,1.7-2.9,3.4-2.8c11.9,1.1,32.8,1.4,38.2-2.6C810.6,707.6,812.3,707.8,813.4,708.9z"/>
		</g>
		<g>
			<path fill="#FFFFFF" d="M812,591c0,0-22.6,6.6-20.8,37.2"/>
			<path fill="#241726" d="M814.2,588.8c0.4,0.4,0.6,0.8,0.8,1.3c0.5,1.6-0.5,3.3-2.1,3.8l0,0c-0.8,0.2-20.2,6.4-18.6,34.1
				c0.1,1.7-1.2,3.2-2.9,3.3c-1.7,0.1-3.2-1.2-3.3-2.9c-1.9-32.7,22.8-40.3,23-40.4C812.2,587.7,813.4,588,814.2,588.8z"/>
		</g>
	</g>
	<g>
		<g>
			<path fill="#FFFFFF" d="M214.9,773.6c0,0-18.2-38.1-41.7-25.3c-23.5,12.8,24.3,53.6,24.2,34.8c0-8.1-40.1-1.3-38.3,18
				C161,820.5,231.3,811.8,214.9,773.6z"/>
			<path fill="#241726" d="M204.2,753c8.3,8.4,13.4,18.8,13.6,19.3c5.8,13.6,2.4,25.4-9.5,33.5c-14.9,10.1-40,11.3-48.8,2.4
				c-1.9-1.9-3-4.2-3.2-6.8c-1-10.7,8-17.9,18.2-21.7c-7.6-7.9-11.5-16.6-10.5-23.4c0.7-4.5,3.4-8.2,8-10.7
				C182.4,739.9,193.6,742.4,204.2,753z M212.1,774.9c0,0-4.8-9.9-12.3-17.5c-8.5-8.6-17-10.7-25-6.3c-2.8,1.5-4.4,3.6-4.8,6.1
				c-0.7,5,3,12.3,9.6,19c0.5,0.5,1,1,1.5,1.4c6.7-1.5,14.5-1.8,17.9,1.6l0,0c1,1,1.6,2.4,1.6,3.8c0,4.8-2.5,6.7-4,7.4
				c-5.4,2.5-13.1-2.7-17.1-6c-8.7,2.6-18,8.2-17.2,16.3c0.8,8.8,27.5,10,42.4-0.2C211.2,796.3,217.8,788.2,212.1,774.9L212.1,774.9
				z M187.9,782.9c3.2,1.8,5.4,2.3,6.1,2c0.1,0,0.4-0.5,0.3-1.7C194,783,191.7,782.6,187.9,782.9z"/>
		</g>
		<g>
			<path fill="#FFFFFF" d="M239.5,768.4c0,0,27.4-32.1,46.8-13.7c19.4,18.4-37.3,45.6-32.3,27.4c2.1-7.9,39.1,9,32.3,27.3
				C279.5,827.5,213.9,801.1,239.5,768.4z"/>
			<path fill="#241726" d="M288.8,752.9c3.7,3.7,5.2,8.1,4.4,12.7c-1.3,7.7-8.7,14.6-16,19.1c2,1.5,3.9,3,5.5,4.7
				c6.7,6.7,9,14.2,6.4,21c-1,2.7-3.4,6.1-9.5,7.4c-11.6,2.5-29.6-4.1-40.1-14.7c-11.1-11.2-12-24.5-2.5-36.6
				c0.8-0.9,16.9-19.6,34.1-20.5c6.5-0.3,12.3,1.8,17.2,6.5C288.4,752.5,288.8,752.9,288.8,752.9z M271.2,781.1
				c8.6-4.5,15.1-11.2,16-16.5c0.4-2.7-0.4-5-2.7-7.3l2.2-2.2l-2.5,1.9c-3.7-3.5-7.8-5.1-12.6-4.8c-14.6,0.8-29.5,18.1-29.7,18.3
				c-9.5,12.1-4.1,22.1,2.1,28.4c9.9,9.9,26.1,14.8,34.4,13c2.7-0.6,4.4-1.8,5-3.5c2.1-5.7-1.6-11-5-14.5c-2.1-2.1-4.6-4-7.4-5.7
				c-4.5,2-14.1,5.4-18.5,0.9c-1.3-1.3-2.6-3.7-1.5-7.7c0.5-1.6,1.6-2.9,3.3-3.6C258.4,775.9,265.5,778.1,271.2,781.1z M256.8,784.6
				c0.5,0.5,2.8,0.7,6.4-0.3c-3.6-1.2-6-1.3-6.6-1C256.6,784.1,256.8,784.6,256.8,784.6z"/>
		</g>
		<path fill="#FFA115" d="M218.1,805.6c0,0-21.3,11.5-17.8,31.7c3.5,20.2,16.1,38.9,29.7,33.1c13.6-5.8,27.8-25.1,20-44.5
			C242.3,806.5,224,801.5,218.1,805.6z"/>
		<g>
			<path fill="#FFFFFF" d="M203.1,820.6c0,0,37.5,1.8,43.2-2"/>
			<path fill="#241726" d="M248.5,816.5c0.1,0.1,0.3,0.3,0.4,0.5c0.9,1.4,0.5,3.3-0.9,4.3c-6.1,4-36,2.9-45,2.5
				c-1.7-0.1-3-1.5-2.9-3.2c0.1-1.7,1.5-3,3.2-2.9c17.5,0.8,38.4,0.5,41.4-1.5C245.8,815.3,247.5,815.5,248.5,816.5z"/>
		</g>
		<g>
			<path fill="#FFFFFF" d="M201.3,839c0,0,43.8,0.7,51-4.1"/>
			<path fill="#241726" d="M254.5,832.8c0.1,0.1,0.3,0.3,0.4,0.5c1,1.4,0.6,3.3-0.9,4.3c-7.6,5.1-45.3,4.7-52.8,4.6
				c-1.7,0-3.1-1.4-3-3.2c0-1.7,1.4-3.1,3.1-3c17.8,0.3,44.8-0.6,49.3-3.5C251.8,831.5,253.5,831.7,254.5,832.8z"/>
		</g>
		<g>
			<path fill="#FFFFFF" d="M222,766.2c0,0,2-24.9-22.2-35.1"/>
			<path fill="#241726" d="M213.8,736.7c12.4,12.5,11.2,29.5,11.2,29.7c-0.1,1.7-1.6,3-3.3,2.8c-1.7-0.1-3-1.6-2.8-3.3
				c0.1-0.9,1.5-22.8-20.3-32c-1.6-0.6-2.3-2.5-1.6-4.1c0.7-1.6,2.5-2.3,4.1-1.6C206.4,730.5,210.6,733.5,213.8,736.7z"/>
		</g>
		<g>
			<path fill="#FFFFFF" d="M208.9,854c0,0,31.9,3.1,40.3-3.2"/>
			<path fill="#241726" d="M251.4,848.6c0.1,0.1,0.2,0.2,0.3,0.3c1,1.4,0.7,3.3-0.6,4.3c-9.1,6.8-39.1,4.1-42.5,3.8
				c-1.7-0.2-3-1.7-2.8-3.4c0.2-1.7,1.7-2.9,3.4-2.8c11.9,1.1,32.8,1.4,38.2-2.6C248.6,847.4,250.4,847.5,251.4,848.6z"/>
		</g>
		<g>
			<path fill="#FFFFFF" d="M250,730.7c0,0-22.6,6.6-20.8,37.2"/>
			<path fill="#241726" d="M252.2,728.5c0.4,0.4,0.6,0.8,0.8,1.3c0.5,1.6-0.5,3.3-2.1,3.8l0,0c-0.8,0.2-20.2,6.4-18.6,34.1
				c0.1,1.7-1.2,3.2-2.9,3.3c-1.7,0.1-3.2-1.2-3.3-2.9c-1.9-32.7,22.8-40.3,23-40.4C250.3,727.4,251.4,727.7,252.2,728.5z"/>
		</g>
	</g>
	<g>
		<path fill="#FFA115" d="M571.2,732.6c4.9,11.9-13.6-3.5-61.9,2.7C510.6,734.8,564.5,716.2,571.2,732.6z"/>
		<path fill="#FFA115" d="M576,692.6c1.7,2.6-9.4,4.3-17.9,7.7c-9.4,3.7-18.4,7.9-26.9,12.7c-7.5,4.3-22.8,15.3-23.4,15.9
			c9.4-13.7,30.5-28.3,38.8-33C554.7,691.3,570.5,684.1,576,692.6z"/>
		<path fill="#FFA115" d="M565.2,707.8c14.5,1-20.1,7.5-33.5,13.2C531.7,720.9,550.7,706.7,565.2,707.8z"/>
		<path fill="#FFA115" d="M524.2,739.3c35.5-3.7,41.4,32.1,30,18.6C542.7,744.2,524.2,739.3,524.2,739.3z"/>
		<path fill="#FFA115" d="M512,740.3c41.8,15.2,21.3,53.8,21.3,35C533.3,756.5,512,740.3,512,740.3z"/>
		<path fill="#FFA115" d="M546.4,682.1c1.7,1.5-5,4.5-9.6,8.2c-5.1,4.1-9.9,8.4-14.2,13.1c-3.8,4.1-10.9,14.1-11.1,14.6
			c2.7-10.6,12.7-24,16.9-28.6C532.5,684.9,540.9,677.4,546.4,682.1z"/>
		<path fill="#FFA115" d="M523.9,772.2c0.7,4.8-6.3,11.2-6.1,6.4c0.8-18.2-3.7-29.6-3.7-29.6C520.9,757.1,523.2,767.4,523.9,772.2z"
			/>
		<path fill="#FFA115" d="M527.9,659c5.1-7.6,8.5-0.9,6.6,2.8c-1.9,3.7-9.9,16.1-14.8,27.8C519.7,689.6,522.7,666.6,527.9,659z"/>
		<path fill="#FFA115" d="M504.7,769.8c4.5-11,0.9-26.6,0.9-26.6c9.6,11.4,10.6,47.9-5.7,48.3C494.3,791.7,501.9,776.6,504.7,769.8z
			"/>
		<path fill="#FFA115" d="M515.7,680c0.1,6.2-1.2,22.8-6.2,32.6c0.2-0.5,1.4-12.7,1.3-18.3c-0.1-6.3-0.8-12.7-2-19.2
			c-1.1-5.8-4.1-12.5-1.8-12.5C514.3,662.8,515.6,673.9,515.7,680z"/>
		<path fill="#FFA115" d="M505.1,723.3c0-0.8-4.2-19.2-7-27.4c-3.2-9.2-7.2-18.3-11.8-27.3c-4.2-8.1-11.4-16.7-8.4-17.6
			c9.7-2.8,16.8,13.1,19.9,21.9C500.8,682,507,706.9,505.1,723.3z"/>
		<path fill="#FFA115" d="M497.3,735.6c0,0-13,9.3-16.9,20.5c-2.4,6.9-6.6,23.3-10.7,19.6C457.7,764.6,482.6,737.8,497.3,735.6z"/>
		<path fill="#FFA115" d="M455.3,741.4c-12.4,14.2-2.3-28.4,39.1-12.2C494.4,729.1,467.7,727.2,455.3,741.4z"/>
		<path fill="#FFA115" d="M475.9,669.5c11.4,8.7,16.3,31.1,16.5,32C485.9,688.4,464.3,660.7,475.9,669.5z"/>
		<path fill="#FFA115" d="M487.1,734.2c0,0-11,5.6-22.4,19.8c-3,3.8-4-5.7-0.3-8.8C468.1,742.1,476.6,735.8,487.1,734.2z"/>
		<path fill="#FFA115" d="M485.9,720.3c-0.7-0.3-17.5-8.4-34.7-5.8C433.6,717.2,461.6,694.1,485.9,720.3z"/>
		<path fill="#FFA115" d="M455,684.2c15.8-7.8,44,41.5,44.8,42.9C467.6,690.6,443.5,689.9,455,684.2z"/>
	</g>
	<g>
		<path fill="#FFA115" d="M429.4,772.4c4.9,11.9-13.6-3.5-61.9,2.7C368.7,774.6,422.7,756,429.4,772.4z"/>
		<path fill="#FFA115" d="M434.1,732.4c1.7,2.6-9.4,4.3-17.9,7.7c-9.4,3.7-18.4,7.9-26.9,12.7c-7.5,4.3-22.8,15.3-23.4,15.9
			c9.4-13.7,30.5-28.3,38.8-33C412.9,731.1,428.6,723.9,434.1,732.4z"/>
		<path fill="#FFA115" d="M423.4,747.6c14.5,1-20.1,7.5-33.5,13.2C389.9,760.7,408.8,746.5,423.4,747.6z"/>
		<path fill="#FFA115" d="M382.3,779.1c35.5-3.7,41.4,32.1,30,18.6C400.8,784,382.3,779.1,382.3,779.1z"/>
		<path fill="#FFA115" d="M370.1,780.1c41.8,15.2,21.3,53.8,21.3,35C391.5,796.3,370.1,780.1,370.1,780.1z"/>
		<path fill="#FFA115" d="M404.6,721.9c1.7,1.5-5,4.5-9.6,8.2c-5.1,4.1-9.9,8.4-14.2,13.1c-3.8,4.1-10.9,14.1-11.1,14.6
			c2.7-10.6,12.7-24,16.9-28.6C390.7,724.7,399,717.2,404.6,721.9z"/>
		<path fill="#FFA115" d="M382.1,812c0.7,4.8-6.3,11.2-6.1,6.4c0.8-18.2-3.7-29.6-3.7-29.6C379.1,796.9,381.4,807.2,382.1,812z"/>
		<path fill="#FFA115" d="M386,698.8c5.1-7.6,8.5-0.9,6.6,2.8c-1.9,3.7-9.9,16.1-14.8,27.8C377.9,729.4,380.9,706.4,386,698.8z"/>
		<path fill="#FFA115" d="M362.9,809.6c4.5-11,0.9-26.6,0.9-26.6c9.6,11.4,10.6,47.9-5.7,48.3C352.4,831.5,360.1,816.4,362.9,809.6z
			"/>
		<path fill="#FFA115" d="M373.9,719.8c0.1,6.2-1.2,22.8-6.2,32.6c0.2-0.5,1.4-12.7,1.3-18.3c-0.1-6.3-0.8-12.7-2-19.2
			c-1.1-5.8-4.1-12.5-1.8-12.5C372.4,702.6,373.7,713.7,373.9,719.8z"/>
		<path fill="#FFA115" d="M363.3,763.1c0-0.8-4.2-19.2-7-27.4c-3.2-9.2-7.2-18.3-11.8-27.3c-4.2-8.1-11.4-16.7-8.4-17.6
			c9.7-2.8,16.8,13.1,19.9,21.9C359,721.8,365.2,746.7,363.3,763.1z"/>
		<path fill="#FFA115" d="M355.5,775.4c0,0-13,9.3-16.9,20.5c-2.4,6.9-6.6,23.3-10.7,19.6C315.9,804.4,340.8,777.6,355.5,775.4z"/>
		<path fill="#FFA115" d="M313.5,781.2c-12.4,14.2-2.3-28.4,39.1-12.2C352.6,768.9,325.9,767,313.5,781.2z"/>
		<path fill="#FFA115" d="M334.1,709.3c11.4,8.7,16.3,31.1,16.5,32C344.1,728.2,322.5,700.5,334.1,709.3z"/>
		<path fill="#FFA115" d="M345.3,774c0,0-11,5.6-22.4,19.8c-3,3.8-4-5.7-0.3-8.8C326.3,781.9,334.8,775.6,345.3,774z"/>
		<path fill="#FFA115" d="M344.1,760.1c-0.7-0.3-17.5-8.4-34.7-5.8C291.8,757,319.8,733.9,344.1,760.1z"/>
		<path fill="#FFA115" d="M313.2,724c15.8-7.8,44,41.5,44.8,42.9C325.8,730.4,301.7,729.7,313.2,724z"/>
	</g>
	<g>
		<path fill="#FFA115" d="M697,706.1c2.2,12.7-12.5-6.4-61-10.9C637.3,695,694,688.6,697,706.1z"/>
		<path fill="#FFA115" d="M710.3,668.1c1.1,2.9-10.1,2.2-19.2,3.6c-10,1.6-19.7,3.7-29,6.6c-8.3,2.5-25.6,10-26.3,10.4
			c12.1-11.3,35.9-20.9,45.1-23.7C689.9,662.2,706.8,658.6,710.3,668.1z"/>
		<path fill="#FFA115" d="M696.5,680.5c14,4.2-21.2,3-35.6,5.6C661,686.1,682.6,676.4,696.5,680.5z"/>
		<path fill="#FFA115" d="M649.6,702.4c35.5,4.2,33.4,40.4,25.2,24.6C666.6,711.2,649.6,702.4,649.6,702.4z"/>
		<path fill="#FFA115" d="M637.5,700.7c37.5,23.9,9,57.2,13.2,38.8C654.8,721.1,637.5,700.7,637.5,700.7z"/>
		<path fill="#FFA115" d="M683.8,651.4c1.4,1.8-5.8,3.3-11.2,5.9c-5.9,2.9-11.5,6.1-16.7,9.7c-4.6,3.2-13.7,11.4-14,11.8
			c5-9.8,17.6-20.6,22.7-24.2C669.6,651.1,679.4,645.6,683.8,651.4z"/>
		<path fill="#FFA115" d="M642.2,734.4c-0.3,4.8-8.6,9.6-7.3,4.9c4.8-17.5,2.8-29.7,2.8-29.7C642.5,719,642.5,729.6,642.2,734.4z"/>
		<path fill="#FFA115" d="M670.7,624.8c6.7-6.3,8.5,1,5.9,4.2c-2.6,3.2-13.2,13.6-20.5,23.9C656.1,652.9,664.1,631.1,670.7,624.8z"
			/>
		<path fill="#FFA115" d="M623.9,727.9c6.8-9.7,6.6-25.7,6.6-25.7c6.9,13.2-0.1,49.1-16.1,45.9C609,747,619.7,733.9,623.9,727.9z"/>
		<path fill="#FFA115" d="M654.3,642.6c-1.2,6.1-6.1,22-13.1,30.5c0.3-0.4,4.1-12.1,5.2-17.6c1.2-6.2,2-12.6,2.2-19.2
			c0.2-5.9-1.2-13.1,1-12.6C656.6,625.5,655.5,636.7,654.3,642.6z"/>
		<path fill="#FFA115" d="M634.5,682.6c0.2-0.8,0.1-19.6-0.9-28.2c-1.1-9.7-3-19.4-5.6-29.2c-2.3-8.9-7.5-18.8-4.3-19
			c10.1-0.6,13.6,16.4,14.6,25.7C639.3,641.3,640,667,634.5,682.6z"/>
		<path fill="#FFA115" d="M624.2,692.9c0,0-14.7,6.2-20.9,16.4c-3.8,6.2-11.5,21.3-14.7,16.8C579.2,712.6,609.4,691.8,624.2,692.9z"
			/>
		<path fill="#FFA115" d="M582,689.4c-15.2,11.1,3.9-28.3,40.9-3.4C622.8,686,597.1,678.2,582,689.4z"/>
		<path fill="#FFA115" d="M617.7,623.8c9.2,10.9,9.1,33.9,9.1,34.8C623.4,644.4,608.3,612.6,617.7,623.8z"/>
		<path fill="#FFA115" d="M614.5,689.3c0,0-11.9,3.1-26.1,14.4c-3.8,3-2.7-6.4,1.6-8.7C594.3,692.8,604,688.6,614.5,689.3z"/>
		<path fill="#FFA115" d="M616.4,675.5c-0.6-0.5-15.2-12-32.6-13.2C566,661,598.4,644.6,616.4,675.5z"/>
		<path fill="#FFA115" d="M594.1,633.6c17.1-4.2,33.9,50.1,34.3,51.6C605,642.5,581.7,636.6,594.1,633.6z"/>
	</g>
	<g>
		<g>
			<path d="M180.5,1131.2l96.5-117.6c4.1-5.3,6.2-11.6,6.6-18.7c0.3-7.2-1.3-13.4-4.7-18.7c-3.4-5.6-8.6-9.7-15.5-12.2
				c-6.9-2.5-13.4-3-19.7-1.4c-6.3,1.9-11.6,5.7-16.2,11.5c-4.5,5.8-7,11.8-7.3,18c-0.3,6.9-2.9,12.6-7.7,17.1
				c-4.8,4.5-10.5,6.6-17.1,6.3c-6.6-0.3-12.2-2.9-16.9-7.7c-4.7-4.8-6.9-10.5-6.6-17.1c0.6-16.9,6.5-32.3,17.6-46.4
				c11.1-14.1,24.8-23.4,41-28.1c16.6-4.4,33.2-3.4,49.9,2.8c16.7,6.3,29.6,16.6,38.7,30.9c9.4,14.1,13.6,30,12.7,47.8
				c-0.9,17.8-6.9,33.3-17.8,46.4l-60.9,74.5c20,0,40.8,1.7,62.3,5.2c6.6,1.3,11.8,4.5,15.7,9.8c3.9,5.3,5.2,11.2,4,17.8
				c-0.9,5.9-3.7,10.8-8.2,14.5c-4.5,3.7-9.8,5.6-15.7,5.6h-3.8c-34-5.9-69-6.2-105-0.9c-11.2,1.6-19.4-2.5-24.4-12.2
				C172.6,1149,173.3,1139.9,180.5,1131.2z M202.1,978.9c0.6-2.2-0.2-3.6-2.3-4.2c-2.2-0.9-3.6-0.3-4.2,1.9
				c-1.6,5.6-2.3,10.5-2.3,14.5c-0.6,2.5,0.5,3.7,3.3,3.7c2.2,0,3.3-1.1,3.3-3.3C200.3,985.9,201.1,981.7,202.1,978.9z
				 M222.7,1123.2c1.2-1.9,1.1-3.4-0.5-4.7c-1.9-1.9-3.6-1.7-5.2,0.5l-8.4,10.3c-1.3,1.9-1.1,3.6,0.5,5.2c0.3,0.3,0.9,0.5,1.9,0.5
				c1.2,0,2.2-0.3,2.8-0.9L222.7,1123.2z M225,948.4c1.9-0.9,2.3-2.5,1.4-4.7c-1.6-1.6-3.3-1.9-5.2-0.9c-2.5,1.6-6.3,4.5-11.2,8.9
				c-1.3,1.3-1.3,3,0,5.2c1.2,0.6,2.2,0.9,2.8,0.9c0.3,0,1.1-0.3,2.3-0.9C217.4,954.3,220.7,951.5,225,948.4z M234.9,1097.4
				c-1.9,1.9-1.7,3.4,0.5,4.7c0.3,0.6,0.9,0.9,1.9,0.9c1.6,0,2.5-0.5,2.8-1.4l8.9-10.3c1.2-1.9,1.1-3.6-0.5-5.2
				c-2.2-0.9-3.9-0.8-5.2,0.5L234.9,1097.4z M254.6,1139.6h-10.8h-3.3c-2.2,0-3.3,1.1-3.3,3.3c0,1.9,1.1,3.1,3.3,3.8h3.3h10.3
				c2.5,0,3.8-1.1,3.8-3.3C257.8,1140.8,256.7,1139.6,254.6,1139.6z M266.3,939.5c0.6-2.2-0.2-3.6-2.3-4.2
				c-5.6-0.9-10.5-1.2-14.5-0.9c-2.5,0-3.7,1.1-3.7,3.3c0.6,2.2,1.9,3.3,3.7,3.3c4.1,0,8.4,0.5,13.1,1.4h0.5
				C265.2,942.3,266.3,941.4,266.3,939.5z M275.2,1059.5c0.9-2.2,0.8-3.9-0.5-5.2c-2.2-0.9-3.9-0.8-5.2,0.5l-8.4,10.8
				c-1.9,1.9-1.7,3.4,0.5,4.7c0.6,0.6,1.2,0.9,1.9,0.9c0.9,0,1.9-0.5,2.8-1.4L275.2,1059.5z M282.2,1141.5c-2.5,0-3.7,1.1-3.7,3.3
				c-0.6,1.9,0.3,3.1,2.8,3.8c6.2,0.6,10.8,1.1,13.6,1.4h0.5c2.2,0,3.3-0.9,3.3-2.8c0.6-2.5-0.3-3.8-2.8-3.8
				C292.4,1142.7,287.8,1142.1,282.2,1141.5z M285,948.4c-1.3,1.6-1.1,3.1,0.5,4.7c3.7,2.8,6.7,5.9,8.9,9.4c1.2,0.6,2.2,0.9,2.8,0.9
				c0.9,0,1.7-0.2,2.3-0.5c2.2-1.2,2.3-2.8,0.5-4.7c-2.5-3.7-5.9-7.3-10.3-10.8C287.8,946.2,286.3,946.5,285,948.4z M300.9,1026.7
				c1.6-1.6,1.4-3.1-0.5-4.7c-1.9-0.9-3.6-0.6-5.2,0.9c0,0.3-0.8,1.6-2.3,3.7l-6.1,7c-1.3,1.6-1.1,3.1,0.5,4.7
				c1.2,0.6,2,0.9,2.3,0.9c0.9,0,1.9-0.5,2.8-1.4l5.6-7L300.9,1026.7z M307,982.1c-2.2,0-3.3,1.3-3.3,3.7c0.3,1.6,0.5,3.9,0.5,7v6.1
				c-0.6,1.9,0.3,3.1,2.8,3.7h0.5c2.2,0,3.3-1.1,3.3-3.3c0.3-1.2,0.5-3.4,0.5-6.6c0-3.4-0.2-6.1-0.5-8
				C310.2,982.5,308.9,981.5,307,982.1z"/>
			<path d="M403.1,907.6c29.1-13.4,58.9-9.4,89.5,12.2c17.5,12.5,28.7,34.7,33.7,66.5c4.7,29.4,5.6,57.6,2.8,84.8
				c-4.1,39.4-18.9,67.8-44.5,85.3c-13.4,9.7-29.8,14.5-49.2,14.5c-5.6,0-10.9-0.5-15.9-1.4c-20.6-3.4-35.8-12.3-45.5-26.7
				c-20.6-29.4-29.4-68.4-26.2-117.2c0.9-12.8,2.3-24.4,4-34.9c1.7-10.5,4.4-21.4,8.2-32.8c3.7-11.4,9.3-21.5,16.6-30.2
				C384,919,392.8,912.3,403.1,907.6z M368,1053.8c0,2.2,1.1,3.3,3.3,3.3h0.5c2.2,0,3.3-1.1,3.3-3.3c-0.3-1.9-0.5-4.7-0.5-8.4
				c0-2.2,0.2-3.9,0.5-5.2c0-2.5-1.3-3.8-3.7-3.8c-2.2,0-3.3,1.1-3.3,3.3v5.6V1053.8z M371.2,998.5c0,0.3-0.2,2.2-0.7,5.6
				c-0.5,3.4-0.7,6.1-0.7,8c-0.6,2.5,0.3,3.8,2.8,3.8h0.5c2.2,0,3.3-0.9,3.3-2.8c0.6-6.2,1.3-10.8,1.9-13.6c0-2.2-1.1-3.6-3.3-4.2
				C373.1,995.3,371.9,996.4,371.2,998.5z M378.3,1097.9c2.2-0.6,3-2,2.3-4.2c-1.3-5.6-2.2-10-2.8-13.1c-0.6-2.5-2-3.4-4.2-2.8
				c-1.9,0.6-2.8,2-2.8,4.2c1.2,6.3,2.3,10.8,3.3,13.6c0.6,1.6,1.7,2.3,3.3,2.3H378.3z M380.6,975.6c1.6,0,2.6-0.8,3.3-2.3
				c0-0.6,1.6-4.8,4.7-12.7c0.9-2.2,0.5-3.8-1.4-4.7c-2.2-0.6-3.7,0-4.7,1.9c-2.2,4.1-3.9,8.4-5.2,13.1c-0.6,2.2,0.2,3.6,2.3,4.2
				C380,975.4,380.3,975.6,380.6,975.6z M397.9,1134c1.9-1.2,1.9-2.8,0-4.7c0-0.3-0.2-0.7-0.5-1.2c-0.3-0.5-0.6-0.9-0.9-1.2
				l-5.6-8.4c-0.9-1.9-2.5-2.3-4.7-1.4c-1.9,1.3-2.3,2.8-1.4,4.7c1.6,2.8,3.6,5.9,6.1,9.4c0.3,0.6,0.9,1.4,1.9,2.3
				c0.9,0.9,1.9,1.4,2.8,1.4C395.9,1134.9,396.7,1134.6,397.9,1134z M464.5,959.2c-9.1-7.2-18.3-10.8-27.6-10.8
				c-4.4,0-8.9,0.9-13.6,2.8c-15.3,7.2-24.4,33-27.2,77.3c-2.8,37.5,3,66.4,17.3,86.7c2.2,3.1,6.9,5.5,14.1,7
				c11.9,2.2,21.7,0.5,29.5-5.2c13.7-10,21.9-26.9,24.4-50.6c2.2-22.8,1.4-47-2.3-72.6C475.6,975.1,470.7,963.6,464.5,959.2z
				 M399.4,934.3c-1.6,1.6-1.6,3.3,0,5.2c0.6,0.6,1.4,0.9,2.3,0.9s1.7-0.3,2.3-0.9c3.1-2.5,6.7-4.8,10.8-7c2.2-1.2,4.4-2,6.6-2.3
				c2.2-0.6,3-2,2.3-4.2c-0.6-2.2-2-3-4.2-2.3c-1.9,0.6-4.4,1.6-7.5,2.8C406.4,929.2,402.2,931.8,399.4,934.3z M432.6,1150.4
				c1.9,0,3.1-1.1,3.7-3.3c0-2.5-1.3-3.8-3.7-3.8c-4.7,0-8.9-0.6-12.7-1.9c-2.2-0.6-3.6,0.3-4.2,2.8c-0.6,2.2,0.2,3.6,2.3,4.2
				C421.5,1149.1,426.4,1149.8,432.6,1150.4z M448.1,922.2c-1.9-0.6-3.1,0.3-3.8,2.8c-0.6,1.9,0.3,3.1,2.8,3.7
				c2.5,0.6,6.6,1.9,12.2,3.7c0.3,0.3,0.8,0.5,1.4,0.5c1.6,0,2.6-0.8,3.3-2.3c1.6-2.2,0.9-3.6-1.9-4.2
				C457.5,924.5,452.8,923.1,448.1,922.2z M473.9,1139.1c1.6-1.6,1.9-3.1,0.9-4.7c-1.3-1.6-3-1.9-5.2-0.9l-0.5,0.5
				c-3.4,2.5-7,4.4-10.8,5.6c-1.9,0.6-2.5,2-1.9,4.2c0.6,1.6,1.7,2.3,3.3,2.3h0.9c4.7-1.9,8.7-4.1,12.2-6.6L473.9,1139.1z
				 M481.4,941.4c-1.9,1.6-1.9,3.3,0,5.2s4.4,5.3,7.5,10.3c0.3,1.3,1.2,1.9,2.8,1.9h1.4c1.9-0.9,2.5-2.5,1.9-4.7
				c-3.1-5.3-5.9-9.4-8.4-12.2C484.9,940.3,483.2,940.1,481.4,941.4z M498.2,1100.7c-2.5-1.2-4.1-0.6-4.7,1.9
				c-1.9,4.7-3.9,8.6-6.1,11.7c-1.3,1.9-0.9,3.4,0.9,4.7c0.3,0.3,0.9,0.5,1.9,0.5c1.6,0,2.5-0.5,2.8-1.4c2.2-3.1,4.4-7.5,6.6-13.1
				C500.9,1102.7,500.4,1101.3,498.2,1100.7z M500.1,977.9c-2.2,0.6-3,2-2.3,4.2c0.3,3.1,0.8,5.9,1.4,8.4c0,0.6,0.1,1.4,0.2,2.3
				c0.2,0.9,0.4,1.7,0.7,2.3c0,2.2,1.1,3.3,3.3,3.3h0.5c2.5-0.6,3.4-2,2.8-4.2c0-0.6-0.1-1.4-0.2-2.3c-0.2-0.9-0.2-1.7-0.2-2.3
				c-0.6-3.8-1.3-6.7-1.9-8.9C503.7,978.2,502.3,977.3,500.1,977.9z M508.5,1069.3c0.3-1.2,0.5-3,0.5-5.2c0.6-2.5-0.3-3.7-2.8-3.7
				c-2.5-0.6-3.7,0.3-3.7,2.8c-0.3,1.3-0.5,3-0.5,5.2l-1.4,8.4c0,2.5,1.1,3.7,3.3,3.7c0,0.3,0.2,0.5,0.5,0.5c1.6,0,2.6-1.1,3.3-3.3
				C508.2,1074,508.5,1071.2,508.5,1069.3z M509.5,1022c0-2.2-1.3-3.3-3.7-3.3c-2.2,0.6-3.3,1.9-3.3,3.8c0.3,3.1,0.5,7.7,0.5,13.6
				c0,2.5,1.1,3.8,3.3,3.8h0.5c2.2-0.6,3.3-1.9,3.3-3.8c0-1.6-0.1-3.9-0.2-7C509.5,1025.9,509.5,1023.5,509.5,1022z"/>
			<path d="M551.2,1131.2l96.5-117.6c4.1-5.3,6.2-11.6,6.6-18.7c0.3-7.2-1.3-13.4-4.7-18.7c-3.4-5.6-8.6-9.7-15.5-12.2
				c-6.9-2.5-13.4-3-19.7-1.4c-6.3,1.9-11.6,5.7-16.2,11.5c-4.5,5.8-7,11.8-7.3,18c-0.3,6.9-2.9,12.6-7.7,17.1
				c-4.8,4.5-10.5,6.6-17.1,6.3c-6.6-0.3-12.2-2.9-16.9-7.7c-4.7-4.8-6.9-10.5-6.6-17.1c0.6-16.9,6.5-32.3,17.6-46.4
				c11.1-14.1,24.8-23.4,41-28.1c16.6-4.4,33.2-3.4,49.9,2.8c16.7,6.3,29.6,16.6,38.7,30.9c9.4,14.1,13.6,30,12.7,47.8
				c-0.9,17.8-6.9,33.3-17.8,46.4l-60.9,74.5c20,0,40.8,1.7,62.3,5.2c6.6,1.3,11.8,4.5,15.7,9.8c3.9,5.3,5.2,11.2,4,17.8
				c-0.9,5.9-3.7,10.8-8.2,14.5c-4.5,3.7-9.8,5.6-15.7,5.6h-3.8c-34-5.9-69-6.2-105-0.9c-11.2,1.6-19.4-2.5-24.4-12.2
				C543.2,1149,544,1139.9,551.2,1131.2z M572.7,978.9c0.6-2.2-0.2-3.6-2.3-4.2c-2.2-0.9-3.6-0.3-4.2,1.9
				c-1.6,5.6-2.3,10.5-2.3,14.5c-0.6,2.5,0.5,3.7,3.3,3.7c2.2,0,3.3-1.1,3.3-3.3C571,985.9,571.8,981.7,572.7,978.9z M593.4,1123.2
				c1.2-1.9,1.1-3.4-0.5-4.7c-1.9-1.9-3.6-1.7-5.2,0.5l-8.4,10.3c-1.3,1.9-1.1,3.6,0.5,5.2c0.3,0.3,0.9,0.5,1.9,0.5
				c1.2,0,2.2-0.3,2.8-0.9L593.4,1123.2z M595.7,948.4c1.9-0.9,2.3-2.5,1.4-4.7c-1.6-1.6-3.3-1.9-5.2-0.9c-2.5,1.6-6.3,4.5-11.2,8.9
				c-1.3,1.3-1.3,3,0,5.2c1.2,0.6,2.2,0.9,2.8,0.9c0.3,0,1.1-0.3,2.3-0.9C588,954.3,591.3,951.5,595.7,948.4z M605.5,1097.4
				c-1.9,1.9-1.7,3.4,0.5,4.7c0.3,0.6,0.9,0.9,1.9,0.9c1.6,0,2.5-0.5,2.8-1.4l8.9-10.3c1.2-1.9,1.1-3.6-0.5-5.2
				c-2.2-0.9-3.9-0.8-5.2,0.5L605.5,1097.4z M625.2,1139.6h-10.8h-3.3c-2.2,0-3.3,1.1-3.3,3.3c0,1.9,1.1,3.1,3.3,3.8h3.3h10.3
				c2.5,0,3.8-1.1,3.8-3.3C628.5,1140.8,627.4,1139.6,625.2,1139.6z M636.9,939.5c0.6-2.2-0.2-3.6-2.3-4.2
				c-5.6-0.9-10.5-1.2-14.5-0.9c-2.5,0-3.7,1.1-3.7,3.3c0.6,2.2,1.9,3.3,3.7,3.3c4.1,0,8.4,0.5,13.1,1.4h0.5
				C635.8,942.3,636.9,941.4,636.9,939.5z M645.8,1059.5c0.9-2.2,0.8-3.9-0.5-5.2c-2.2-0.9-3.9-0.8-5.2,0.5l-8.4,10.8
				c-1.9,1.9-1.7,3.4,0.5,4.7c0.6,0.6,1.2,0.9,1.9,0.9c0.9,0,1.9-0.5,2.8-1.4L645.8,1059.5z M652.9,1141.5c-2.5,0-3.7,1.1-3.7,3.3
				c-0.6,1.9,0.3,3.1,2.8,3.8c6.2,0.6,10.8,1.1,13.6,1.4h0.5c2.2,0,3.3-0.9,3.3-2.8c0.6-2.5-0.3-3.8-2.8-3.8
				C663,1142.7,658.5,1142.1,652.9,1141.5z M655.7,948.4c-1.3,1.6-1.1,3.1,0.5,4.7c3.7,2.8,6.7,5.9,8.9,9.4c1.2,0.6,2.2,0.9,2.8,0.9
				c0.9,0,1.7-0.2,2.3-0.5c2.2-1.2,2.3-2.8,0.5-4.7c-2.5-3.7-5.9-7.3-10.3-10.8C658.5,946.2,656.9,946.5,655.7,948.4z M671.6,1026.7
				c1.6-1.6,1.4-3.1-0.5-4.7c-1.9-0.9-3.6-0.6-5.2,0.9c0,0.3-0.8,1.6-2.3,3.7l-6.1,7c-1.3,1.6-1.1,3.1,0.5,4.7
				c1.2,0.6,2,0.9,2.3,0.9c0.9,0,1.9-0.5,2.8-1.4l5.6-7L671.6,1026.7z M677.7,982.1c-2.2,0-3.3,1.3-3.3,3.7c0.3,1.6,0.5,3.9,0.5,7
				v6.1c-0.6,1.9,0.3,3.1,2.8,3.7h0.5c2.2,0,3.3-1.1,3.3-3.3c0.3-1.2,0.5-3.4,0.5-6.6c0-3.4-0.2-6.1-0.5-8
				C680.8,982.5,679.6,981.5,677.7,982.1z"/>
			<path d="M855.3,975.1l-78.3,5.2l-3.3,21.6c3.4-0.9,6.6-1.4,9.4-1.4c25.6-2.8,47.5,3.6,65.6,19.2c18.1,16.2,27.5,37.2,28.1,62.8
				c0.6,25.9-7.7,47.2-24.8,63.7c-15.9,15.3-35.8,23-59.5,23h-5.2c-25.9-1.6-46.4-11.6-61.4-30c-4.4-5-6.2-10.9-5.4-17.8
				c0.8-6.9,3.7-12.3,8.7-16.4c5-4.4,10.9-6.2,17.6-5.4c6.7,0.8,12.1,3.7,16.2,8.7c6.6,7.8,15.6,12,27.2,12.7
				c11.9,0.6,21.2-2.5,28.1-9.4c7.5-6.9,10.9-16.2,10.3-28.1c0-11.9-3.9-20.9-11.7-27.2c-7.8-6.9-17.3-9.5-28.6-8
				c-11.6,0.9-20.3,5.6-26.2,14.1c-7.5,10-17,12.7-28.6,8c-11.6-5.3-16.4-14.1-14.5-26.2l13.1-90c0.9-5.6,3.5-10.4,7.7-14.3
				c4.2-3.9,9.1-6,14.8-6.3l97.5-6.1c6.9-0.3,12.7,1.6,17.6,5.9c4.8,4.2,7.6,9.8,8.2,16.6c0.6,6.6-1.3,12.3-5.9,17.3
				C867.4,972.2,861.9,974.8,855.3,975.1z M747.5,1038.4l1.9-13.6c0.6-2.2-0.3-3.6-2.8-4.2c-2.5,0-3.7,1.1-3.7,3.3l-2.3,13.6
				c0,1.9,1.1,3.1,3.3,3.8h0.5C745.8,1041.2,746.9,1040.3,747.5,1038.4z M762,1137.3c1.6-1.6,1.2-3.1-0.9-4.7
				c-2.5-1.6-5.9-4.2-10.3-8c-1.6-1.6-3.1-1.6-4.7,0c-1.9,1.9-1.9,3.4,0,4.7c2.5,3.1,6.3,6.3,11.2,9.4h0.9
				C760.2,1139.3,761.4,1138.8,762,1137.3z M753.6,997.6l1.9-13.6c0.6-2.2-0.3-3.6-2.8-4.2c-2.5,0-3.7,0.9-3.7,2.8l-2.3,13.6
				c0,2.5,1.1,3.9,3.3,4.2h0.5C751.9,1000.4,753,999.5,753.6,997.6z M771.4,960.1c2.2-0.6,3.3-1.9,3.3-3.8c0-2.2-1.3-3.3-3.7-3.3
				l-13.6,0.9c-2.2,0-3.3,1.3-3.3,3.7c0,1.9,1.1,2.8,3.3,2.8h0.5L771.4,960.1z M786.4,1021c-4.7,0-9.4,0.8-14.1,2.3
				c-2.5,1.3-3.3,2.8-2.3,4.7c0,1.3,0.6,1.9,1.9,1.9c0.9,0.3,1.7,0.3,2.3,0c4.4-1.2,8.6-2,12.7-2.3c2.2,0,3.3-1.1,3.3-3.3
				C790.2,1021.5,788.9,1020.4,786.4,1021z M798.6,1149.4c2.8,0,3.9-1.2,3.3-3.8c0-2.2-1.1-3.3-3.3-3.3c-3.1,0.3-7.5,0.2-13.1-0.5
				c-2.5-0.6-3.8,0.3-3.8,2.8c-0.6,1.9,0,3.1,1.9,3.8h0.9C789.8,1149.4,794.5,1149.8,798.6,1149.4z M798.6,951.2
				c-2.2,0-3.3,1.3-3.3,3.7c0,2.2,1.1,3.3,3.3,3.3h0.5l13.6-0.9c2.2,0,3.3-1.2,3.3-3.7c0-2.2-1.3-3.3-3.7-3.3L798.6,951.2z
				 M810.3,1026.7c-0.6,2.2,0.2,3.7,2.3,4.7c3.7,1.3,7.7,3.1,11.7,5.6h0.9c1.6,0.6,2.8,0.2,3.7-1.4c1.2-1.9,0.9-3.4-0.9-4.7
				c-5.6-3.1-10-5.2-13.1-6.1C813.1,1024.2,811.6,1024.8,810.3,1026.7z M838,1126.9c-1.9-1.6-3.6-1.6-5.2,0c-1.3,1.6-4.5,4.2-9.8,8
				c-2.2,1.3-2.7,2.8-1.4,4.7c0.3,0.9,0.9,1.4,1.9,1.4c0.9,0.6,2,0.6,3.3,0c5-3.8,8.7-6.9,11.2-9.4
				C839.5,1130.1,839.5,1128.5,838,1126.9z M839.8,948.9c-2.2,0-3.3,1.1-3.3,3.3c0,2.2,1.1,3.3,3.3,3.3h0.5l13.6-0.9
				c2.2,0,3.3-1.1,3.3-3.3c0-2.8-1.3-3.9-3.8-3.3L839.8,948.9z M844.1,1050.1c-1.9,0.9-2.3,2.5-1.4,4.7l0.5,0.9
				c2.2,2.8,3.7,6.4,4.7,10.8c0.6,0.9,1.4,1.7,2.3,2.3h2.3c2.2-0.6,3-2,2.3-4.2c-1.3-4.7-3.1-8.9-5.6-12.7l-0.5-0.9
				C847.5,1049.2,845.9,1048.8,844.1,1050.1z M856.7,1093.2c0-2.5-0.9-3.8-2.8-3.8c-2.2-0.6-3.6,0.3-4.2,2.8
				c-0.3,3.1-1.1,6.7-2.3,10.8l-0.9,1.9c-0.6,2.2,0.2,3.6,2.3,4.2c2.2,1.3,3.6,0.6,4.2-1.9l0.5-1.9
				C854.4,1102.9,855.5,1098.8,856.7,1093.2z"/>
		</g>
	</g>
	<g>
		<path d="M193,436.1c3.1,0,3.8-3.8,3.8-5.9v-66.4c0-2.6,2.1-4.7,4.7-4.7h16.5c2.6,0,4.7,2.1,4.7,4.7v155.3c0,2.6-2.1,4.7-4.7,4.7
			h-17.4c-12.7,0-24.5-77-35.8-77c-3.1,0-3.8,3.8-3.8,5.9v66.4c0,2.6-2.1,4.7-4.7,4.7h-16.5c-2.6,0-4.7-2.1-4.7-4.7V363.8
			c0-2.6,2.1-4.7,4.7-4.7h17.4C168.8,359.1,182.2,436.1,193,436.1z M143.6,527.9c6.8,0,21.4,2.6,21.4-8.7v-66.4h0.5l3.8,9.6v63.8
			c0,2.6-2.1,4.7-4.7,4.7H148C146.2,530.9,144.3,529.7,143.6,527.9z M143.8,480.3v2.4l0.9-1.6l0.9,0.5l0.5-2.1L143.8,480.3z
			 M143.8,509.5l0.5,0.2l0.9-1.6L143.8,509.5z M144.3,451.4H144l1.6,0.7l1.2,1.4c-0.5-0.9-0.9-2.6,0.2-3.1l-1.6-0.7L144.3,451.4z
			 M145.2,462.4l1.9,1.2c0.7-1.9,2.8,0,3.3-1.4l-3.3-0.9L145.2,462.4z M147.1,493.5v-0.7l-1.9,0.5c0.2,1.6,1.4,2.6,2.4,3.8l1.2-0.7
			v-1.4L147.1,493.5z M148,425.7l-2.6,2.4l1.4,0.9l1.6-1.9L148,425.7z M145.5,457.3c0,1.2,1.2,1.4,0.7,2.6l0.9-1.4l-1.4-1.4h-0.2
			V457.3z M146.9,469.3c-0.2-0.7-0.2-1.4-1.2-1.4C145.7,468.6,146.4,469,146.9,469.3z M145.9,475.6l0.2,0.5l0.9-2.4
			C146.4,474.2,145.9,474.7,145.9,475.6z M148.5,388.3l-2.1-0.2l-0.2,4.2h0.2l2.1-2.6h1.9l-0.2-1.6l-2.4-0.7L148.5,388.3z
			 M146.2,414l3.1-4l-2.1-1.4L146.2,414z M146.9,431.8c0-0.7-0.2-1.2-0.7-1.6L146.9,431.8z M147.6,406.4v-1.2
			c-0.2,0.2-0.7,0.2-1.2,0C146.6,405.7,147.1,406.2,147.6,406.4l0.5,0.5l0.7-0.7C148.3,406.4,148,406.4,147.6,406.4z M147.8,480.3
			l-0.9,0.5l-0.5,2.6c1.6-0.5,3.3-1.9,4.5-3.1l-2.8-1.6L147.8,480.3z M146.9,384.1l0.7,0.7l0.5-0.5l-1.2-0.5V384.1z M146.9,454.4
			l1.2,2.1l-0.5-1.2l1.6-1.2l-1.6-0.7L146.9,454.4z M152.5,404.5l-0.2-0.7c-0.9-0.7-2.4-1.6-3.5-1.6h-0.2l-0.9,3.1l1.9-0.5l-0.2-1.6
			l1.6,2.4l-0.7,0.5l1.4,2.8v0.5c1.2-0.2,2.6-0.5,3.8,0c-0.2-0.9,0.2-1.9,1.2-2.4v-0.5l-3.1,1.4v-1.6l-0.7-1.4
			c0.5,0,1.2,0.7,1.4,1.2h0.5c0-0.7-0.2-2.1-1.2-2.4L152.5,404.5z M147.8,398.9l2.4-0.7l-1.4-1.2L147.8,398.9z M147.8,414.2l0.7,0.7
			h2.6l0.5-1.9L147.8,414.2z M148,385.2l1.4,1.2l3.8-2.1l-0.5-1.6h-2.4l0.5,2.6H148z M148.8,419.4l0.2-1.2l-0.9-2.6L148.8,419.4z
			 M148,425.5v0.2l0.2-0.2H148z M148,466c0.5,0,1.4-0.2,1.4-0.9v-0.2C148.8,465,148,465,148,466z M149.7,424.1l-1.4,1.4
			C149,425.5,149.5,424.5,149.7,424.1z M149.2,370.2l1.6-1.4c-0.7,0.2-1.4-0.2-1.9-0.7l-0.5,0.5
			C149.2,368.8,149.2,369.5,149.2,370.2z M148.5,469.3v0.7c0,1.2,0.7,1.9,1.9,2.1L148.5,469.3z M149.2,422.4h0.9l-0.2-0.9
			C149.7,422,149.2,422,149.2,422.4z M150.9,458.4l-0.7-1.4c0.2,1.2-0.9,2.1-0.9,3.3v0.5h0.2l1.4-1.6V458.4z M149.2,477h0.9
			c0-0.7-0.2-0.7-0.9-0.7V477z M149.5,452.3h0.2c0.5,0,0.7-0.5,0.7-0.9h-0.9V452.3z M153.2,371.6l-1.4-0.2l-0.5,1.2l-1.4,0.7
			l2.4,0.5L153.2,371.6z M150.2,376.8l1.4,0.5c-0.5-0.7-0.2-2.1-1.4-2.1h-0.2L150.2,376.8z M149.9,475.6c0.5,0.2,0.7,0.2,1.2,0.2
			l0.5-0.5L149.9,475.6z M150.2,398.9l0.7,2.8l1.4,0.5l0.5-0.7v-0.2l-1.6-1.2l2.8-0.7l-0.5-1.6h-3.1L150.2,398.9z M151.1,418.2
			l0.9-0.9l-1.6,0.5v0.2L151.1,418.2z M153,364.3l-2.1,1.4l2.6-0.7L153,364.3z M151.6,389l0.5,1.6h0.5c-0.5-0.5-0.7-1.6-0.7-2.4
			h-0.9L151.6,389z M151.6,478h0.2v-0.2c0-0.5-0.7-0.2-0.9-0.7C150.9,477.5,150.9,478,151.6,478z M152,421.5l0.7,0.7l0.5-0.5
			l-0.9-0.7L152,421.5z M152.5,404.8h0.2l-0.2-0.2V404.8z M153.2,497.5c-0.5,0-0.5-0.2-0.7-0.2L153.2,497.5z M152.8,411.6h1.4
			l0.5-0.2l-1.9-1.4V411.6z M153.5,371.8l1.2-3.3l-1.4,3.1L153.5,371.8z M153.9,381l0.2,0.5c0.9-0.2,1.4-0.9,1.6-1.9l-0.9-0.5
			L153.9,381z M158.6,384.5l-1.4-0.9v1.6l-1.9-0.2l-1.2,1.9c1.4-0.2,0.9,2.4,0.7,3.1l1.6-2.4c-0.5-0.5,0.5-1.4,0.9-1.2l2.1,2.6
			l0.9-1.6L158.6,384.5z M154.6,396.1v0.2l1.4-0.9l-0.2-0.2L154.6,396.1z M154.9,378.7l0.9-1.4h-0.9V378.7z M158.2,397l-0.9-1.2
			l-1.4,2.6l1.4,1.4l-0.7,0.2l-0.9-0.9l-0.2,0.9l3.5,1.6h0.7l1.6-1.2h0.7v-2.1l-1.9,0.7l-0.5-0.9l1.4-1.2l-1.6-0.7L158.2,397z
			 M155.8,393.5c0.9-0.2,1.6-0.7,2.4-1.2C157.2,392.3,155.8,392.3,155.8,393.5z M158.6,381.2l-1.4,0.7c1.2-0.2,0.9,1.6,2.1,1.6h0.2
			L158.6,381.2z M157.2,406.2l2.1-0.2C158.9,405.7,157.2,405.3,157.2,406.2z M159.3,394.2l0.2-0.2l-1.4-0.9
			C158.4,393.5,158.9,394.2,159.3,394.2z M158.9,412.3l-0.5,0.2h0.2l0.5-0.2H158.9z M159.1,412.3l0.5,1.9l1.6-0.2l-0.2-2.4l-1.6-0.2
			L159.1,412.3z M161.2,390l0.5-0.2l-1.2-0.7l-0.5,0.2L161.2,390z M161,393l1.4,1.6l0.2-1.2l-0.2-1.4L161,393z M165.5,419.6l0.2-2.6
			l1.4,0.7c0.2,0.9-0.5,2.1-0.7,3.1l0.9-0.7l0.5,1.6l1.6-0.2c0-1.6-0.7-3.8-1.6-5.2v-2.6c-1.6,0.2-5.4-0.2-6.1,1.6l1.6,0.9l-0.9,0.7
			h-0.5L165.5,419.6z M162.9,410v1.9l2.1,1.4l-0.9-4L162.9,410z M165.5,426c0-0.7,0-1.4-0.5-1.9L165.5,426z M167.1,410.7
			c0,0.7,0.2,1.4,0.9,1.6L167.1,410.7z M169.5,369l23.3,59.5v1.6h-0.5l-24.9-63.5L169.5,369z M167.8,423.4v0.2l0.9,0.7l0.9-0.5
			l-0.2-0.7L167.8,423.4z M170.2,427.1v0.2l1.6-2.4l-1.6-1.6l-1.4,3.1L170.2,427.1z M170.2,428.1c0.2,0.7-0.2,1.4-0.7,1.9v0.2
			l1.4,1.2L170.2,428.1z M171.3,432.3c0-0.5-0.2-0.7-0.5-0.9l0.5,1.4V432.3z M174.2,435.6l1.4-1.2c-1.4,0.7-2.4-0.5-3.5-0.9
			l-0.7,2.1H174.2z M173,439.1h1.2l-1.4-0.5v-0.5l1.4-0.7h-2.1l-0.2,2.4L173,439.1z M176.8,452.3l-0.7,0.5l1.2,0.5l0.7-0.5
			L176.8,452.3z M179.6,452.8l-1.4,1.2l0.9,1.2l0.7-2.4H179.6z M179.8,449.7l2.8,1.9l0.9-0.5l-0.5-0.7l-1.6-0.5l1.4-1.2l-0.7-1.9
			l-1.9-0.9l-0.5,0.5C181.2,446.9,180.3,449,179.8,449.7z M180.8,457.5c0.7-0.2,1.2,0.2,1.6,0.7h0.2v-2.1h-1.2L180.8,457.5z
			 M182.2,455.4l1.2,0.7l1.6-0.9l-1.2-0.5v-0.9L182.2,455.4z M184.5,466.2c0.9,0,2.8-0.5,2.8-1.9l-1.2-0.5L184.5,466.2z
			 M186.2,459.4l0.5-0.9c-0.5,0-0.9,0-0.9,0.5L186.2,459.4z M187.6,470.9v-0.5c0-0.5-0.2-1.2-0.7-1.2
			C186.9,470,187.1,470.4,187.6,470.9z M187.3,460.1l1.4-0.7c-0.7,0.2-1.2-0.7-1.4-1.2V460.1z M188.1,474l2.8-0.7l-0.5-0.7
			C190.2,473.5,188.8,473.7,188.1,474z M190.9,466h0.7l-0.2-0.5l1.2-2.6l-0.5-0.7l-1.2,2.1l-2.4-0.7l-0.2,0.7v3.3L190.9,466z
			 M196.3,467.1l-2.6,0.5c0.7,3.5-4.7,0.9-5.2,3.8c2.6-0.7,5.6-0.9,8.2-0.7l1.9,1.4C197.5,470.7,196.5,469,196.3,467.1z
			 M193.2,476.1l-1.4,2.6h-0.5v2.1l-2.1,1.6c1.4-0.7,3.1-0.9,4.7-0.7v-2.4l-1.2,0.9l-1.2-0.9l2.6-1.9l-0.2-0.5l1.2-0.2L193.2,476.1z
			 M190.4,460.8l1.4,1.2l-0.7-1.6L190.4,460.8z M195.3,477.3h0.5l0.9-0.5l-1.4-1.4h-0.7L195.3,477.3z M196.1,495.1l0.2,2.8l3.5,0.7
			l-1.4-1.6l0.2-1.2c-0.5,1.2-0.9-0.5-0.9-0.9L196.1,495.1z M197.9,490l0.9,0.9h0.2l-0.7-1.9L197.9,490z M198.2,476.1
			c0.5-0.2,0.7,0.5,0.9,0H198.2z M198.6,478.4h0.2l0.2-0.5V477L198.6,478.4z M199.1,486.2c0,0.7,0.9,1.2,1.6,1.2l0.2-0.9l-1.9-0.7
			V486.2z M199.8,493.3l-0.7,0.9l0.2,0.5l0.7-1.4H199.8z M199.8,503.4l-0.7-1.2l1.4,6.1l1.6-0.7
			C201.5,506.2,200.8,504.6,199.8,503.4z M199.8,503.4l2.6,0.9v-1.4L199.8,503.4z M200.1,491.4c0,0.5,0.7,0.7,0.9,0.7h0.7l-0.2-1.2
			c-0.2,0.7-0.9,0.2-1.4,0V491.4z M201,499.4l-0.9,1.6c1.2-0.7,2.6,0.9,3.1,1.9l-0.2-1.6l-0.7-0.2v-2.1L201,499.4z M201.7,490.4
			l2.1,0.5l0.7,1.9l-1.2,1.2l0.7,0.9c0.9-0.2,3.3-0.7,3.5,0.7l-1.6,1.4l-1.4-1.9l-1.2,1.9c1.6,0.2,2.8,1.2,4.2,1.6l2.1-4h0.2v-2.1
			l-3.3-1.2l-1.2,0.2l-2.1-3.1L201.7,490.4z M202.2,406l3.1,0.2l0.9-2.6l-2.4-0.5l-0.9-0.9L202.2,406z M208.5,410l1.9-1.2l1.9,0.2
			l-4.5-2.8c-1.9,0.5-0.9,3.3-3.8,2.8l0.2,0.9l-0.5-0.5l-0.9,2.1l0.9-0.2l0.5-1.4l1.2,1.6l-1.4,0.9l-1.6-0.2l3.8,1.6l1.4-2.1
			l-1.6-0.2l1.4-2.1C207.8,409.3,208.3,409.7,208.5,410z M203.1,512.1l0.2,1.4l0.7-0.5L203.1,512.1z M203.4,417
			c0.7,0.2,1.2,0.9,1.2,0H203.4z M204.1,419.6l-0.7-0.9v0.9H204.1z M209.5,374.9l-1.2,0.9l-1.2-1.4l-2.4,0.5l1.2,2.6l-2.1,2.8
			l3.1,0.2l-0.7-2.6c1.4,0.2,2.1-0.9,2.4-2.1l1.6-0.9H209.5z M205.2,394.7l-1.4,3.1l0.7,2.8l-0.5-2.8l1.9-0.2l-0.5-2.1l2.8-1.6
			l-2.4,0.2l-0.7-0.9V394.7z M204.1,419.6c0.2,0.5,0.7,0.7,1.2,1.2C205.2,420.1,204.8,419.6,204.1,419.6z M205.2,422.4
			c-0.2-0.5-0.7-0.7-1.2-0.7L205.2,422.4z M204.1,481c0.2,0.7,0.5,1.4,1.4,1.4L204.1,481z M204.1,513l1.9,1.4l2.6-0.9l-0.2-1.6
			l2.6-1.4l-0.2,0.9l0.9-0.7l-1.6-2.4l-0.5,1.4l-0.7,0.2l-0.2-0.9l-0.9,2.1l-1.4-2.1l0.7,2.8h-1.6L204.1,513z M204.3,527.9
			c6.8,0,22.4,2.8,22.4-8.7v-153c2.4,0.2,4.2,2.4,4.2,4.7v155.3c0,2.6-2.1,4.7-4.7,4.7h-17.4c-1.9,0-3.5-0.9-4.2-2.8L204.3,527.9z
			 M205.2,415.6l0.9-1.4l-1.6,1.2L205.2,415.6z M206.9,400.8c-0.5,0.5-1.4,0.9-2.1,0.7l1.4,0.9c-0.2-0.7,0.5-1.2,0.9-1.4v-0.2H206.9
			z M207.1,423.4l-1.9-0.9c0.2,0.7,0.9,0.9,1.6,0.9H207.1z M207.6,387.4l-1.2,0.9l2.4,0.9l1.4-2.4l-2.6-0.2l-0.7-2.1
			C206.6,385.5,206.9,386.7,207.6,387.4z M207.1,397.7l0.7,0.7h2.8l-1.9-1.4l2.1-2.4c0.7,0.9,1.4,2.6,1.4,3.8
			c0.7-1.2,1.2-2.4,1.6-3.8l-0.7-2.4l-2.4,0.7l0.2-2.6l1.2-0.5l-0.7-0.2l-3.1,0.2l0.7,2.1l-0.9,1.4l1.2,0.5
			C209.5,395.6,207.8,396.3,207.1,397.7z M215.8,374.7l-0.2-0.5c-3.5,0.7-4,0.7-4-2.8c-0.9-0.2-1.4-1.6-1.4-2.6l-0.7,3.3l-1.6,1.4
			l2.1-0.2l1.2,2.6l-1.2,2.1l-0.7-1.2l-0.5,3.1c2.1,0,4,0.5,5.9,1.2l0.2-1.4l-3.3-1.4l1.2-2.1l2.8-0.2L215.8,374.7z M207.8,421
			l0.9,0.5v1.9l1.9-2.4l-1.9-0.9L207.8,421z M210.6,505.3l2.6-0.2v-0.7c0-1.6-2.8-2.1-4-2.1L210.6,505.3z M210.6,490.2
			c-0.5,0-0.7,0.2-1.2,0.2l0.5,0.7l1.2-0.9H210.6z M212.5,499.9c0.5-0.9-1.4,0.7-0.9-0.5l0.2-0.5l-1.2-0.2l1.2,3.1h2.8l-1.4-2.8
			L212.5,499.9z M212.8,414c-0.2-0.9-0.2-1.9,0.2-2.6h-2.1L212.8,414z M212.8,517.3c-0.2-0.2-0.9-0.2-1.2-0.5
			c0.7,0.5,0.5,1.6,1.6,1.6l0.2-0.2c0-0.2-0.2-0.5-0.5-0.7l0.7,0.2l-0.7-0.5H212.8z M211.8,501l0.7-0.7l0.7,0.2L211.8,501z
			 M212.3,513.7c0.2-0.2,0.2-0.9,0.2-0.9L212.3,513.7z M212.5,400.1l0.7,1.6l0.2-0.5l-0.2-1.2H212.5z M212.5,404.5l0.9,3.1l1.2-0.5
			l0.2-1.2L212.5,404.5z M213,517.5l-0.2-0.2L213,517.5z M215.4,373.2l-1.4-1.4l1.2-1.9v-0.7l-1.2-0.5l-0.7,3.1L215.4,373.2z
			 M213.7,517.7c0,0,0.7,0.5,1.2,0.5L213.7,517.7z M216.3,391.4c0,0-1.2,0-1.6,0.2L216.3,391.4z M214.6,497.5h0.9l-0.5-0.5h-0.5
			V497.5z M215.4,369l-0.2-0.5v0.7L215.4,369z"/>
		<path d="M329.5,363.8v16.5c0,14.4-45.7-8-45.7,15.3V418c0,23.3,45.7,0.9,45.7,15.3v16.5c0,14.4-45.7-8-45.7,15.3v22.4
			c0,23.3,45.7,0.9,45.7,15.3v16.5c0,2.6-2.1,4.7-4.7,4.7h-62.1c-2.6,0-4.7-2.1-4.7-4.7V363.8c0-2.6,2.1-4.7,4.7-4.7h62.1
			C327.4,359.1,329.5,361.2,329.5,363.8z M266.4,527.9h58.4c11.8,0,8.7-16,8.7-22.8c2.4,0.2,4.2,2.4,4.2,4.7v16.5
			c0,2.6-2.1,4.7-4.7,4.7h-62.1C269,530.9,267.1,529.7,266.4,527.9z M267.6,461c0,0-0.7,1.4-0.5,2.1L267.6,461z M267.1,410l1.2,0.9
			l0.9-0.7V410l-2.1-0.2V410z M268.3,474.9l-0.9-1.4l-0.2,0.2L268.3,474.9z M268.5,482.9l-0.9-0.7l-0.5,0.2L268.5,482.9z
			 M270.7,475.9h-2.4c-0.2,2.4,3.5,1.2,3.5,2.8l-0.2,0.9l1.6-0.7l-0.2-2.4C272.3,476.3,271.4,475.9,270.7,475.9z M269.5,496.6v-0.2
			l-1.2-0.9L269.5,496.6z M270.7,379.8l-0.7-3.3l-1.4,2.4L270.7,379.8z M268.5,403.6l0.9,4.5l0.7-0.5L268.5,403.6z M268.8,395.8
			l0.7,0.7l1.2-0.9l-1.4-1.4L268.8,395.8z M269,390.9v0.5c0,0.5,0.2,1.2,0.5,1.6l1.9-0.5L270,390L269,390.9z M270.7,402.4
			c0-0.9-0.7-0.9-1.2-1.4C269.7,401.7,269.7,402.4,270.7,402.4z M270.4,486.4l-0.9,0.5l0.7,0.2l0.7-0.7H270.4z M269.5,493.5l2.4,0.9
			l1.2-0.9h-2.1l-1.4-1.9V493.5z M270.2,376.3l1.4,0.5l-0.2-1.2L270.2,376.3v-0.2c-0.2,0.2-0.2,0.2-0.2,0.5L270.2,376.3z
			 M271.4,482.9l-1.4,0.2l1.6,1.2l0.9-0.2L271.4,482.9z M271.1,386.2l-0.9,0.5l1.2,1.9h2.8L271.1,386.2z M273.7,502.4l-3.1,0.9
			l1.4,0.2l2.6-0.2L273.7,502.4z M271.6,408.8l-0.7,0.5v0.2l1.6,0.9l-0.2-1.6H271.6z M272.3,413.3l0.7-0.5l-1.6-0.7l-0.5,0.2
			L272.3,413.3z M271.6,407.6h0.7c0-0.2,0.2-0.5,0.2-0.7v-0.2h-0.9V407.6z M271.6,456.1l2.1,0.2c-0.9-0.9-0.2-2.8,0.5-3.8
			C272.1,452.6,272.5,454.9,271.6,456.1z M271.6,496.3l0.7,0.7h0.2v-1.4L271.6,496.3z M274,464.1l-0.2-2.6h-1.9L274,464.1z
			 M272.5,512.1l0.7-0.5l-1.4-1.2L272.5,512.1z M272.3,375.6l0.2,0.2l0.5-1.2l-0.5-0.5C273,374.7,272.5,375.4,272.3,375.6z
			 M272.3,450.7c1.4-0.5,2.8,0.2,4.2,0.7c-0.5-1.4-2.8-0.9-2.8-2.8L272.3,450.7z M273.2,465h0.5v-0.2l-0.7-0.5l-0.7,0.5
			C272.5,464.8,273,465,273.2,465z M272.3,514l2.6-0.2l-2.6-0.9V514z M273.2,399.6l0.7,0.7l0.7-0.5l-0.5-0.5h-0.9V399.6z
			 M273.2,480.1l1.2,0.2l0.5-0.5l-0.2-0.7C274.4,479.9,273.5,479.4,273.2,480.1z M275.8,447.8l1.4-0.5l-1.4-0.5l-1.6,0.7
			L275.8,447.8z M274.2,492.3c0.2,0.9,0.7,1.9,1.9,1.9h0.5L274.2,492.3z M274.9,507.2l-0.7,0.9l0.9,0.5l0.7-0.5L274.9,507.2z
			 M278.9,509.3l-2.6,2.1l-0.9-0.9l-0.7,1.2l4.2,0.7c1.4-1.9-0.7-4.5,0.7-6.4l-1.9-0.2l0.9,0.9l-1.4,1.6L278.9,509.3z M274.9,465.7
			h0.2c0.7,0,1.2-0.7,1.2-1.4C275.4,464.3,274.9,464.8,274.9,465.7z M276.1,495.6c-0.9,0-1.2,1.4-1.2,2.1l1.6-0.5v-1.6H276.1z
			 M275.1,373l0.2,0.5l1.2-1.6l-0.2-0.5h-0.7L275.1,373z M275.6,367.1h-0.2v0.5l0.2,2.1l2.1-1.9L275.6,367.1z M277,442h-0.2
			l-1.2,0.7l1.4,1.2V442z M276.5,498.2l-0.7,0.9l0.5,0.5L276.5,498.2z M276.1,406.7v-0.2c0.2-0.2,0.5-0.2,0.7-0.7L276.1,406.7z
			 M276.5,402.7c0,0.7,0,1.2,0.5,1.6L276.5,402.7z M278,382h3.1l-1.4-2.4L278,382z M280.5,432.3l0.7-0.5
			C280.8,431.8,280.8,432.1,280.5,432.3z M285,509.3h0.9v-0.9h-0.7L285,509.3z M287.6,511.4c0.9-1.4,4.2-0.2,4.2-2.1v-0.5l-3.5,0.5
			l-0.9-1.9L287.6,511.4z M302.7,392.1c-16,0-10.6,22.8-10.6,32.2c-3.1-0.7-4.2-3.5-4.2-6.4v-22.4c0-4.2,2.4-6.6,6.6-6.6h30.4
			c11.8,0,8.7-16,8.7-22.8c2.4,0.2,4.2,2.4,4.2,4.7v16.5C337.7,396.8,308.1,392.1,302.7,392.1z M302.7,461.5
			c-16,0-10.6,22.8-10.6,32.2c-3.1-0.7-4.2-3.5-4.2-6.4V465c0-4.2,2.4-6.6,6.6-6.6h30.4c11.8,0,8.7-16,8.7-22.8
			c2.4,0.2,4.2,2.4,4.2,4.7v16.5C337.7,466.2,308.1,461.5,302.7,461.5z M289.7,513.7l-0.9,0.7l1.9,0.9l0.7-0.9L289.7,513.7z
			 M292.1,438.9l-2.1-2.4l-0.5,1.4l1.9,2.4L292.1,438.9z M291.4,375.1l0.5,0.2l0.5-0.2v-0.2h-0.9V375.1z M291.8,511.6l2.6,1.4
			l0.9-0.2c-1.2,0-2.6-0.7-3.5-1.4V511.6z M294.7,510l0.7-0.2l-0.9-0.9l-0.9-3.3c-0.2,0.5-0.7,1.4-0.7,2.1v0.7L294.7,510z
			 M293.5,372.3l1.6,2.8l-2.1,2.4l2.4-0.7l-0.2-1.2l0.7-1.4l-2.1-2.1h-0.2V372.3z M293.7,437.3l-0.7,1.6c0.9-1.2,3.1-0.5,3.1-2.4
			L293.7,437.3z M293.7,442.7l0.5-1.4l-1.2-1.4L293.7,442.7z M294.7,366.9l-1.2,1.4v0.2l1.6,0.5l0.7-1.6v-0.2L294.7,366.9z
			 M296.1,508.3l2.1,2.1l0.9-3.1L296.1,508.3z M296.5,371.8l1.4,0.7l0.7-0.5v-0.9L296.5,371.8z M297.7,374.9h0.7
			c0-0.2,0.2-0.5,0.2-0.7v-0.5h-0.9V374.9z M299.1,509.5l2.6,2.1l-2.6-2.6V509.5z M300.5,438v0.2l2.6-0.2l-1.6-2.1L300.5,438z
			 M301,371.4l0.5,0.2l0.5-0.7l-0.5-0.5H301V371.4z M301.7,375.8l2.1-0.2l-2.1-1.6l-0.7,0.2L301.7,375.8z M304.1,447.4l0.7-0.9
			l-1.2-1.4l-0.5,0.2L304.1,447.4z M303.1,510.2v0.2h0.5l0.9-0.7l-0.5-0.5C304.3,510,303.1,509.5,303.1,510.2z M305.3,512.3l3.5,0.5
			l-1.2-1.6L305.3,512.3z M308.5,443.4h-2.4v0.5l1.6,0.7L308.5,443.4z M306.9,369.7l0.2,2.1l2.4,0.5l0.9-0.2
			c0.7-1.9,2.4-3.1,2.4-5.2v-0.5C310.2,366.4,309.5,369.7,306.9,369.7z M308.8,508.1l-1.2-1.6l-0.7,1.9v0.9l1.4,0.7l2.1-0.9
			L308.8,508.1z M311.6,440.1l-0.9,2.6l0.5,0.2h0.5C311.6,442,311.4,441,311.6,440.1z M311.8,439.8c0,0,0.7-1.6,0.7-2.6L311.8,439.8
			z M314.2,508.8l-0.9,0.5l0.7,1.9L314.2,508.8z M314.7,368.8l2.6,0.2l0.7-2.1l-2.4-0.7L314.7,368.8z M318,374.9l0.7-1.4v-0.2
			l-1.9-0.5v0.2l1.2,1.2V374.9z M319.1,439.8l1.4-1.2l-2.4-2.8C318.9,437,319.6,438.7,319.1,439.8z"/>
		<path d="M386.9,423.6c11.8,0,6.1-64.5,19.3-64.5c4,0,12-1.9,13.2,3.8l10.8,57c0.5,1.9,1.9,3.8,4,3.8c12.5,0-2.1-64.5,12.5-64.5
			h15.8c2.8,0,4.9,1.9,4.9,4.7v0.9l-17.7,154.8c-0.7,6.6-13.9,4.2-17.7,4.2c-13.4,0.2-9.9-75.8-21.7-75.8s-8,76-21.4,75.8
			c-3.8,0-16.9,2.4-17.7-4.2l-17.7-154.8v-0.9c0-2.8,2.1-4.7,4.9-4.7h15.8C389,359.1,374.4,423.6,386.9,423.6z M366,371.4l-0.5,1.2
			l1.2,0.2l0.5-1.4H366z M367.4,382l0.7-0.2c-0.7-0.7-1.4-1.4-2.4-1.6L367.4,382z M366,375.8l1.9-1.2H366V375.8z M367.1,407.8
			l-0.7-0.9l0.2,1.6L367.1,407.8z M367.8,420.5l0.7,4.9l1.6-1.6l-1.6-1.2c0.5-1.2,0-3.3-0.2-4.5l-1.9,0.5v3.8L367.8,420.5z
			 M366.7,378.4c0,0.5,0,0.9,0.5,1.2l0.2-0.5L366.7,378.4z M366.7,408.5c0,0.2,0,0.2,0.2,0.5L366.7,408.5z M368.1,388.8l0.2,0.7
			l-0.5,0.9h0.5c0-0.2,0-0.5,0.2-0.5h0.5L368.1,388.8z M371.4,435.1l-2.8,0.7l-0.5,1.9l2.8,0.5l-1.2-1.6l1.6,0.2V435.1z M369,431.4
			c0,0-0.5,0-0.7,0.2L369,431.4z M369,426.9v1.4c0-0.2,0-0.7,0.2-0.9L369,426.9z M369,454.4l1.9,2.6l0.5-0.7l-0.9-2.1L369,454.4z
			 M370.4,416.5v2.1l-0.9,0.5l2.1-0.5L370.4,416.5z M371.6,440.6l-0.2,1.4l1.6,0.5l-0.2-1.6l0.5-0.5c-0.2-0.5-0.7-0.7-1.2-0.7v0.2
			l0.7,0.9L371.6,440.6z M371.6,459.4l-0.2,1.4l0.2,1.2V459.4z M373.3,450.2l-1.6,0.2l0.7,2.6l-0.7,0.7l1.2,1.6l0.7-0.7l-0.5-1.4
			L373.3,450.2z M371.8,434.9l2.4,1.4l-0.9,1.9h0.7l1.2-1.6l-2.8-1.6H371.8z M372.1,464.6l1.9,1.2l1.4-0.2l-0.9-1.2L372.1,464.6z
			 M375.9,458.9l-3.1,1.6l0.2,2.6h2.1L375.9,458.9z M374,445.3l-0.5,0.9c0.2,0,0.7-0.2,0.7-0.7L374,445.3z M378.4,468.3l-2.4,0.5
			l0.7,0.9l-1.4,0.7l-1.9-1.4l1.9,2.8l2.8-0.9L378.4,468.3z M375.6,456.3l-1.9,0.9l0.5,0.7l1.9-0.2L375.6,456.3z M374.2,472.6
			l1.2,0.2c-0.2,0-0.5-0.2-0.7-0.5L374.2,472.6z M374.7,449.5l-0.2,1.9l1.2,1.6l0.9-0.5L374.7,449.5z M375.4,472.8l0.2,1.2h-1.2
			l2.1,0.2C376.3,473.7,375.9,473.3,375.4,472.8z M374.7,439.6l0.7,3.1l1.6,0.7l1.4-0.5l-1.9-1.4l-0.5-1.2l0.9-0.9L374.7,439.6z
			 M376.8,466.4l-2.1,1.2l0.7,0.7l2.8-1.2L376.8,466.4z M375.1,445l0.9,1.6l-0.5,1.4h1.2l0.9-2.6l-0.7,0.2l-1.4-0.9L375.1,445z
			 M377.3,478c0,0.5,0.2,0.9,0.7,1.2l0.2-0.5L377.3,478z M378,463.4l-0.2,0.5l0.7,1.6L378,463.4z M378.4,465.5l0.2,0.5H378l0.9,0.7
			l-0.2-0.7l0.2-0.2C378.7,465.7,378.7,465.5,378.4,465.5z M379.4,477.7l0.5,1.6h-1.4l0.9,0.7l1.6-0.7l-1.4-1.6H379.4z M379.1,482
			l-0.7,0.7l1.2,0.7l0.7-0.2L379.1,482z M379.6,467.1l-0.2,0.5l0.2,0.2V467.1z M379.9,527.6c6.8,0.2,16,2.1,17.7-6.8l12.7-66.8
			l0.2-0.7l0.2,0.9V454l2.4,12.9l-11.3,60.2c-0.5,2.1-2.1,3.8-4.5,3.8C394,530.9,381.3,533,379.9,527.6z M382.9,480.6l-0.7-0.5
			l1.2-0.5l-0.2-1.2c-0.9,0-0.9,0.9-0.9,1.6l-0.5-0.5l-0.2,0.2l0.7,1.2L382.9,480.6z M381.7,487.1c-0.2,0.2-0.2,0.9-0.2,0.9
			L381.7,487.1z M381.7,495.6V494l-0.2,0.7L381.7,495.6z M381.7,497.3l1.9-1.4l-0.7,0.2l-1.2-0.5V497.3z M384.8,514.9h-2.6l1.6,0.5
			L384.8,514.9z M382.7,484.6l0.7,0.9l0.9-0.7L382.7,484.6z M383.1,482.7l-0.2,1.4l1.6-0.7l-0.2-0.5L383.1,482.7z M385.5,486
			l-2.6,2.8v0.7l1.2,1.6l1.4-0.5l-0.2-0.7l2.6-0.9l-0.9-0.5L385.5,486z M383.4,491.6l-0.5,0.5l0.5,0.2c0.5,0,0.7-0.2,0.7-0.7H383.4z
			 M383.6,502.4l-0.7,0.7l0.2,2.6l2.6,0.9l-0.9-3.1c1.4,0.7,2.6,1.6,3.3,3.1l-1.4,4.2l2.4-0.5l-0.7-2.4l1.2-0.2l0.2-3.5l-2.4,0.5
			l0.7-1.2l-0.5-0.2l-1.2,0.5L383.6,502.4z M384.8,508.1l-1.2-0.5l-0.5,0.5l1.2,0.5L384.8,508.1z M387.4,370.7
			c0.7,10.8,2.4,22.4,2.4,33.2c0,1.2-2.4,12.2-2.8,14.1l-3.5-51.8C385.7,366.7,387.1,368.3,387.4,370.7z M384.3,517l1.2,0.2v-0.5
			C385,517,384.8,517,384.3,517z M390.7,481l0.2-0.2l-0.7-1.4l-1.4,0.7l-0.5-1.4l-0.5,0.7l-3.3-0.9l3.1,2.4l0.7-0.2v1.2l0.2,0.2
			l2.1-0.7l0.2,0.7l0.5-0.5L390.7,481z M385.7,516.3l-1.2-0.7v0.2l0.9,0.9L385.7,516.3z M385.3,481l-0.5,1.2l0.5-0.5V481z
			 M385.7,499.4c-0.2-0.7,0-1.6-0.9-1.6C384.8,498.2,385,499.1,385.7,499.4z M386.2,500.1l0.2,0.5l0.7-0.5H386.2z M386.2,513.3
			c0,0.5,0.2,0.7,0.7,0.7l0.2-0.2c-0.5,0-0.7-0.2-0.7-0.7L386.2,513.3z M386.4,495.4h0.7c0-0.5-0.2-0.7-0.7-0.7V495.4z M387.1,485.7
			l1.4-0.2l-0.9-0.5L387.1,485.7z M388.6,492.1l0.5-0.9l-1.9-1.6L388.6,492.1z M390.2,500.8l-1.2,3.1l0.7-0.5l1.2-2.8l-1.2-2.1
			l-1.6,2.1L390.2,500.8z M388.6,478.4l-0.2,0.2c0.7-0.2,1.4-0.5,1.9-0.9L388.6,478.4z M389,494.9c0,0.5-0.5,0.7-0.7,0.7
			c0.5,0,0.9,0,0.9-0.5L389,494.9z M390.9,466c0-0.5-0.2-0.7-0.7-0.7L390.9,466z M391.6,477.3c-0.7,0.2-1.2,0.5-1.2,1.2h0.5
			L391.6,477.3z M390.7,452.1v1.2l0.9,1.2l1.4-1.4v1.2l0.7-0.9l-0.5-1.9L390.7,452.1z M390.7,463.1c0.7,0,0.9-0.7,0.9-1.4
			L390.7,463.1z M392.3,475.4l0.2,0.2l-0.7,1.2l0.9-1.2h-0.2c0.2,0,0.2-0.2,0.2-0.5L392.3,475.4z M392.3,448.6l-0.2,0.7
			C392.3,449,392.3,448.8,392.3,448.6z M393,448.3l-0.2,1.2h0.5l0.9-1.2H393z M393,459.6h1.2c0-0.7-0.2-1.2-0.9-1.2
			C393.3,458.9,393.3,459.1,393,459.6z M393.3,461.7l0.5,0.9l1.2-0.7l-1.2-0.7L393.3,461.7z M393.5,444.3c0.5-0.2,0.5-1.6,0.5-1.6
			L393.5,444.3z M394.4,478.9l0.2-0.7C394.4,478.4,394.4,478.7,394.4,478.9z M394.9,449.3l0.7,2.4l1.2,0.5l0.2-1.2L394.9,449.3z
			 M396.8,452.6l-0.9,1.2l0.9,0.5l0.5-0.5L396.8,452.6z M398.9,413.3c0.2-0.2,0.2-0.2,0.2-0.5L398.9,413.3z M399.4,411.4
			c0,0.2,0,0.5,0.2,0.5L399.4,411.4z M407.9,390c-0.2-0.2-0.7-0.2-0.7-0.2L407.9,390z M409,395.1v0.5c0,0.5,0.2,0.7,0.2,1.2h1.9
			L409,395.1z M409.3,393l0.5-0.7l-0.5-0.7V393z M414.2,379.6l0.7,0.5c0-0.5-0.2-1.2-0.7-1.2V379.6z M416.3,417.5l-0.5,0.5l0.9,1.9
			l1.2-0.7L416.3,417.5z M416.8,421.5l-0.5,1.2l1.6-0.2L416.8,421.5z M417,408.1l1.6,0.5v-2.1l2.4-0.5l-0.9-3.1l-2.8-1.2l2.1,3.3
			L417,408.1z M418.7,412.8l0.9-1.9l-0.2-0.9l-1.9,0.5L418.7,412.8z M417.5,420.3c0,0.5,0.2,1.4,0.9,1.4l0.2-1.2L417.5,420.3z
			 M418.2,425.7c0-0.5-0.2-0.9-0.7-1.2L418.2,425.7z M419.2,395.1c0,0.2,0,0.2,0.2,0.2L419.2,395.1z M419.6,427.8l-0.2,0.5l0.7,0.5
			v-0.2L419.6,427.8z M420.8,418.7l-1.2,2.8l0.5,2.1l1.9,2.1l1.2-0.7l-1.2-4l-0.7-0.2L420.8,418.7z M420.1,439.6l3.1,0.5l1.2-2.1
			L420.1,439.6z M420.6,427.4l0.5,0.9l-0.2-0.9H420.6z M421.7,440.6l-1.2,1.9l1.4-0.5l2.8,0.9l1.4-0.5l-3.8-0.9L421.7,440.6z
			 M421.3,432.1l1.2,0.9v-0.2L421.3,432.1z M424.3,447.6l-1.2-0.2l-1.9,0.9l1.2,1.9l-0.5,0.5h1.6c0.2-0.5,0.7-1.4,0.7-2.1V447.6z
			 M423.6,443.4l-1.2,0.5l0.7,0.7h-1.4l2.8,0.9l-0.2,1.4l1.4-1.6L423.6,443.4z M422.4,447.8l0.7,1.4h-0.5c-0.2,0-0.5-0.2-0.7-0.2
			L422.4,447.8z M422.9,428.3l-0.7,1.6l1.6,0.5v-0.2L422.9,428.3z M422.4,453.3l1.4,0.9l1.2-0.7l-0.7-0.5L422.4,453.3z M422.9,431.1
			l0.5,1.4l1.6,1.4v-1.2l-1.4-1.6H422.9z M427.6,370c2.1,10.6,7.1,26.6,7.1,37.2c0,3.8-0.5,7.3-0.7,11.1l-9.9-51.8
			C426,366.7,427.4,368.3,427.6,370z M427.2,443.8l-1.4,1.4h0.2L427.2,443.8z M426.2,466.7l-0.2,0.2l1.2-0.5L426.2,466.7z
			 M426.7,476.6l1.6,1.4l0.9-0.9l-1.2-1.6L426.7,476.6z M427.4,441.7l0.2,0.9v-0.5L427.4,441.7z M428.3,462.9l2.8,2.4l0.2-2.1
			l-1.6,0.7L428.3,462.9z M429.7,463.1c0.9,0,0.7-0.7,1.2-1.2C430.2,462,429.7,462.4,429.7,463.1z M430.4,482.4
			c0.2-0.2,0.2-0.5,0.2-0.7C430.4,482,430.4,482.2,430.4,482.4z M430.9,508.6l-0.2-1.4v1.2L430.9,508.6z M431.4,510l0.5-0.9
			l-0.9-0.5L431.4,510z M432.3,478.2h-0.5l-0.7,1.9L432.3,478.2z M432.6,473.5l0.2-0.7l-0.7-0.7L432.6,473.5z M433,475.1l-0.7,1.4
			l1.9,1.9l0.9-0.7L433,475.1z M433.7,515.6l0.7,1.4l0.7-1.4l-2.1-1.2l-0.5,0.5L433.7,515.6z M433,480.3l-0.2,0.5l1.4,1.2L433,480.3
			z M435.6,488.6c0,0.5,0.5,0.7,0.7,0.7V489c0-0.5-0.5-0.7-0.7-0.7V488.6z M435.9,527.6c6.6,0,16.9,1.9,17.9-7.5l17.4-153.9
			c2.4,0.2,4.5,1.9,4.5,4.5v1.2L458,526.7c-0.7,6.6-13.9,4.2-17.7,4.2C438.2,530.9,436.6,529.5,435.9,527.6z M440.1,503.2l-2.8,0.5
			l-0.9,0.7v0.9l2.6,0.2l-0.5-0.7h1.2L440.1,503.2z M438.2,515.9l1.6-3.3l-3.1,3.1l0.5,0.2H438.2z M437.7,507.2l-0.7,0.5v0.2
			c0.5,0,0.9-0.2,1.2-0.7H437.7z M441.7,463.4h-4.2l2.1,1.6L441.7,463.4z M438.7,493.3c0,0.7,0.5,1.4,1.2,1.6L438.7,493.3z
			 M439.6,497l-0.2,2.4l1.9,1.4l0.9-0.2l0.9-2.4L439.6,497z M442.5,505l-3.1,1.6l0.7,1.2l3.1-1.2l-0.7-2.8V505z M442.7,501.5
			l-1.2,0.5l0.5,0.5L442.7,501.5z M443.9,462.7l-0.5,0.2l-0.7,1.6l-0.9,0.9l1.4,2.1l0.2-1.2h-0.9L443.9,462.7z M443.6,468.8
			l-1.4,0.5l0.9,0.5v-0.2L443.6,468.8z M442.5,473c0.2,0.5,0.5,1.2,0.9,1.4L442.5,473z M443.4,483.4l-0.2-1.6v1.4L443.4,483.4z
			 M443.4,449.5c0.2,0,0.2-0.2,0.2-0.5C443.4,449.3,443.4,449.3,443.4,449.5z M443.4,459.1l0.2,1.4l0.7-0.9L443.4,459.1z
			 M443.9,474.4l2.1,0.7l1.2-2.4l-2.4-1.4l-1.2,1.4L443.9,474.4h-0.5c0.2,0,0.2,0.2,0.5,0.2V474.4z M444.3,495.9
			c-0.2,0.5-0.5,0.7-0.5,1.2L444.3,495.9z M447.4,429l-3.1,2.4l1.4-0.7l0.9,1.9l-0.2,3.3l0.7-2.8l-0.5-0.5L447.4,429z M447.2,425
			l-0.5-0.5l-1.9,1.4l1.2,0.9l0.5-0.2L447.2,425z M446,477.5l-0.5-1.9v2.4L446,477.5z M445.7,465.7c0,0.5,0.2,0.9,0.7,1.2
			L445.7,465.7z M447.6,440.6h1.9l-0.5-1.4l-0.9,1.2h-0.5l-0.7-0.9L447.6,440.6z M450.9,426.7l-2.4-0.9v-1.2l-1.2,4.5L450.9,426.7z
			 M450,436.3l-2.4,0.7l1.6,0.9l0.5-0.2L450,436.3z M448.1,421.5v1.2c0.7,0,0.7-0.5,1.2-0.9L448.1,421.5z M448.3,446.4v0.7l0.9-0.5
			L448.3,446.4z M448.6,411.4l1.4,3.1l0.2-3.1H448.6z M449,380.5c0,0.2,0,0.5,0.5,0.5L449,380.5z M449.5,382.4
			c0.2,0.5,0.2,0.9,0.5,1.2v-0.5L449.5,382.4z M451.4,431.1l0.7-0.9l-2.1-1.4l-0.5,0.9l1.6,4.2L451.4,431.1z M450.9,420.3l-0.9,0.2
			v1.4l1.4,0.9l0.7-0.5l-1.2-1.9V420.3z M451.4,423.8l-0.7,1.2l1.6,0.2V425L451.4,423.8z M450.9,404.3l0.5,2.1l2.1-0.7l-0.2-0.5
			l-1.9-0.2l0.7-0.9L450.9,404.3z M453,401.3l-0.9-1.9l-0.9,0.7l0.7,1.2H453z M451.2,417.7v0.9h0.7l0.2-0.9H451.2z M454.9,383.6
			l-2.8-0.2l-0.2,3.1l3.1-1.4V383.6z M456.8,392.8l-3.1,1.6l0.2,0.9l-1.9,2.1l-0.2,1.4l0.7,0.2l0.7-1.9l1.9,1.4h-1.4l-0.7,1.2v1.2
			l0.9,1.6l2.4-3.3l0.2-0.9l-1.6-3.3l0.7-1.4l1.4,1.6L456.8,392.8z M453.7,407.6l-1.9,1.2l0.5,2.8l0.7-0.2l1.9,1.6l-0.9-1.6l0.9-1.4
			L453.7,407.6z M454.7,414.7L453,413l-0.9,0.5l0.5,1.6l2.4,0.9l0.9-0.5l0.2-1.6L454.7,414.7z M455.2,374.9l-0.5-0.9l-0.9,0.7
			L455.2,374.9z M454.7,375.8l0.5,0.7l0.7-0.5l-0.7-0.5L454.7,375.8z"/>
		<path d="M579.9,519.2v-61.4c0-27.8-26.4-71.3-26.4-93.9c0-2.8,2.6-4.7,5.2-4.7h15.5c10.4,0,9.6,40.9,18.6,40.9s8.2-40.9,18.6-40.9
			h15.5c2.6,0,5.2,1.9,5.2,4.7c0,22.6-26.4,66.1-26.4,93.9v61.4c0,2.6-2.1,4.7-4.7,4.7h-16.5C582,523.9,579.9,521.7,579.9,519.2z
			 M564.3,370.7c0.2-0.2,0.5-0.7,0.5-0.9l-0.5-0.2V370.7z M566.2,372.5l1.2,3.3l0.7-0.7l0.2-1.2l-0.9-1.4H566.2z M567.9,366.4
			l-0.5,1.9c0.9,0,1.4-0.9,1.4-1.9H567.9z M569.5,375.4c0,1.2,1.2,0.9,1.4,1.6L569.5,375.4z M570.9,382v-1.9
			C570.7,380.8,570.5,381.2,570.9,382z M570.9,379.6l0.5-0.9c0-0.5,0-0.9-0.2-1.4C571.2,378.2,571.2,378.9,570.9,379.6z
			 M571.6,383.8l0.5,0.7l0.7-0.5l0.5-2.1L571.6,383.8z M576.6,401l0.2-2.1l-0.7-0.9L576.6,401z M580.8,410.9
			c-0.2,1.6-1.4,2.8-3.1,1.9c0.2,0.7,0.9,0.7,1.4,0.7l2.4-0.2v1.4l-1.9,1.6l0.9,2.1l2.1-1.2l-0.7-2.1l0.7-0.9l1.2,2.8h1.4l0.2-0.7
			l-2.6-3.5l-0.2-1.9H580.8z M581,406.9l-1.4,0.2l-0.2,1.4l0.7,0.2l2.6-0.7L581,406.9z M581.5,422c0.9,0.5,2.1,0.5,3.1,0.5
			C583.6,422,582.5,422,581.5,422z M582.2,425.3c0,0.5,0.5,0.7,0.7,0.7v-0.2c0-0.5-0.5-0.7-0.7-0.7V425.3z M593.8,393l-0.9,3.1
			c-3.5-9.6-6.1-19.8-8.9-29.7C589.3,368.3,592.3,388.5,593.8,393z M584.8,435.1v0.5l1.2-0.7l-0.5-0.2L584.8,435.1z M585.3,433.5
			c0.9,0,1.4-0.9,1.9-1.6C586.2,431.8,585.5,432.6,585.3,433.5z M586.2,439.6l0.2-0.7l-0.7-0.7L586.2,439.6z M586.5,418.9
			c0.9-0.2,2.6-0.2,2.6-1.6C587.9,417.5,586.9,417.7,586.5,418.9z M587.4,411.1l0.7,1.2l0.2-0.9L587.4,411.1c0-0.2,0-0.2-0.2-0.5
			L587.4,411.1z M588.6,442l-1.4,0.9l0.5,1.2l-0.5,0.2l0.2,0.9L588.6,442z M587.6,446.7l0.9,0.2l0.9-0.7l-2.1-0.9L587.6,446.7z
			 M587.4,460.3l1.6,1.9l-0.5,1.9l1.9,2.1l1.6-0.7l0.2,1.6c1.6,0,1.9-1.9,1.9-3.3v-2.4l-1.9-0.9c-0.5,1.4,0.5,3.5-1.4,4l-0.7-0.5
			l0.2-1.9L587.4,460.3z M587.6,422.9v0.2c0,0.2,0.2,0.5,0.5,0.7c0.2,0,0.5-0.2,0.5-0.5l-0.7-0.5H587.6z M589.5,425.3l-1.9,0.5
			l3.3,2.4l0.5-1.2L589.5,425.3z M590.9,434.2l-1.4,0.2l-0.9-1.9l-0.9,1.9c0.7,0.2,1.6,0.7,1.6,1.4v0.5l1.9-0.9h2.6
			c-0.7-0.9-0.2-2.1,0.2-3.1l-4.5-0.7L590.9,434.2z M588.3,527.9c6.8,0,21.4,2.6,21.4-8.7c0-15.1-3.1-55.5,0.9-69
			c8-27.1,19.8-56.5,25.2-84c2.6,0.5,4.5,2.6,4.5,5.2c0,21.9-26.4,66.1-26.4,93.4v61.4c0,2.6-2.1,4.7-4.7,4.7h-16.5
			C590.9,530.9,589,529.7,588.3,527.9z M590,473.5L589,474v0.5c0.7,0,1.2-0.7,1.9-0.9H590z M589,476.3v0.2h0.5l0.2-0.5l-0.5-0.5
			C589.3,475.9,589,476.1,589,476.3z M589,487.9v0.2l0.5,1.2l0.7-1.2L589,487.9z M590.2,492.3l1.6-0.9L589,490L590.2,492.3z
			 M589.5,456.8l0.9,0.7l0.9-0.7c-0.7-0.2-1.2-0.2-1.9-0.2V456.8z M590.5,509l0.5-0.5l-0.9-0.2l-0.5,0.2L590.5,509z M591.4,501.3
			h-0.2c-0.2,0-0.7,0.2-0.9,0.5c0.2,0,0.5,0.2,0.7,0.2s0.5-0.2,0.5-0.5V501.3z M591.4,502.7l-1.2,1.9l1.9,0.2l1.9-0.2l-1.2-1.9
			l0.5,1.4l-0.9,0.2l-0.9-1.2V502.7z M591.9,429.7l-1.2,0.2h0.7c0.2,0,1.2-0.5,1.4-0.5l-0.7-0.5L591.9,429.7z M594.7,446.2l1.2-2.8
			l-1.2-2.4l-3.8,0.9c0.9,0.5,2.8,1.4,2.8,2.1c0,0.2-0.7,0.2-0.7,0.2L594.7,446.2z M593.3,511.2l-2.1,1.9l4.5-0.2L593.3,511.2z
			 M591.4,422.4h1.9l1.6-2.4l-2.1,0.2l-0.5,1.6L591.4,422.4z M591.4,424.1l1.9,1.2l1.4-1.2l-0.5-0.7L591.4,424.1z M592.1,487.4
			l0.9,0.7h0.2v-0.2l-1.2-0.7V487.4z M592.3,474.7v0.5l0.5,0.9l0.5-0.7l-0.5-0.7H592.3z M593,455.8c0,0-0.7,2.4,0.2,2.8L593,455.8z
			 M594,416.3l-1.2,0.7l1.2,1.2V416.3z M593,508.6c0,0,2.1-1.6,2.8-2.8L593,508.6z M594,488.8v0.7l0.9,1.4L594,493l1.6,1.6l-1.9,1.4
			l0.2,2.8l4,1.4l-1.2-3.5l1.2-1.9h-0.5V493c-0.7-0.5-2.1-0.7-2.1-1.9c0-0.5,0.2-0.9,0.5-1.2l-1.2-1.2H594z M594.2,450.2l0.7,2.4
			l0.9-0.7v-1.2c0-0.7-0.7-2.1-0.9-2.8L594.2,450.2z M594.9,476.3c0.2-2.4,0-4.9-0.7-7.1L594.9,476.3z M594.9,502.4l1.2,2.1h0.5
			l-0.7-2.4L594.9,502.4z M595.4,414.7l0.7-0.2h-0.5L595.4,414.7z M598,422.4c0,3.8-1.6,2.8-2.4,5.4l0.7,0.2c1.6-1.2,2.8-4,3.5-5.9
			L598,422.4z M596.3,414.2l-0.2,0.2l0.7-0.2H596.3z M596.8,422.4h0.2c0-0.5-0.5-0.9-0.9-0.9C596.1,422,596.1,422.4,596.8,422.4z
			 M598.9,429.7l0.2,2.1h-2.6l-0.5,2.4c1.9-0.5,3.8-1.2,5.4-1.9l0.2-1.9L598.9,429.7z M596.6,444.1c0,0-0.2-0.7,0-0.9V444.1z
			 M597.1,506.2c1.2,1.6,0,3.5-0.2,5.2l1.2,1.4l1.9-2.6l-1.9-0.9c0.5-1.4,0.7-3.3,0.2-4.7L597.1,506.2z M597.3,513.7l1.4,3.1
			l2.1-1.6L597.3,513.7z M599.9,428.5l1.2-0.5l-0.2-0.2L599.9,428.5z M603.9,411.4h1.4c-2.4,2.4-3.8,5.2-4.7,8.5
			c2.4-0.2,2.4-3.5,4.7-3.5l-0.2-0.9l1.6-1.9l-0.9-0.9l2.4-1.2l-1.6-1.6l0.7-1.2L603.9,411.4z M601.5,421.3l-0.7,0.9l1.4,0.5
			l0.7-0.5l-1.2-0.9H601.5z M601.5,425.3l0.9,0.5v-0.2c-0.2-0.5-0.7-1.2-1.4-1.4L601.5,425.3z M607.4,418.9l-3.5-0.9l2.4,2.8
			L607.4,418.9z M615.9,372.3l-0.2,1.2l0.7,0.5l0.5-1.4L615.9,372.3z M619.6,370.2l-2.6-1.4l-0.7,1.4H619.6z M619.2,372.5l-2.1,1.6
			l0.7,1.2c0.9-0.5,1.4-1.6,1.4-2.6V372.5z M618,379.1v1.9l1.4,0.7l1.4-2.8L618,379.1z M620.8,376.1h-0.2l-1.4,0.2
			c0,0.9,0.9,0.9,1.6,0.9V376.1z M621.1,374.2c-0.2,0.2-0.2,0.2-0.2,0.7L621.1,374.2z M621.1,374.2c0.5-0.5,0.7-0.9,0.7-1.6
			L621.1,374.2z"/>
		<path d="M732.6,363.8v16.5c0,14.4-45.7-8-45.7,15.3V418c0,23.3,45.7,0.9,45.7,15.3v16.5c0,14.4-45.7-8-45.7,15.3v22.4
			c0,23.3,45.7,0.9,45.7,15.3v16.5c0,2.6-2.1,4.7-4.7,4.7h-62.1c-2.6,0-4.7-2.1-4.7-4.7V363.8c0-2.6,2.1-4.7,4.7-4.7h62.1
			C730.5,359.1,732.6,361.2,732.6,363.8z M669.5,527.9h58.4c11.8,0,8.7-16,8.7-22.8c2.4,0.2,4.2,2.4,4.2,4.7v16.5
			c0,2.6-2.1,4.7-4.7,4.7H674C672.1,530.9,670.2,529.7,669.5,527.9z M670.7,461c0,0-0.7,1.4-0.5,2.1L670.7,461z M670.2,410l1.2,0.9
			l0.9-0.7V410l-2.1-0.2V410z M671.4,474.9l-0.9-1.4l-0.2,0.2L671.4,474.9z M671.7,482.9l-0.9-0.7l-0.5,0.2L671.7,482.9z
			 M673.8,475.9h-2.4c-0.2,2.4,3.5,1.2,3.5,2.8l-0.2,0.9l1.6-0.7l-0.2-2.4C675.4,476.3,674.5,475.9,673.8,475.9z M672.6,496.6v-0.2
			l-1.2-0.9L672.6,496.6z M673.8,379.8l-0.7-3.3l-1.4,2.4L673.8,379.8z M671.7,403.6l0.9,4.5l0.7-0.5L671.7,403.6z M671.9,395.8
			l0.7,0.7l1.2-0.9l-1.4-1.4L671.9,395.8z M672.1,390.9v0.5c0,0.5,0.2,1.2,0.5,1.6l1.9-0.5l-1.4-2.6L672.1,390.9z M673.8,402.4
			c0-0.9-0.7-0.9-1.2-1.4C672.8,401.7,672.8,402.4,673.8,402.4z M673.5,486.4l-0.9,0.5l0.7,0.2l0.7-0.7H673.5z M672.6,493.5l2.4,0.9
			l1.2-0.9H674l-1.4-1.9V493.5z M673.3,376.3l1.4,0.5l-0.2-1.2L673.3,376.3v-0.2c-0.2,0.2-0.2,0.2-0.2,0.5L673.3,376.3z
			 M674.5,482.9l-1.4,0.2l1.6,1.2l0.9-0.2L674.5,482.9z M674.2,386.2l-0.9,0.5l1.2,1.9h2.8L674.2,386.2z M676.8,502.4l-3.1,0.9
			l1.4,0.2l2.6-0.2L676.8,502.4z M674.7,408.8l-0.7,0.5v0.2l1.6,0.9l-0.2-1.6H674.7z M675.4,413.3l0.7-0.5l-1.6-0.7l-0.5,0.2
			L675.4,413.3z M674.7,407.6h0.7c0-0.2,0.2-0.5,0.2-0.7v-0.2h-0.9V407.6z M674.7,456.1l2.1,0.2c-0.9-0.9-0.2-2.8,0.5-3.8
			C675.2,452.6,675.7,454.9,674.7,456.1z M674.7,496.3l0.7,0.7h0.2v-1.4L674.7,496.3z M677.1,464.1l-0.2-2.6h-1.9L677.1,464.1z
			 M675.7,512.1l0.7-0.5l-1.4-1.2L675.7,512.1z M675.4,375.6l0.2,0.2l0.5-1.2l-0.5-0.5C676.1,374.7,675.7,375.4,675.4,375.6z
			 M675.4,450.7c1.4-0.5,2.8,0.2,4.2,0.7c-0.5-1.4-2.8-0.9-2.8-2.8L675.4,450.7z M676.4,465h0.5v-0.2l-0.7-0.5l-0.7,0.5
			C675.7,464.8,676.1,465,676.4,465z M675.4,514l2.6-0.2l-2.6-0.9V514z M676.4,399.6l0.7,0.7l0.7-0.5l-0.5-0.5h-0.9V399.6z
			 M676.4,480.1l1.2,0.2l0.5-0.5l-0.2-0.7C677.5,479.9,676.6,479.4,676.4,480.1z M678.9,447.8l1.4-0.5l-1.4-0.5l-1.6,0.7
			L678.9,447.8z M677.3,492.3c0.2,0.9,0.7,1.9,1.9,1.9h0.5L677.3,492.3z M678,507.2l-0.7,0.9l0.9,0.5l0.7-0.5L678,507.2z M682,509.3
			l-2.6,2.1l-0.9-0.9l-0.7,1.2l4.2,0.7c1.4-1.9-0.7-4.5,0.7-6.4l-1.9-0.2l0.9,0.9l-1.4,1.6L682,509.3z M678,465.7h0.2
			c0.7,0,1.2-0.7,1.2-1.4C678.5,464.3,678,464.8,678,465.7z M679.2,495.6c-0.9,0-1.2,1.4-1.2,2.1l1.6-0.5v-1.6H679.2z M678.2,373
			l0.2,0.5l1.2-1.6l-0.2-0.5h-0.7L678.2,373z M678.7,367.1h-0.2v0.5l0.2,2.1l2.1-1.9L678.7,367.1z M680.1,442h-0.2l-1.2,0.7l1.4,1.2
			V442z M679.7,498.2l-0.7,0.9l0.5,0.5L679.7,498.2z M679.2,406.7v-0.2c0.2-0.2,0.5-0.2,0.7-0.7L679.2,406.7z M679.7,402.7
			c0,0.7,0,1.2,0.5,1.6L679.7,402.7z M681.1,382h3.1l-1.4-2.4L681.1,382z M683.7,432.3l0.7-0.5C683.9,431.8,683.9,432.1,683.7,432.3
			z M688.1,509.3h0.9v-0.9h-0.7L688.1,509.3z M690.7,511.4c0.9-1.4,4.2-0.2,4.2-2.1v-0.5l-3.5,0.5l-0.9-1.9L690.7,511.4z
			 M705.8,392.1c-16,0-10.6,22.8-10.6,32.2c-3.1-0.7-4.2-3.5-4.2-6.4v-22.4c0-4.2,2.4-6.6,6.6-6.6h30.4c11.8,0,8.7-16,8.7-22.8
			c2.4,0.2,4.2,2.4,4.2,4.7v16.5C740.8,396.8,711.2,392.1,705.8,392.1z M705.8,461.5c-16,0-10.6,22.8-10.6,32.2
			c-3.1-0.7-4.2-3.5-4.2-6.4V465c0-4.2,2.4-6.6,6.6-6.6h30.4c11.8,0,8.7-16,8.7-22.8c2.4,0.2,4.2,2.4,4.2,4.7v16.5
			C740.8,466.2,711.2,461.5,705.8,461.5z M692.8,513.7l-0.9,0.7l1.9,0.9l0.7-0.9L692.8,513.7z M695.2,438.9l-2.1-2.4l-0.5,1.4
			l1.9,2.4L695.2,438.9z M694.5,375.1l0.5,0.2l0.5-0.2v-0.2h-0.9V375.1z M694.9,511.6l2.6,1.4l0.9-0.2c-1.2,0-2.6-0.7-3.5-1.4V511.6
			z M697.8,510l0.7-0.2l-0.9-0.9l-0.9-3.3c-0.2,0.5-0.7,1.4-0.7,2.1v0.7L697.8,510z M696.6,372.3l1.6,2.8l-2.1,2.4l2.4-0.7l-0.2-1.2
			l0.7-1.4l-2.1-2.1h-0.2V372.3z M696.8,437.3l-0.7,1.6c0.9-1.2,3.1-0.5,3.1-2.4L696.8,437.3z M696.8,442.7l0.5-1.4l-1.2-1.4
			L696.8,442.7z M697.8,366.9l-1.2,1.4v0.2l1.6,0.5l0.7-1.6v-0.2L697.8,366.9z M699.2,508.3l2.1,2.1l0.9-3.1L699.2,508.3z
			 M699.7,371.8l1.4,0.7l0.7-0.5v-0.9L699.7,371.8z M700.8,374.9h0.7c0-0.2,0.2-0.5,0.2-0.7v-0.5h-0.9V374.9z M702.2,509.5l2.6,2.1
			l-2.6-2.6V509.5z M703.7,438v0.2l2.6-0.2l-1.6-2.1L703.7,438z M704.1,371.4l0.5,0.2l0.5-0.7l-0.5-0.5h-0.5V371.4z M704.8,375.8
			l2.1-0.2l-2.1-1.6l-0.7,0.2L704.8,375.8z M707.2,447.4l0.7-0.9l-1.2-1.4l-0.5,0.2L707.2,447.4z M706.2,510.2v0.2h0.5l0.9-0.7
			l-0.5-0.5C707.4,510,706.2,509.5,706.2,510.2z M708.4,512.3l3.5,0.5l-1.2-1.6L708.4,512.3z M711.7,443.4h-2.4v0.5l1.6,0.7
			L711.7,443.4z M710,369.7l0.2,2.1l2.4,0.5l0.9-0.2c0.7-1.9,2.4-3.1,2.4-5.2v-0.5C713.3,366.4,712.6,369.7,710,369.7z M711.9,508.1
			l-1.2-1.6l-0.7,1.9v0.9l1.4,0.7l2.1-0.9L711.9,508.1z M714.7,440.1l-0.9,2.6l0.5,0.2h0.5C714.7,442,714.5,441,714.7,440.1z
			 M715,439.8c0,0,0.7-1.6,0.7-2.6L715,439.8z M717.3,508.8l-0.9,0.5l0.7,1.9L717.3,508.8z M717.8,368.8l2.6,0.2l0.7-2.1l-2.4-0.7
			L717.8,368.8z M721.1,374.9l0.7-1.4v-0.2l-1.9-0.5v0.2l1.2,1.2V374.9z M722.2,439.8l1.4-1.2l-2.4-2.8
			C722,437,722.7,438.7,722.2,439.8z"/>
		<path d="M805.1,362.9L830.7,518v1.2c0,2.8-2.4,4.7-4.9,4.7h-15.3c-8.5,0-0.9-15.8-12.9-15.8h-10.8c-12.7,0-4,15.8-12.9,15.8h-15.3
			c-2.6,0-4.9-1.9-4.9-4.7V518l25.7-155.1c0.5-2.1,2.4-3.8,4.5-3.8h16.9C802.7,359.1,804.6,360.8,805.1,362.9z M762,527.9
			c7.5,0,18.6,2.6,20.2-7.5c0.5-3.5-0.2-8.2,4.5-8.2h10.8c1.6,0,3.5,0.9,3.5,2.8v0.2c-5.6,0-12.5-1.2-13.6,5.9
			c-0.5,3.5-0.2,9.9-5.4,9.9h-15.3C764.6,530.9,762.7,529.7,762,527.9z M764.6,498l-1.2,2.8l0.7,2.1
			C764.6,501.5,764.4,499.6,764.6,498z M764.6,506.4l0.7,2.8l2.1,0.5l0.9-0.9v-0.5l-3.1-2.1L764.6,506.4z M767.2,501l-2.4,2.4
			c1.4-0.5,2.8-0.7,4.2-0.7l0.9-1.2v0.7l1.4-1.2l-1.9-0.7L767.2,501z M768.4,494.2l-1.9,3.3l2.4,1.2l3.1-2.4L768.4,494.2z
			 M769.5,518v-0.2l-0.5-1.6h-1.2C768.1,517,768.8,517.5,769.5,518z M768.4,505l1.2,0.7V505l-0.5-0.9L768.4,505z M771.2,473.7
			l-1.2,1.9l3.1-0.5L771.2,473.7z M770.7,485.3l0.7-0.5c0-0.9-0.5-1.4-1.4-1.4C770.3,484.1,770,484.8,770.7,485.3z M770,514.9
			l1.4-0.2v-0.5l-0.7-1.6L770,514.9z M770.3,487.6c0.7-0.2,1.4-0.5,2.4-0.5c-0.9,0-2.1-0.5-2.4-1.2V487.6z M770.5,467.9h0.2v-1.6
			L770.5,467.9z M771,490.2c1.9,1.9,3.1,3.8,4,6.1h1.2l-0.7,2.1l4.2,0.2l-2.6-3.3h-0.5l0.7-2.8l-1.6-3.1L771,490.2z M773.3,504.3
			l-0.9-1.2l-0.9,0.2l1.9,1.2V504.3z M776.1,506.9c-1.9,0-2.4,2.6-4.2,2.6l1.9,2.4h0.5l-0.9-1.9l2.1-0.7L776.1,506.9z M773.3,479.6
			l-0.7,0.9l1.2,0.7l0.7-0.5L773.3,479.6z M773.8,483.4l-0.7,1.4h1.9l1.6,2.8C775.9,486.2,775.2,484.3,773.8,483.4z M775,466.2
			l-1.6,2.4l2.1-0.2v-2.1H775z M774.5,470.4l0.5,0.5l0.9-1.2l-0.5-0.2L774.5,470.4z M775.4,462.4l3.1-0.7l0.2,1.9l1.9-1.9l-0.2-0.2
			l-1.2,0.2c-0.5-1.4-0.7-2.8-0.7-4.2l-2.8,2.1l-0.7,5.2h0.5V462.4z M778,456.1l-0.7-0.7h-0.5l-0.7,0.9v0.2l0.9-0.2l0.9,0.2V456.1z
			 M777.3,428.8l-0.2,0.9v0.2c0.5,0,0.5-0.7,0.5-0.9v-0.2H777.3z M778.5,408.8l1.4-2.1v-0.2L778.5,408.8z M778.7,419.6h1.6l1.2,4.2
			l0.5,0.2c0.2-0.5,0.5-1.2,0.5-1.6l-0.2-3.5l-1.4-0.9L778.7,419.6z M779.7,430l0.2-1.2l-1.2-0.5C778.7,429,778.7,430,779.7,430z
			 M780.6,459.4c-0.2-0.5-0.2-0.9-0.7-1.2L780.6,459.4z M780.8,414.4l1.9-1.4l-2.6,1.2l0.7,3.8V414.4z M785.6,399.6
			c0,1.9-0.9,3.8-2.1,4.9h-2.6l0.9,1.4l2.8-0.7c0.2-1.6,1.9-2.4,2.4-4l-1.2-4.2l-2.4,1.2L785.6,399.6z M786.3,391.6
			c-3.1,0-3.8,0.2-4,3.5l3.1-1.2c0-2.1,2.8-1.9,3.1-3.8l-1.9-0.5L786.3,391.6z M783.2,415.4l-0.5,0.7l1.4,0.7l0.5-1.2L783.2,415.4z
			 M784.8,476.8c0,4.2,2.8,6.1,6.8,6.1c4.2,0,7.8-1.2,7.8-6.1c0-2.6-1.2-25.9-7.3-25.9C786,450.9,784.8,474.2,784.8,476.8z
			 M787.7,382.4l2.8,1.6l-1.2-2.8l1.2-1.9c-1.9,0.2-3.3-1.2-4.9-1.2h-0.2C786.3,379.6,787.7,380.5,787.7,382.4z M786.5,376.5
			c0.7,0,1.9,0,2.4-0.7l-1.9-0.5h-0.5V376.5z M786.5,409.5c0.7,0,1.2-0.2,1.2-0.9v-0.7C786.7,407.8,786.5,408.8,786.5,409.5z
			 M787,369.7h0.5l1.6-1.9l-2.1,1.4V369.7z M792.1,455.8c0.7,5.4,2.6,12.2,2.6,17.4c0,1.6-0.7,3.8-0.9,5.4l-1.2,0.2h-0.9
			c-1.4,0-2.6-0.7-2.6-2.1v-0.7C789.1,470,791.2,462,792.1,455.8z M789.3,386h0.2l0.7-0.7l-0.5-0.7l-0.5,0.2V386z M793.1,401
			l-2.4-2.8l-0.7,1.6l2.4,2.6L793.1,401z M794.3,493.7l-3.1,3.3l2.6-0.2l-0.2,2.4l3.5-2.8l-1.6-1.4l0.9-0.2l1.9,0.7L794.3,493.7z
			 M795.4,389.7c-1.2,0-3.5,0.2-3.8,1.6l3.3,0.7l0.9-2.4H795.4z M791.9,382.2l0.9,1.4l0.7-0.5l-1.6-1.4V382.2z M792.6,409.3l0.9-0.2
			C793.3,409,792.8,409.3,792.6,409.3z M792.8,378.9v0.5c1.2,1.2,3.5,0.7,4.5,2.6l1.9-1.4l-2.6-1.2l1.6-1.6l-2.1-3.5
			C795.4,375.8,794,377.5,792.8,378.9z M795.4,414.4l0.5,1.2h-3.1l4.9,1.2l-1.2-3.5l0.5-2.1L795.4,414.4z M793.6,369.2l0.7-0.2
			l-1.2-0.5L793.6,369.2z M795.7,372.1l-1.9,1.2l0.7,0.2l1.4-1.4H795.7z M793.8,388.5l1.6,0.5l0.5-1.9v-0.5
			C794.7,386.9,794,387.4,793.8,388.5z M793.8,394.7v0.2l2.4,0.2l-1.2-1.9L793.8,394.7z M794.3,397l0.7,1.2l-0.7,2.8
			c0.9-1.2,3.5-0.7,3.5-2.8c-1.6,0.7-1.9-1.9-3.5-1.9V397z M795,405.3l0.7-1.6l-1.4-1.4L795,405.3z M797.1,394l1.9,1.9l2.1-1.2
			l-0.2-0.7l-2.4-1.9h-1.2L797.1,394z M798,388.8l0.9,2.1l0.2-1.4l-0.9-1.6L798,388.8z M799.7,419.8v-0.2l-0.7-0.7l-0.7,1.4
			L799.7,419.8z M805.6,496.1l-2.8-0.7c-0.5,1.4-3.1,0.9-4.2,1.9h2.4C801.8,497.3,804.4,496.3,805.6,496.1z M799,423.8
			c1.2,1.2,3.1,2.1,4.7,2.6l-0.9-2.6l-3.1-1.2L799,423.8z M799.7,390.9l1.4,1.2l0.9-0.7l-1.9-1.2L799.7,390.9z M802.7,400.3l1.4-1.4
			l-0.2-1.4L802.7,400.3z M803.2,429.5l1.9,0.9c1.6,0,3.3-1.2,4-2.8l-3.3,1.6v-1.2L803.2,429.5z M805.8,419.6l-2.1-2.8v1.9
			L805.8,419.6z M806.3,416.8l0.5-0.9l-1.2-0.5C805.8,415.8,805.8,416.3,806.3,416.8z M805.8,472.8h1.2v-1.2h-0.7L805.8,472.8z
			 M806.7,415.8l0.2-0.5C806.7,415.6,806.7,415.6,806.7,415.8z M807.4,418.7l-0.5,0.5l1.2,0.5L807.4,418.7z M807.2,422.7l-0.2,3.1
			l1.6-0.5L807.2,422.7z M808.1,462v1.2l0.9-0.2v-0.5l-1.6-1.2L808.1,462z M809.6,432.1l-0.9,0.7v0.2l0.7,0.5l1.2-1.2L809.6,432.1z
			 M812.9,498l-3.5-0.7l1.2,1.9h0.9c2.1,0,3.5-1.9,5.4-1.9l0.9,0.2l-3.8-1.9L812.9,498z M814.5,527.9c7.8,0,20.2,2.4,20.2-9.2v-1.2
			l-24.9-151.1c1.6,0.2,3.3,1.9,3.5,3.5L839,525v0.7c0,2.8-1.9,5.2-4.9,5.2h-15.3C816.9,530.9,815.2,529.5,814.5,527.9z
			 M810.7,440.3l-0.2,1.2l-0.7,0.9l0.7,0.7l0.7-2.8H810.7z M810.5,446.9l0.7-0.9v-0.2H810L810.5,446.9z M813.3,471.9
			c0,0.7,0.5,1.2,1.2,1.2l-1.2-1.4V471.9z M813.3,504.6h1.2c0-0.5-0.2-0.7-0.7-0.7h-0.5V504.6z M816.9,516.6h0.9l1.2-3.1l-2.4-6.4
			L816.9,516.6z"/>
		<path d="M939.5,406.9c0,16.7-9.9,32.2-9.9,37.4c0,5.4,7.3,11.8,7.3,24.7v35.8c0,4.7,1.4,9.4,1.4,13.9c0,3.1-2.1,5.2-5.2,5.2h-16
			c-19.5-14.4,13.6-69.4-23.8-69.4c-19.5,0,3.3,69.4-12.2,69.4h-16.5c-2.6,0-4.7-2.1-4.7-4.7V363.8c0-2.6,2.1-4.7,4.7-4.7H902
			C927.9,359.1,939.5,384.3,939.5,406.9z M868.4,428.8l0.5-0.5l1.6,0.9l-0.2-1.9l1.9-0.2l-0.7-1.4l1.2-1.4l-0.2-0.5l-4,2.6l0.9-1.9
			L867,422L868.4,428.8z M868.4,513.5v-0.2l-1.4-0.5L868.4,513.5z M867.2,497.7c0,0.2,0,0.5,0.2,0.7
			C867.4,498.2,867.4,498,867.2,497.7z M867.4,492.6l3.1-0.5l-1.6-1.4l-0.2-0.9L867.4,492.6z M868.9,517.3c-0.2-0.2-0.2-0.2-0.5-0.2
			l-0.5,0.2H868.9z M868.4,418.7l2.4,0.7l0.9-3.3l-1.9-0.2L868.4,418.7z M868.4,527.9c6.8,0,21.4,2.6,21.4-8.7V465
			c0-2.4,0.2-6.6,3.5-6.6c4,0,8,0,10.8,3.1c-7.8,0-10.1,2.6-10.1,10.6v54.1c0,2.6-2.1,4.7-4.7,4.7h-16.5
			C871,530.9,869.1,529.7,868.4,527.9z M869.1,496.1l-0.7,0.7l1.4,0.5l0.7-0.5L869.1,496.1z M871.2,503.6h-0.9l-1.6,0.9v0.2l1.2,0.7
			L871.2,503.6z M869.8,505.5l-1.2,1.6l2.1-1.4L869.8,505.5z M869.8,517.3h-0.9c0.2,0.2,0.2,0.2,0.5,0.2L869.8,517.3z M869.3,395.8
			c0,0,0.2,1.6,0.9,1.6L869.3,395.8z M869.3,511.2l0.2,0.7h0.2l1.6-2.4l-1.6-0.5L869.3,511.2z M870.7,468.8H870l-0.5,0.2v0.2
			L870.7,468.8z M869.8,393.5c0.7-0.2,1.6,0,1.6-0.9l-1.6-0.2V393.5z M869.8,400.3l2.6,0.9c-0.5-1.2-0.7-2.6-2.1-2.8L869.8,400.3z
			 M871.4,411.1c0-0.2,0.2-0.5,0.2-0.7V410h-1.4C870.3,410.7,870.7,411.1,871.4,411.1z M872.6,500.1l-2.4,0.9
			c0.9,1.2,2.1,0.2,3.3,0.7l-0.5-1.6H872.6z M872.1,405l-1.6,0.9l0.9,1.9l1.6-2.6h0.2V405l-1.9-1.4L872.1,405z M870.5,413.7
			c1.2-0.2,2.6-0.2,2.6-1.9l-1.4-0.5L870.5,413.7z M870.7,484.8l1.2,0.2l0.5-0.2v-0.2l-0.9-0.9L870.7,484.8z M872.1,495.4l-1.2,1.2
			l0.2,0.5l1.2-1.6H872.1z M871.9,482.2l0.5,0.5c0-0.5,0-0.7-0.2-1.2L871.9,482.2z M872.9,416.5l-0.5,0.9c0.5,0,0.9-0.2,1.2-0.7
			L872.9,416.5z M873.1,470l0.2-1.2h-0.9C872.4,469.3,872.6,469.7,873.1,470z M872.6,385.2l0.7,2.4l1.2-2.6L872.6,385.2z
			 M873.1,514.2l0.5-2.4h-0.9C872.6,512.6,872.6,513.5,873.1,514.2z M872.9,516.6l-0.2-0.9C872.6,515.9,872.6,516.3,872.9,516.6z
			 M873.1,401.7l1.2,0.7l0.5-0.2l-1.6-0.7V401.7z M873.3,487.6v0.2c0,0.7,1.2,1.2,1.9,1.2L873.3,487.6z M874,508.8
			c-0.5,1.2-0.9,2.1,0,3.1V508.8z M874.5,481.5l-0.5,4.7l0.5,0.9V481.5z M874.5,400.1l-0.2-0.9C874.3,399.4,874.3,399.8,874.5,400.1
			z M874.3,416.3l0.5,0.2h0.7c-0.2-0.2-0.7-0.5-1.2-0.5V416.3z M874.3,465v0.2l1.2-0.7v-0.2L874.3,465z M874.3,475.1
			c0,0.7,0,1.6,0.9,1.6L874.3,475.1z M875.2,401.5v-0.2l-0.7-1.2L875.2,401.5z M875.2,420.8v2.8l2.4-0.7L875.2,420.8z M877.1,367.4
			l1.6,0.9l1.4-0.9l0.2-1.2L877.1,367.4z M878.3,447.1l3.1-3.1h-1.2l0.9-1.2l-1.2,1.2h0.2L878.3,447.1z M883.2,369.5l-2.1,0.7h2.1
			V369.5z M881.8,367.6v0.2l1.2,1.4l0.2-2.1L881.8,367.6z M884.2,436.1c0.2,0.2,0.2,0.2,0.5,0.2L884.2,436.1z M884.9,446.2h2.1
			c-0.9-0.2-1.9,0-2.6-0.5L884.9,446.2z M885.8,371.1l1.2-0.7l-1.4-1.4l-0.5,0.2L885.8,371.1z M894,428.5h8
			c10.4,0,11.5-14.1,11.5-21.7c0-7.1-1.9-21.9-11.5-21.9h-5.6c-6.6,0-10.6,4-10.6,10.6V418C885.8,423.4,887.9,428.5,894,428.5z
			 M890.5,442.7l-1.9,0.9l0.5,1.2l1.6-1.9v-0.2H890.5z M889.8,395.6c0-4.2,2.4-6.6,6.6-6.6h5.6c2.1,0,3.5,1.4,4.5,3.1
			c-18.4,0-12.5,19.1-12.5,32.5c-3.5,0-4.2-3.8-4.2-6.6V395.6z M891.4,366.2l0.5,0.5c0.5,0,1.4-0.2,1.6-0.9L891.4,366.2z
			 M892.9,370.2l-0.2,0.5l4.2,1.9l0.5-1.9l-2.4,0.9l-0.9-1.4H892.9z M896.4,442.7l-0.7,1.2c0.9,0,0.9-0.5,0.9-1.2H896.4z
			 M901.8,372.1l0.9,0.2v0.9l0.9-0.7l-0.2-1.4L901.8,372.1z M903.7,368.5c-0.2-0.2-0.7-0.2-0.9-0.2
			C903,368.5,903.4,368.5,903.7,368.5z M903.7,368.5l1.4,1.4v0.2l1.4-1.9L903.7,368.5z M904.6,373.5l2.8,3.1l-0.2-3.5L904.6,373.5z
			 M906.3,442v0.7l0.7,1.9l2.1,0.2l-1.2-0.9l0.9-1.9l-1.9-2.1C906.7,440.3,906.3,441.3,906.3,442z M908.6,370.9l0.2,0.5h0.5
			c1.2,0,1.9-0.5,1.9-1.6l-1.9-0.2L908.6,370.9z M910.5,445l-0.7,0.5l1.6,1.4l0.5-0.2L910.5,445z M910,447.1
			c0.2,0.5,0.5,0.7,0.9,0.9L910,447.1z M911,448.1c0,0,1.2,1.2,1.9,1.4L911,448.1z M911.4,369.5l1.6,2.6c0.7-0.9,2.1,0.5,2.6,1.2
			l0.5-0.2l-1.2-2.4L911.4,369.5z M914.7,442.2l-0.9-0.7l-0.7,0.5l0.2,0.2c0.5-0.7,1.2,0.2,1.4,0.5V442.2z M916.6,436.1h-2.4
			c-0.2,2.1,3.5,0.9,3.5,2.6l-0.2,0.7l1.4-0.5l-0.2-2.1l0.9-0.9l0.2-3.3l0.7-0.9l-0.5,0.2v-0.7L916.6,436.1z M916.2,445.7l-0.5,0.5
			l0.5,0.2l0.7-0.5L916.2,445.7z M915.7,452.6l2.1,0.9l0.9-0.9h-1.9l-1.2-1.9V452.6z M917.1,442.7l-1.2,0.2l1.6,1.2l0.9-0.2
			L917.1,442.7z M918.3,454.4l-0.9,0.7l0.9,0.5h0.2v-1.2H918.3z M919,440.1l3.1,0.9l-1.9-1.9L919,440.1z M922,451.8l-2.1-0.5
			l2.1,1.9V451.8z M920.9,419.4l-0.2-0.9l-0.5,1.2C920.4,419.6,920.6,419.4,920.9,419.4z M921.3,425.5l-0.7,0.7v0.5h0.2l0.9-1.2
			H921.3z M921.6,454.4l-0.9,1.9l1.4-0.5v-1.4H921.6z M920.9,419.4l1.9-0.7l-0.9-0.7L920.9,419.4z M923.7,431.4h-2.6l0.9,2.6
			l-0.5,1.4l1.9-3.1l2.1,0.2l-0.2-3.1l-0.9-0.2L923.7,431.4z M921.3,457.7l0.5,0.5l0.7-0.9l-0.5-0.5L921.3,457.7z M922,527.9
			c7.3,0,20.5,2.4,20.5-8.7c0-1.4-0.2-2.8-0.7-4l0.2,0.2c-3.3-14.8-1.2-31.3-1.2-46.4c0-12.2-7.3-21.2-7.3-24.7
			c0-1.4,0.9-3.5,1.6-4.7l-0.2,0.2c6.1-9.6,8.5-21.7,8.5-32.9c0-8.2-1.2-16.7-4.2-24.5c6.1,9.2,8.5,20.5,8.5,31.5
			c0,16.7-9.9,32.2-9.9,37.4c0,5.2,7.3,11.8,7.3,24.7v35.8c0,4.7,1.4,9.4,1.4,13.9c0,3.1-2.1,5.2-5.2,5.2h-16
			C924.2,530,923,529,922,527.9z M922,417.7l2.4,0.9l0.5-1.9h1.4c0.5,1.6,0.9,4.9,3.3,4.9l0.7-0.2c-1.2-1.9-2.6-3.1-2.6-5.4
			l-1.2-0.5C924.9,415.8,923.7,417.3,922,417.7z M923.7,424.3l-1.6,1.2l1.9-0.9v-0.2H923.7z M924.9,452.3l-0.2-1.6l-2.6,0.7v0.5
			L924.9,452.3z M926.5,414.2v-1.4l1.6-1.4l-2.6,0.9l-0.7-1.4l2.1-0.9l2.4,0.2l0.5-1.2l-1.9-1.6h-0.5c0.5,2.4-3.5,1.9-4.5,3.5
			l1.4,2.4l-1.9,0.9l1.9,1.4l1.2-2.4L926.5,414.2z M924.6,464.3l-1.6-0.7v0.5l0.7,0.5L924.6,464.3z M923.7,462.7v0.2l0.7-0.5
			l-0.5-0.9L923.7,462.7z M923.9,407.4l0.5-0.2l0.2,0.9l1.2-1.9l-1.9,0.2V407.4z M923.9,459.1h0.9l0.7,0.9l0.7-2.8h-0.9L923.9,459.1
			z M925.3,462.9v-1.6l-0.7-0.2l-0.7,0.5C924.9,461.5,924.6,462.4,925.3,462.9z M925.6,425.3l0.2-0.9l-0.9-0.5
			C924.9,424.3,925.1,425,925.6,425.3z M930.7,394.4c-1.4,0-2.8-0.2-4.2-0.7l-0.9,2.1l2.1,1.4l2.6-0.9L930.7,394.4z M926.5,505
			l-0.9,2.1l0.9,1.6l0.5-1.2h0.7L926.5,505z M926.5,513.3l-0.5,0.5l0.2,1.4c-0.2-0.7,0.2-1.4,0.9-1.6L926.5,513.3z M930.3,400.8
			l-1.6,3.8h-2.1l0.7,1.2l2.4-0.5l1.9-3.1l-0.9-3.5l-1.9,0.9L930.3,400.8z M927,463.8l0.5,0.9l0.5-1.4l-0.2-0.9L927,463.8z
			 M928.2,408.3l0.7,0.5l-0.5,0.5l-0.2-0.2V408.3z M928.4,413.5l-0.2,0.5l1.2,0.7l0.2-0.9L928.4,413.5z M929.3,487.1
			c0-0.7-0.2-1.4-0.9-1.6C928.4,486.2,928.4,487.1,929.3,487.1z M929.3,417.7h1.4v-0.5l-1.4-1.2C929.6,416.8,929.6,417,929.3,417.7z
			 M929.3,488.1h0.9c0-0.5-0.2-0.7-0.7-0.7h-0.2V488.1z M929.3,511.9c0.5,0.7,1.2-0.5,1.9,0.5v-0.2l-1.4-1.2L929.3,511.9z
			 M929.8,482.4v1.9C930.3,483.9,930,482.9,929.8,482.4z M931.2,494v-0.2c-0.2-0.2-0.9-0.7-1.2-0.7h-0.2
			C929.8,493.7,930.5,494,931.2,494z M932.4,508.1h-0.2l0.2-1.2c-0.5,1.2-2.1,1.6-2.1,3.1l1.4,0.5l0.2-1.4l-0.2,0.5l-0.2-0.2
			l0.2-1.2h0.5l-0.2,0.9L932.4,508.1z M930.5,491.4v0.7l0.9,0.2v-1.2L930.5,491.4z M931.2,408.1v0.7c0.7,0,0.9-0.7,0.9-1.4
			L931.2,408.1z M931.5,413.7l1.2,0.2l0.5-2.6l-0.7-1.2C931.9,411.4,931.7,412.5,931.5,413.7z M932.2,477l0.9-0.9l-1.4-1.2
			L932.2,477c0,0.2,0,0.2,0.2,0.5L932.2,477z M932.2,485.7l0.5-0.2l-0.7-1.2h-0.2L932.2,485.7z"/>
	</g>
	<g>
		<g>
			<path d="M191.3,312c-4.6-0.2-8.4-2-11.4-5.4c-3-3.4-4.5-7.3-4.2-11.9l4.6-153.6c0.2-4.6,2-8.5,5.4-11.7c3.4-3.3,7.3-4.8,11.9-4.6
				c4.8,0.2,8.7,2,11.9,5.4c3.2,3.4,4.6,7.3,4.4,11.9l-1.6,54.8l65.2-1.6l-0.3-52.5c0-4.6,1.6-8.5,4.9-11.9
				c3.3-3.4,7.2-5.1,11.7-5.1s8.5,1.6,11.7,4.9c3.3,3.3,5,7.2,5.2,11.7l1.3,151.7c0,4.6-1.6,8.5-4.7,11.7c-3.2,3.3-7.1,5-11.9,5.2
				c-4.6,0-8.5-1.6-11.7-4.9c-3.3-3.3-5-7.2-5.2-11.7l-0.7-65.6l-66.5,1.6l-1.6,53.8c0.2,1.1,0.3,2.8,0.3,5.2l-1,7.5
				c-0.2,4.1-2,7.7-5.2,10.6c-3.3,2.9-7.1,4.4-11.4,4.4H191.3z M190.4,285.2L190,295c0,1.5,0.8,2.3,2.3,2.3c1.5,0,2.3-0.8,2.3-2.3
				l0.3-9.5c0.4-1.7-0.3-2.6-2.3-2.6C191.1,283,190.4,283.7,190.4,285.2z M191,256.5l-0.3,9.5c0,1.7,0.9,2.6,2.6,2.6
				c1.5,0,2.3-0.8,2.3-2.3l0.3-9.5c0-1.7-0.8-2.6-2.3-2.6C192.3,254.3,191.5,255,191,256.5z M192,227.8l-0.3,9.5
				c0,1.7,0.8,2.6,2.3,2.6h0.3c1.5,0,2.3-0.8,2.3-2.3l0.3-9.8c0-1.5-0.8-2.3-2.3-2.3C192.9,225.6,192,226.3,192,227.8z M193,199.1
				l-0.3,9.5c0,1.7,0.8,2.6,2.3,2.6c1.3,0,2.2-0.8,2.6-2.3v-9.8c0.4-1.5-0.3-2.3-2.3-2.3C193.7,196.9,193,197.6,193,199.1z
				 M193.6,170.4v9.5c-0.2,1.3,0.5,2.2,2.3,2.6c1.5,0,2.3-0.9,2.3-2.6l0.3-9.5c0-1.3-0.8-2.2-2.3-2.6
				C194.9,167.8,194.1,168.7,193.6,170.4z M194.6,141.4l-0.3,9.8c0,1.5,0.8,2.3,2.3,2.3h0.3c1.5,0,2.3-0.8,2.3-2.3l0.3-9.5
				c0-1.7-0.8-2.6-2.3-2.6C195.5,139.1,194.6,139.9,194.6,141.4z M224.6,211.5c-1.5,0-2.3,0.8-2.3,2.3c0,1.5,0.8,2.3,2.3,2.3
				l9.8-0.3c1.5,0,2.3-0.8,2.3-2.3c0-1.5-0.9-2.3-2.6-2.3L224.6,211.5z M253.3,210.6c-1.5,0-2.3,0.9-2.3,2.6c0,1.5,0.8,2.3,2.3,2.3
				h0.3l9.5-0.3c1.5,0,2.3-0.8,2.3-2.3c0-1.7-0.9-2.6-2.6-2.6L253.3,210.6z M293.8,140.1c-1.5,0-2.3,0.9-2.3,2.6v9.5
				c0,1.5,0.9,2.3,2.6,2.3c1.5,0,2.3-0.8,2.3-2.3v-9.5C296.4,141,295.5,140.1,293.8,140.1z M296.7,180.9l-0.3-9.5
				c0-1.7-0.8-2.6-2.3-2.6c-1.5,0-2.3,0.9-2.3,2.6v9.5c0,1.7,0.8,2.6,2.3,2.6C295.8,183.1,296.7,182.2,296.7,180.9z M297,209.6
				l-0.3-9.5c0-1.5-0.8-2.3-2.3-2.3c-1.5,0-2.3,0.8-2.3,2.3v9.5c0,1.7,0.8,2.6,2.3,2.6C296.1,212.2,297,211.3,297,209.6z M297,238.6
				v-9.8c0-1.5-0.8-2.3-2.3-2.3c-1.7,0-2.6,0.8-2.6,2.3l0.3,9.8c0,1.5,0.8,2.3,2.3,2.3C296.3,240.9,297,240.1,297,238.6z
				 M297.3,267.3v-9.8c0-1.5-0.8-2.3-2.3-2.3c-1.7,0-2.6,0.8-2.6,2.3l0.3,9.8c0,1.5,0.8,2.3,2.3,2.3
				C296.6,269.6,297.3,268.8,297.3,267.3z M297.7,294.1v-7.8c0-1.5-0.9-2.3-2.6-2.3c-1.5,0-2.3,0.9-2.3,2.6v7.5
				c0,1.5,0.9,2.3,2.6,2.3C296.9,296.3,297.7,295.6,297.7,294.1z"/>
			<path d="M335.2,312c-4.6-0.9-8.2-3.3-10.8-7.2c-2.6-3.9-3.5-8.2-2.6-12.7c8.9-45,21.9-89,38.8-132.1c2.8-7.2,6.2-13,10.1-17.6
				c3.9-4.6,7.6-7.6,11.1-9c3.5-1.4,6.9-2.5,10.3-3.3c3.4-0.8,5.9-0.7,7.7,0.2c9.1,1.3,17.4,7.3,24.8,17.9
				c13,18.9,22.6,39.5,28.5,61.8c6,22.3,11.1,49.5,15.5,81.7c0.4,4.6-0.8,8.7-3.6,12.4c-2.8,3.7-6.5,5.9-11.1,6.5
				c-4.6,0.4-8.7-0.8-12.4-3.6c-3.7-2.8-5.8-6.5-6.2-11.1c-3.9-27.4-7.4-47.5-10.4-60.3l-55.1,2c-6.3,21.5-11.3,41.9-15,61
				c-0.9,4.1-2.8,7.5-5.9,9.9c-3,2.5-6.5,3.8-10.4,3.8c-0.4,0-1-0.1-1.8-0.2C335.9,312,335.4,312,335.2,312z M337.8,285.6
				c-0.4,2-1.1,5.1-2,9.5c0,1.7,0.7,2.6,2,2.6h0.7c1.1,0,1.8-0.7,2.3-2c0.2-0.9,0.5-2.3,1-4.4c0.4-2.1,0.8-3.6,1-4.7
				c0-1.5-0.7-2.5-2-2.9C339.2,283.2,338.2,283.8,337.8,285.6z M342,266.7c-0.4,1.5,0.2,2.5,2,2.9h0.3c1.5,0,2.3-0.5,2.3-1.6
				c0.9-2.6,1.6-5.8,2.3-9.5c0.4-1.5-0.1-2.5-1.6-2.9c-1.5-0.4-2.5,0.2-2.9,2c-0.2,0.9-0.6,2.4-1.1,4.6
				C342.6,264.3,342.2,265.8,342,266.7z M349.2,238.9c-0.4,1.3,0.1,2.3,1.6,2.9h0.7c1.1,0,1.8-0.7,2.3-2c1.3-3.9,2.2-7,2.6-9.1
				c0.7-1.5,0.1-2.5-1.6-2.9c-1.3-0.4-2.3,0.1-2.9,1.6C351.6,231,350.7,234.2,349.2,238.9z M357.7,211.2c-0.7,1.5-0.2,2.5,1.3,2.9h1
				c1.1,0,1.8-0.5,2.3-1.6c1.3-3.9,2.3-7,2.9-9.1c0.4-1.5-0.1-2.5-1.6-2.9c-1.5-0.4-2.5,0.1-2.9,1.6
				C359.3,206,358.3,209,357.7,211.2z M367.1,183.8c-0.7,1.3-0.2,2.4,1.3,3.3h0.7c1.1,0,1.8-0.5,2.3-1.6c0.4-1.1,1-2.6,1.8-4.6
				c0.8-2,1.4-3.4,1.8-4.2c0.4-1.5-0.1-2.6-1.6-3.3c-1.5-0.4-2.5,0-2.9,1.3C369.5,176.9,368.4,179.9,367.1,183.8z M378.2,156.7
				c-0.7,1.3-0.4,2.5,0.7,3.6c0.2,0,0.5,0,1,0l0.3,0.3c0.9,0,1.5-0.4,2-1.3c2.2-3.3,4-5.5,5.5-6.8c1.1-1.1,1.2-2.3,0.3-3.6
				c-1.1-1.1-2.3-1.1-3.6,0C382.5,150.7,380.4,153.3,378.2,156.7z M380.2,217.1c-1.5,0-2.3,0.8-2.3,2.3c0,1.7,0.8,2.6,2.3,2.6
				l9.8-0.7c1.5,0,2.3-0.8,2.3-2.3c0-1.5-0.9-2.3-2.6-2.3L380.2,217.1z M395.5,165.2c-1.5,2.4-2.7,4.8-3.6,7.2
				c-1.7,4.3-5.7,14.8-11.7,31.3l34.9-1.3c-5.2-13.3-11.3-25-18.3-35.2c0-0.2-0.2-0.5-0.7-1C395.7,165.8,395.5,165.4,395.5,165.2z
				 M401.7,148.3c-0.9,1.3-0.8,2.4,0.3,3.3c2.2,1.7,4.2,3.9,6.2,6.5c0.2,0.7,0.9,1,2,1c0.7,0,1.1-0.1,1.3-0.3
				c1.1-1.1,1.3-2.2,0.7-3.3c-2.2-3-4.6-5.7-7.2-7.8C403.7,146.7,402.6,147,401.7,148.3z M418.7,220.3c1.5,0,2.3-0.8,2.3-2.3
				c0-1.5-0.9-2.3-2.6-2.3l-9.5,0.3c-1.5,0-2.3,0.8-2.3,2.3c0,1.5,0.8,2.3,2.3,2.3h0.3L418.7,220.3z M419,170.8
				c-1.5,0.9-1.8,2-1,3.3l4.2,8.5c0.2,0.9,1,1.3,2.3,1.3h1c1.3-0.9,1.6-2,1-3.3c-1.7-3.9-3.2-6.8-4.2-8.8
				C421.6,170.7,420.5,170.3,419,170.8z M431.1,196.9c-1.5,0.7-2.1,1.7-1.6,3.3c0.9,2,2,4.9,3.3,8.8c0.4,1.3,1.2,2,2.3,2
				c0.2,0,0.3,0,0.3-0.2c0-0.1,0.1-0.2,0.3-0.2c1.5-0.4,2.1-1.4,1.6-2.9c-1.1-3.7-2.2-6.7-3.3-9.1
				C433.6,197,432.6,196.4,431.1,196.9z M439.5,224.6c-1.5,0.4-2.1,1.4-1.6,2.9c0.9,3.9,1.5,7,2,9.1c0.4,1.3,1.3,2,2.6,2h0.3
				c1.7-0.4,2.4-1.4,2-2.9c-0.2-1.3-0.6-3-1.1-5.1c-0.5-2.1-0.9-3.5-1.1-4.4C442,224.7,441.1,224.1,439.5,224.6z M448.4,254.6
				c-0.4-1.7-1.3-2.4-2.6-2c-1.7,0.4-2.4,1.3-2,2.6c0.2,2.6,0.8,5.8,1.6,9.5c0,1.3,0.8,2,2.3,2h0.3c1.7,0,2.4-0.9,2-2.6
				C449.8,261.4,449.2,258.3,448.4,254.6z M452.9,283c-0.4-1.7-1.4-2.4-2.9-2c-1.7,0-2.4,0.9-2,2.6c0.2,1.1,0.5,2.7,0.8,4.9
				c0.3,2.2,0.5,3.7,0.5,4.6c0,1.5,0.8,2.3,2.3,2.3h0.3c1.7-0.4,2.4-1.4,2-2.9C453.7,290.5,453.3,287.3,452.9,283z"/>
			<path d="M483.9,148.6c0-3.9,1.2-7.4,3.6-10.6c2.4-3.1,5.5-5.2,9.5-6c25.9-6.3,46.4-8.6,61.6-6.8c13.5,1.5,25.5,5.7,36.2,12.6
				c10.6,6.8,18.4,15.5,23.2,25.9c6.7,14.4,6.8,29.1,0.3,44.4c-5.7,13-14.8,21.7-27.4,26.1c-24.8,7-48.6,10.1-71.4,9.5l1,50.9
				c0,4.8-1.6,8.8-4.7,12.1c-3.2,3.3-7.1,5-11.9,5.2h-0.3c-4.6,0-8.5-1.6-11.7-4.9c-3.3-3.3-4.9-7.2-4.9-11.7L483.9,148.6z
				 M501.2,162.9c-1.7,0-2.6,0.9-2.6,2.6l0.3,9.5c0,1.5,0.8,2.3,2.3,2.3h0.3c1.5,0,2.3-0.8,2.3-2.3l-0.3-9.8
				C503.5,163.7,502.7,162.9,501.2,162.9z M500.5,146.3c-1.5,0.4-2.1,1.4-1.6,2.9c0.4,1.5,1.4,2.1,2.9,1.6c5-1.5,8-2.4,9.1-2.6
				c0.4,0,0.8-0.1,1-0.3c0.9-0.4,1.2-1.3,1-2.6c-0.4-1.5-1.4-2.1-2.9-1.6C508.5,143.9,505.3,144.8,500.5,146.3z M499.2,194.3
				l0.3,9.5c0,1.7,0.8,2.6,2.3,2.6c1.7-0.4,2.5-1.3,2.3-2.6v-9.5c0-1.7-0.9-2.6-2.6-2.6C500,192.1,499.2,192.9,499.2,194.3z
				 M499.9,222.9v9.8c0.4,1.5,1.3,2.3,2.6,2.3c1.5,0,2.3-0.9,2.3-2.6v-9.5c0-1.5-0.9-2.3-2.6-2.3
				C500.6,220.7,499.9,221.4,499.9,222.9z M500.5,251.7v9.8c0,1.5,0.9,2.3,2.6,2.3c1.5,0,2.3-0.9,2.3-2.6l-0.3-9.5
				c0-1.5-0.8-2.3-2.3-2.3C501.3,249.4,500.5,250.1,500.5,251.7z M503.5,292.4c1.7,0,2.6-0.8,2.6-2.3l-0.3-9.8
				c0-1.5-0.8-2.3-2.3-2.3c-1.7,0-2.6,0.9-2.6,2.6l0.3,9.5C501.2,291.7,502,292.4,503.5,292.4z M555,158.4c-9.6-1.1-22,0-37.2,3.3
				l1,47c20.9,2,41.4-0.2,61.6-6.5c3-1.1,5.4-3.6,7.2-7.5c2.6-5.7,2.6-11.2,0-16.6c-2.4-5-6.6-9.3-12.6-12.9
				C569.1,161.5,562.4,159.2,555,158.4z M530.9,230.1c1.7,0,2.6-0.8,2.6-2.3c0-1.5-0.8-2.3-2.3-2.3c-1.1,0-2.7,0-4.7-0.2
				c-2.1-0.1-3.6-0.3-4.7-0.5c-1.7,0-2.6,0.8-2.6,2.3c-0.4,1.3,0.2,2.2,2,2.6h0.3C523.4,230,526.5,230.1,530.9,230.1z M525.7,140.4
				c-1.3,0.2-2,1.2-2,2.9c0.4,1.3,1.2,2,2.3,2h0.7c1.7-0.4,4.8-0.9,9.1-1.3c1.5,0,2.3-0.9,2.3-2.6c0-1.7-0.9-2.4-2.6-2L525.7,140.4z
				 M557.9,226.9c1.7-0.4,2.4-1.4,2-2.9c0-1.3-0.9-2-2.6-2c-2.4,0.4-5.5,0.9-9.5,1.3c-1.5,0-2.3,0.8-2.3,2.3
				c0.4,1.5,1.3,2.3,2.6,2.3L557.9,226.9z M555,139.1c-1.7,0-2.6,0.8-2.6,2.3c0,1.3,0.8,2.2,2.3,2.6h2c3.5,0.4,5.9,0.9,7.2,1.3h0.3
				c1.5,0,2.4-0.7,2.6-2c0-1.7-0.7-2.6-2-2.6c-1.7-0.4-4.4-0.9-7.8-1.3C556.5,139.2,555.9,139.1,555,139.1z M586.3,220.3
				c1.5-0.7,2.1-1.7,1.6-3.3c-0.7-1.7-1.6-2.2-2.9-1.3c-0.9,0.2-2.3,0.6-4.4,1.1c-2.1,0.5-3.6,1-4.7,1.5c-1.7,0.4-2.4,1.4-2,2.9
				c0.4,1.1,1.3,1.6,2.6,1.6h0.3c0.9-0.2,2.4-0.6,4.6-1.1C583.6,221.3,585.2,220.8,586.3,220.3z M580.1,148.6
				c-0.9,1.3-0.6,2.4,1,3.3c2.8,1.5,5.3,3.2,7.5,4.9c0.4,0.4,1,0.7,1.6,0.7c0.7,0,1.2-0.3,1.6-1c1.3-1.3,1.2-2.4-0.3-3.3
				c-1.5-1.5-4.2-3.4-8.2-5.5C581.9,147,580.8,147.3,580.1,148.6z M598.4,205c-0.9,1.3-0.7,2.4,0.7,3.3c0.2,0.2,0.7,0.3,1.3,0.3
				c0.9,0,1.5-0.3,2-1c2-2.8,3.4-6,4.2-9.5c0.4-1.5-0.1-2.5-1.6-2.9c-1.5-0.4-2.5,0.1-2.9,1.6C600.9,200.3,599.7,203.1,598.4,205z
				 M601.3,167.5c-1.5,0.9-2,2-1.3,3.3l0.7,1c1.3,3,2.1,5.5,2.3,7.5c0.4,1.1,1.2,1.6,2.3,1.6h0.7c1.3,0,2-0.9,2-2.6
				c-0.7-3-1.6-5.9-2.9-8.5l-0.7-1.3C603.8,166.7,602.8,166.4,601.3,167.5z"/>
			<path d="M638.2,148.6c0-3.9,1.2-7.4,3.6-10.6c2.4-3.1,5.5-5.2,9.5-6c25.9-6.3,46.4-8.6,61.6-6.8c13.5,1.5,25.5,5.7,36.2,12.6
				c10.6,6.8,18.4,15.5,23.2,25.9c6.7,14.4,6.8,29.1,0.3,44.4c-5.7,13-14.8,21.7-27.4,26.1c-24.8,7-48.6,10.1-71.4,9.5l1,50.9
				c0,4.8-1.6,8.8-4.7,12.1c-3.2,3.3-7.1,5-11.9,5.2h-0.3c-4.6,0-8.5-1.6-11.7-4.9s-4.9-7.2-4.9-11.7L638.2,148.6z M655.5,162.9
				c-1.7,0-2.6,0.9-2.6,2.6l0.3,9.5c0,1.5,0.8,2.3,2.3,2.3h0.3c1.5,0,2.3-0.8,2.3-2.3l-0.3-9.8C657.7,163.7,657,162.9,655.5,162.9z
				 M654.8,146.3c-1.5,0.4-2.1,1.4-1.6,2.9c0.4,1.5,1.4,2.1,2.9,1.6c5-1.5,8-2.4,9.1-2.6c0.4,0,0.8-0.1,1-0.3c0.9-0.4,1.2-1.3,1-2.6
				c-0.4-1.5-1.4-2.1-2.9-1.6C662.7,143.9,659.6,144.8,654.8,146.3z M653.5,194.3l0.3,9.5c0,1.7,0.8,2.6,2.3,2.6
				c1.7-0.4,2.5-1.3,2.3-2.6v-9.5c0-1.7-0.9-2.6-2.6-2.6C654.3,192.1,653.5,192.9,653.5,194.3z M654.2,222.9v9.8
				c0.4,1.5,1.3,2.3,2.6,2.3c1.5,0,2.3-0.9,2.3-2.6v-9.5c0-1.5-0.9-2.3-2.6-2.3C654.9,220.7,654.2,221.4,654.2,222.9z M654.8,251.7
				v9.8c0,1.5,0.9,2.3,2.6,2.3c1.5,0,2.3-0.9,2.3-2.6l-0.3-9.5c0-1.5-0.8-2.3-2.3-2.3S654.8,250.1,654.8,251.7z M657.7,292.4
				c1.7,0,2.6-0.8,2.6-2.3l-0.3-9.8c0-1.5-0.8-2.3-2.3-2.3c-1.7,0-2.6,0.9-2.6,2.6l0.3,9.5C655.5,291.7,656.2,292.4,657.7,292.4z
				 M709.3,158.4c-9.6-1.1-22,0-37.2,3.3l1,47c20.9,2,41.4-0.2,61.6-6.5c3-1.1,5.4-3.6,7.2-7.5c2.6-5.7,2.6-11.2,0-16.6
				c-2.4-5-6.6-9.3-12.6-12.9C723.3,161.5,716.7,159.2,709.3,158.4z M685.1,230.1c1.7,0,2.6-0.8,2.6-2.3c0-1.5-0.8-2.3-2.3-2.3
				c-1.1,0-2.7,0-4.7-0.2c-2.1-0.1-3.6-0.3-4.7-0.5c-1.7,0-2.6,0.8-2.6,2.3c-0.4,1.3,0.2,2.2,2,2.6h0.3
				C677.6,230,680.8,230.1,685.1,230.1z M679.9,140.4c-1.3,0.2-2,1.2-2,2.9c0.4,1.3,1.2,2,2.3,2h0.7c1.7-0.4,4.8-0.9,9.1-1.3
				c1.5,0,2.3-0.9,2.3-2.6c0-1.7-0.9-2.4-2.6-2L679.9,140.4z M712.2,226.9c1.7-0.4,2.4-1.4,2-2.9c0-1.3-0.9-2-2.6-2
				c-2.4,0.4-5.5,0.9-9.5,1.3c-1.5,0-2.3,0.8-2.3,2.3c0.4,1.5,1.3,2.3,2.6,2.3L712.2,226.9z M709.3,139.1c-1.7,0-2.6,0.8-2.6,2.3
				c0,1.3,0.8,2.2,2.3,2.6h2c3.5,0.4,5.9,0.9,7.2,1.3h0.3c1.5,0,2.4-0.7,2.6-2c0-1.7-0.7-2.6-2-2.6c-1.7-0.4-4.4-0.9-7.8-1.3
				C710.8,139.2,710.1,139.1,709.3,139.1z M740.6,220.3c1.5-0.7,2.1-1.7,1.6-3.3c-0.7-1.7-1.6-2.2-2.9-1.3c-0.9,0.2-2.3,0.6-4.4,1.1
				c-2.1,0.5-3.6,1-4.7,1.5c-1.7,0.4-2.4,1.4-2,2.9c0.4,1.1,1.3,1.6,2.6,1.6h0.3c0.9-0.2,2.4-0.6,4.6-1.1
				C737.9,221.3,739.5,220.8,740.6,220.3z M734.4,148.6c-0.9,1.3-0.6,2.4,1,3.3c2.8,1.5,5.3,3.2,7.5,4.9c0.4,0.4,1,0.7,1.6,0.7
				s1.2-0.3,1.6-1c1.3-1.3,1.2-2.4-0.3-3.3c-1.5-1.5-4.2-3.4-8.2-5.5C736.1,147,735,147.3,734.4,148.6z M752.7,205
				c-0.9,1.3-0.7,2.4,0.7,3.3c0.2,0.2,0.7,0.3,1.3,0.3c0.9,0,1.5-0.3,2-1c2-2.8,3.4-6,4.2-9.5c0.4-1.5-0.1-2.5-1.6-2.9
				c-1.5-0.4-2.5,0.1-2.9,1.6C755.1,200.3,754,203.1,752.7,205z M755.6,167.5c-1.5,0.9-2,2-1.3,3.3l0.7,1c1.3,3,2.1,5.5,2.3,7.5
				c0.4,1.1,1.2,1.6,2.3,1.6h0.7c1.3,0,2-0.9,2-2.6c-0.7-3-1.6-5.9-2.9-8.5l-0.7-1.3C758.1,166.7,757.1,166.4,755.6,167.5z"/>
			<path d="M924.2,132.6c3.7,2.6,6,6.2,6.8,10.8c0.9,4.6-0.1,8.7-2.9,12.4l-52.8,74.4l2.3,63.9c0.2,4.8-1.3,8.8-4.6,12.1
				c-3.3,3.3-7.2,5-11.7,5.2h-0.7c-4.4,0-8.2-1.6-11.4-4.7c-3.3-3.1-5-6.9-5.2-11.3l-2-61.3l-55.1-76.6c-2.8-3.7-3.9-7.8-3.1-12.4
				s3-8.3,6.7-11.1c3.7-2.6,7.8-3.5,12.4-2.8c4.6,0.8,8.3,3,11.1,6.7l43.4,60l43.7-61.3c2.6-3.7,6.2-6,10.8-6.8
				C916.4,128.8,920.5,129.8,924.2,132.6z M807.4,157.4c1.1-1.1,1.2-2.2,0.3-3.3l-5.5-7.8c-0.2-0.7-0.7-1-1.5-1.1
				c-0.8-0.1-1.4,0.1-1.8,0.5c-1.3,0.9-1.5,2-0.7,3.3l5.9,7.8c0.2,0.7,0.9,1,2,1C806.8,157.7,807.2,157.6,807.4,157.4z M824.1,180.6
				c1.3-0.7,1.5-1.7,0.7-3.3l-5.5-7.8c-1.1-1.3-2.2-1.4-3.3-0.3c-0.7,0.2-1,0.7-1.1,1.5c-0.1,0.8,0.1,1.4,0.5,1.8l5.5,7.8
				c0.7,0.7,1.3,1,2,1C823.2,181.2,823.6,181,824.1,180.6z M841,204c1.1-1.1,1.3-2.2,0.7-3.3l-5.9-7.8c-0.7-1.3-1.7-1.5-3.3-0.7
				c-1.5,0.9-1.6,2-0.3,3.3l5.5,7.8c0.4,0.7,1.1,1,2,1C840.4,204.4,840.8,204.3,841,204z M856,223.3l0.3,9.5c0,1.5,0.9,2.3,2.6,2.3
				c1.5,0,2.3-0.8,2.3-2.3l-0.3-9.8c0-1.5-0.8-2.3-2.3-2.3C856.9,220.7,856,221.5,856,223.3z M857,252l0.3,9.5
				c0,1.5,0.9,2.3,2.6,2.3c1.5,0,2.3-0.8,2.3-2.3l-0.3-9.8c0-1.5-0.9-2.3-2.6-2.3C857.8,249.4,857,250.2,857,252z M860.9,292.1
				c1.5,0,2.3-0.8,2.3-2.3l-0.3-9.5c0-1.5-0.9-2.3-2.6-2.3c-1.5,0.4-2.3,1.3-2.3,2.6l0.3,9.1c0,1.5,0.8,2.3,2.3,2.3H860.9z
				 M880.2,197.8c0.9-1.5,0.7-2.6-0.7-3.3c-1.3-1.3-2.4-1.2-3.3,0.3l-5.5,7.8c-0.7,1.3-0.4,2.5,0.7,3.6c0.2,0,0.4,0.1,0.7,0.2
				c0.2,0.1,0.4,0.2,0.7,0.2c1.1,0,1.7-0.3,2-1L880.2,197.8z M896.8,174.4c1.3-1.3,1.2-2.4-0.3-3.3c-1.3-0.9-2.5-0.8-3.6,0.3
				l-5.5,7.8c-0.7,1.3-0.4,2.5,0.7,3.6c0.2,0.2,0.7,0.3,1.3,0.3c0.9,0,1.5-0.3,2-1L896.8,174.4z M913.4,150.9
				c1.3-1.3,1.2-2.4-0.3-3.3c-1.5-0.7-2.7-0.4-3.6,0.7l-5.5,7.8c-0.7,1.1-0.4,2.2,0.7,3.3c0.2,0.2,0.7,0.3,1.3,0.3
				c1.1,0,1.7-0.3,2-1L913.4,150.9z"/>
		</g>
	</g>
	<circle cx="514.2" cy="417.2" r="13.2"/>
	<circle cx="303.8" cy="587.9" r="13.2"/>
	<circle cx="404.9" cy="567.7" r="13.2"/>
</g>
</svg>
