<?xml version="1.0" encoding="utf-8"?>
<!-- Generator: Adobe Illustrator 27.8.1, SVG Export Plug-In . SVG Version: 6.00 Build 0)  -->
<svg version="1.1" id="Layer_1" xmlns="http://www.w3.org/2000/svg" xmlns:xlink="http://www.w3.org/1999/xlink" x="0px" y="0px"
	 viewBox="0 0 1080 1080" style="enable-background:new 0 0 1080 1080;" xml:space="preserve">
<style type="text/css">
	.st0{fill-rule:evenodd;clip-rule:evenodd;}
	.st1{fill:#B62920;}
	.st2{fill:#EC1721;}
	.st3{fill:#20843F;}
</style>
<g>
	<g>
		<path class="st0" d="M691.9,207.99l-7.92-1.31c-3.28-0.56-6.31-4.18-6.78-8.1l-1.1-9.46c-0.47-3.92-1.22-3.92-1.67,0l-1.12,9.46
			c-0.45,3.91-3.48,7.54-6.78,8.1l-7.92,1.31c-3.28,0.56-3.28,1.46,0,1.99l7.92,1.34c3.3,0.53,6.33,4.16,6.78,8.1l1.12,9.46
			c0.45,3.91,1.2,3.91,1.67,0l1.1-9.46c0.47-3.94,3.5-7.56,6.78-8.1l7.92-1.34C695.18,209.45,695.18,208.55,691.9,207.99z"/>
		<path class="st0" d="M536.38,208.06l-7.37-1.22c-3.05-0.52-5.87-3.89-6.31-7.54l-1.02-8.81c-0.44-3.65-1.14-3.65-1.55,0
			l-1.04,8.81c-0.42,3.64-3.24,7.02-6.31,7.54l-7.37,1.22c-3.05,0.52-3.05,1.36,0,1.86l7.37,1.25c3.07,0.5,5.89,3.87,6.31,7.54
			l1.04,8.81c0.42,3.65,1.12,3.65,1.55,0l1.02-8.81c0.44-3.67,3.26-7.04,6.31-7.54l7.37-1.25
			C539.43,209.41,539.43,208.58,536.38,208.06z"/>
		<path class="st0" d="M429.23,249.63l-10.98-1.82c-4.55-0.78-8.75-5.8-9.4-11.24l-1.52-13.13c-0.65-5.43-1.69-5.43-2.32,0
			l-1.55,13.13c-0.62,5.43-4.83,10.46-9.4,11.24l-10.98,1.82c-4.55,0.78-4.55,2.02,0,2.77l10.98,1.86c4.57,0.74,8.78,5.77,9.4,11.24
			l1.55,13.13c0.62,5.43,1.67,5.43,2.32,0l1.52-13.13c0.65-5.47,4.86-10.49,9.4-11.24l10.98-1.86
			C433.78,251.66,433.78,250.41,429.23,249.63z"/>
		<path class="st0" d="M295.66,285.69l-7.17-1.19c-2.97-0.51-5.71-3.79-6.14-7.33l-1-8.57c-0.42-3.55-1.11-3.55-1.51,0l-1.01,8.57
			c-0.41,3.55-3.15,6.83-6.14,7.33l-7.17,1.19c-2.97,0.51-2.97,1.32,0,1.81l7.17,1.21c2.99,0.48,5.73,3.77,6.14,7.33l1.01,8.57
			c0.41,3.55,1.09,3.55,1.51,0l1-8.57c0.42-3.57,3.17-6.85,6.14-7.33l7.17-1.21C298.63,287.01,298.63,286.2,295.66,285.69z"/>
	</g>
	<g>
		<path class="st0" d="M335.98,823.53l-12.61-2.09c-5.22-0.89-10.05-6.66-10.79-12.9l-1.75-15.06c-0.75-6.24-1.94-6.24-2.66,0
			l-1.78,15.06c-0.71,6.23-5.54,12.01-10.79,12.9l-12.61,2.09c-5.22,0.89-5.22,2.32,0,3.18l12.61,2.13
			c5.25,0.85,10.08,6.62,10.79,12.9l1.78,15.07c0.71,6.24,1.91,6.24,2.66,0l1.75-15.07c0.75-6.27,5.57-12.04,10.79-12.9l12.61-2.13
			C341.2,825.86,341.2,824.42,335.98,823.53z"/>
		<path class="st0" d="M517.49,892.41l-10.98-1.82c-4.55-0.78-8.75-5.8-9.4-11.24l-1.52-13.13c-0.65-5.43-1.69-5.43-2.32,0
			l-1.55,13.13c-0.62,5.43-4.83,10.46-9.4,11.24l-10.98,1.82c-4.55,0.78-4.55,2.02,0,2.77l10.98,1.86c4.57,0.74,8.78,5.77,9.4,11.24
			l1.55,13.13c0.62,5.43,1.67,5.43,2.32,0l1.52-13.13c0.65-5.47,4.86-10.49,9.4-11.24l10.98-1.86
			C522.03,894.44,522.03,893.19,517.49,892.41z"/>
		<path class="st0" d="M769.98,652.3l-10.98-1.82c-4.55-0.78-8.75-5.8-9.4-11.24l-1.52-13.13c-0.65-5.43-1.69-5.43-2.32,0
			l-1.55,13.13c-0.62,5.43-4.83,10.46-9.4,11.24l-10.98,1.82c-4.55,0.78-4.55,2.02,0,2.77l10.98,1.86c4.57,0.74,8.78,5.77,9.4,11.24
			l1.55,13.13c0.62,5.43,1.67,5.43,2.32,0l1.52-13.13c0.65-5.47,4.86-10.49,9.4-11.24l10.98-1.86
			C774.52,654.33,774.52,653.08,769.98,652.3z"/>
		<path class="st0" d="M916.85,750.45l-10.98-1.82c-4.55-0.78-8.75-5.8-9.4-11.24l-1.53-13.13c-0.65-5.43-1.69-5.43-2.32,0
			l-1.55,13.13c-0.62,5.43-4.83,10.46-9.4,11.24l-10.98,1.82c-4.55,0.78-4.55,2.02,0,2.77l10.98,1.86c4.57,0.74,8.78,5.77,9.4,11.24
			l1.55,13.13c0.62,5.43,1.67,5.43,2.32,0l1.53-13.13c0.65-5.47,4.86-10.49,9.4-11.24l10.98-1.86
			C921.4,752.47,921.4,751.22,916.85,750.45z"/>
		<path class="st0" d="M965.1,598.72l-10.98-1.82c-4.55-0.78-8.75-5.8-9.4-11.24l-1.52-13.13c-0.65-5.43-1.69-5.43-2.32,0
			l-1.55,13.13c-0.62,5.43-4.83,10.46-9.4,11.24l-10.98,1.82c-4.55,0.78-4.55,2.02,0,2.77l10.98,1.86c4.57,0.74,8.78,5.77,9.4,11.24
			l1.55,13.13c0.62,5.43,1.67,5.43,2.32,0l1.52-13.13c0.65-5.47,4.86-10.49,9.4-11.24l10.98-1.86
			C969.65,600.74,969.65,599.49,965.1,598.72z"/>
		<path class="st0" d="M490.99,792.08l-10.98-1.82c-4.55-0.78-8.75-5.8-9.4-11.24l-1.52-13.13c-0.65-5.43-1.69-5.43-2.32,0
			l-1.55,13.13c-0.62,5.43-4.83,10.46-9.4,11.24l-10.99,1.82c-4.55,0.78-4.55,2.02,0,2.77l10.99,1.86c4.57,0.74,8.78,5.77,9.4,11.24
			l1.55,13.13c0.62,5.43,1.67,5.43,2.32,0l1.52-13.13c0.65-5.47,4.86-10.49,9.4-11.24l10.98-1.86
			C495.54,794.1,495.54,792.86,490.99,792.08z"/>
	</g>
	<path class="st1" d="M657.79,391.04c4.41-0.71,8.6,0.32,13.64-1.14c-8.08-2-15.2-3.41-21.75-6.6c-6.81-3.31-11.96-8.61-16.9-14.17
		c-4.75-5.34-8.84-11.1-11.63-17.74c7.56,6.33,14.93,12.75,24.98,15.15c0.04-2.49-2.41-3.31-2.65-5.53
		c2.39,0.12,3.96,1.42,5.76,2.02c0.83,0.28,1.74,0.88,2.31-0.33c1.19-2.5-1.06-8.2-3.6-9.37c-8.78-4-17.08-8.78-24.11-15.5
		c-3.79-3.62-6.8-7.78-8.74-13.75c9.31,5.47,18.27,8.67,28.31,8.47c-2.72-2.53-6.27-3.96-8.89-7.26c7.18,1.08,13.8,0.23,20.41-1.17
		c-7.09-1.83-14.23-3.11-21.05-5.58c-6.75-2.45-13.16-5.53-18.56-10.37c-5.68-5.09-10.6-13.71-10.4-18.14
		c18.61,9.89,24.25,11.87,30.76,10.54c-3.62-2.39-7.51-3.84-10.83-7.13c6.96-0.19,13.37,0.41,19.7-1.19
		c-0.58-1.11-1.55-1.08-2.4-1.34c-5.94-1.8-11.95-3.44-17.8-5.5c-6.73-2.37-13.25-5.3-18.94-9.72c-3.92-3.05-6.82-6.79-8.24-12.14
		c15.53,8.13,20.01,9.53,25.54,8.13c-0.97-2.17-4.04-1.96-5.14-4.43c4.73,0.22,9.21,0.8,13.62-0.51c-1.27-0.72-2.56-1.13-3.87-1.5
		c-7.11-1.98-14.29-3.8-20.92-7.12c-6.41-3.21-11.26-7.85-13.07-16.35c6.59,5.47,12.65,9.71,20.74,10.11
		c-0.64-2.51-3.79-2.09-4.39-4.53c1.92,0,3.58,0,5.24,0c1.66,0,3.31,0,4.97,0c-11.01-5.04-24.42-6.23-28.26-21.79
		c6.21,3.44,11.85,5.92,18.36,5.93c-0.35-1.58-2.16-1.34-2.33-3c2.78,0,5.51,0,8.25,0c-3.07-1.6-6.2-2.76-9.43-3.37
		c-7.75-1.48-12.31-6.15-14.35-13.58c-0.59-2.12-1.3-4.21-1.96-6.31c-1.57-4.98-3.14-9.95-4.74-15c-1.12,0.64-1.12,1.46-1.35,2.2
		c-2.18,6.91-4.4,13.81-6.59,20.72c-1.97,6.19-6.02,10.09-12.39,11.69c-3.56,0.89-7.04,2.13-10.56,3.21
		c1.8,0.72,3.48,0.87,5.13,0.69c2.85-0.31,2.12,1.18,1.17,2.77c6.23-0.56,11.61-2.64,17.43-5.94
		c-3.29,15.66-16.98,16.65-28.82,21.85c4.42,0,7.65,0,11.22,0c-1.08,2.16-3.55,2.35-4.33,4.58c7.91-0.48,13.55-5.37,20.07-9.75
		c-0.72,4.6-2.5,7.78-5.17,10.54c-4.57,4.72-10.33,7.31-16.44,9.26c-5.25,1.68-10.55,3.21-16.33,4.96c5.16,1.88,9.94,0.89,15.77,0.6
		c-3.06,2.05-5.04,3.38-7.94,5.33c10.46-0.06,18.51-3.3,26-9.4c-1.19,7.05-5.42,11.28-10.6,14.71c-6.53,4.32-13.75,7.23-21.19,9.58
		c-4.79,1.51-9.63,2.88-15.49,4.63c7.24,1.8,13.5,1.76,20.34,1.68c-3.17,3.58-7.22,4.65-10.82,7.9
		c12.18-0.59,21.44-6.02,31.16-12.62c-3.8,12.72-10.36,21.86-21.78,27.04c-4.85,2.2-9.92,3.78-15.11,4.97
		c-4.6,1.05-9.21,2.09-14.84,3.37c7.51,1.89,14.05,2.12,21.14,2.04c-2.51,3.21-6.24,3.93-8.86,7.06c10.2-0.83,19-3.8,27.18-8.93
		c0.79,2.02-0.3,3.18-0.91,4.36c-2.47,4.79-5.95,8.78-9.92,12.4c-9.34,8.51-20.67,13.2-32.43,17.12c-0.72,0.24-1.49,0.43-2.25,0.63
		c-0.38-0.32-0.77-0.62-1.14-0.95c-5.68-5.09-10.6-13.71-10.4-18.14c18.61,9.89,24.25,11.87,30.76,10.54
		c-3.62-2.39-7.51-3.84-10.83-7.13c6.96-0.19,13.37,0.41,19.7-1.19c-0.58-1.11-1.55-1.08-2.4-1.34c-5.94-1.8-11.95-3.44-17.8-5.5
		c-6.73-2.37-13.25-5.3-18.94-9.72c-3.92-3.05-6.82-6.79-8.24-12.14c15.53,8.13,20.01,9.53,25.54,8.13
		c-0.97-2.17-4.04-1.96-5.14-4.43c4.73,0.22,9.21,0.8,13.62-0.51c-1.27-0.72-2.56-1.13-3.87-1.5c-7.11-1.98-14.29-3.8-20.92-7.12
		c-6.41-3.21-11.26-7.85-13.07-16.35c6.59,5.47,12.65,9.71,20.74,10.11c-0.64-2.51-3.79-2.09-4.39-4.53c1.92,0,3.58,0,5.24,0
		c1.66,0,3.31,0,4.97,0c-11.01-5.04-24.42-6.23-28.26-21.79c6.21,3.44,11.85,5.92,18.36,5.93c-0.35-1.58-2.16-1.34-2.33-3
		c2.78,0,5.51,0,8.25,0c-3.07-1.6-6.2-2.76-9.43-3.37c-7.75-1.48-12.31-6.15-14.35-13.58c-0.59-2.12-1.3-4.21-1.96-6.31
		c-1.57-4.98-3.14-9.95-4.74-15c-1.12,0.64-1.12,1.46-1.35,2.2c-2.18,6.91-4.4,13.81-6.59,20.72c-1.97,6.19-6.02,10.09-12.39,11.69
		c-3.56,0.89-7.04,2.13-10.56,3.21c1.8,0.72,3.48,0.87,5.13,0.69c2.85-0.31,2.12,1.18,1.17,2.77c6.23-0.56,11.61-2.64,17.43-5.94
		c-3.29,15.66-16.98,16.65-28.82,21.85c4.42,0,7.65,0,11.22,0c-1.08,2.16-3.55,2.35-4.33,4.58c7.91-0.48,13.55-5.37,20.07-9.75
		c-0.72,4.6-2.5,7.78-5.17,10.54c-4.57,4.72-10.33,7.31-16.44,9.26c-5.25,1.68-10.55,3.21-16.33,4.96c5.16,1.88,9.94,0.89,15.77,0.6
		c-3.06,2.05-5.04,3.38-7.94,5.33c10.46-0.06,18.51-3.3,26-9.4c-1.19,7.05-5.42,11.28-10.6,14.71c-6.53,4.32-13.75,7.23-21.19,9.58
		c-4.79,1.51-9.63,2.88-15.49,4.63c7.24,1.8,13.5,1.76,20.34,1.68c-3.17,3.58-7.22,4.65-10.82,7.9
		c12.18-0.59,21.44-6.02,31.16-12.62c-3.8,12.72-10.36,21.86-21.78,27.04c-4.85,2.2-9.92,3.78-15.11,4.97
		c-4.6,1.05-9.21,2.09-14.84,3.37c7.51,1.89,14.05,2.12,21.14,2.04c-2.51,3.21-6.24,3.93-8.86,7.06c10.2-0.83,19-3.8,27.18-8.93
		c0.79,2.02-0.3,3.18-0.91,4.36c-2.47,4.79-5.95,8.78-9.92,12.4c-9.34,8.51-20.67,13.2-32.43,17.12c-2.07,0.69-4.42,0.82-6.35,2.59
		c2.58,0.65,4.7-0.38,6.9-0.36c0.69,0.01,1.99-0.46,1.76,0.68c-0.83,4,2.19,2.46,3.61,2.39c2.1-0.09,4.17-0.85,6.35-1.35
		c-0.7,4.58-0.48,4.77,3.57,3.18c1.08-0.43,2.14-0.92,3.2-1.4c6.76-3.06,12.42-7.72,18.19-12.36c-4.63,9.51-10.92,17.76-18.31,25.24
		c-0.32,0.32-0.66,0.57-0.99,0.87c-5.35-1.26-10.68-2.44-15.84-4.31c-6.75-2.45-13.16-5.53-18.56-10.37
		c-5.68-5.09-10.6-13.71-10.4-18.14c18.61,9.89,24.25,11.87,30.76,10.54c-3.62-2.39-7.51-3.84-10.83-7.13
		c6.96-0.19,13.37,0.41,19.7-1.19c-0.58-1.11-1.54-1.08-2.4-1.34c-5.94-1.8-11.95-3.44-17.8-5.5c-6.73-2.37-13.25-5.3-18.94-9.73
		c-3.92-3.05-6.82-6.79-8.24-12.14c15.53,8.13,20.01,9.53,25.54,8.13c-0.97-2.17-4.04-1.96-5.14-4.43c4.73,0.22,9.21,0.8,13.62-0.51
		c-1.27-0.72-2.56-1.13-3.87-1.5c-7.11-1.98-14.29-3.8-20.92-7.12c-6.41-3.21-11.26-7.85-13.07-16.35
		c6.59,5.47,12.65,9.71,20.74,10.11c-0.64-2.51-3.79-2.09-4.39-4.53c1.92,0,3.58,0,5.24,0c1.66,0,3.31,0,4.97,0
		c-11.01-5.04-24.42-6.23-28.26-21.79c6.21,3.44,11.85,5.92,18.36,5.93c-0.35-1.58-2.16-1.34-2.33-3c2.78,0,5.51,0,8.25,0
		c-3.07-1.6-6.2-2.76-9.43-3.38c-7.75-1.48-12.31-6.15-14.35-13.58c-0.58-2.12-1.3-4.21-1.96-6.31c-1.57-4.98-3.14-9.95-4.74-15
		c-1.12,0.64-1.12,1.46-1.35,2.2c-2.18,6.91-4.4,13.81-6.59,20.72c-1.97,6.19-6.02,10.09-12.39,11.69
		c-3.56,0.89-7.04,2.13-10.56,3.21c1.8,0.72,3.48,0.87,5.13,0.69c2.85-0.31,2.12,1.18,1.17,2.77c6.23-0.56,11.61-2.64,17.43-5.94
		c-3.29,15.66-16.98,16.65-28.82,21.85c4.42,0,7.65,0,11.22,0c-1.08,2.16-3.55,2.35-4.33,4.58c7.91-0.48,13.55-5.37,20.07-9.75
		c-0.72,4.6-2.5,7.78-5.17,10.54c-4.57,4.71-10.33,7.31-16.44,9.26c-5.25,1.68-10.55,3.21-16.33,4.96c5.16,1.88,9.94,0.89,15.76,0.6
		c-3.06,2.05-5.04,3.38-7.94,5.33c10.46-0.06,18.51-3.3,26-9.4c-1.19,7.05-5.42,11.28-10.6,14.71c-6.53,4.32-13.75,7.23-21.19,9.58
		c-4.79,1.51-9.63,2.88-15.49,4.63c7.24,1.8,13.5,1.76,20.34,1.68c-3.17,3.58-7.22,4.65-10.82,7.9
		c12.18-0.59,21.44-6.02,31.16-12.62c-3.8,12.72-10.36,21.86-21.78,27.04c-4.85,2.2-9.92,3.78-15.11,4.97
		c-4.47,1.02-8.96,2.04-14.38,3.26c-0.56-0.5-1.27-0.54-1.92-0.73c-5.94-1.8-11.95-3.44-17.8-5.5c-6.73-2.37-13.25-5.3-18.94-9.73
		c-3.92-3.05-6.82-6.79-8.24-12.14c15.53,8.13,20.01,9.53,25.54,8.13c-0.97-2.17-4.04-1.96-5.14-4.43c4.73,0.22,9.21,0.8,13.62-0.51
		c-1.27-0.72-2.56-1.13-3.87-1.5c-7.11-1.98-14.29-3.8-20.92-7.12c-6.41-3.21-11.26-7.85-13.07-16.35
		c6.59,5.47,12.65,9.71,20.74,10.11c-0.64-2.51-3.79-2.09-4.39-4.53c1.92,0,3.58,0,5.24,0c1.66,0,3.31,0,4.97,0
		c-11.01-5.04-24.42-6.23-28.26-21.79c6.21,3.44,11.85,5.92,18.36,5.93c-0.35-1.58-2.16-1.34-2.33-3c2.78,0,5.51,0,8.25,0
		c-3.07-1.6-6.2-2.76-9.43-3.38c-7.75-1.48-12.31-6.15-14.35-13.58c-0.58-2.12-1.3-4.21-1.96-6.31c-1.57-4.98-3.14-9.95-4.74-15
		c-1.12,0.64-1.12,1.46-1.35,2.2c-2.18,6.91-4.4,13.81-6.59,20.72c-1.97,6.19-6.02,10.09-12.39,11.69
		c-3.56,0.89-7.04,2.13-10.56,3.21c1.8,0.72,3.48,0.87,5.13,0.69c2.85-0.31,2.12,1.18,1.17,2.77c6.23-0.56,11.61-2.64,17.43-5.94
		c-3.29,15.66-16.98,16.65-28.82,21.85c4.42,0,7.65,0,11.22,0c-1.08,2.16-3.55,2.35-4.33,4.58c7.91-0.48,13.55-5.37,20.07-9.75
		c-0.72,4.6-2.5,7.78-5.17,10.54c-4.57,4.71-10.33,7.31-16.44,9.26c-5.25,1.68-10.55,3.21-16.33,4.96c5.16,1.88,9.94,0.89,15.77,0.6
		c-3.06,2.05-5.04,3.38-7.94,5.33c10.46-0.06,18.51-3.3,26-9.4c-1.19,7.05-5.42,11.28-10.6,14.71c-6.53,4.32-13.75,7.23-21.19,9.58
		c-4.79,1.51-9.63,2.88-15.49,4.63c7.24,1.8,13.5,1.76,20.34,1.68c-3.17,3.58-7.22,4.65-10.82,7.9
		c12.18-0.59,21.44-6.02,31.16-12.62c-3.8,12.72-10.36,21.86-21.78,27.04c-4.85,2.2-9.92,3.78-15.11,4.97
		c-4.6,1.05-9.21,2.09-14.84,3.37c7.5,1.89,14.05,2.12,21.14,2.04c-2.51,3.21-6.24,3.93-8.86,7.06c10.2-0.83,19-3.8,27.18-8.93
		c0.79,2.02-0.3,3.18-0.91,4.36c-2.47,4.79-5.95,8.78-9.92,12.4c-9.34,8.51-20.67,13.2-32.43,17.12c-2.07,0.69-4.42,0.83-6.35,2.59
		c2.58,0.65,4.7-0.38,6.9-0.36c0.69,0.01,1.99-0.46,1.76,0.68c-0.83,4,2.19,2.46,3.61,2.39c2.1-0.09,4.17-0.85,6.35-1.35
		c-0.7,4.58-0.48,4.77,3.57,3.18c1.08-0.43,2.14-0.92,3.2-1.4c6.76-3.06,12.42-7.72,18.19-12.36c-4.63,9.51-10.92,17.76-18.31,25.24
		c-7.73,7.82-18.38,9.36-28.04,13.11c4.02,0.29,8.04,0.58,12.66,0.91c-3.4,3.04-6.23,5.57-9.68,8.66
		c11.29-1.01,20.46-5.38,29.6-9.92c-3.33,4.74-6.79,9.19-10.6,13.68c8.82-3.41,17.64-6.82,26.46-10.23c-3.32,5.55-7.9,9.51-12.9,13
		c-4.9,3.42-10.1,6.37-15.5,8.93c-5.35,2.54-10.78,4.9-17.15,7.78c5.07,0.96,8.84-0.84,13.08-0.66c-1.24,1.79-3.21,2.13-4,4.24
		c10.48-0.17,18.58-4.97,26.64-12.04c-1.96,5.25-4.81,8.56-7.62,12.58c4.95-1.02,8.18-4.11,12.41-6.38
		c-0.91,2.03-1.6,3.57-2.73,6.11c3.2-1.93,5.42-3.27,8.19-4.94c-2.11,3.84-5.11,6.3-6.51,10.95c10.15-4.7,17.25-11.89,25.14-18.25
		c-2.65,5.23-5.3,10.46-7.96,15.68c0.38,0.2,0.75,0.39,1.13,0.59c7.38-6.96,10.28-16.78,15.37-26.06c0,14.14,0.01,27.38,0,40.63
		c0,3.54,1.06,6.4,4.74,7.62c6.65,2.2,11.57-1.19,11.61-8.14c0.07-12.08,0.01-24.16,0.05-36.24c0-0.9-0.63-2.03,0.77-2.94
		c3.03,5.49,5.87,10.99,9.04,16.3c5.21,8.75,8.53,12.39,12.05,13.61c-1.01-3.5-2.55-6.58-4.49-9.48c-1.89-2.84-3.73-5.7-5.59-8.55
		c12.31,12.49,21.27,19.61,26.08,19.97c-3.61-5.16-7.18-10.25-10.75-15.35c3.48,1.08,4.95,4.54,8.82,5.63
		c-1.43-2.68-2.57-4.83-4.2-7.89c5.09,3.12,9.07,5.98,14.52,7.7c-3.09-4.27-5.91-7.79-8.13-12.65
		c14.69,11.78,22.04,11.58,26.94,11.19c-0.82-2.19-3.86-2.06-4.75-4.62c4.4,0.14,8.48,2.35,13.78,0.99
		c-9.39-3.54-17.52-7.47-25.4-11.92c-8.02-4.52-15.17-10.04-20.76-17.5c8.95,2.9,17.42,6.92,27.45,10.02
		c-4.33-4.64-7.89-8.51-10.8-12.99c0.23-0.02,0.46-0.02,0.69-0.05c1.54,0.75,3.08,1.49,4.63,2.2c-0.28,0.34-0.53,0.72-0.72,1.2
		c1-0.02,1.97-0.11,2.93-0.21c6.82,2.98,13.95,5.39,22.1,6.31c-3.58-3.33-7.24-5.37-9.88-8.99c2.19-0.35,4.33-0.27,6.55-0.29
		c-0.87,1.23-1.77,2.44-2.67,3.72c3.62-0.75,6.32-2.6,9.16-4.43c0.2-0.05,0.4-0.08,0.61-0.14c-0.09-0.02-0.18-0.04-0.28-0.07
		c0.94-0.6,1.9-1.19,2.91-1.74c-0.91,2.03-1.6,3.57-2.73,6.11c3.2-1.93,5.42-3.27,8.19-4.94c-2.11,3.84-5.11,6.3-6.51,10.95
		c10.15-4.7,17.25-11.89,25.14-18.25c-2.65,5.23-5.3,10.46-7.96,15.68c0.38,0.2,0.75,0.39,1.13,0.59
		c7.38-6.96,10.28-16.78,15.37-26.06c0,14.14,0.01,27.38,0,40.63c0,3.54,1.06,6.4,4.74,7.62c6.65,2.2,11.57-1.19,11.61-8.14
		c0.07-12.08,0.01-24.16,0.05-36.24c0-0.9-0.63-2.03,0.77-2.94c3.03,5.49,5.87,10.99,9.04,16.3c5.21,8.75,8.53,12.39,12.05,13.61
		c-1.01-3.5-2.55-6.58-4.49-9.48c-1.89-2.84-3.73-5.7-5.59-8.55c12.31,12.49,21.27,19.61,26.08,19.97
		c-3.61-5.15-7.18-10.25-10.75-15.35c3.48,1.08,4.95,4.54,8.82,5.63c-1.43-2.68-2.57-4.83-4.2-7.89c5.09,3.12,9.07,5.98,14.52,7.7
		c-3.09-4.27-5.91-7.79-8.13-12.65c14.69,11.78,22.04,11.58,26.94,11.19c-0.82-2.19-3.86-2.06-4.75-4.62
		c4.4,0.14,8.48,2.36,13.78,0.99c-9.39-3.54-17.52-7.47-25.4-11.92c-8.02-4.52-15.17-10.04-20.76-17.5
		c8.95,2.9,17.42,6.92,27.45,10.02c-4.52-4.85-8.22-8.83-11.19-13.56c9.31,4.61,18.69,8.75,30.02,10.03
		c-3.58-3.33-7.24-5.37-9.88-8.99c4.41-0.71,8.6,0.32,13.64-1.14c-8.08-2-15.2-3.41-21.75-6.6c-5.84-2.84-10.46-7.15-14.77-11.82
		c10.33-0.26,18.36-5.02,26.35-12.02c-1.96,5.25-4.81,8.56-7.62,12.58c4.95-1.02,8.18-4.11,12.41-6.38
		c-0.91,2.03-1.6,3.57-2.74,6.11c3.2-1.93,5.42-3.27,8.19-4.94c-2.11,3.84-5.11,6.3-6.51,10.95c10.15-4.7,17.25-11.89,25.14-18.25
		c-2.65,5.23-5.3,10.46-7.96,15.68c0.38,0.2,0.76,0.39,1.13,0.59c7.38-6.96,10.28-16.78,15.37-26.06c0,14.14,0.01,27.38,0,40.63
		c0,3.54,1.06,6.4,4.74,7.62c6.65,2.2,11.57-1.19,11.61-8.14c0.07-12.08,0.01-24.16,0.05-36.25c0-0.9-0.63-2.03,0.77-2.94
		c3.03,5.49,5.87,10.99,9.04,16.3c5.21,8.75,8.53,12.39,12.05,13.61c-1.01-3.5-2.55-6.58-4.49-9.48c-1.89-2.84-3.73-5.7-5.59-8.55
		c12.31,12.49,21.27,19.61,26.08,19.97c-3.61-5.15-7.18-10.25-10.75-15.35c3.48,1.08,4.95,4.54,8.82,5.63
		c-1.43-2.68-2.57-4.83-4.2-7.89c5.09,3.12,9.07,5.98,14.52,7.7c-3.09-4.27-5.91-7.79-8.13-12.65
		c14.69,11.78,22.04,11.58,26.94,11.19c-0.82-2.19-3.86-2.06-4.75-4.62c4.4,0.14,8.48,2.36,13.78,0.99
		c-9.39-3.54-17.52-7.47-25.4-11.92c-8.02-4.52-15.17-10.04-20.76-17.5c8.95,2.9,17.42,6.92,27.45,10.02
		c-4.52-4.85-8.22-8.83-11.19-13.56c9.31,4.61,18.69,8.75,30.02,10.03c-3.58-3.33-7.24-5.37-9.88-8.99
		c4.41-0.71,8.6,0.32,13.64-1.14c-8.08-2-15.2-3.41-21.75-6.6c-3.36-1.63-6.31-3.75-9.04-6.15c4.9-1.04,8.11-4.1,12.32-6.35
		c-0.91,2.03-1.6,3.57-2.74,6.11c3.2-1.93,5.42-3.27,8.19-4.94c-2.11,3.84-5.11,6.3-6.51,10.95c10.15-4.7,17.25-11.89,25.14-18.25
		c-2.65,5.23-5.3,10.46-7.96,15.68c0.38,0.2,0.76,0.39,1.13,0.59c7.38-6.96,10.28-16.78,15.37-26.06c0,14.14,0.01,27.38,0,40.63
		c0,3.54,1.06,6.4,4.74,7.62c6.65,2.2,11.57-1.19,11.61-8.14c0.07-12.08,0.01-24.16,0.05-36.24c0-0.9-0.63-2.03,0.77-2.94
		c3.03,5.49,5.87,10.99,9.04,16.3c5.21,8.75,8.53,12.39,12.05,13.61c-1.01-3.5-2.55-6.58-4.49-9.48c-1.89-2.84-3.73-5.7-5.59-8.55
		c12.31,12.49,21.27,19.61,26.08,19.97c-3.61-5.15-7.18-10.25-10.75-15.35c3.48,1.08,4.95,4.54,8.82,5.63
		c-1.43-2.68-2.57-4.83-4.2-7.89c5.09,3.12,9.07,5.98,14.52,7.7c-3.09-4.27-5.91-7.79-8.13-12.65
		c14.69,11.78,22.04,11.58,26.94,11.19c-0.82-2.19-3.86-2.06-4.75-4.62c4.4,0.14,8.48,2.35,13.78,0.99
		c-9.39-3.54-17.52-7.47-25.4-11.92c-8.02-4.52-15.17-10.04-20.76-17.5c8.95,2.9,17.42,6.92,27.45,10.02
		c-4.52-4.85-8.22-8.83-11.19-13.56c9.31,4.61,18.69,8.75,30.02,10.03C664.09,396.69,660.43,394.65,657.79,391.04z M255.3,462.83
		c9.31,5.47,18.27,8.67,28.31,8.47c-1.71-1.6-3.76-2.76-5.69-4.22c0.89-0.15,1.76-0.31,2.64-0.31c0.69,0.01,1.99-0.46,1.76,0.68
		c-0.83,4,2.19,2.46,3.61,2.39c2.1-0.09,4.17-0.85,6.35-1.35c-0.7,4.58-0.48,4.77,3.57,3.18c1.08-0.43,2.14-0.92,3.2-1.4
		c6.76-3.06,12.42-7.72,18.19-12.36c-4.63,9.51-10.92,17.76-18.31,25.24c-3.76,3.8-8.21,6.11-12.9,7.92
		c-7.99-3.8-15.52-8.33-21.98-14.5C260.25,472.96,257.23,468.8,255.3,462.83z M274.71,464.04c1.82,0.27,3.61,0.42,5.37,0.47
		c-0.03,0.01-0.05,0.02-0.08,0.03c-1.21,0.4-2.51,0.65-3.77,1.11C275.7,465.16,275.19,464.64,274.71,464.04z M302.12,526.3
		c2.5-1.65,4.94-3.54,7.37-5.67c-0.97,2.58-2.15,4.7-3.43,6.66C304.71,526.96,303.4,526.63,302.12,526.3z M306.42,512.38
		c-4.9,3.42-10.1,6.37-15.5,8.93c-0.43,0.2-0.86,0.4-1.29,0.6c-6.68-3.32-11.77-8.55-16.65-14.03c-4.75-5.34-8.84-11.1-11.63-17.74
		c5.31,4.44,10.54,8.89,16.64,12c-1.33,1.19-2.68,2.4-4.14,3.7c3.16-0.28,6.14-0.85,9.01-1.59c1.12,0.39,2.27,0.74,3.47,1.03
		c0.01-0.74-0.2-1.32-0.51-1.84c1.42-0.44,2.82-0.93,4.19-1.45c0.65,0.24,1.29,0.39,1.73-0.54c0.02-0.05,0.02-0.11,0.04-0.16
		c3.99-1.61,7.84-3.46,11.67-5.37c-3.33,4.74-6.79,9.19-10.6,13.68c8.82-3.41,17.64-6.82,26.46-10.23
		C315.99,504.93,311.42,508.89,306.42,512.38z M322.35,435.03c-2.47,4.79-5.95,8.78-9.92,12.4c-6.97,6.35-15.05,10.57-23.59,13.93
		c-4.99-1.17-9.96-2.32-14.77-4.06c-6.75-2.45-13.16-5.53-18.56-10.37c-5.68-5.09-10.6-13.71-10.4-18.14
		c18.61,9.89,24.25,11.87,30.76,10.54c-3.62-2.39-7.51-3.84-10.83-7.13c6.96-0.19,13.37,0.41,19.7-1.19
		c-0.08-0.16-0.19-0.25-0.29-0.37c7.23,1.74,13.61,1.98,20.49,1.9c-2.51,3.21-6.24,3.93-8.86,7.06c10.2-0.83,19-3.8,27.18-8.93
		C324.04,432.69,322.95,433.85,322.35,435.03z M416.23,431.24c-2.29,1.56-4.72,2.81-7.25,3.85c-1.63-1.12-3.25-2.33-4.62-4.06
		C408.46,431.65,412.38,431.62,416.23,431.24z M384.94,429.83c6.05,3.56,11.96,6.13,18.11,7.45c-3.52,1.16-7.1,2.22-10.55,3.56
		c4.02,0.29,8.04,0.58,12.66,0.91c-2.36,2.11-4.45,3.98-6.66,5.96c-1.66-1.3-3.27-2.67-4.82-4.14
		C389.89,439.95,386.88,435.79,384.94,429.83z M391,457.13c5.01,4.19,9.96,8.4,15.63,11.48c-2.17,0.98-4.38,1.97-6.72,3.02
		C396.34,467.2,393.24,462.45,391,457.13z M404.58,477.02c-0.65-0.71-1.3-1.43-1.95-2.15c-0.34-0.38-0.65-0.78-0.98-1.17
		c2.32-0.31,4.51-0.79,6.82-0.7C407.28,474.73,405.42,475.12,404.58,477.02z M428.04,456.95c-2.5,1.75-5.08,3.36-7.72,4.87
		c-0.7-1.28-1.59-2.33-2.53-2.75c-5.89-2.69-11.55-5.74-16.77-9.47c8.84-1.71,16.47-5.33,24.07-9.11
		c-3.33,4.74-6.79,9.19-10.6,13.68c8.82-3.41,17.64-6.82,26.46-10.23C437.62,449.5,433.04,453.46,428.04,456.95z M522.42,362.77
		c-0.7,4.58-0.48,4.77,3.57,3.18c1.08-0.43,2.14-0.92,3.2-1.4c6.76-3.06,12.42-7.72,18.19-12.36c-3.45,7.09-7.83,13.48-12.9,19.37
		c-3.09-0.77-6.16-1.61-9.16-2.7c-3.56-1.29-7.02-2.77-10.29-4.58c0.38-0.08,0.74-0.15,1.03-0.17
		C518.17,364.02,520.24,363.27,522.42,362.77z M521.08,415.58c-0.02,0.01-0.03,0.01-0.05,0.02c-3.37-4.26-6.28-8.82-8.42-13.9
		c4.65,3.89,9.24,7.82,14.42,10.82C525.08,413.59,523.1,414.62,521.08,415.58z M523.62,394.88c3.4-1.44,6.71-3.05,10-4.69
		c-1.81,2.58-3.67,5.06-5.59,7.51C526.53,396.81,525.05,395.88,523.62,394.88z M513.51,386.31c-2.95-3.2-5.33-6.93-6.95-11.91
		c5.74,3.37,11.34,5.87,17.14,7.25C520.51,383.64,517.06,385.08,513.51,386.31z M525.98,375.61c1.49,0.22,2.95,0.35,4.4,0.42
		c-0.44,0.46-0.85,0.95-1.3,1.4c-0.22,0.22-0.46,0.39-0.68,0.59C527.54,377.32,526.72,376.54,525.98,375.61z M510.71,361.04
		c0.69,0.01,1.99-0.46,1.76,0.68c-0.08,0.38-0.09,0.67-0.11,0.96c-0.8-0.51-1.58-1.05-2.35-1.61
		C510.24,361.05,510.47,361.04,510.71,361.04z M532.07,427.42c-1.51-1.33-2.94-2.74-4.34-4.19c3.34-1.68,6.52-3.87,9.65-6.44
		c0.07,0.02,0.14,0.04,0.21,0.06c0-0.08-0.02-0.14-0.02-0.22c0.69-0.57,1.38-1.13,2.07-1.74
		C537.69,420.12,534.87,423.43,532.07,427.42z M540.04,404.07c-0.21-0.16-0.42-0.33-0.63-0.43c-2.36-1.07-4.67-2.21-6.94-3.42
		c5.67-2.19,11.34-4.38,17.01-6.57C546.94,397.88,543.67,401.19,540.04,404.07z"/>
	<g>
		<path class="st2" d="M733.53,341.35c-4.97-4.46-12.55-4.11-16.94,0.77c-4.39,4.89-3.91,12.46,1.06,16.92
			c4.97,4.46,12.55,4.11,16.94-0.77C738.97,353.39,738.5,345.81,733.53,341.35z"/>
		<path class="st2" d="M740.26,368.2c-4.97-4.46-12.55-4.11-16.94,0.77c-4.38,4.89-3.91,12.46,1.06,16.92
			c4.97,4.46,12.55,4.11,16.94-0.77C745.7,380.24,745.23,372.66,740.26,368.2z"/>
		<path class="st2" d="M760.68,349.74c-4.97-4.46-12.55-4.11-16.94,0.77c-4.38,4.89-3.91,12.46,1.06,16.92
			c4.97,4.46,12.55,4.11,16.94-0.77C766.12,361.78,765.65,354.2,760.68,349.74z"/>
		<path class="st3" d="M735.5,334.26c2.83,3.79,4.36,8.13,4.66,12.48c0.09,1.35,1.84,1.85,2.62,0.76
			c2.17-3.03,5.65-7.14,10.68-11.14c4.61-3.66,9.93-5.98,15.31-7.45c1.1-0.3,1.4-1.66,0.58-2.47c-0.99-0.98-1.93-2.05-2.78-3.19
			c-6.16-8.19-7.11-18.62-3.39-27.28c0.34-0.79-0.11-1.71-0.95-1.96c-8.88-2.61-19.94-8.88-25.29-17.46
			c-0.66-1.06-2.26-0.93-2.63,0.25c-1.38,4.39-4.09,8.38-8.06,11.33c-2.73,2.02-5.92,3.2-9.14,3.78c-1.18,0.21-1.59,1.66-0.71,2.5
			c0.99,0.94,1.92,1.97,2.71,3.02c5.79,7.7,5.93,17.96,1.41,25.71c-0.51,0.87,0,1.97,0.99,2.18
			C724.74,326.03,730.9,328.11,735.5,334.26z M740.89,298.14c-0.82-4.03-1.79-8.04-2.74-12.16c2.3,3.57,4.05,7.47,5.4,11.48
			c1.35,4.02,2.31,8.18,2.84,12.38c0.54,4.2,0.64,8.45,0.33,12.66c-0.31,4.2-1.05,8.36-2.41,12.33c-0.1-4.21-0.15-8.32-0.36-12.41
			c-0.21-4.09-0.58-8.15-1.08-12.19C742.36,306.2,741.71,302.17,740.89,298.14z"/>
		<path class="st3" d="M816.03,353.52c0.67-9.16,4.45-21.12,11.74-27.92c0.9-0.84,0.43-2.38-0.81-2.53
			c-4.6-0.55-9.11-2.49-12.85-5.83c-2.57-2.3-4.41-5.22-5.67-8.26c-0.46-1.12-1.97-1.25-2.6-0.24c-0.71,1.14-1.53,2.24-2.39,3.2
			c-6.32,7.06-16.37,9.06-24.94,6.04c-0.96-0.34-1.94,0.35-1.93,1.37c0.02,3.29-0.71,9.69-5.77,15.31
			c-3.12,3.46-7.05,5.74-11.27,6.82c-1.3,0.33-1.42,2.14-0.18,2.7c3.44,1.58,8.23,4.23,13.22,8.43c4.58,3.85,8,8.63,10.59,13.64
			c0.53,1.02,1.93,1.07,2.55,0.12c0.75-1.15,1.6-2.25,2.54-3.3c6.72-7.51,16.76-10.33,26.06-8.26
			C815.16,355,815.96,354.38,816.03,353.52z M808.18,335.22c-3.63,2.11-7.47,3.86-11.47,5.2c-3.99,1.36-8.13,2.29-12.32,2.81
			c-4.18,0.52-8.43,0.62-12.63,0.08c4.1-0.92,8.11-1.78,12.07-2.79c3.96-1,7.84-2.17,11.69-3.45c3.84-1.3,7.63-2.73,11.38-4.31
			c3.75-1.59,7.46-3.33,11.27-5.06C815.21,330.64,811.8,333.11,808.18,335.22z"/>
	</g>
	<g>
		<path d="M184.17,927.06c-3.88-3.35-6.87-7.05-8.95-11.07c-2.08-4.03-3.1-8.38-3.04-13.06c0.05-4.67,1.27-9.65,3.66-14.93
			c2.39-5.28,6.11-10.85,11.17-16.71c6.23-7.21,12.68-12.46,19.36-15.74c6.67-3.27,13.22-4.5,19.65-3.66
			c6.42,0.83,12.34,3.59,17.74,8.25c5.76,4.97,9.51,10.43,11.24,16.37c1.74,5.94,1.47,12.23-0.8,18.88
			c-2.27,6.65-6.47,13.52-12.59,20.61c-6.54,7.57-13.19,12.98-19.96,16.24c-6.77,3.25-13.33,4.39-19.69,3.42
			C195.6,934.68,189.67,931.81,184.17,927.06z M198.18,878.57c-8.58,9.93-13.66,18.74-15.23,26.42c-1.58,7.68,0.42,13.92,5.98,18.73
			c3.53,3.04,7.49,4.51,11.89,4.38c4.4-0.12,9.09-1.82,14.06-5.1c4.97-3.27,9.96-7.8,14.97-13.6c6.09-7.05,10.42-13.52,12.99-19.41
			c2.57-5.88,3.52-10.96,2.84-15.21c-0.68-4.26-2.66-7.81-5.96-10.66c-2.91-2.52-6-3.99-9.26-4.44c-3.26-0.45-6.66-0.01-10.2,1.31
			c-3.54,1.32-7.16,3.49-10.87,6.5C205.69,870.51,201.95,874.2,198.18,878.57z"/>
		<path d="M328.25,919.46l-10.01,16.58l-5.38-3.25c0.7-2.97,1.13-5.46,1.31-7.45c0.18-1.99,0.1-3.64-0.24-4.94s-0.96-2.45-1.85-3.44
			c-0.9-0.99-2.25-2.03-4.04-3.11l-16.08-9.71l-18.03,29.87l11.31,6.83c1.61,0.97,3.03,1.47,4.27,1.49
			c1.23,0.02,2.53-0.41,3.89-1.29c1.35-0.88,3.09-2.45,5.21-4.72l5.16,3.12l-13.99,23.17l-5.16-3.12c0.95-2.82,1.5-5.05,1.64-6.69
			c0.14-1.64-0.06-2.98-0.6-4.03c-0.54-1.05-1.65-2.08-3.33-3.1l-11.31-6.83l-12.99,21.52c-1.33,2.2-2.26,4.03-2.8,5.5
			c-0.54,1.47-0.75,2.77-0.63,3.89c0.12,1.12,0.56,2.17,1.32,3.15c0.76,0.98,1.77,2.08,3.03,3.29l-1.63,2.69l-24.37-14.72l1.62-2.69
			c2.62,0.78,4.53,1.05,5.73,0.8c1.2-0.25,2.32-0.96,3.35-2.14c1.03-1.17,2.37-3.11,4-5.82l28.67-47.49
			c1.52-2.53,2.54-4.42,3.06-5.68c0.51-1.26,0.75-2.34,0.72-3.24c-0.04-0.89-0.28-1.75-0.75-2.55c-0.46-0.81-1.39-1.95-2.79-3.44
			l1.62-2.69L328.25,919.46z"/>
		<path d="M355.84,932.61l65.91,21.69l-6.98,21.2l-5.97-1.96c0.26-3.79,0.28-6.84,0.08-9.16c-0.21-2.32-0.62-4.16-1.25-5.54
			c-0.63-1.38-1.43-2.47-2.4-3.29c-0.97-0.81-2.57-1.59-4.81-2.32l-7.74-2.55l-20.53,62.37c-0.79,2.4-1.29,4.35-1.49,5.85
			c-0.2,1.51-0.17,2.77,0.11,3.78c0.27,1.01,0.8,1.91,1.58,2.68c0.78,0.78,2.09,1.71,3.94,2.82l-0.98,2.99l-27.84-9.16l0.98-2.99
			c1.31,0.12,2.49,0.17,3.53,0.15c1.04-0.02,1.93-0.16,2.67-0.44c0.74-0.27,1.43-0.71,2.05-1.32c0.63-0.6,1.26-1.5,1.9-2.68
			c0.64-1.19,1.36-3,2.16-5.43l20.53-62.37l-7.68-2.53c-1.91-0.63-3.54-0.96-4.9-1.01c-1.36-0.04-2.76,0.34-4.19,1.15
			c-1.44,0.81-2.94,2.14-4.52,3.98c-1.58,1.85-3.28,4.27-5.12,7.26l-6.03-1.99L355.84,932.61z"/>
		<path d="M484.98,1035.83c-0.33,2.46-0.52,4.31-0.56,5.56c-0.04,1.25,0.04,2.26,0.24,3.04c0.2,0.78,0.47,1.43,0.84,1.96
			c0.36,0.52,0.91,1.03,1.64,1.52s1.9,1.05,3.49,1.7l-0.42,3.11l-26.63-3.6L464,1046c2.41-0.28,4.13-0.72,5.16-1.31
			c1.03-0.59,1.82-1.61,2.38-3.04c0.56-1.43,1.08-3.91,1.55-7.43l3.6-26.63l-35.33-4.77l-3.6,26.63c-0.38,2.84-0.57,4.93-0.55,6.27
			c0.01,1.34,0.19,2.42,0.53,3.24c0.34,0.82,0.91,1.55,1.71,2.17c0.8,0.63,2.14,1.32,4.02,2.1l-0.42,3.11l-26.76-3.61l0.42-3.11
			c2.72-0.32,4.58-0.84,5.58-1.55c1-0.71,1.74-1.8,2.22-3.29c0.48-1.49,0.93-3.8,1.36-6.93l7.42-54.97
			c0.39-2.92,0.58-5.07,0.54-6.43c-0.03-1.36-0.24-2.45-0.63-3.26c-0.39-0.81-0.95-1.49-1.7-2.04c-0.74-0.55-2.05-1.24-3.93-2.05
			l0.42-3.12l26.76,3.61l-0.42,3.12c-1.93,0.22-3.34,0.5-4.22,0.85s-1.63,0.85-2.21,1.48c-0.58,0.63-1.08,1.63-1.5,3
			c-0.42,1.36-0.83,3.51-1.23,6.43l-3.04,22.5l35.33,4.77l3.04-22.5c0.5-3.69,0.66-6.23,0.48-7.64s-0.64-2.52-1.39-3.36
			c-0.75-0.83-2.33-1.76-4.74-2.77l0.42-3.12l26.63,3.6l-0.42,3.12c-2.45,0.27-4.2,0.72-5.23,1.33s-1.82,1.64-2.36,3.08
			c-0.54,1.44-1.04,3.89-1.51,7.37L484.98,1035.83z"/>
		<path d="M572.03,963.14l0.84,19.35l-6.28,0.27c-0.73-2.06-1.47-3.87-2.22-5.42c-0.75-1.55-1.52-2.85-2.29-3.88
			c-0.77-1.04-1.61-1.86-2.51-2.46c-0.91-0.6-1.96-0.99-3.17-1.18c-1.21-0.18-2.64-0.24-4.31-0.16l-20.24,0.88l1.46,33.57l13.71-0.6
			c1.88-0.08,3.34-0.41,4.39-0.99c1.04-0.58,1.89-1.53,2.54-2.84c0.65-1.31,1.23-3.35,1.76-6.11l6.02-0.26l1.07,24.6l-6.02,0.26
			c-0.71-2.54-1.46-4.44-2.24-5.71c-0.78-1.27-1.69-2.16-2.72-2.67c-1.03-0.51-2.55-0.72-4.55-0.64l-13.71,0.6l1.61,36.97
			l19.92-0.87c2.09-0.09,3.78-0.35,5.07-0.77c1.29-0.42,2.38-1.09,3.28-2c0.9-0.92,1.68-2.1,2.35-3.54
			c0.66-1.44,1.21-2.93,1.63-4.47c0.43-1.54,1.01-3.78,1.73-6.72l6.34-0.28l-0.24,22.54l-59.33,2.58l-0.14-3.14
			c2.62-0.8,4.36-1.63,5.22-2.5c0.86-0.87,1.4-2.08,1.61-3.63c0.21-1.55,0.25-3.9,0.11-7.07l-2.41-55.42
			c-0.13-2.95-0.33-5.09-0.6-6.42c-0.27-1.34-0.67-2.37-1.19-3.09c-0.52-0.73-1.2-1.3-2.03-1.71s-2.24-0.85-4.23-1.32l-0.14-3.14
			L572.03,963.14z"/>
		<path d="M645.09,1000.05l-25.84-26.98c-3.12-3.26-5.44-5.57-6.97-6.92c-1.53-1.35-2.96-2.35-4.29-3
			c-1.33-0.65-2.76-1.01-4.29-1.08l-0.84-3.03l26.33-7.29l0.84,3.03c-3.75,1.53-5.22,3.73-4.42,6.61c0.33,1.2,0.98,2.46,1.95,3.79
			c0.97,1.33,2.55,3.15,4.74,5.47l18.88,20.12l6.22-24.88c0.84-3.38,1.34-6.1,1.5-8.17c0.16-2.06,0.02-3.87-0.41-5.44
			c-0.41-1.48-1.18-2.52-2.29-3.12c-1.12-0.6-2.57-0.74-4.34-0.43l-0.84-3.03l23.42-6.49l0.84,3.03c-1.52,1.09-2.77,2.35-3.74,3.8
			c-0.97,1.45-1.86,3.28-2.67,5.5c-0.81,2.22-1.88,5.89-3.21,11l-9.07,34.05l5.54,20.03c0.65,2.35,1.3,4.21,1.95,5.58
			c0.65,1.38,1.38,2.41,2.19,3.12c0.82,0.71,1.76,1.18,2.85,1.41c1.08,0.23,2.7,0.29,4.84,0.19l0.84,3.03l-28.25,7.82l-0.84-3.03
			c1.86-0.96,3.2-1.8,4.02-2.54c0.82-0.73,1.39-1.63,1.72-2.67s0.43-2.33,0.3-3.84c-0.13-1.52-0.53-3.47-1.19-5.86L645.09,1000.05z"
			/>
		<path d="M730.71,912.56l8.16,17.56l-5.7,2.65c-1.46-1.63-2.84-3.02-4.13-4.16c-1.29-1.15-2.49-2.05-3.6-2.72
			c-1.11-0.66-2.2-1.1-3.26-1.31c-1.06-0.21-2.19-0.17-3.37,0.12c-1.18,0.29-2.53,0.79-4.04,1.49l-18.38,8.54l14.16,30.47
			l12.44-5.78c1.71-0.79,2.93-1.66,3.68-2.59c0.74-0.93,1.16-2.13,1.26-3.59c0.1-1.46-0.14-3.57-0.71-6.32l5.47-2.54l10.38,22.33
			l-5.47,2.54c-1.62-2.07-3.04-3.55-4.25-4.43c-1.21-0.88-2.39-1.35-3.53-1.43s-2.63,0.3-4.45,1.15l-12.44,5.78l15.59,33.56
			l18.09-8.41c1.9-0.88,3.36-1.76,4.39-2.64c1.03-0.88,1.79-1.91,2.27-3.1c0.48-1.19,0.76-2.58,0.82-4.16
			c0.06-1.59,0-3.17-0.19-4.76c-0.19-1.58-0.52-3.87-0.96-6.87l5.76-2.67l8.38,20.93l-53.85,25.02l-1.32-2.85
			c2.12-1.73,3.4-3.17,3.87-4.31c0.46-1.13,0.5-2.46,0.1-3.97c-0.4-1.51-1.26-3.7-2.59-6.57L689.9,949.2
			c-1.24-2.67-2.25-4.58-3.01-5.71c-0.76-1.13-1.52-1.93-2.28-2.4c-0.76-0.47-1.6-0.74-2.53-0.81c-0.93-0.06-2.4,0.07-4.41,0.39
			l-1.32-2.85L730.71,912.56z"/>
		<path d="M824.44,955.53l-1.78-2.59c1.52-1.56,2.56-2.86,3.13-3.87c0.57-1.02,0.81-2.05,0.71-3.1c-0.1-1.05-0.59-2.2-1.46-3.47
			c-0.83-1.19-1.86-2.39-3.1-3.59c-1.24-1.19-2.72-2.47-4.44-3.83l-6.65-5.46l-24.59,16.97l1.78,6.41c0.88,3.24,1.65,5.62,2.29,7.15
			c0.64,1.53,1.34,2.85,2.09,3.93c1.46,2.11,3.06,3.29,4.81,3.53c1.75,0.25,3.85-0.24,6.28-1.45l1.78,2.59l-22.54,15.55l-1.78-2.59
			c1.75-1.68,2.68-4,2.78-6.98c0.1-2.98-0.43-6.77-1.58-11.38l-18.32-73.61l8.34-5.76l58.56,46.46c2.74,2.16,4.93,3.74,6.58,4.73
			c1.65,0.99,3.21,1.58,4.68,1.76c1.48,0.18,3.14-0.09,4.99-0.79l1.78,2.59L824.44,955.53z M784.5,941.01l22.06-15.23l-33.52-27.12
			L784.5,941.01z"/>
		<path d="M850.21,885.31l15.34,15.49c2.16,2.19,3.82,3.69,4.97,4.51c1.15,0.82,2.13,1.32,2.96,1.49c0.83,0.17,1.69,0.13,2.58-0.12
			c0.89-0.25,2.23-0.87,4.02-1.86l2.21,2.23l-19.23,19.05l-2.21-2.23c1.4-2.35,2.13-4.14,2.18-5.36s-0.37-2.48-1.25-3.77
			c-0.89-1.29-2.44-3.06-4.67-5.3l-39.04-39.41c-2.08-2.1-3.66-3.55-4.76-4.36c-1.1-0.81-2.09-1.3-2.96-1.49
			c-0.88-0.19-1.76-0.15-2.65,0.1c-0.89,0.25-2.23,0.88-4.02,1.86l-2.21-2.23l22.55-22.34c7.11-7.04,13.7-11.01,19.78-11.92
			c6.08-0.91,11.82,1.36,17.2,6.79c4.12,4.16,6.48,8.84,7.08,14.03c0.59,5.19-0.59,10.87-3.55,17.05l0.36,0.36
			c2.61-1.08,5.27-1.56,7.99-1.46c2.72,0.11,6.36,0.85,10.92,2.23l11.5,3.41c3.35,1.02,6.02,1.68,8.02,1.99
			c1.99,0.31,3.73,0.34,5.21,0.07c1.48-0.26,3.07-1,4.77-2.2l2.21,2.23l-12.62,12.5c-2.75-0.46-5.56-1.11-8.43-1.94
			c-2.87-0.83-5.75-1.71-8.65-2.63l-11.54-3.64c-3.5-1.1-6.18-1.82-8.04-2.15c-1.86-0.33-3.33-0.39-4.42-0.18
			c-1.09,0.21-2.09,0.6-3,1.16c-0.91,0.57-2.11,1.59-3.6,3.07L850.21,885.31z M819.52,854.33l26.81,27.06l5.15-5.1
			c2.64-2.62,4.6-4.93,5.86-6.93c1.26-2,2.07-4.23,2.41-6.68c0.35-2.45-0.01-5.03-1.05-7.76c-1.05-2.73-2.94-5.47-5.67-8.24
			c-2.86-2.89-5.73-4.8-8.61-5.73c-2.88-0.93-5.82-0.91-8.82,0.07c-3,0.98-6.2,3.16-9.6,6.53
			C823.26,850.26,821.1,852.52,819.52,854.33z"/>
	</g>
	<g>
		<path d="M167.98,289.59c2.53,1.7,4.43,2.86,5.72,3.48c1.28,0.62,2.4,0.96,3.34,1.02c0.95,0.06,1.9-0.14,2.88-0.61
			c0.97-0.47,2.27-1.42,3.89-2.85l2.77,1.86l-16.07,23.88l-2.77-1.86c0.97-2.75,1.35-4.76,1.15-6.05c-0.2-1.29-0.9-2.51-2.09-3.67
			c-1.19-1.16-3.18-2.68-5.98-4.56l-48.94-32.94c-2.6-1.75-4.56-2.93-5.88-3.54c-1.32-0.61-2.45-0.92-3.4-0.93
			c-0.95-0.01-1.87,0.21-2.75,0.66c-0.88,0.45-2.15,1.38-3.8,2.78l-2.77-1.87l16.07-23.88l2.77,1.87c-0.7,1.94-1.09,3.42-1.17,4.43
			c-0.08,1.02,0.04,1.95,0.38,2.8c0.33,0.85,1.05,1.8,2.15,2.85c1.11,1.05,2.96,2.45,5.56,4.2L167.98,289.59z"/>
		<path d="M122.28,221.38l49.65-54.59l17.56,15.97l-4.5,4.94c-3.57-1.89-6.52-3.24-8.86-4.05c-2.34-0.81-4.31-1.2-5.92-1.19
			c-1.61,0.01-3.02,0.31-4.23,0.9c-1.21,0.59-2.66,1.81-4.34,3.66l-5.83,6.41l51.66,46.99c1.99,1.8,3.67,3.13,5.04,3.99
			c1.38,0.85,2.62,1.36,3.72,1.54c1.1,0.17,2.2,0.05,3.29-0.37s2.57-1.29,4.44-2.6l2.47,2.25l-20.97,23.05l-2.47-2.25
			c0.68-1.22,1.24-2.34,1.68-3.36c0.43-1.02,0.68-1.95,0.74-2.79c0.06-0.84-0.07-1.69-0.39-2.56c-0.31-0.87-0.91-1.87-1.78-3
			c-0.87-1.13-2.32-2.62-4.34-4.46l-51.66-46.99l-5.78,6.36c-1.44,1.58-2.47,3.02-3.1,4.32c-0.63,1.3-0.86,2.83-0.7,4.57
			c0.16,1.75,0.8,3.79,1.91,6.11s2.72,5.04,4.83,8.12l-4.54,4.99L122.28,221.38z"/>
		<path d="M196.53,140.67c1.39,0.79,2.77,1.77,4.14,2.93c1.37,1.16,2.53,2.3,3.47,3.4c1.94,2.29,3.32,4.61,4.12,6.97
			s1.23,5.08,1.27,8.18c0.04,3.1-0.34,7.31-1.13,12.63l-5.82-0.43c-0.04-3.49-0.55-6.62-1.53-9.39c-0.98-2.77-2.75-5.67-5.31-8.68
			c-0.88-1.04-1.88-2.1-2.98-3.2c-1.11-1.09-2.88-2.65-5.33-4.69L196.53,140.67z"/>
		<path d="M263.94,184.36c2.98,2.82,5.76,4.76,8.33,5.83c2.57,1.07,5.19,1.38,7.85,0.94c2.66-0.44,5.6-1.73,8.81-3.88
			c4.42-2.96,7.04-6.38,7.86-10.27c0.82-3.89-0.25-8.04-3.21-12.46c-1.9-2.83-3.98-4.88-6.25-6.15c-2.27-1.27-5.09-2.01-8.46-2.22
			c-3.37-0.21-8.1,0.08-14.18,0.88c-5.89,0.77-10.82,0.96-14.79,0.58c-3.97-0.38-7.41-1.37-10.32-2.98
			c-2.91-1.61-5.34-3.87-7.29-6.78c-2.83-4.23-4.3-8.57-4.4-13.01c-0.1-4.44,1.19-8.8,3.89-13.07c2.7-4.27,6.52-8.06,11.47-11.37
			c2.87-1.92,5.78-3.65,8.72-5.18c2.94-1.53,6.82-3.14,11.65-4.84l10.24,15.3l-5.61,3.76c-3.09-2.74-5.92-4.6-8.49-5.56
			c-2.56-0.96-4.98-1.22-7.25-0.77c-2.27,0.45-4.82,1.63-7.65,3.52c-2.46,1.65-4.35,3.57-5.69,5.78c-1.34,2.21-1.96,4.61-1.87,7.2
			c0.09,2.59,0.99,5.15,2.68,7.68c1.8,2.68,3.8,4.63,6,5.83c2.2,1.21,4.86,1.92,7.96,2.14c3.1,0.22,7.31-0.02,12.63-0.74
			c6.45-0.82,11.71-1.08,15.76-0.79c4.06,0.29,7.72,1.28,11,2.94c3.28,1.66,6.1,4.27,8.48,7.82c2.66,3.97,4.28,7.74,4.86,11.31
			c0.59,3.57,0.35,6.96-0.71,10.16c-1.06,3.2-2.87,6.22-5.43,9.05c-2.56,2.84-5.68,5.48-9.34,7.93
			c-5.93,3.97-13.44,7.55-22.53,10.73l-10.39-15.53L263.94,184.36z"/>
		<path d="M316.29,70.17l69.43-24.98l8.04,22.33l-6.29,2.26c-2.27-3.34-4.24-5.91-5.93-7.72s-3.25-3.08-4.67-3.83
			c-1.43-0.74-2.81-1.14-4.16-1.19c-1.35-0.05-3.2,0.35-5.55,1.2l-8.15,2.93l23.65,65.71c0.91,2.52,1.77,4.49,2.59,5.88
			c0.82,1.4,1.67,2.43,2.57,3.1c0.89,0.67,1.92,1.07,3.08,1.21c1.16,0.14,2.87,0.06,5.14-0.22l1.13,3.14l-29.33,10.55l-1.13-3.14
			c1.18-0.76,2.19-1.49,3.05-2.19c0.86-0.69,1.51-1.4,1.96-2.12c0.44-0.72,0.73-1.53,0.86-2.45c0.13-0.92,0.07-2.08-0.17-3.49
			c-0.24-1.41-0.83-3.4-1.75-5.97l-23.65-65.71l-8.09,2.91c-2.01,0.72-3.6,1.51-4.77,2.37c-1.17,0.85-2.09,2.09-2.76,3.71
			c-0.67,1.62-1.07,3.72-1.18,6.29c-0.11,2.58,0.04,5.73,0.46,9.44l-6.35,2.29L316.29,70.17z"/>
		<path d="M493.46,103.66c0.37,2.61,0.71,4.56,1.03,5.84c0.32,1.29,0.69,2.3,1.12,3.04c0.43,0.75,0.9,1.33,1.42,1.76
			c0.52,0.43,1.23,0.79,2.12,1.08c0.89,0.29,2.25,0.53,4.06,0.73l0.47,3.31l-28.3,4l-0.47-3.31c2.39-0.98,4.02-1.92,4.9-2.83
			c0.88-0.91,1.4-2.17,1.56-3.8c0.16-1.63-0.02-4.31-0.55-8.05l-4-28.29l-37.55,5.31l4,28.29c0.43,3.02,0.84,5.21,1.24,6.58
			s0.89,2.42,1.48,3.16c0.59,0.75,1.38,1.32,2.38,1.73c1,0.41,2.57,0.74,4.72,0.99l0.47,3.31l-28.43,4.02l-0.47-3.31
			c2.69-1.11,4.45-2.18,5.27-3.19c0.82-1.01,1.26-2.35,1.33-4.01c0.06-1.66-0.14-4.16-0.61-7.49l-8.26-58.41
			c-0.44-3.11-0.87-5.35-1.3-6.74c-0.43-1.39-0.95-2.44-1.58-3.15c-0.63-0.72-1.41-1.25-2.33-1.6c-0.92-0.35-2.46-0.67-4.61-0.96
			l-0.47-3.31l28.43-4.02l0.47,3.31c-1.91,0.78-3.27,1.47-4.08,2.09c-0.81,0.62-1.42,1.34-1.83,2.15c-0.41,0.82-0.64,1.98-0.68,3.5
			c-0.04,1.52,0.16,3.83,0.6,6.94l3.38,23.9l37.55-5.31l-3.38-23.9c-0.55-3.92-1.12-6.57-1.71-7.96c-0.59-1.39-1.38-2.4-2.39-3.04
			c-1.01-0.64-2.89-1.13-5.65-1.47l-0.47-3.31l28.29-4l0.47,3.31c-2.43,0.99-4.09,1.95-4.97,2.87c-0.88,0.93-1.39,2.21-1.53,3.83
			c-0.14,1.63,0.06,4.29,0.58,7.98L493.46,103.66z"/>
		<path d="M585.06,30.54l-1.21,20.56l-6.67-0.39c-0.55-2.26-1.14-4.26-1.77-5.98s-1.29-3.17-1.99-4.36
			c-0.71-1.18-1.51-2.14-2.39-2.87c-0.89-0.73-1.97-1.26-3.22-1.59c-1.26-0.32-2.77-0.54-4.54-0.64L541.75,34l-2.1,35.68l14.57,0.86
			c2,0.12,3.58-0.08,4.75-0.58c1.17-0.5,2.17-1.41,2.99-2.73c0.83-1.32,1.67-3.41,2.52-6.27l6.4,0.38l-1.53,26.14l-6.4-0.38
			c-0.48-2.76-1.06-4.86-1.75-6.29c-0.69-1.43-1.55-2.47-2.58-3.12c-1.03-0.65-2.62-1.04-4.75-1.17l-14.57-0.86l-2.31,39.28
			l21.17,1.25c2.22,0.13,4.04,0.05,5.45-0.26c1.41-0.3,2.64-0.89,3.69-1.76c1.05-0.87,2.01-2.03,2.87-3.49
			c0.86-1.45,1.59-2.97,2.21-4.55s1.47-3.89,2.56-6.92l6.74,0.39l-2.7,23.82l-63.05-3.71l0.2-3.33c2.86-0.56,4.79-1.26,5.79-2.09
			c1.01-0.83,1.7-2.05,2.09-3.67c0.39-1.62,0.68-4.1,0.88-7.46l3.46-58.89c0.18-3.13,0.2-5.42,0.06-6.86
			c-0.14-1.44-0.45-2.57-0.93-3.4c-0.48-0.82-1.13-1.5-1.96-2.03c-0.83-0.53-2.28-1.15-4.33-1.86l0.2-3.34L585.06,30.54z"/>
		<path d="M742.5,78.61c-2.05-0.22-3.58-0.25-4.58-0.08c-1.01,0.16-1.88,0.51-2.63,1.03c-0.75,0.52-1.5,1.45-2.25,2.77
			c-0.75,1.32-1.67,3.46-2.75,6.4l-20.31,55.39c-1.05,2.86-1.72,4.99-2.01,6.38c-0.29,1.39-0.36,2.56-0.19,3.49
			c0.17,0.93,0.59,1.82,1.28,2.65s1.92,1.87,3.7,3.1l-1.15,3.14l-26.7-9.79l1.15-3.14c2.65,0.29,4.59,0.23,5.81-0.19
			c1.22-0.42,2.27-1.32,3.17-2.69c0.89-1.37,1.97-3.78,3.23-7.24l8.99-24.52c2.36-6.45,4.85-12.93,7.46-19.46s4.49-10.96,5.64-13.3
			l-1.09-0.4l-48.62,54.16l-7.36-2.7l0.07-73.12l-1.09-0.4c-0.74,2.68-2.27,7.48-4.58,14.38c-2.31,6.9-4.79,13.96-7.44,21.17
			l-8.59,23.44c-1.05,2.86-1.72,4.99-2.01,6.38c-0.29,1.39-0.36,2.56-0.19,3.49c0.17,0.93,0.59,1.81,1.28,2.65
			c0.69,0.83,1.92,1.86,3.69,3.1l-1.15,3.14l-23.37-8.57l1.15-3.14c2.9,0.29,4.94,0.18,6.15-0.32c1.2-0.5,2.22-1.47,3.06-2.91
			c0.84-1.44,1.84-3.73,3-6.89l20.3-55.39c1.08-2.95,1.76-5.13,2.04-6.55c0.28-1.42,0.31-2.6,0.09-3.52
			c-0.22-0.93-0.65-1.76-1.29-2.51c-0.65-0.75-1.85-1.76-3.61-3.03l1.15-3.14l22.86,8.38l-0.36,70.54l47.56-53.24l21.64,7.94
			L742.5,78.61z"/>
		<path d="M750.9,190.27c-4.54-3.02-8.19-6.52-10.92-10.49c-2.74-3.97-4.39-8.43-4.96-13.37c-0.57-4.93,0.05-10.35,1.86-16.24
			s5-12.27,9.55-19.12c5.61-8.45,11.71-14.84,18.32-19.19c6.6-4.35,13.34-6.51,20.24-6.5c6.89,0.02,13.5,2.13,19.82,6.33
			c6.74,4.48,11.43,9.73,14.05,15.76c2.63,6.03,3.19,12.71,1.68,20.03c-1.51,7.32-5.01,15.13-10.52,23.43
			c-5.89,8.86-12.18,15.46-18.88,19.8c-6.7,4.34-13.47,6.42-20.32,6.24C763.98,196.77,757.34,194.54,750.9,190.27z M759.19,137.24
			c-7.72,11.63-11.9,21.6-12.54,29.91c-0.64,8.31,2.3,14.63,8.82,18.96c4.13,2.74,8.51,3.75,13.13,3.03
			c4.63-0.72,9.35-3.14,14.15-7.26c4.81-4.12,9.47-9.57,13.97-16.35c5.48-8.26,9.19-15.66,11.11-22.22
			c1.92-6.55,2.25-12.03,0.96-16.43c-1.28-4.4-3.85-7.88-7.72-10.45c-3.41-2.26-6.86-3.41-10.36-3.44
			c-3.5-0.03-7.03,0.89-10.59,2.75c-3.56,1.86-7.09,4.64-10.6,8.31C766.03,127.73,762.58,132.12,759.19,137.24z"/>
		<path d="M811.74,208.24c-2.13,3.51-3.44,6.63-3.94,9.37c-0.5,2.74-0.26,5.37,0.73,7.88c0.99,2.51,2.87,5.1,5.65,7.79
			c3.83,3.7,7.72,5.54,11.69,5.52c3.97-0.02,7.81-1.94,11.5-5.76c2.37-2.45,3.94-4.92,4.7-7.41c0.76-2.49,0.89-5.4,0.39-8.74
			c-0.51-3.34-1.79-7.9-3.85-13.68c-1.99-5.59-3.22-10.37-3.69-14.34c-0.47-3.96-0.22-7.54,0.74-10.72
			c0.96-3.19,2.66-6.03,5.09-8.55c3.54-3.66,7.47-6.01,11.8-7.05c4.32-1.04,8.85-0.69,13.59,1.05c4.74,1.74,9.25,4.67,13.53,8.82
			c2.48,2.4,4.78,4.88,6.9,7.43c2.12,2.55,4.51,6.01,7.19,10.37l-12.8,13.24l-4.85-4.69c2.03-3.6,3.24-6.76,3.65-9.47
			c0.4-2.71,0.15-5.12-0.77-7.25c-0.92-2.12-2.6-4.37-5.06-6.74c-2.12-2.06-4.41-3.5-6.85-4.35c-2.44-0.84-4.92-0.95-7.43-0.31
			c-2.51,0.64-4.83,2.05-6.95,4.24c-2.24,2.32-3.72,4.69-4.44,7.09c-0.72,2.41-0.85,5.15-0.42,8.23c0.44,3.08,1.57,7.15,3.39,12.19
			c2.16,6.14,3.52,11.22,4.09,15.25c0.56,4.03,0.38,7.81-0.56,11.37c-0.94,3.55-2.89,6.87-5.86,9.94
			c-3.32,3.43-6.66,5.81-10.03,7.14c-3.37,1.33-6.73,1.81-10.08,1.45c-3.35-0.36-6.68-1.5-9.99-3.4c-3.31-1.91-6.55-4.39-9.72-7.46
			c-5.13-4.96-10.21-11.55-15.23-19.76l12.99-13.43L811.74,208.24z"/>
		<path d="M910.92,205.61l43.68,59.47l-19.13,14.05l-3.96-5.39c2.56-3.12,4.46-5.75,5.72-7.88c1.25-2.13,2.03-3.99,2.34-5.57
			c0.31-1.58,0.29-3.02-0.05-4.33c-0.34-1.3-1.25-2.96-2.73-4.98l-5.13-6.98l-56.28,41.34c-2.16,1.59-3.8,2.97-4.9,4.15
			c-1.11,1.18-1.86,2.29-2.24,3.34c-0.39,1.05-0.49,2.15-0.29,3.3c0.2,1.15,0.75,2.77,1.67,4.87l-2.69,1.98l-18.45-25.12l2.69-1.98
			c1.06,0.91,2.05,1.68,2.96,2.31s1.78,1.05,2.59,1.27c0.81,0.22,1.68,0.26,2.59,0.13c0.92-0.14,2.02-0.52,3.3-1.15
			s3.03-1.76,5.23-3.37l56.28-41.34l-5.09-6.93c-1.26-1.72-2.47-3.02-3.62-3.9s-2.6-1.4-4.34-1.59c-1.75-0.19-3.87,0.03-6.37,0.66
			c-2.5,0.62-5.47,1.67-8.92,3.12l-4-5.44L910.92,205.61z"/>
	</g>
	<g>
		<g>
			<path class="st1" d="M619.86,742.61c1.79,0.48,4.1,0.34,5.87-0.11c2.63-0.67,7.34-2.39,6.98-5.86c-0.14-1.39-0.25-2.8-0.2-4.21
				c0.05-1.4,0.32-2.75,0.18-4.15c-0.12-1.21-1.93-2.02-2.87-2.23c-1.53-0.35-3.08-0.31-4.63-0.06c-2.89,0.46-6.56,1.74-7.72,4.72
				c-1.1,2.83-0.81,6.61-0.59,9.59C616.98,741.57,618.92,742.37,619.86,742.61z"/>
			<path class="st1" d="M822.16,766.39c-4.48,18.89-12.82,28.71-19.52,33.73c-0.98,0.87-2,1.69-3.1,2.42
				c-2.34,1.55-4.7,2.38-6.98,2.64c-0.01,0-0.04,0.01-0.04,0.01v0c-8.46,0.93-16-6.07-18.23-14.89c-2.12-8.4-1.16-17.5,1.82-25.75
				c4.45,0.21,8.9-0.6,13.05-2.44c4.88-2.17,12.07-6.93,12.1-12.99c0.03-6.76-5.98-9.41-11.86-9.38c-8.14,0.04-15.5,4.1-20.68,10.23
				c-7.72,9.15-12.52,22.51-12.03,35.06c-1.39,5-2.77,10.01-4.58,14.89c-1.45,3.92-3.03,7.79-4.71,11.61
				c-1.42,3.23-3.68,9.98-7.2,11.56c-6.25,2.82-5.59-13.07-5.37-16.18c0.68-9.46,1.19-18.92,1.69-28.38
				c0.31-5.97,1.72-13.64-2.69-18.58c-4.41-4.93-12.76-3.66-17.8-0.66c-5.81,3.44-9.58,8.52-12.21,14.28
				c0.21-6.47,0.57-12.96,0.3-19.47c-0.23-5.58-1.59-11.45-7.03-14.2c-4.55-2.3-10.91-1.66-15.09,1.18
				c-8.01,5.46-12.21,16.75-14.55,25.67c-0.87,3.32-1.68,6.65-2.45,10c0.09-5.28,0.35-10.55,0.58-15.83
				c0.29-6.61-15.27-3.97-15.95,1.39c-0.74,5.76-1.03,11.59-1.1,17.42c-1.81,6.17-3.27,12.46-5.44,18.5
				c-1.01,2.8-3.22,9.07-6.72,9.6c-3.11,0.47-5.72-3.64-6.81-6.23c-3.08-7.31-1.39-16.61-0.6-24.25c0.45-4.33,1.04-8.65,1.73-12.95
				c0.53-3.3,1.67-6.94,1.46-10.29c-0.12-1.87-3.32-2.53-4.66-2.54c-3.23-0.04-6.26,0.49-8.89,2.49c-3.65,2.77-3.58,9.78-4.22,13.89
				c-0.67,4.32-1.17,8.68-1.58,13.05c-3.65,13.99-7.15,28.09-11.65,41.79c-1.32,4.01-2.82,8.12-5.09,11.7
				c-0.16,0.25-2.75,4.23-2.68,4.22c-1.34,0.11-3-3.3-3.5-4.19c-3.78-6.72-4.44-14.78-4.87-22.32c-1.05-18-1.78-36.01-1.93-54.04
				c-0.08-8.74,0.24-17.52,0.51-26.31c4.83-0.02,18.63,0.23,17.38-6.52c-0.49-2.7-4.9-2.64-6.81-2.59
				c-3.45,0.09-6.9,0.19-10.35,0.28c0.13-6.29,0.17-12.57-0.06-18.82c-0.05-1.21-2.03-2.06-2.9-2.26c-2.65-0.61-4.81-0.92-7.32,0.4
				c-2,1.05-4.34,2.03-5.19,4.32c-0.94,2.57-0.5,6.31-0.63,9.02c-0.12,2.61-0.2,5.23-0.3,7.84c-3.06,0.11-6.12,0.24-9.18,0.38
				c-2.67,0.13-7.66,1.55-8.69,4.44c-0.98,2.76,1.73,4.28,4.35,4.24c4.4-0.06,8.81-0.16,13.21-0.28
				c-0.3,10.62-0.36,21.24-0.24,31.86c0.12,11.26,0.45,22.53,0.97,33.78c0.48,10.4,0.16,21.81,3.13,31.88
				c2.39,8.07,8.8,15.34,17.81,15c7.98-0.3,13.31-5.59,16.77-12.35c4.28-8.37,6.26-17.72,8.61-26.76c1.52,3.58,4.06,6.59,8.27,8.39
				c8.53,3.66,18.86-0.51,24.42-7.39c1.02-1.26,1.82-2.65,2.55-4.09c0.12,2.98,0.05,7.49,1.96,9.25c3.5,3.24,13.83,1.53,15.18-3.5
				c0.22-0.82,0.28-1.72,0.25-2.64c0.04-0.1,0.1-0.19,0.12-0.29c2.47-10.52,4.8-21.06,7.15-31.6c1.83-8.19,3.6-17.38,8.82-24.2
				c0.63-0.86,1.34-1.65,2.1-2.39c0.36,0.29,0.68,0.64,0.94,1.07c0.73,1.2,1.21,2.49,1.45,3.87c1.1,4.81,0.36,10.48,0.18,15.36
				c-0.38,10.15-0.98,20.24,0.57,30.32c-0.93,2.98,5.21,3.88,7.15,3.73c2.89-0.24,9.37-1.99,9.56-5.71c0.59-0.4,1.01-0.88,1.12-1.43
				c1.09-5.6,2.49-11.15,4.5-16.49c0.89-2.36,4.42-13.35,7.43-13.66c2.7-0.28,2.82,6.7,2.83,8.24c0.11,9.62-1.27,19.37-1.71,28.98
				c-0.31,6.64-1.83,14.9,0.92,21.2c5.71,13.11,24.64,7.08,31.1-1.94c4.32-6.02,6.85-13.69,9.32-20.66
				c6.8,13.01,23.22,16.79,36.75,11.34c17.98-7.24,25.76-26.32,31.21-43.38C829.02,765.85,825.23,765.49,822.16,766.39z
				 M780.61,755.08c1.19-1.95,3.07-5.39,5.24-6.43c1.7-0.82,5.72,0.07,6.32,2.23c0.87,3.17-4.7,6.85-6.97,7.86
				c-2.3,1.02-4.68,1.26-7.08,1C778.87,758.13,779.71,756.57,780.61,755.08z"/>
		</g>
	</g>
	<g>
		<path d="M164.67,749.09l-32.1-8.54l1.94-55.62l-22.09,50.26l-32.18-8.56L89.54,583l30.99,8.24l-6.32,74.14l20.43-47.79l28.76,7.65
			l-2.5,52.56l26.31-68.82l30.99,8.24L164.67,749.09z"/>
		<path d="M268.43,759.91c-17.6,0.53-30.99-6.25-40.17-20.36c-7.98-12.28-12.26-28.07-12.84-47.37c-0.58-19.3,2.73-35.29,9.95-47.97
			c8.31-14.7,21.26-22.31,38.86-22.84c17.66-0.54,31.08,6.28,40.26,20.45c7.92,12.22,12.17,27.98,12.76,47.28
			c0.58,19.3-2.7,35.32-9.87,48.06C299.06,751.79,286.08,759.38,268.43,759.91z M267.39,725.64c13.01-0.39,19.16-12.26,18.45-35.59
			c-0.71-23.33-7.57-34.8-20.58-34.4c-13.01,0.39-19.16,12.26-18.45,35.59C247.52,714.56,254.38,726.03,267.39,725.64z"/>
		<path d="M446.13,711.07l-30.64,12.41l-39.76-42.16l21.43,50.21l-30.72,12.45l-51.61-120.73l30.72-12.45l44.71,47.42l-22.07-57.28
			l30.64-12.42L446.13,711.07z"/>
		<path d="M473.25,691.57l-56.7-118.42l29.89-14.31c19.66-9.08,37.67-8.03,54.03,3.17c10.52,7.23,19.13,18,25.85,32.33
			c4.8,10.24,7.51,20.62,8.12,31.12c0.61,10.51-1.57,20.3-6.52,29.37c-4.96,9.07-13.22,16.55-24.77,22.43L473.25,691.57z
			 M488.36,646.32c7.99-4.08,12.52-9.62,13.58-16.63c1.02-6.72-0.29-13.95-3.92-21.68c-4.11-8.77-9.23-14.94-15.34-18.52
			c-6.12-3.58-13.29-3.5-21.51,0.22L488.36,646.32z"/>
		<path d="M570.35,648.26l-56.36-118.61l65.89-31.69l12.99,27.3l-35.81,17.78l8.73,18.43l29.45-14.12l12.47,26.15l-29.52,14.16
			l9.25,19.39l35.81-17.78l12.99,27.3L570.35,648.26z"/>
		<path d="M712.4,589.92l-40.81-15.15l9.3,23.4l-30.75,12.15l-48.61-121.99l30.79-12.06c17.71-6.4,32.24-7.81,43.56-4.22
			c11.33,3.59,19.54,11.46,24.65,23.6c3.33,7.93,4.31,15.97,2.93,24.12c-1.54,9.46-6.24,17.96-14.1,25.51l32,10.72L712.4,589.92z
			 M655.02,532.99c15.33-6.44,21.16-14.02,17.5-22.72c-3.38-8.04-12.74-9.2-28.07-3.47l10.49,26.23L655.02,532.99z"/>
		<path d="M778.04,559.71l-31.43,10.53L704.8,445.78l69.31-23.21l9.68,28.64l-37.89,13.16l9.83,29.06l31.12-10.42l9.27,27.44
			L765,520.87L778.04,559.71z"/>
		<path d="M874.94,534.33c-7.46,1.71-14.21,1.65-20.24-0.18c-20.36-6.07-35.19-29.43-44.5-70.06c-3.68-16.07-6.72-32.77-9.13-50.12
			l30.62-7.02c2.87,17.67,5.73,32.72,8.58,45.15c4.17,18.18,8.25,31.19,12.27,39.03c4.01,7.84,8.92,11.1,14.74,9.77
			c5.76-1.32,8.73-6.38,8.93-15.19c0.2-8.81-1.79-22.3-5.95-40.48c-2.85-12.43-6.83-27.23-11.94-44.38l30.62-7.02
			c5.39,16.66,9.93,33.03,13.61,49.09c4.97,21.7,6.36,39.64,4.18,53.85C903.61,517.67,893.01,530.19,874.94,534.33z"/>
		<path d="M999.77,513.69l-62.18,3.54l-7.26-144.27l33.09-1.96L969,482.55l29.06-2.07L999.77,513.69z"/>
	</g>
</g>
</svg>
